<svg width="24" height="22" viewBox="0 0 24 22" fill="none" xmlns="http://www.w3.org/2000/svg">
<path d="M22.3461 5.83962H19.1694C18.9497 5.83962 18.739 5.75223 18.5836 5.59667C18.4282 5.4411 18.3409 5.23011 18.3409 5.01011V1.82951C18.3409 1.60951 18.4282 1.39852 18.5836 1.24296C18.739 1.08739 18.9497 1 19.1694 1H22.3461C22.5658 1 22.7766 1.08739 22.9319 1.24296C23.0873 1.39852 23.1746 1.60951 23.1746 1.82951V5.01011C23.1746 5.23011 23.0873 5.4411 22.9319 5.59667C22.7766 5.75223 22.5658 5.83962 22.3461 5.83962Z" stroke="#2C60AE" stroke-width="0.8" stroke-miterlimit="10"/>
<path d="M21.5731 2.18164H19.9426C19.7098 2.18164 19.5211 2.37057 19.5211 2.60363V4.23613C19.5211 4.46919 19.7098 4.65812 19.9426 4.65812H21.5731C21.8058 4.65812 21.9945 4.46919 21.9945 4.23613V2.60363C21.9945 2.37057 21.8058 2.18164 21.5731 2.18164Z" stroke="#2C60AE" stroke-width="0.8" stroke-miterlimit="10"/>
<path d="M14.1047 7.58341V3.42139H18.3386" stroke="#2C60AE" stroke-width="0.8" stroke-miterlimit="10"/>
<path d="M19.1694 16.1528C18.9497 16.1528 18.739 16.2402 18.5836 16.3958C18.4282 16.5514 18.3409 16.7623 18.3409 16.9823V20.1702C18.3409 20.3902 18.4282 20.6012 18.5836 20.7567C18.739 20.9123 18.9497 20.9997 19.1694 20.9997H22.3461C22.5658 20.9997 22.7766 20.9123 22.9319 20.7567C23.0873 20.6012 23.1746 20.3902 23.1746 20.1702V16.9823C23.1746 16.7623 23.0873 16.5514 22.9319 16.3958C22.7766 16.2402 22.5658 16.1528 22.3461 16.1528H20.8818" stroke="#2C60AE" stroke-width="0.8" stroke-miterlimit="10" stroke-linecap="round"/>
<path d="M19.5211 17.7561V19.3886C19.5211 19.6216 19.7098 19.8105 19.9426 19.8105H21.5731C21.8058 19.8105 21.9945 19.6216 21.9945 19.3886V17.7561C21.9945 17.523 21.8058 17.3341 21.5731 17.3341H19.9426C19.7098 17.3341 19.5211 17.523 19.5211 17.7561Z" stroke="#2C60AE" stroke-width="0.8" stroke-miterlimit="10"/>
<path d="M14.1047 14.4116V18.5736H18.3386" stroke="#2C60AE" stroke-width="0.8" stroke-miterlimit="10"/>
<path d="M1.78088 16.1528H4.95755C5.17727 16.1528 5.388 16.2402 5.54337 16.3958C5.69875 16.5514 5.78603 16.7623 5.78603 16.9823V20.1702C5.78603 20.3902 5.69875 20.6012 5.54337 20.7567C5.388 20.9123 5.17727 20.9997 4.95755 20.9997H1.78088C1.56115 20.9997 1.35042 20.9123 1.19505 20.7567C1.03968 20.6012 0.952393 20.3902 0.952393 20.1702V16.9823C0.952393 16.7623 1.03968 16.5514 1.19505 16.3958C1.35042 16.2402 1.56115 16.1528 1.78088 16.1528V16.1528Z" stroke="#2C60AE" stroke-width="0.8" stroke-miterlimit="10"/>
<path d="M2.55395 19.8105H4.18443C4.4172 19.8105 4.6059 19.6216 4.6059 19.3886V17.7561C4.6059 17.523 4.4172 17.3341 4.18443 17.3341H2.55395C2.32118 17.3341 2.13248 17.523 2.13248 17.7561L2.13248 19.3886C2.13248 19.6216 2.32118 19.8105 2.55395 19.8105Z" stroke="#2C60AE" stroke-width="0.8" stroke-miterlimit="10"/>
<path d="M10.0224 14.4116V18.5736H5.78601" stroke="#2C60AE" stroke-width="0.8" stroke-miterlimit="10"/>
<path d="M4.95755 5.83962C5.17727 5.83962 5.388 5.75223 5.54337 5.59667C5.69875 5.4411 5.78603 5.23011 5.78603 5.01011V1.82951C5.78603 1.60951 5.69875 1.39852 5.54337 1.24296C5.388 1.08739 5.17727 1 4.95755 1H1.78088C1.56115 1 1.35042 1.08739 1.19505 1.24296C1.03968 1.39852 0.952393 1.60951 0.952393 1.82951V5.01011C0.952393 5.23011 1.03968 5.4411 1.19505 5.59667C1.35042 5.75223 1.56115 5.83962 1.78088 5.83962H3.24036" stroke="#2C60AE" stroke-width="0.8" stroke-miterlimit="10" stroke-linecap="round"/>
<path d="M4.6059 4.23613V2.60363C4.6059 2.37057 4.4172 2.18164 4.18443 2.18164H2.55395C2.32118 2.18164 2.13248 2.37057 2.13248 2.60363V4.23613C2.13248 4.46919 2.32118 4.65812 2.55395 4.65812H4.18443C4.4172 4.65812 4.6059 4.46919 4.6059 4.23613Z" stroke="#2C60AE" stroke-width="0.8" stroke-miterlimit="10"/>
<path d="M10.0224 7.58341V3.42139H5.78601" stroke="#2C60AE" stroke-width="0.8" stroke-miterlimit="10"/>
<path d="M14.4539 7.60205C14.7632 7.60269 15.0597 7.72619 15.2783 7.94545C15.4968 8.1647 15.6195 8.46181 15.6195 8.77157V13.2447C15.6195 13.3979 15.5894 13.5497 15.5308 13.6913C15.4722 13.8329 15.3864 13.9616 15.2781 14.0699C15.1699 14.1783 15.0414 14.2643 14.9 14.3229C14.7585 14.3816 14.607 14.4118 14.4539 14.4118H9.9839C9.83082 14.4118 9.67925 14.3816 9.53782 14.3229C9.3964 14.2643 9.2679 14.1783 9.15965 14.0699C9.05141 13.9616 8.96555 13.8329 8.90697 13.6913C8.84839 13.5497 8.81824 13.3979 8.81824 13.2447V8.77157C8.81792 8.6181 8.84784 8.46607 8.90628 8.32419C8.96472 8.18232 9.05053 8.05337 9.1588 7.94474C9.26707 7.83611 9.39568 7.74993 9.53726 7.69112C9.67885 7.63232 9.83062 7.60205 9.9839 7.60205H14.4539Z" stroke="#2C60AE" stroke-width="0.8" stroke-miterlimit="10" stroke-linecap="round"/>
<path d="M13.9601 10.1553V12.3255C13.9595 12.4372 13.9149 12.5442 13.836 12.6232C13.757 12.7022 13.6502 12.7469 13.5386 12.7475H10.8894C10.778 12.7469 10.6714 12.7021 10.5929 12.6231C10.5144 12.544 10.4703 12.437 10.4703 12.3255V9.673C10.4703 9.56172 10.5145 9.455 10.5931 9.37631C10.6717 9.29762 10.7783 9.25342 10.8894 9.25342H13.5386" stroke="#2C60AE" stroke-width="0.8" stroke-miterlimit="10" stroke-linecap="round"/>
<path d="M12.2188 6.36527C12.683 6.36527 13.0594 5.98848 13.0594 5.5237C13.0594 5.05891 12.683 4.68213 12.2188 4.68213C11.7546 4.68213 11.3783 5.05891 11.3783 5.5237C11.3783 5.98848 11.7546 6.36527 12.2188 6.36527Z" stroke="#2C60AE" stroke-width="0.8" stroke-miterlimit="10"/>
<path d="M12.2188 7.60471V6.36768" stroke="#2C60AE" stroke-width="0.8" stroke-miterlimit="10"/>
<path d="M17.6979 11.8492C18.1622 11.8492 18.5385 11.4724 18.5385 11.0076C18.5385 10.5428 18.1622 10.166 17.6979 10.166C17.2337 10.166 16.8574 10.5428 16.8574 11.0076C16.8574 11.4724 17.2337 11.8492 17.6979 11.8492Z" stroke="#2C60AE" stroke-width="0.8" stroke-miterlimit="10"/>
<path d="M15.6195 11.0068H16.8574" stroke="#2C60AE" stroke-width="0.8" stroke-miterlimit="10"/>
<path d="M12.2188 17.335C12.683 17.335 13.0594 16.9582 13.0594 16.4934C13.0594 16.0286 12.683 15.6519 12.2188 15.6519C11.7546 15.6519 11.3783 16.0286 11.3783 16.4934C11.3783 16.9582 11.7546 17.335 12.2188 17.335Z" stroke="#2C60AE" stroke-width="0.8" stroke-miterlimit="10"/>
<path d="M12.2188 14.4116V15.6511" stroke="#2C60AE" stroke-width="0.8" stroke-miterlimit="10"/>
<path d="M6.75911 11.8492C7.22332 11.8492 7.59964 11.4724 7.59964 11.0076C7.59964 10.5428 7.22332 10.166 6.75911 10.166C6.2949 10.166 5.91858 10.5428 5.91858 11.0076C5.91858 11.4724 6.2949 11.8492 6.75911 11.8492Z" stroke="#2C60AE" stroke-width="0.8" stroke-miterlimit="10"/>
<path d="M8.83752 11.0068H7.59961" stroke="#2C60AE" stroke-width="0.8" stroke-miterlimit="10"/>
</svg>
