<svg width="20" height="20" viewBox="0 0 20 20" fill="none" xmlns="http://www.w3.org/2000/svg">
<path d="M19.4752 15.4294L15.4271 12.7298C14.9134 12.39 14.2248 12.5018 13.845 12.9868L12.6658 14.5029C12.5143 14.7027 12.2388 14.7607 12.0196 14.6389L11.7953 14.5152C11.0517 14.1099 10.1266 13.6054 8.26251 11.7407C6.39845 9.87593 5.89286 8.95005 5.48757 8.20786L5.36458 7.98355C5.24112 7.76437 5.29799 7.48773 5.49788 7.33498L7.01297 6.15617C7.49774 5.77634 7.60972 5.08793 7.27028 4.57406L4.57068 0.525989C4.2228 0.00270718 3.52486 -0.154379 2.9863 0.169362L1.29355 1.1862C0.761671 1.49889 0.371456 2.0053 0.204723 2.59931C-0.404835 4.82031 0.0537295 8.65341 5.70024 14.3006C10.1919 18.7919 13.5358 19.9997 15.8341 19.9997C16.363 20.002 16.8899 19.9332 17.4005 19.7951C17.9947 19.6286 18.5011 19.2383 18.8136 18.7063L19.8315 17.0146C20.1557 16.4759 19.9987 15.7775 19.4752 15.4294Z" fill="#2c60ae"/>
</svg>
