<svg viewBox="0 0 85 40" fill="none" xmlns="http://www.w3.org/2000/svg">

<path fill="#fff" d="M32.104 20.466h5.13v4.213l-5.13-4.213ZM31.87 21.38v6.296a13.457 13.457 0 0 0-.31-1.662c-.286-1.118-.746-2.1-1.382-2.942a6.274 6.274 0 0 0-2.41-1.941c-.972-.45-2.248-.676-3.828-.676h-8.012v.004H-.01v4.485h5.924v13.863h5.135a.174.174 0 0 1-.01-.046l-.027-11.686v-.1c-.003-1.123.787-2.001 1.816-2.374.113-.042.13-.092.129-.176h.025v-.28h.287v-.498h-.135v-.903h.862v.914h-.123v.468h.27v.298h.006c0 .083.017.133.13.174 1.03.373 1.825 1.251 1.827 2.375l.028 11.786a.175.175 0 0 1-.01.049h7.817c.96 0 2.03-.167 3.213-.5.865-.245 1.675-.73 2.43-1.46.755-.728 1.345-1.634 1.768-2.717.244-.622.416-1.395.52-2.31v6.936h5.34V25.884l-5.341-4.505Zm-16.48 2.717c-.224.01-1.113-.169-1.25-.208-.097-.029-.125-.072-.134-.119v-.038h.127v-.612h.006c.138-.04 1.025-.217 1.25-.208.225.01.263.1.264.199l.003.79c-.002.097-.04.186-.266.196Zm10.791 8.785c-.27.656-.645 1.116-1.121 1.38-.477.264-1.28.396-2.407.395h-1.322v-10.05h1.346c1.399 0 2.4.36 3.003 1.08.604.719.906 2.053.906 4 0 1.474-.135 2.538-.405 3.195ZM39.508 37.583c.314 0 .565.274.565.613 0 .338-.25.614-.567.614-.316 0-.57-.27-.57-.614 0-.345.256-.613.57-.613h.002Zm0 .095c-.252 0-.458.232-.458.518 0 .285.207.519.461.519.255 0 .462-.229.462-.518 0-.288-.206-.52-.462-.52h-.003Zm-.107.874H39.3v-.686c.06-.01.122-.016.183-.016.07-.005.14.013.198.052a.168.168 0 0 1 .06.142.17.17 0 0 1-.126.166v.005c.057.011.095.066.107.167.006.058.02.114.04.169h-.11a.592.592 0 0 1-.046-.174c-.014-.088-.055-.12-.137-.12h-.069l.002.295Zm0-.38h.071c.086 0 .157-.031.157-.115 0-.06-.04-.12-.157-.12a.54.54 0 0 0-.072.005l.001.23Z"/>
<path fill="#fff" fill-rule="evenodd" clip-rule="evenodd" d="m58.269 2.962.163.087.023-.046-.186-.041ZM58.432 3.049l-.007.013.076.023-.069-.036ZM59.8 8.514c0-.123-.266-.123-.37-.206-.198.092-.326.247-.326.453 0 .154.092.246.186.37.278-.166.51-.319.51-.617ZM77.679 10.94v-.411a3.87 3.87 0 0 0-.325.041c.022.133.092.195.092.33 0 .32-.372.421-.697.534l-.046.165c.07 0 .116.04.184.04.432 0 .687-.328.792-.698Z"/>

<path fill="#fff" fill-rule="evenodd" clip-rule="evenodd" d="M85.01 13.3c0-7.336-10.727-13.305-23.914-13.305C47.91-.005 37.18 5.965 37.18 13.3c0 4.34 3.76 8.199 9.557 10.628v13.434c0 1.294 3.154 1.873 6.278 1.873 3.136 0 6.311-.686 6.311-1.993v-6.71h3.676v6.83c0 1.294 3.153 1.873 6.277 1.873 3.136 0 6.311-.686 6.311-1.993l-.003-13.372c5.721-2.433 9.424-6.262 9.424-10.57Zm-1.44 3.486h-2.774a8.947 8.947 0 0 0 .734-3.343h2.925c-.022 1.154-.33 2.275-.885 3.343ZM63.29 3.396c.159.277.313.577.464.902-.171.006-.34.033-.505.081.039.268.31.366.31.632 0 .474-.091.766-.361 1.167a1.768 1.768 0 0 1-.215.238h-.992v-.483h-.16c.18-.131.298-.336.399-.6.04-.065.147-.283.127-.705 0-.458-.4-.805-.934-.805l-.596.009c-.314 0-.601.114-.77.306a.585.585 0 0 0-.15.452c-.023.34.062.679.242.968a.95.95 0 0 0 .265.375h-.128v.483h-2.613l.078-.302a.183.183 0 0 0 .098-.067c.138-.216.138-.401.138-.658a.059.059 0 0 0-.015-.034c.035-.11.071-.22.108-.326a.183.183 0 0 1 .045-.01c.081 0 .105.082.184.082.128 0 .209-.061.325-.082.012-.164.046-.247.046-.411 0-.134-.092-.195-.092-.33 0-.426.48-.54.711-.88l3.991-.001Zm6.79 4.493v1.67h-1.674V7.89h1.675Zm-10.757 8.828v-2.505a4.759 4.759 0 0 0-.067-.76H60.3c-.092.425-.176.856-.176 1.355 0 .908 1.356 1.35 2.58 1.35.102 0 .2.004.3.007v.553h-3.68Zm-12.585.763c-.056-.148-.117-.294-.167-.445h.167v.445Zm-.036-3.83c.013-.042.056-.065.091-.092a4.559 4.559 0 0 0-.056.68v2.536h-.25a11.324 11.324 0 0 1-.51-3.317h.372c.1.091.221.157.352.192Zm13.492-9.082a.297.297 0 0 1 .08-.24c.113-.13.325-.21.555-.21l.596-.008c.367 0 .645.223.645.524.018.39-.085.549-.085.549l-.019.035c-.17.458-.327.588-.698.588h-.225c-.412 0-.504-.076-.634-.375l-.014-.025a1.324 1.324 0 0 1-.199-.807v-.015l-.002-.016Zm1.797 2.164h5.692v.608h-5.692v-.608Zm2.452-.606c.029.096.058.191.085.29h-.38c.08-.114.18-.212.295-.29Zm-.724 3.854c-.3-.278-.487-.554-.52-.983.348.048.645.06.825.34.142.216.053.406.046.643h-.351Zm-6.627.003c.078-.851.186-1.62.316-2.326h2.878v.152a2.727 2.727 0 0 0-.392.006h.232a1.667 1.667 0 0 0-.325.206c.22.247.418.422.418.74 0 .083-.137.083-.137.165 0 .071.092.091.092.164 0 .134-.197.144-.325.206.162.072.278.124.464.124h.083c-.348.183-.76.282-.908.562l-2.396.001Zm-3.008-1.027V7.885h.392v-.229h2.666c-.126.694-.229 1.45-.307 2.281a6.826 6.826 0 0 0-2.75-.98h-.001Zm-2.31-.095a1.52 1.52 0 0 1-.188.172h-.007c-.039-.1-.103-.156-.103-.268 0-.183.157-.271.157-.452 0-.258-.238-.394-.468-.534a.618.618 0 0 0 .277-.277v.381h.331l.001.978Zm2.109-2.32h.275v1.027h-2.4V6.54h.261a1.334 1.334 0 0 0 1.863 0v.002Zm-1.791 1.344h1.675v1.67h-1.675v-1.67Zm20.79-1.125v.541c0 .317-.258.557-.605.558-.454.016-.642-.08-.642-.08l-.032-.015c-.567-.167-.662-.32-.662-.603v-.2c0-.337.067-.423.444-.556.252-.125.53-.189.811-.187.04 0 .08 0 .146.004.302-.031.54.216.54.538Zm-2.744-.22h.262v1.027h-2.399V6.54h.225a1.33 1.33 0 0 0 1.912 0Zm-7.715 2.941c.268 0 .286.3.438.498h-1.284c.218-.263.458-.496.846-.496V9.48Zm-.432-1.397v-.428h.327c-.065.165-.187.296-.327.43v-.002Zm7.189-3.099c.52 0 .943.369.943.824 0 .454-.423.823-.943.823s-.943-.369-.943-.823c0-.455.425-.824.943-.824Zm-7.237 3.143c-.063.06-.129.12-.194.187-.36.36-.609.618-.984.875-.046-.353-.456-.503-.456-.883 0-.071.092-.091.092-.164v-.015h1.542Zm-.27-.317H60.6V6.25h1.071v1.562Zm-1.387-.47h-5.81v-.608h5.81v.608Zm-5.81-.925v-.19h-.364c.066-.139.1-.29.1-.444a1.027 1.027 0 0 0-.07-.36c.077-.122.156-.242.238-.36.142.068.278.15.405.244.104.071.058.225.137.328.21.247.465.278.744.453.194.12.362.234.532.328l-1.721.001Zm-.466-1.248a1.237 1.237 0 0 0-.55-.426c.257.081.478.143.687.222a11.96 11.96 0 0 0-.137.204Zm-.116.614c0 .453-.422.823-.942.823s-.943-.368-.943-.823c0-.455.423-.823.943-.823s.943.37.943.823Zm-2.451.74-.016-.028.016-.01v.037Zm-.91-.261.033.014c.567.168.663.32.663.603v.2c0 .337-.067.423-.444.557a1.813 1.813 0 0 1-.81.186c-.04 0-.08 0-.148-.004-.294.032-.538-.216-.538-.538v-.54c0-.32.257-.559.604-.559.452-.017.641.08.641.08Zm-4.55 6.937c.003-.165.015-.329.025-.493.038.17.091.334.16.493h-.186Zm5.793-3.617v.291h2.31v-.336c2.681.392 4.663 2.3 4.663 4.676v2.505H47.312V14.24c0-2.27 1.912-4.169 4.462-4.658h.002Zm12.066 1.998c-.3-.213-.534-.433-1.008-.433-.977 0-1.34.627-2.316.737 0 .48-.079.897-.166 1.308h-1.141c-.257-1.172-.953-2.195-1.938-2.949h2.159c.028.421.613.504 1.08.504.391 0 .632-.237.853-.504h1.774c.092.084.163.175.163.312 0 .085-.092.122-.103.194l.207.098c.063-.259.18-.421.348-.604h1.375c-.5.372-.935.824-1.288 1.336h.001Zm11.633-.951.004.016-.01-.011.006-.005Zm.22-.188c.088-.074.171-.142.254-.206l4.757-.002c.364.94.557 1.94.57 2.948l-5.19.003a11.567 11.567 0 0 0-.392-2.744h.001Zm.604-.466.154-.111c.11-.075.344-.075.344-.214 0-.171-.098-.257-.098-.428 0-.107.11-.137.197-.214l.197.128c0 .225.037.438.246.556.061-.203.197-.3.197-.513 0-.288-.099-.513-.344-.686-.308-.214-.935-.032-.935-.385 0-.341.393-.576.787-.576.246 0 .393.021.64 0v-.32c-.05-.129-.147-.203-.147-.342a.164.164 0 0 1 .045-.118h.898c.203.219.396.443.579.67-.097.229-.292.398-.292.686 0 .268.222.428.492.556.172-.19.275-.353.29-.591.419.593.772 1.228 1.055 1.896l-4.305.006Zm-.387-4.94c-.246 0-.296.299-.542.299-.48 0-.763-.096-1.18-.3.061-.128.097-.213.147-.341h-.394c-.197.053-.283.17-.493.17-.417 0-.565-.341-.984-.341a1.56 1.56 0 0 0-.325.027l-.161-.152.091-.26-.098-.171c-.196 0-.383 0-.54-.049-.212-.177-.427-.35-.65-.517h3.21a18.737 18.737 0 0 1 2.659 1.703 4.752 4.752 0 0 0-.742-.07l.002.002Zm-4.951-1.17c-.392.32-.783.457-1.351.615-.222.063-.405-.075-.59.042a.687.687 0 0 0-.193.204 1.276 1.276 0 0 0-.587.339 11.935 11.935 0 0 0-1.417-1.665h3.524c.208.147.413.303.613.463v.002Zm-3.699.36c.294.333.566.684.816 1.051-.012.021-.026.041-.037.063-.353-.333-.612-.615-1.12-.615-.181 0-.285.097-.466.097-.245 0-.245-.292-.412-.437-.362-.316-.711-.377-1.086-.68-.232.194-.375.303-.672.388l.55-.185c-.12.062-.207.156-.345.234a1.186 1.186 0 0 1-.458.14c-.143-.315-.29-.609-.44-.88h2.856c.277.253.55.525.813.821l.001.002Zm-8.864-.676a.537.537 0 0 1-.176.03c-.14 0-.215-.083-.287-.182h.535l-.072.152Zm-4.727.523c-.137.247-.325.339-.371.617l.079.025a1.363 1.363 0 0 0-.427-.072c-.046 0-.089.008-.133.013l-.03-.003c-.669 0-1.364.327-1.364.903 0 .282-.246.438-.556.518-.065-.025-.133-.046-.207-.07-.062-.03-.265-.112-.662-.112h-.113a.965.965 0 0 0-.337.06 3.079 3.079 0 0 0-.33-.126 1.67 1.67 0 0 0-.343-.067 14.037 14.037 0 0 1 2.581-2.364h2.697c-.206.162-.336.424-.483.678Zm-5.13 1.686c-.179.008-.364.026-.58.026-.656 0-.917-.498-1.574-.498-.394 0-.63.079-.997.183h-.399a18.316 18.316 0 0 1 3.118-2.07h2.912a14.254 14.254 0 0 0-2.48 2.359Zm-5.198 1.652c.866 0 1.036.814 1.469 1.447.183.282.512.305.787.542-.284.131-.383.343-.415.59h-3.696c.389-.918.906-1.775 1.537-2.547.105-.021.211-.032.318-.032Zm1.827 2.84c0 .149.01.304.01.46v.634c0 .113-.105.158-.105.27 0 .331.466.379.712.59-.035.33-.06.66-.067.995l-4.896.002c.01-1.009.201-2.008.564-2.95l3.782-.002Zm.545 3.209c.003 1.124.17 2.242.497 3.318h-4.626a8.698 8.698 0 0 1-.755-3.314l4.884-.004Zm.581 3.577c.128.381.275.756.442 1.122v2.021H43.96c-.973-.984-1.735-2.04-2.26-3.144h4.596Zm.442 3.403v1.98l-.007-.004a16.892 16.892 0 0 1-2.514-1.976h2.52Zm.035-7.24c-.1-.153-.265-.275-.386-.453v-.362l.21-.046c.115.2.225.4.335.595-.025.087-.05.174-.07.263l-.089.002Zm15.805 11.541c.138-.193.28-.402.425-.63v.63h-.425Zm-3.252 0v-.615c.145.222.287.427.423.616h-.423Zm.746 0c-.233-.316-.487-.68-.746-1.105v-.073h3.678v.05c-.257.431-.51.804-.746 1.128h-2.186Zm2.931-1.438h-3.68v-.791H63l.003.791Zm-4.252-.791v2.23h-11.44v-2.23h11.44Zm-11.44 3.496h27.7v3.215h-27.7v-3.215Zm16.264-1.267v-2.23h11.436v2.23H63.575Zm11.435-3.541H47.312v-3.215H75.01v3.215Zm-11.435-4.483V14.24c0-2.287 1.936-4.195 4.513-4.669v.306h2.31v-.333c2.655.41 4.611 2.308 4.611 4.669v2.505l-11.434-.002Zm10.611-5.89v-.066h.591c.381.214.332.77.788.77a.323.323 0 0 0 .096-.018c.095.552.149 1.11.162 1.67h-.352a4.953 4.953 0 0 0-1.284-2.354v-.001Zm1.642 2.617a11.252 11.252 0 0 1-.245 2.3V14.21a4.759 4.759 0 0 0-.068-.768h.313Zm-.243 6.998h1.975c.046.057.095.114.145.166-.66.612-1.369 1.17-2.118 1.668l-.002-1.834Zm0-.26v-.116c.413-.105.704-.172 1.166-.172.265 0 .44.127.591.288h-1.757Zm3.66-1.268c-.14-.095-.292-.193-.406-.336-.348-.431-.278-.812-.464-1.316-.244.247-.231.658-.603.658-.29 0-.418-.277-.418-.535 0-.183-.278-.183-.465-.246-.104.164-.15.37-.37.37-.092 0-.092-.124-.187-.124-.347 0-.313.422-.556.617a3.039 3.039 0 0 1-.192.148v-1.107h4.814a10.698 10.698 0 0 1-1.152 1.87l-.001.001Zm-3.655-2.129c.329-1.083.497-2.208.5-3.339l5.18-.003a8.711 8.711 0 0 1-.758 3.343l-4.922-.001Zm8.865-3.603h-2.922a8.665 8.665 0 0 0-.555-2.95h2.796c.428.926.66 1.93.683 2.948l-.002.002Zm-.806-3.21h-2.765c-.352-.85-.813-1.65-1.373-2.38.153-.229.603-.267.977-.293.025-.183-.037-.31.048-.47a.223.223 0 0 1 .085-.077h.517c1.093.994 1.944 2.077 2.511 3.22ZM79.704 5.6c-.266-.077-.54-.122-.84-.268l-.493.213c-.393-.17-.603-.384-1.033-.384a3.33 3.33 0 0 1-.208-.007 18.607 18.607 0 0 0-2.613-1.757h1.289c1.455.646 2.763 1.386 3.898 2.202V5.6ZM75.2 3.138h-1.156a23.96 23.96 0 0 0-3.719-1.556c1.664.387 3.294.906 4.875 1.555ZM66.438.883c2.591.457 4.974 1.23 7.038 2.254h-3.051A16.049 16.049 0 0 0 65.16.74c.43.042.856.09 1.277.144Zm-3.576-.3c2.648.302 5.08 1.208 7.104 2.554h-3.42c-1.43-1.31-2.947-2.091-4.03-2.57l.346.015Zm-1.05-.031c1.315.549 2.888 1.322 4.348 2.585h-2.715C62.697 1.87 61.9 1.093 61.305.545c.167 0 .337.004.506.007h.001Zm-.957-.006h.063l.057.052c.573.524 1.39 1.273 2.163 2.54h-3.907a.091.091 0 0 0-.035-.01.52.52 0 0 0-.08.01h-.22c.695-1.295 1.433-2.055 1.95-2.585l.009-.007Zm-.367.005c-.53.548-1.23 1.33-1.884 2.586h-.211l.034-.075c-.328-.11-.569-.141-.946-.141-.395 0-.627.123-1.022.123a.94.94 0 0 0-.316.055c1.388-1.217 2.912-1.967 4.286-2.548h.059Zm-.755.015c-1.102.486-2.613 1.258-4.013 2.571h-3.878c1.965-1.307 4.31-2.2 6.87-2.528.336-.02.677-.033 1.02-.043h.002ZM56.39.802a16.011 16.011 0 0 0-5.01 2.333h-2.756c2.008-.996 4.316-1.756 6.825-2.216.312-.04.626-.082.941-.117Zm-4.896.872a23.784 23.784 0 0 0-3.438 1.464h-1.064c1.462-.6 2.967-1.09 4.502-1.464Zm-3.91 1.723a18.2 18.2 0 0 0-2.986 2.069h-.467c-.476-.064-.738-.17-1.192-.18a22.43 22.43 0 0 1 3.45-1.89h1.195Zm-6.945 3.748a1.034 1.034 0 0 0-.024.22c0 .317.367.396.578.633-.328.283-.63.362-.892.678.078 0 .13.046.21.046.96 0 1.372-.761 2.072-1.123a10.493 10.493 0 0 0-1.376 2.393H38.53c.495-1.003 1.207-1.957 2.109-2.847Zm-2.23 3.11h2.705a8.66 8.66 0 0 0-.55 2.95h-2.83a7.388 7.388 0 0 1 .675-2.953v.003Zm-.672 3.21h2.834c.03 1.141.279 2.266.733 3.313h-2.687c-.547-1.06-.853-2.169-.88-3.315v.002Zm1.016 3.571h2.659c.509 1.103 1.242 2.159 2.183 3.145H41.43c-1.14-.971-2.05-2.023-2.68-3.147v.002Zm7.9 6.285c-1.895-.816-3.557-1.786-4.914-2.882h2.113c.834.825 1.752 1.56 2.738 2.196l.149.091v.595h-.086Zm12.1 13.924c0 .579-2.234 1.418-5.736 1.418-3.672 0-5.703-.768-5.703-1.299v-6.831h11.438l.002 6.712Zm10.526 1.418c-3.671 0-5.702-.768-5.702-1.299v-6.831h11.437v6.71c.002.578-2.233 1.419-5.735 1.419v.001Zm6.309-15.365v-.71c.823-.538 1.599-1.146 2.318-1.818.113.072.245.11.379.108.309 0 .45-.208.596-.439h1.572c-1.344 1.084-2.99 2.046-4.865 2.858v.001Zm5.173-3.118h-1.696c.224-.266.569-.388.569-.74a.48.48 0 0 0-.176-.37c.483-.628.895-1.308 1.23-2.026h2.75c-.632 1.118-1.54 2.17-2.677 3.135v.001Z"/>
<path fill="#fff" fill-rule="evenodd" clip-rule="evenodd" d="M47.736 19.122c.017-.211.088-.356.214-.434a.61.61 0 0 1 .295-.068v1.573c0 .11-.017.183-.052.218-.035.035-.104.054-.21.054v.077h.947v-.077c-.107 0-.177-.017-.21-.054-.034-.036-.051-.109-.051-.218V18.62a.598.598 0 0 1 .295.068c.117.075.188.22.213.434h.077l-.002-.6h-1.59l-.003.6h.077ZM51.06 19.919h-.073c-.084.2-.18.338-.287.411a.726.726 0 0 1-.416.11c-.092 0-.15-.012-.179-.034a.16.16 0 0 1-.043-.128v-.72c.151 0 .256.035.315.104.059.07.097.19.116.359h.068v-1h-.068c-.028.166-.07.281-.123.344-.053.062-.156.093-.308.091v-.69a.147.147 0 0 1 .033-.113c.022-.019.074-.028.155-.028.214 0 .36.035.44.106.08.07.137.202.172.396h.067v-.603h-1.532v.075c.055 0 .11.012.16.035.051.03.077.088.077.175v1.45c0 .085-.025.143-.074.174a.345.345 0 0 1-.163.035v.075h1.556l.107-.624ZM52.168 20.599a.762.762 0 0 0 .466-.156c.103-.083.196-.178.276-.284l-.08-.073c-.07.088-.15.168-.238.238a.636.636 0 0 1-.382.128c-.223 0-.376-.13-.458-.388a1.763 1.763 0 0 1-.067-.527c0-.29.038-.522.113-.694.075-.173.202-.259.38-.26.158 0 .3.08.423.24.08.111.146.23.197.357h.067v-.698h-.075a.218.218 0 0 1-.039.092.09.09 0 0 1-.08.045 1.309 1.309 0 0 1-.19-.069.889.889 0 0 0-.691.003.854.854 0 0 0-.294.212c-.188.201-.282.464-.281.789 0 .325.098.585.294.782a.9.9 0 0 0 .659.263ZM53.973 20.465a.372.372 0 0 1-.157-.03c-.054-.03-.08-.091-.08-.178v-.69h.63v.69c0 .085-.025.143-.073.173a.324.324 0 0 1-.157.035v.076h.898v-.076a.328.328 0 0 1-.15-.032c-.053-.03-.08-.091-.08-.177v-1.45c0-.084.024-.141.071-.17a.393.393 0 0 1 .16-.038v-.074h-.9v.075c.056 0 .11.013.161.037.046.03.07.087.07.173v.62h-.63v-.622c0-.086.025-.144.075-.175a.393.393 0 0 1 .162-.035v-.073h-.902v.075c.055.003.109.016.159.04.046.03.066.086.066.17v1.45c0 .085-.026.144-.075.175a.339.339 0 0 1-.15.033v.076h.902v-.078ZM55.725 20.465c-.112-.004-.184-.037-.22-.099a.41.41 0 0 1-.033-.195v-1.172h.018l1.172 1.601h.073v-1.76c0-.092.014-.152.042-.178a.358.358 0 0 1 .168-.063v-.075h-.574v.075c.098.01.164.035.196.078s.05.115.05.216v.877h-.014l-.913-1.246h-.563v.075a.138.138 0 0 1 .077.035c.019.018.068.078.149.18v1.413a.306.306 0 0 1-.042.176c-.028.04-.09.062-.188.064v.076h.603l-.001-.078ZM57.961 20.465a.336.336 0 0 1-.186-.042c-.043-.027-.063-.083-.063-.166v-1.45c0-.089.025-.148.078-.177a.433.433 0 0 1 .171-.032v-.074h-.93v.075a.39.39 0 0 1 .165.034c.05.03.076.089.077.175v1.45c0 .088-.027.148-.08.18a.371.371 0 0 1-.162.03v.075h.93v-.078ZM59.062 20.599a.765.765 0 0 0 .467-.156c.103-.083.196-.179.275-.284l-.079-.073a1.5 1.5 0 0 1-.238.238.636.636 0 0 1-.382.128c-.222 0-.375-.13-.458-.388a1.756 1.756 0 0 1-.067-.527c0-.29.038-.522.113-.694.075-.173.202-.259.38-.26.158 0 .3.08.424.24.08.111.146.23.197.357h.067v-.698h-.075a.233.233 0 0 1-.038.092.095.095 0 0 1-.082.045 1.276 1.276 0 0 1-.19-.069.894.894 0 0 0-.691.003.851.851 0 0 0-.293.212c-.188.201-.282.464-.282.789s.098.585.294.782a.9.9 0 0 0 .658.263ZM60.507 20.465a.424.424 0 0 1-.133-.017.1.1 0 0 1-.076-.094.672.672 0 0 1 .035-.168l.077-.236H61l.069.183c.015.04.026.075.035.103a.448.448 0 0 1 .02.107c0 .052-.012.085-.04.097a.522.522 0 0 1-.17.025v.076h.865v-.076a.154.154 0 0 1-.142-.075 2.344 2.344 0 0 1-.15-.343l-.596-1.57h-.076l-.59 1.636a1.428 1.428 0 0 1-.107.254.193.193 0 0 1-.155.098v.076h.542l.002-.076Zm.184-1.326h.017l.252.69h-.51l.24-.69ZM63.52 19.865h-.077c-.078.227-.172.379-.28.457a.67.67 0 0 1-.403.118c-.09 0-.15-.01-.18-.032s-.045-.065-.045-.13v-1.41c0-.116.018-.19.054-.22.036-.03.107-.046.215-.05v-.074h-.923v.075a.36.36 0 0 1 .156.035c.05.03.074.088.074.175v1.448c0 .088-.026.148-.078.179a.332.332 0 0 1-.152.032v.075h1.532l.108-.678ZM66.342 20.224c.16-.192.243-.436.237-.686 0-.3-.079-.541-.236-.72-.172-.197-.423-.295-.751-.295h-.813v.075a.39.39 0 0 1 .15.037.172.172 0 0 1 .075.16v1.476a.171.171 0 0 1-.079.164.374.374 0 0 1-.147.032v.075h.842c.303 0 .544-.107.722-.318Zm-.876.175a.276.276 0 0 1-.03-.133v-1.468a.255.255 0 0 1 .02-.123c.022-.033.066-.05.136-.05.208 0 .356.122.444.366.058.175.086.359.082.543 0 .355-.051.594-.152.719a.476.476 0 0 1-.448.18.127.127 0 0 1-.052-.034ZM67.627 20.465a.336.336 0 0 1-.187-.042c-.041-.028-.062-.083-.062-.166v-1.45c0-.089.026-.148.078-.177a.428.428 0 0 1 .171-.032v-.074h-.93v.075a.393.393 0 0 1 .165.034c.051.03.077.089.077.175v1.45c0 .088-.027.148-.08.18a.373.373 0 0 1-.162.03v.075h.93v-.078ZM67.94 18.81l.682 1.79h.071l.607-1.757a.521.521 0 0 1 .094-.183.233.233 0 0 1 .146-.064v-.072h-.566v.075a.625.625 0 0 1 .183.032c.03.014.046.05.046.106a.36.36 0 0 1-.016.091.95.95 0 0 1-.02.07l-.354 1.01-.42-1.106a.224.224 0 0 1-.016-.086c0-.049.014-.08.041-.091a.685.685 0 0 1 .184-.027v-.074h-.886v.075c.05.002.098.022.135.057a.495.495 0 0 1 .088.153ZM70.558 20.465a.336.336 0 0 1-.187-.042c-.042-.027-.063-.083-.063-.166v-1.45c0-.089.026-.148.078-.177a.429.429 0 0 1 .172-.032v-.074h-.93v.075a.387.387 0 0 1 .165.034c.05.03.076.088.076.175v1.45c0 .088-.027.148-.08.18a.37.37 0 0 1-.16.03v.075h.93l-.001-.078ZM71.251 20.465c-.11-.004-.183-.037-.219-.099a.4.4 0 0 1-.034-.194v-1.173h.018l1.172 1.601h.073v-1.76c0-.092.014-.152.042-.178a.358.358 0 0 1 .168-.063v-.075h-.574v.075c.098.01.163.035.197.078.033.043.049.115.049.216v.877h-.013l-.914-1.246h-.563v.075a.138.138 0 0 1 .077.035c.019.018.068.078.149.18v1.413a.302.302 0 0 1-.042.176c-.028.04-.092.062-.187.064v.076h.601v-.078ZM73.568 20.599c.15.002.299-.02.442-.063.1-.028.197-.07.286-.126v-.385c0-.102.014-.172.046-.21.03-.036.091-.057.183-.06v-.076h-.911v.075a.501.501 0 0 1 .195.03c.05.028.074.088.074.18v.315a.228.228 0 0 1-.033.137c-.04.054-.115.08-.23.08a.416.416 0 0 1-.423-.291 1.874 1.874 0 0 1-.11-.665c0-.303.04-.538.118-.705.079-.167.204-.25.376-.25.157 0 .298.08.423.24.08.11.145.23.196.356h.067v-.699h-.075a.298.298 0 0 1-.043.104.083.083 0 0 1-.07.034.816.816 0 0 1-.204-.069.865.865 0 0 0-1.004.245c-.173.212-.264.48-.255.753 0 .295.082.54.246.736.174.21.41.314.706.314ZM49.142 26.77c.059 0 .118.01.173.033.053.03.08.087.08.172v1.415c0 .086-.028.144-.084.174a.407.407 0 0 1-.17.03v.073h.977v-.073a.371.371 0 0 1-.197-.042c-.043-.027-.065-.081-.065-.162v-1.415c0-.086.027-.144.081-.173a.483.483 0 0 1 .18-.03v-.075h-.975v.074ZM51.522 26.77c.103.01.172.035.206.077.035.042.052.112.052.21v.857h-.013l-.958-1.216h-.59v.073c.029.004.057.015.08.034.02.018.071.076.156.176v1.377a.282.282 0 0 1-.046.171c-.03.04-.096.06-.197.063v.074h.631v-.074c-.116-.004-.192-.036-.229-.097a.365.365 0 0 1-.036-.19v-1.143h.02l1.23 1.562h.077v-1.718c0-.092.014-.148.046-.173a.39.39 0 0 1 .176-.062v-.074h-.603l-.002.074ZM52.243 26.697l-.002.586h.08c.018-.207.092-.348.225-.424a.689.689 0 0 1 .31-.067v1.535c0 .106-.018.177-.055.213-.037.036-.11.053-.22.053v.074h.994v-.074c-.112 0-.184-.017-.221-.052-.038-.036-.053-.107-.053-.214v-1.535a.673.673 0 0 1 .31.067c.122.074.197.215.224.424h.079v-.586h-1.67ZM55.432 28.461a.807.807 0 0 1-.437.107c-.094 0-.157-.01-.187-.033a.146.146 0 0 1-.046-.125v-.701c.159 0 .269.033.33.101.062.068.102.183.122.35h.07v-.977h-.07c-.03.163-.073.275-.13.337-.055.062-.163.092-.323.09v-.675a.135.135 0 0 1 .035-.11c.023-.018.077-.028.162-.028.223 0 .378.035.462.104.085.07.145.199.18.387h.071v-.59h-1.607v.073c.058 0 .115.011.168.034.054.029.08.085.08.17v1.415c0 .083-.025.14-.077.17a.39.39 0 0 1-.171.034v.073h1.633l.111-.607h-.077c-.087.197-.186.33-.299.401ZM57.726 28.536l-.59-.828a.665.665 0 0 0 .283-.13.449.449 0 0 0 .176-.375c0-.213-.112-.362-.335-.445a1.38 1.38 0 0 0-.451-.061h-.897v.073c.094.009.154.024.181.046.04.034.06.107.06.219v1.293c0 .108-.017.178-.05.21-.035.032-.098.05-.19.055v.074h.935v-.074c-.097-.004-.161-.023-.193-.059-.032-.035-.046-.104-.046-.206v-.572h.003l.648.912h.58v-.074a.214.214 0 0 1-.064-.013.119.119 0 0 1-.05-.045ZM57 27.58c-.079.05-.21.077-.393.08v-.738a.117.117 0 0 1 .035-.096c.023-.02.072-.03.147-.03.137 0 .232.056.284.167.034.084.05.175.046.267 0 .183-.041.3-.12.35ZM59.223 26.77c.103.01.172.035.206.077.035.042.051.112.051.21v.857h-.014l-.957-1.216h-.59v.073c.029.003.057.015.08.034.02.018.072.076.156.176v1.377a.28.28 0 0 1-.046.171c-.03.04-.095.06-.196.063v.074h.63v-.074c-.115-.004-.192-.036-.228-.097a.369.369 0 0 1-.036-.19v-1.143h.02l1.23 1.562h.076v-1.718c0-.092.015-.148.046-.173a.389.389 0 0 1 .176-.062v-.074h-.603l-.001.074ZM61.519 28.185l-.624-1.531h-.08l-.62 1.596c-.029.086-.067.169-.112.247a.206.206 0 0 1-.162.097v.074h.569v-.074a.495.495 0 0 1-.14-.017c-.054-.02-.08-.05-.08-.091a.604.604 0 0 1 .037-.165l.08-.229h.62l.071.18c.016.038.029.072.038.1.012.034.02.07.022.105 0 .05-.014.082-.042.095a.588.588 0 0 1-.178.024v.073h.906v-.073a.162.162 0 0 1-.148-.073 2.122 2.122 0 0 1-.157-.338Zm-1.09-.212.25-.672h.019l.265.672h-.535ZM61.74 26.697l-.003.586h.081c.017-.207.092-.348.224-.424a.689.689 0 0 1 .31-.067v1.535c0 .106-.018.177-.055.213-.036.036-.109.053-.22.053v.074h.993v-.074c-.112 0-.183-.017-.22-.052-.038-.036-.054-.107-.054-.214v-1.535a.671.671 0 0 1 .31.067c.122.074.197.215.224.424h.08l-.002-.586H61.74ZM63.56 26.77c.06 0 .12.01.174.033.053.03.08.087.08.172v1.415c0 .086-.028.144-.084.174a.41.41 0 0 1-.17.03v.073h.977v-.073a.373.373 0 0 1-.196-.042c-.046-.027-.066-.081-.066-.162v-1.415c0-.086.027-.144.082-.173a.478.478 0 0 1 .18-.03v-.075h-.976v.074ZM65.67 26.654a.936.936 0 0 0-.716.299c-.184.196-.275.447-.275.751-.006.261.088.514.263.709a1.009 1.009 0 0 0 1.431.026c.192-.194.288-.444.288-.75s-.096-.556-.288-.75a.941.941 0 0 0-.702-.285Zm.433 1.583c-.078.258-.222.387-.433.387-.21 0-.355-.129-.434-.387a1.942 1.942 0 0 1-.063-.549 1.968 1.968 0 0 1 .062-.542c.078-.262.224-.393.436-.393.152 0 .275.078.362.236.087.157.134.39.134.699a1.95 1.95 0 0 1-.064.549ZM68.1 26.77c.102.01.171.035.206.077.034.042.051.112.051.21v.857h-.014l-.957-1.216h-.59v.073c.03.003.058.015.08.034.02.018.072.076.157.176v1.377a.282.282 0 0 1-.046.171c-.03.04-.095.06-.197.063v.074h.632v-.074c-.117-.004-.193-.036-.23-.097a.364.364 0 0 1-.035-.19v-1.143h.02l1.228 1.562h.077v-1.718c0-.092.014-.148.046-.173a.388.388 0 0 1 .175-.062v-.074h-.602l-.002.074ZM70.395 28.185l-.625-1.531h-.08l-.618 1.596a1.4 1.4 0 0 1-.114.247.206.206 0 0 1-.161.097v.074h.569v-.074a.488.488 0 0 1-.14-.017c-.054-.02-.08-.05-.08-.091a.612.612 0 0 1 .036-.165l.08-.229h.62l.071.18c.016.038.028.072.038.1.012.034.02.07.022.105 0 .05-.014.082-.043.095a.589.589 0 0 1-.177.024v.073h.906v-.073a.162.162 0 0 1-.148-.073 2.108 2.108 0 0 1-.156-.338Zm-1.09-.212.251-.672h.018l.265.672h-.535ZM72.151 28.454a.742.742 0 0 1-.422.114c-.091 0-.156-.01-.188-.032-.032-.021-.048-.063-.048-.127v-1.372c0-.115.018-.186.056-.216.037-.03.113-.046.226-.05v-.074h-.968v.074c.056 0 .112.011.164.034.051.029.077.085.077.17v1.413c0 .086-.027.144-.082.174a.377.377 0 0 1-.16.032v.073h1.608l.113-.66h-.081c-.082.222-.18.37-.294.447ZM73.398 27.359a.383.383 0 0 1-.014.076.038.038 0 0 1-.035.028c-.014 0-.03-.037-.05-.11a.193.193 0 0 0-.131-.144v-.005a.274.274 0 0 0 .137-.048.118.118 0 0 0 .053-.098.124.124 0 0 0-.065-.11.314.314 0 0 0-.17-.04h-.274v.032a.183.183 0 0 1 .073.01.04.04 0 0 1 .02.04v.425c0 .023-.006.037-.02.042a.233.233 0 0 1-.074.008v.033h.281v-.033a.221.221 0 0 1-.068-.006.04.04 0 0 1-.021-.018c-.005-.008-.007-.018-.005-.028v-.197a.226.226 0 0 1 .13.023.152.152 0 0 1 .04.112c-.001.037.005.075.018.11a.091.091 0 0 0 .089.046.101.101 0 0 0 .098-.056.273.273 0 0 0 .02-.094l-.032.002Zm-.36-.176v-.192a.038.038 0 0 1 .02-.04.137.137 0 0 1 .056-.01.142.142 0 0 1 .1.03.114.114 0 0 1 .032.086.107.107 0 0 1-.06.11.463.463 0 0 1-.148.016Z"/>
<path fill="#fff" fill-rule="evenodd" clip-rule="evenodd" d="M73.46 26.857a.464.464 0 0 0-.677 0 .522.522 0 0 0 0 .71.463.463 0 0 0 .679 0 .519.519 0 0 0 0-.71h-.002Zm-.035.672a.412.412 0 0 1-.606 0 .465.465 0 0 1 0-.635.412.412 0 0 1 .606 0 .464.464 0 0 1 0 .635Z"/>

</svg>