<svg width="177" height="82" viewBox="0 0 177 82" fill="none" xmlns="http://www.w3.org/2000/svg">
<g clip-path="url(#clip0)">
<path d="M66.5244 42.4082H77.1546V51.1389L66.5244 42.4082Z" fill="white"/>
<path d="M66.0407 44.3007V57.3494C65.8981 56.189 65.6827 55.0387 65.3957 53.9052C64.8042 51.5877 63.8501 49.555 62.5334 47.8074C61.2313 46.0718 59.514 44.6892 57.5385 43.7861C55.5239 42.8528 52.8802 42.3862 49.6072 42.3862H33.0046V42.3938H-0.0219727V51.6875H12.2545V80.4139H22.8941C22.8832 80.3833 22.8765 80.3514 22.8742 80.3191L22.8172 56.104V55.8965C22.8124 53.5697 24.4483 51.7491 26.5809 50.9757C26.8146 50.8895 26.8498 50.7862 26.8479 50.6127H26.9001V50.0318H27.4948V48.9987H27.2146V47.1278H29.0015V49.0233H28.7469V49.9919H29.3045V50.6099H29.3178C29.3178 50.7824 29.3529 50.8847 29.5876 50.97C31.7222 51.7443 33.3685 53.5631 33.3742 55.8908L33.4321 80.3134C33.43 80.348 33.423 80.3822 33.4112 80.4148H49.6082C51.5961 80.4148 53.8159 80.0692 56.2674 79.378C58.0591 78.8725 59.7374 77.8651 61.3023 76.3556C62.8672 74.8461 64.0882 72.969 64.9654 70.724C65.4717 69.4351 65.8279 67.8325 66.0436 65.9369V80.3106H77.1069V53.6342L66.0407 44.3007ZM31.8903 49.9322C31.4258 49.9531 29.5838 49.5825 29.3007 49.502C29.0984 49.4413 29.0404 49.3532 29.0224 49.2546C29.0224 49.23 29.0224 49.2072 29.0224 49.1769H29.2855V47.9069H29.2979C29.5828 47.8244 31.422 47.4586 31.8884 47.4776C32.3548 47.4965 32.4337 47.6832 32.4356 47.8889L32.4403 49.5266C32.4365 49.7266 32.3577 49.9114 31.8903 49.9322ZM54.2507 68.1357C53.6896 69.4954 52.915 70.4489 51.927 70.9961C50.9391 71.5432 49.277 71.8159 46.9407 71.814H44.2V50.989H46.9891C49.8878 50.989 51.9625 51.7345 53.2133 53.2257C54.4641 54.7168 55.0898 57.4805 55.0904 61.5166C55.0904 64.569 54.8105 66.7754 54.2507 68.1357Z" fill="white"/>
<path d="M81.8665 77.877C82.5172 77.877 83.0368 78.4456 83.0368 79.1469C83.0368 79.8483 82.5172 80.4198 81.8617 80.4198C81.2062 80.4198 80.6809 79.8615 80.6809 79.1469C80.6809 78.4323 81.211 77.877 81.8617 77.877H81.8665ZM81.8665 78.0741C81.343 78.0741 80.9165 78.5546 80.9165 79.1469C80.9165 79.7393 81.3449 80.2226 81.8731 80.2226C82.4013 80.2226 82.8288 79.7488 82.8288 79.1507C82.8288 78.5527 82.4022 78.0731 81.8731 78.0731L81.8665 78.0741ZM81.6451 79.8862H81.4323V78.4646C81.5578 78.4422 81.6849 78.4308 81.8123 78.4304C81.9573 78.4203 82.1016 78.4583 82.2227 78.5385C82.2653 78.574 82.2988 78.6193 82.3203 78.6704C82.3418 78.7215 82.3506 78.777 82.3462 78.8323C82.3472 78.9103 82.3222 78.9865 82.2751 79.0488C82.228 79.111 82.1614 79.1559 82.0859 79.1763V79.1877C82.2037 79.2104 82.2816 79.3232 82.3073 79.5327C82.3199 79.6525 82.3483 79.77 82.3918 79.8824H82.1629C82.1131 79.7678 82.0811 79.6464 82.0679 79.5223C82.0375 79.3403 81.9529 79.273 81.7829 79.273H81.6404L81.6451 79.8862ZM81.6451 79.0996H81.7924C81.9691 79.0996 82.1163 79.0332 82.1163 78.8598C82.1163 78.7347 82.0327 78.6096 81.7924 78.6096C81.7418 78.6099 81.6914 78.6137 81.6413 78.6209L81.6451 79.0996Z" fill="white"/>
<path fill-rule="evenodd" clip-rule="evenodd" d="M120.741 6.1377L121.079 6.31777L121.127 6.22299L120.741 6.1377Z" fill="white"/>
<path fill-rule="evenodd" clip-rule="evenodd" d="M121.079 6.31763L121.066 6.34431C121.119 6.36241 121.166 6.37385 121.223 6.39386L121.079 6.31763Z" fill="white"/>
<path fill-rule="evenodd" clip-rule="evenodd" d="M123.916 17.6423C123.916 17.3864 123.363 17.3864 123.146 17.2158C122.737 17.4054 122.472 17.7276 122.472 18.1531C122.472 18.4725 122.662 18.664 122.857 18.9199C123.434 18.5758 123.916 18.2602 123.916 17.6423Z" fill="white"/>
<path fill-rule="evenodd" clip-rule="evenodd" d="M160.962 22.6701V21.8171C160.697 21.8399 160.551 21.8607 160.288 21.9024C160.335 22.1792 160.478 22.3071 160.478 22.5848C160.478 23.2482 159.709 23.4586 159.035 23.6927L158.94 24.0349C159.085 24.0349 159.181 24.1192 159.32 24.1192C160.215 24.1183 160.744 23.4378 160.962 22.6701Z" fill="white"/>
<path fill-rule="evenodd" clip-rule="evenodd" d="M176.154 27.5606C176.154 12.3577 153.924 -0.010498 126.599 -0.010498C99.2746 -0.010498 77.0425 12.3586 77.0425 27.5606C77.0425 36.5547 84.8322 44.5509 96.8465 49.5835V77.4218C96.8465 80.1021 103.38 81.3019 109.854 81.3019C116.353 81.3019 122.933 79.8803 122.933 77.1726V63.2681H130.549V77.4218C130.549 80.1021 137.081 81.3019 143.555 81.3019C150.054 81.3019 156.634 79.8803 156.634 77.1726L156.627 49.4641C168.482 44.423 176.154 36.4884 176.154 27.5606ZM173.169 34.7824H167.421C168.368 32.5925 168.884 30.2409 168.941 27.8563H175.003C174.958 30.2474 174.319 32.5704 173.169 34.7824ZM131.146 7.03888C131.474 7.61069 131.794 8.23337 132.106 8.90691C131.752 8.91889 131.401 8.97525 131.061 9.07466C131.141 9.62909 131.704 9.83286 131.704 10.3845C131.704 11.3663 131.514 11.971 130.955 12.8012C130.822 12.9789 130.673 13.1442 130.51 13.295H128.455V12.2932H128.122C128.497 12.0222 128.741 11.5985 128.949 11.0526C129.033 10.9152 129.255 10.465 129.212 9.58929C129.212 8.64153 128.382 7.92219 127.276 7.92219L126.041 7.9402C125.392 7.9402 124.796 8.17714 124.448 8.57519C124.333 8.70073 124.246 8.84881 124.192 9.00991C124.138 9.17102 124.119 9.34158 124.135 9.51062C124.087 10.2155 124.263 10.9176 124.638 11.517C124.796 11.8724 124.968 12.1198 125.187 12.2932H124.921V13.295H119.506C119.559 13.0827 119.613 12.8751 119.669 12.6695C119.75 12.6469 119.821 12.5979 119.872 12.5302C120.157 12.0828 120.157 11.699 120.157 11.1663C120.154 11.1405 120.143 11.1163 120.125 11.0972C120.199 10.8672 120.273 10.6419 120.349 10.4214C120.379 10.4104 120.411 10.4034 120.444 10.4006C120.611 10.4006 120.66 10.5702 120.824 10.5702C121.089 10.5702 121.257 10.4432 121.498 10.4006C121.522 10.0594 121.593 9.88878 121.593 9.54759C121.593 9.27084 121.403 9.14384 121.403 8.86615C121.403 7.9819 122.396 7.74401 122.877 7.03983L131.146 7.03888ZM145.217 16.3477V19.808H141.747V16.3477H145.217ZM122.926 34.6403V29.4485C122.922 28.9206 122.876 28.3938 122.787 27.8733H124.947C124.757 28.7557 124.583 29.6475 124.583 30.6815C124.583 32.5647 127.394 33.4812 129.93 33.4812C130.141 33.4812 130.345 33.4878 130.549 33.4944V34.6403H122.926ZM96.8484 36.2211C96.7315 35.915 96.6052 35.6117 96.5007 35.2999H96.8484V36.2211ZM96.7724 28.2837C96.8009 28.1975 96.8883 28.1501 96.9624 28.0942C96.888 28.5597 96.8486 29.0302 96.8446 29.5016V34.7578H96.3268C95.6356 32.5316 95.2799 30.2153 95.2714 27.8847H96.0418C96.2493 28.0744 96.4996 28.2113 96.7714 28.2837H96.7724ZM124.731 9.46608C124.72 9.37581 124.729 9.2842 124.757 9.19783C124.786 9.11146 124.833 9.03249 124.896 8.96661C125.131 8.70029 125.57 8.53444 126.047 8.53444L127.282 8.51643C128.042 8.51643 128.617 8.97799 128.617 9.60256C128.655 10.41 128.442 10.7399 128.442 10.7399L128.403 10.8128C128.048 11.7606 127.724 12.0307 126.957 12.0307H126.49C125.635 12.0307 125.445 11.8743 125.176 11.2535L125.147 11.2014C124.834 10.7028 124.689 10.1172 124.735 9.53053V9.4983L124.731 9.46608ZM128.454 13.9499H140.25V15.2104H128.455L128.454 13.9499ZM133.534 12.6941C133.594 12.8922 133.654 13.0903 133.712 13.2941H132.924C133.09 13.0585 133.297 12.8552 133.535 12.6941H133.534ZM132.034 20.6799C131.414 20.1046 131.025 19.5322 130.956 18.6422C131.678 18.7436 132.295 18.7692 132.666 19.3473C132.96 19.7947 132.777 20.1889 132.761 20.6799H132.034ZM118.303 20.6865C118.464 18.9228 118.688 17.3277 118.958 15.8672H124.921V16.1819C124.651 16.1665 124.379 16.1706 124.11 16.1942H124.59C124.35 16.3099 124.124 16.453 123.917 16.6207C124.374 17.1324 124.783 17.4945 124.783 18.1551C124.783 18.3257 124.498 18.3257 124.498 18.4953C124.498 18.6441 124.688 18.6849 124.688 18.8365C124.688 19.1133 124.28 19.1341 124.015 19.262C124.351 19.4118 124.592 19.5189 124.976 19.5189H125.149C124.427 19.898 123.573 20.1046 123.267 20.6846L118.303 20.6865ZM112.069 18.5588V16.3382H112.881V15.8644H118.407C118.146 17.303 117.932 18.8697 117.77 20.5917C116.04 19.511 114.095 18.8174 112.07 18.5588H112.069ZM107.283 18.3607C107.163 18.4905 107.033 18.61 106.893 18.718H106.879C106.798 18.5114 106.666 18.3939 106.666 18.1627C106.666 17.7836 106.991 17.6006 106.991 17.2253C106.991 16.6917 106.497 16.4093 106.02 16.1184C106.269 15.9945 106.471 15.7932 106.595 15.545V16.3354H107.282L107.283 18.3607ZM111.653 13.5556H112.223V15.6824H107.251V13.5528H107.791C108.307 14.0557 109 14.3372 109.721 14.3372C110.442 14.3372 111.135 14.0557 111.651 13.5528L111.653 13.5556ZM107.941 16.3382H111.412V19.7994H107.941V16.3382ZM151.02 14.0077V15.1289C151.02 15.7866 150.486 16.2833 149.767 16.2842C148.827 16.3183 148.437 16.1184 148.437 16.1184L148.371 16.089C147.197 15.7411 146.999 15.4255 146.999 14.8389V14.4238C146.999 13.7262 147.138 13.5471 147.919 13.2713C148.441 13.0139 149.017 12.8815 149.6 12.8846C149.682 12.8846 149.766 12.8846 149.903 12.8922C150.527 12.8287 151.02 13.3414 151.02 14.0077ZM145.335 13.5528H145.879V15.6795H140.908V13.5528H141.373C141.63 13.8179 141.938 14.0288 142.278 14.1727C142.619 14.3167 142.984 14.3909 143.354 14.3909C143.724 14.3909 144.09 14.3167 144.43 14.1727C144.77 14.0288 145.078 13.8179 145.335 13.5528ZM129.35 19.6468C129.904 19.6468 129.941 20.2686 130.256 20.678H127.596C128.048 20.1321 128.546 19.6497 129.35 19.6497V19.6468ZM128.454 16.7515V15.8644H129.131C128.996 16.2065 128.745 16.4785 128.455 16.7543L128.454 16.7515ZM143.35 10.3304C144.428 10.3304 145.304 11.0943 145.304 12.0364C145.304 12.9784 144.428 13.7423 143.35 13.7423C142.273 13.7423 141.396 12.9784 141.396 12.0364C141.396 11.0943 142.277 10.3304 143.35 10.3304ZM128.355 16.8424C128.224 16.9656 128.088 17.0917 127.953 17.2291C127.205 17.975 126.691 18.5114 125.914 19.0431C125.819 18.3124 124.969 18.0006 124.969 17.214C124.969 17.0661 125.159 17.0244 125.159 16.8728C125.159 16.8614 125.159 16.8538 125.159 16.8424H128.355ZM127.794 16.1866H125.574V12.9491H127.794V16.1866ZM124.921 15.2114H112.882V13.9508H124.921V15.2114ZM112.883 13.295V12.9007H112.129C112.264 12.6132 112.335 12.2993 112.335 11.9814C112.331 11.7257 112.282 11.4728 112.188 11.2346C112.349 10.9819 112.513 10.7339 112.682 10.4906C112.978 10.6312 113.258 10.7997 113.521 10.9939C113.738 11.1427 113.642 11.462 113.806 11.6753C114.24 12.1871 114.77 12.2506 115.347 12.6136C115.75 12.8628 116.099 13.0979 116.449 13.2931L112.883 13.295ZM111.916 10.7095C111.629 10.3119 111.233 10.005 110.776 9.82528C111.309 9.99492 111.767 10.1219 112.201 10.2859C112.105 10.4249 112.01 10.5661 111.916 10.7095ZM111.676 11.9814C111.676 12.9206 110.801 13.6874 109.723 13.6874C108.646 13.6874 107.769 12.9235 107.769 11.9814C107.769 11.0393 108.646 10.2755 109.723 10.2755C110.801 10.2755 111.677 11.0412 111.677 11.9805L111.676 11.9814ZM106.596 13.513C106.586 13.4931 106.575 13.476 106.565 13.4571L106.596 13.4362V13.513ZM104.713 12.9728L104.781 13.0021C105.955 13.35 106.153 13.6656 106.153 14.2522V14.6673C106.153 15.3649 106.015 15.544 105.233 15.8208C104.711 16.0769 104.137 16.2086 103.556 16.2055C103.473 16.2055 103.388 16.2055 103.249 16.198C102.64 16.2653 102.133 15.7497 102.133 15.0825V13.9632C102.133 13.2997 102.667 12.8069 103.385 12.806C104.322 12.7709 104.714 12.9728 104.714 12.9728H104.713ZM95.2819 27.3492C95.2885 27.0061 95.3142 26.6668 95.3351 26.3266C95.4132 26.6771 95.5242 27.0195 95.6666 27.3492H95.2819ZM107.288 19.8534V20.4562H112.074V19.7596C117.63 20.5728 121.736 24.5268 121.736 29.4494V34.6403H98.0368V29.5054C98.0368 24.8026 101.998 20.8675 107.284 19.8525L107.288 19.8534ZM132.29 23.9923C131.669 23.5525 131.183 23.0967 130.2 23.0967C128.177 23.0967 127.423 24.3951 125.402 24.6235C125.402 25.6196 125.238 26.483 125.058 27.3341H122.693C122.161 24.9059 120.719 22.7848 118.677 21.2239H123.151C123.21 22.0958 124.422 22.2664 125.389 22.2664C126.2 22.2664 126.699 21.7764 127.157 21.2239H130.833C131.023 21.3964 131.171 21.5859 131.171 21.8693C131.171 22.0456 130.981 22.1214 130.957 22.2721L131.385 22.474C131.516 21.9385 131.761 21.602 132.106 21.2229H134.956C133.92 21.9939 133.019 22.9295 132.287 23.9923H132.29ZM156.394 22.0219L156.403 22.056L156.382 22.0323L156.394 22.0219ZM156.851 21.6324C157.033 21.4807 157.206 21.3395 157.377 21.2059L167.233 21.2011C167.989 23.1514 168.389 25.2207 168.414 27.3113L157.662 27.317C157.619 25.3962 157.346 23.4873 156.847 21.6314L156.851 21.6324ZM158.101 20.6666C158.206 20.5917 158.304 20.5207 158.421 20.4373C158.65 20.2818 159.135 20.2818 159.135 19.9937C159.135 19.6393 158.932 19.462 158.932 19.1076C158.932 18.8858 159.161 18.8232 159.338 18.664L159.748 18.9294C159.748 19.3947 159.825 19.8373 160.257 20.0809C160.384 19.6601 160.665 19.4611 160.665 19.0185C160.665 18.4204 160.46 17.9551 159.952 17.5968C159.314 17.1542 158.014 17.5305 158.014 16.7998C158.014 16.0918 158.829 15.6047 159.646 15.6047C160.155 15.6047 160.46 15.6492 160.971 15.6047V14.9412C160.87 14.6759 160.666 14.5214 160.666 14.2333C160.665 14.1883 160.673 14.1435 160.689 14.1016C160.706 14.0596 160.73 14.0213 160.761 13.9888H162.621C163.043 14.4427 163.441 14.9062 163.821 15.3772C163.621 15.8511 163.216 16.2027 163.216 16.7988C163.216 17.3533 163.676 17.685 164.235 17.9504C164.592 17.5589 164.805 17.2187 164.838 16.7259C165.705 17.9543 166.437 19.2719 167.023 20.6562L158.101 20.6666ZM157.301 10.4309C156.79 10.4309 156.688 11.0507 156.177 11.0507C155.183 11.0507 154.597 10.8526 153.731 10.4309C153.859 10.1646 153.934 9.98829 154.036 9.72197H153.22C152.812 9.83286 152.634 10.0764 152.199 10.0764C151.334 10.0764 151.027 9.36751 150.16 9.36751C149.933 9.36247 149.707 9.38121 149.485 9.42343C149.375 9.31791 149.264 9.21303 149.152 9.10878L149.342 8.57045L149.138 8.21599C148.732 8.21599 148.344 8.21599 148.018 8.11458C147.58 7.7478 147.135 7.38766 146.673 7.04362H153.323C155.256 8.06284 157.099 9.2432 158.833 10.5721C158.325 10.483 157.812 10.4339 157.297 10.4252L157.301 10.4309ZM147.041 8.00654C146.229 8.66997 145.419 8.95429 144.241 9.28032C143.783 9.41206 143.402 9.12489 143.018 9.36846C142.857 9.4802 142.721 9.62377 142.619 9.79021C142.157 9.91056 141.737 10.1532 141.403 10.4925C140.532 9.25569 139.549 8.10122 138.466 7.04362H145.768C146.2 7.34785 146.624 7.67198 147.039 8.0018L147.041 8.00654ZM139.377 8.75147C139.985 9.44249 140.55 10.1705 141.068 10.9313C141.042 10.9749 141.012 11.0166 140.99 11.0611C140.259 10.3712 139.722 9.78642 138.668 9.78642C138.295 9.78642 138.08 9.98829 137.705 9.98829C137.197 9.98829 137.197 9.38362 136.85 9.08129C136.1 8.42734 135.376 8.30129 134.6 7.67198C134.118 8.07478 133.823 8.30129 133.207 8.47757L134.347 8.09373C134.098 8.22263 133.918 8.41786 133.633 8.57804C133.34 8.73898 133.016 8.83832 132.683 8.86994C132.388 8.21694 132.083 7.60754 131.771 7.04552H137.688C138.263 7.56868 138.827 8.13354 139.375 8.74673L139.377 8.75147ZM121.01 7.35164C120.892 7.39342 120.769 7.41521 120.644 7.41609C120.352 7.41609 120.198 7.2417 120.049 7.03699H121.157C121.108 7.14029 121.059 7.24739 121.01 7.35164ZM111.215 8.43492C110.93 8.94671 110.541 9.13816 110.444 9.71344L110.609 9.76652C110.324 9.67015 110.025 9.61992 109.724 9.61772C109.629 9.61772 109.54 9.63383 109.448 9.64331C109.427 9.64331 109.407 9.63667 109.386 9.63667C108 9.63667 106.559 10.3153 106.559 11.5094C106.559 12.0923 106.051 12.4164 105.408 12.5813C105.273 12.5311 105.131 12.4866 104.979 12.4373C104.851 12.3738 104.43 12.2041 103.606 12.2041C103.529 12.2041 103.447 12.2041 103.373 12.2041C103.135 12.2037 102.899 12.2457 102.675 12.3283C102.452 12.2284 102.224 12.1414 101.991 12.0677C101.759 11.9971 101.521 11.9511 101.28 11.9302C102.851 10.0806 104.648 8.43446 106.629 7.03035H112.216C111.79 7.36586 111.521 7.90987 111.215 8.43492ZM100.583 11.9293C100.213 11.9454 99.8303 11.9824 99.3819 11.9824C98.0216 11.9824 97.482 10.9512 96.1197 10.9512C95.3037 10.9512 94.8145 11.1152 94.0536 11.3303H93.228C95.2288 9.68463 97.3934 8.24791 99.6878 7.04268H105.723C103.819 8.45961 102.093 10.1003 100.583 11.9293ZM89.812 15.3535C91.6064 15.3535 91.9598 17.0386 92.8566 18.3503C93.2366 18.936 93.9168 18.9834 94.4877 19.4743C93.8997 19.7463 93.6935 20.1842 93.627 20.696H85.9693C86.7744 18.7948 87.8466 17.0177 89.1536 15.418C89.3704 15.375 89.5909 15.3534 89.812 15.3535ZM93.5985 21.2362C93.5985 21.5452 93.6185 21.8684 93.6185 22.1925V23.5042C93.6185 23.7383 93.4019 23.8312 93.4019 24.0653C93.4019 24.7505 94.3671 24.849 94.8762 25.2869C94.805 25.9683 94.7508 26.6536 94.7375 27.3473L84.5938 27.353C84.6145 25.2622 85.0099 23.1919 85.7613 21.24L93.5985 21.2362ZM94.7271 27.8866C94.7347 30.2159 95.0816 32.5318 95.7569 34.7616H86.1717C85.2037 32.5977 84.6721 30.2648 84.6071 27.8961L94.7271 27.8866ZM95.9317 35.298C96.1965 36.0885 96.5022 36.8648 96.8474 37.6238V41.8119H91.0916C89.0757 39.7724 87.4969 37.5849 86.4063 35.2961L95.9317 35.298ZM96.8474 42.3502V46.454L96.8332 46.4455C94.971 45.2479 93.2269 43.8767 91.6245 42.3502H96.8474ZM96.9206 27.3464C96.7144 27.0308 96.3715 26.7777 96.1197 26.409V25.6594L96.5548 25.5646C96.7933 25.9788 97.0213 26.3929 97.2502 26.7967C97.197 26.9768 97.1467 27.1578 97.1039 27.3416L96.9206 27.3464ZM129.671 51.2639C129.956 50.863 130.251 50.4289 130.551 49.9579V51.2639H129.671ZM122.933 51.2639V49.9882C123.233 50.4488 123.526 50.8734 123.808 51.2639H122.933ZM124.478 51.2639C123.994 50.6071 123.468 49.8545 122.933 48.9731V48.8224H130.552V48.9239C130.02 49.8185 129.496 50.5919 129.007 51.2639H124.478ZM130.551 48.2832H122.926V46.6436H130.546L130.551 48.2832ZM121.74 46.6436V51.2639H98.0368V46.6426L121.74 46.6436ZM98.0368 53.8872H155.434V60.549H98.0368V53.8872ZM131.737 51.2639V46.6426H155.434V51.2639H131.737ZM155.432 43.9245H98.0368V37.2637H155.43L155.432 43.9245ZM131.737 34.6365V29.5044C131.737 24.7656 135.749 20.8126 141.088 19.8307V20.4647H145.873V19.7748C151.376 20.623 155.429 24.5571 155.429 29.4485V34.6403L131.737 34.6365ZM153.724 22.4323V22.2949H154.948C155.738 22.7375 155.635 23.889 156.58 23.889C156.648 23.8872 156.716 23.8751 156.78 23.853C156.976 24.9966 157.089 26.1532 157.115 27.3132H156.386C155.979 25.4746 155.045 23.8141 153.726 22.4351L153.724 22.4323ZM157.127 27.8534C157.122 29.4556 156.952 31.0531 156.619 32.6206V29.4456C156.615 28.912 156.568 28.3795 156.478 27.8534H157.127ZM156.622 42.354H160.716C160.811 42.4735 160.911 42.59 161.016 42.699C159.647 43.9662 158.179 45.122 156.626 46.1555L156.622 42.354ZM156.622 41.8157V41.575C157.477 41.3589 158.08 41.2196 159.038 41.2196C159.587 41.2196 159.951 41.4812 160.264 41.8148L156.622 41.8157ZM164.206 39.1885C163.915 38.9914 163.602 38.7876 163.366 38.4929C162.644 37.5982 162.789 36.8097 162.405 35.7653C161.898 36.278 161.924 37.1291 161.154 37.1291C160.552 37.1291 160.288 36.5538 160.288 36.0202C160.288 35.6411 159.712 35.6411 159.325 35.5094C159.109 35.8506 159.013 36.278 158.557 36.278C158.367 36.278 158.367 36.0202 158.171 36.0202C157.451 36.0202 157.522 36.895 157.017 37.2987C156.884 37.4115 156.752 37.512 156.621 37.6058V35.3122H166.596C165.935 36.6819 165.136 37.9802 164.209 39.1866L164.206 39.1885ZM156.634 34.7768C157.314 32.5332 157.663 30.2023 157.667 27.8582L168.402 27.8525C168.342 30.242 167.809 32.5961 166.832 34.7786L156.634 34.7768ZM175.003 27.3104H168.947C168.922 25.2221 168.533 23.1542 167.797 21.1993H173.592C174.479 23.1166 174.961 25.196 175.006 27.3075L175.003 27.3104ZM173.333 20.6609H167.602C166.874 18.8994 165.919 17.2406 164.759 15.7269C165.074 15.2531 166.008 15.1753 166.782 15.1213C166.834 14.7422 166.706 14.4778 166.882 14.1461C166.926 14.0786 166.986 14.0237 167.058 13.9869H168.13C170.395 16.0463 172.157 18.2915 173.333 20.6609ZM165.159 11.6042C164.607 11.444 164.039 11.3521 163.416 11.0479L162.395 11.4905C161.581 11.136 161.147 10.6934 160.254 10.6934C160.103 10.6934 159.96 10.6887 159.824 10.6802C158.125 9.31614 156.314 8.09834 154.409 7.03983H157.08C160.095 8.37711 162.807 9.91057 165.159 11.6023V11.6042ZM155.824 6.50151H153.43C150.957 5.21291 148.379 4.13496 145.723 3.27915C149.172 4.07959 152.55 5.15657 155.824 6.49961V6.50151ZM137.669 1.82909C143.039 2.77684 147.976 4.37854 152.253 6.50056H145.929C142.626 4.19823 138.93 2.51478 135.023 1.53244C135.914 1.61837 136.796 1.71725 137.669 1.82909ZM130.26 1.20642C135.747 1.83383 140.783 3.71038 144.979 6.49961H137.893C134.929 3.78715 131.785 2.16744 129.542 1.17609C129.78 1.18462 130.017 1.19694 130.258 1.20642H130.26ZM128.083 1.14386C130.807 2.28117 134.068 3.88287 137.092 6.49961H131.467C129.917 3.87529 128.263 2.26411 127.031 1.1287C127.379 1.1306 127.73 1.13723 128.08 1.14386H128.083ZM126.099 1.1306H126.231L126.35 1.23959C127.537 2.32571 129.229 3.87718 130.831 6.50246H122.736C122.713 6.4902 122.688 6.48279 122.662 6.48066C122.607 6.48372 122.552 6.49101 122.498 6.50246H122.042C123.482 3.81937 125.01 2.24515 126.08 1.14671L126.099 1.1306ZM125.339 1.14102C124.241 2.27832 122.792 3.89614 121.435 6.49961H120.998C121.021 6.44844 121.044 6.39536 121.07 6.34418C120.389 6.11577 119.89 6.05227 119.109 6.05227C118.29 6.05227 117.81 6.30722 116.992 6.30722C116.768 6.30724 116.546 6.34572 116.336 6.42095C119.212 3.90088 122.369 2.34561 125.217 1.14197L125.339 1.14102ZM123.776 1.1723C121.491 2.18071 118.361 3.77956 115.46 6.50056H107.424C111.495 3.79283 116.354 1.94092 121.658 1.26139C122.356 1.22158 123.062 1.1941 123.771 1.1723H123.776ZM116.846 1.66229C113.13 2.65985 109.617 4.29546 106.463 6.49582H100.754C104.914 4.43257 109.698 2.8574 114.896 1.90491C115.543 1.82056 116.193 1.73526 116.846 1.66229ZM106.701 3.4687C104.25 4.29134 101.868 5.30542 99.5767 6.50151H97.3718C100.401 5.25827 103.52 4.24446 106.701 3.4687ZM98.5992 7.03888C96.3982 8.25844 94.3252 9.69482 92.4111 11.3265H91.4431C90.457 11.1929 89.9136 10.9749 88.9731 10.955C91.2369 9.44293 93.6296 8.1325 96.1235 7.03888H98.5992ZM84.2071 14.8048C84.1747 14.9549 84.1584 15.108 84.1587 15.2616C84.1587 15.9174 84.9187 16.0814 85.3547 16.5733C84.6755 17.159 84.0504 17.3229 83.5061 17.9788C83.6695 17.9788 83.7778 18.0736 83.9421 18.0736C85.9313 18.0736 86.7854 16.4965 88.235 15.7468C87.0707 17.2672 86.1124 18.9341 85.3851 20.7045H79.8382C80.8633 18.6271 82.3386 16.6491 84.2071 14.8048ZM79.5865 21.2495H85.1913C84.4583 23.2056 84.0726 25.2742 84.0514 27.3625H78.1862C78.2254 25.2488 78.7021 23.1659 79.5865 21.2447V21.2495ZM78.1948 27.9018H84.0656C84.1288 30.266 84.6448 32.5964 85.5855 34.7673H80.0178C78.8835 32.5713 78.2499 30.2721 78.1948 27.897V27.9018ZM80.299 35.3018H85.8088C86.8633 37.5868 88.3832 39.7743 90.3325 41.8176H85.8515C83.4899 39.8055 81.6023 37.6257 80.299 35.2961V35.3018ZM96.6688 48.3239C92.7426 46.6331 89.298 44.623 86.4871 42.3531H90.8645C92.5929 44.0618 94.4949 45.5864 96.5396 46.9023C96.6403 46.9677 96.7439 47.0302 96.8474 47.0919V48.3239H96.6688ZM121.743 77.1773C121.743 78.3762 117.113 80.1153 109.856 80.1153C102.248 80.1153 98.0396 78.5241 98.0396 77.4237V63.2681H121.74L121.743 77.1773ZM143.555 80.1153C135.946 80.1153 131.739 78.5241 131.739 77.4237V63.2681H155.438V77.1726C155.441 78.3705 150.811 80.1125 143.555 80.1125V80.1153ZM156.626 48.2775V46.8056C158.333 45.6905 159.94 44.4304 161.429 43.0393C161.664 43.188 161.937 43.2657 162.215 43.2629C162.855 43.2629 163.149 42.8317 163.45 42.3531H166.708C163.923 44.5983 160.511 46.5924 156.626 48.2746V48.2775ZM167.346 41.8167H163.831C164.295 41.2641 165.01 41.012 165.01 40.2832C165.009 40.1368 164.977 39.9923 164.914 39.8599C164.851 39.7275 164.76 39.6106 164.647 39.5174C165.646 38.2135 166.5 36.805 167.194 35.317H172.893C171.582 37.6342 169.701 39.8141 167.346 41.8138V41.8167Z" fill="white"/>
<path fill-rule="evenodd" clip-rule="evenodd" d="M98.9164 39.6245C98.95 39.186 99.0972 38.8862 99.3581 38.7251C99.5469 38.6274 99.7573 38.5788 99.9699 38.5839V41.8422C99.9699 42.0688 99.9348 42.2213 99.8626 42.2943C99.7904 42.3673 99.646 42.4071 99.4284 42.4071V42.5654H101.389V42.4071C101.168 42.4071 101.022 42.3701 100.953 42.2953C100.884 42.2204 100.849 42.0688 100.849 41.8422V38.5829C101.061 38.5766 101.272 38.6253 101.46 38.7241C101.704 38.8805 101.85 39.1809 101.902 39.6236H102.062L102.056 38.3792H98.7606L98.7559 39.6236L98.9164 39.6245Z" fill="white"/>
<path fill-rule="evenodd" clip-rule="evenodd" d="M105.803 41.2737H105.652C105.479 41.6901 105.281 41.9744 105.058 42.1267C104.8 42.2876 104.499 42.3666 104.195 42.3532C104.005 42.3532 103.886 42.3305 103.825 42.2831C103.791 42.2484 103.765 42.2065 103.75 42.1606C103.734 42.1147 103.729 42.0659 103.735 42.0177V40.5269C104.048 40.5269 104.267 40.5989 104.388 40.743C104.51 40.8871 104.59 41.1344 104.629 41.486H104.769V39.4123H104.629C104.57 39.7586 104.485 39.9965 104.374 40.126C104.263 40.2555 104.05 40.3187 103.736 40.3156V38.8854C103.73 38.8438 103.733 38.8015 103.745 38.7612C103.757 38.7209 103.777 38.6835 103.804 38.6513C103.85 38.6124 103.956 38.5925 104.124 38.5925C104.567 38.5925 104.871 38.6658 105.036 38.8124C105.201 38.959 105.319 39.2326 105.392 39.6332H105.532V38.384H102.356V38.5404C102.471 38.5401 102.584 38.5647 102.689 38.6124C102.795 38.674 102.848 38.7954 102.848 38.9745V41.9789C102.848 42.1551 102.797 42.2765 102.694 42.339C102.589 42.3906 102.473 42.4156 102.356 42.412V42.5684H105.58L105.803 41.2737Z" fill="white"/>
<path fill-rule="evenodd" clip-rule="evenodd" d="M108.099 42.684C108.448 42.6858 108.788 42.5718 109.066 42.3599C109.279 42.1882 109.471 41.9908 109.636 41.7723L109.472 41.6216C109.327 41.8036 109.161 41.9686 108.978 42.1135C108.75 42.2855 108.473 42.379 108.187 42.3798C107.725 42.3798 107.408 42.1119 107.237 41.5761C107.136 41.2208 107.09 40.8524 107.099 40.4833C107.099 39.8812 107.177 39.4016 107.333 39.0446C107.489 38.6877 107.751 38.5088 108.121 38.5082C108.446 38.5082 108.74 38.6741 108.997 39.0058C109.163 39.234 109.299 39.4817 109.404 39.7431H109.545V38.2978H109.389C109.377 38.3663 109.349 38.4312 109.308 38.4874C109.291 38.5166 109.267 38.5408 109.237 38.5574C109.208 38.5741 109.175 38.5826 109.141 38.5821C109.006 38.5447 108.875 38.4969 108.748 38.439C108.527 38.347 108.291 38.2987 108.052 38.2969C107.799 38.2927 107.548 38.343 107.316 38.4442C107.084 38.5454 106.876 38.6953 106.707 38.8835C106.318 39.3005 106.123 39.8455 106.124 40.5184C106.124 41.1913 106.328 41.7315 106.734 42.139C106.912 42.3173 107.126 42.4576 107.36 42.5513C107.595 42.6449 107.846 42.6901 108.099 42.684Z" fill="white"/>
<path fill-rule="evenodd" clip-rule="evenodd" d="M111.84 42.4073C111.728 42.4102 111.617 42.3889 111.515 42.3447C111.403 42.2803 111.348 42.1551 111.348 41.9741V40.5459H112.652V41.9741C112.652 42.1504 112.603 42.2717 112.503 42.3343C112.402 42.3858 112.289 42.4109 112.176 42.4073V42.5636H114.038V42.4073C113.93 42.4103 113.823 42.3876 113.725 42.3409C113.616 42.2765 113.562 42.1514 113.562 41.9741V38.9697C113.562 38.7947 113.611 38.6763 113.708 38.6143C113.812 38.5657 113.924 38.5392 114.038 38.5366V38.384H112.176V38.5404C112.291 38.5407 112.405 38.5666 112.508 38.6162C112.603 38.6778 112.652 38.7973 112.652 38.9745V40.2606H111.348V38.9697C111.348 38.7928 111.4 38.6721 111.503 38.6077C111.609 38.56 111.724 38.5355 111.84 38.5357V38.384H109.969V38.5404C110.083 38.5459 110.195 38.5736 110.299 38.6219C110.394 38.6835 110.436 38.801 110.436 38.9735V41.9779C110.436 42.1561 110.383 42.2774 110.282 42.3419C110.184 42.3887 110.077 42.4124 109.968 42.411V42.5674H111.839L111.84 42.4073Z" fill="white"/>
<path fill-rule="evenodd" clip-rule="evenodd" d="M115.47 42.4072C115.239 42.3978 115.09 42.3295 115.014 42.2016C114.958 42.0739 114.935 41.9346 114.946 41.7959V39.3688H114.984L117.412 42.6859H117.563V39.037C117.563 38.8475 117.593 38.7243 117.651 38.6693C117.754 38.597 117.873 38.552 117.998 38.5385V38.384H116.809V38.5404C117.012 38.5594 117.148 38.6124 117.215 38.7015C117.281 38.7906 117.317 38.9404 117.317 39.1489V40.9667H117.29L115.396 38.384H114.231V38.5404C114.29 38.5468 114.346 38.5717 114.39 38.6115C114.429 38.6494 114.532 38.7739 114.699 38.9849V41.9135C114.707 42.0411 114.677 42.1683 114.612 42.2784C114.553 42.3611 114.424 42.4053 114.223 42.411V42.5674H115.471L115.47 42.4072Z" fill="white"/>
<path fill-rule="evenodd" clip-rule="evenodd" d="M120.104 42.4073C119.969 42.4162 119.835 42.3859 119.717 42.3201C119.629 42.2622 119.587 42.1466 119.587 41.9741V38.9697C119.587 38.7868 119.64 38.6636 119.748 38.603C119.861 38.557 119.982 38.5344 120.104 38.5366V38.384H118.176V38.5404C118.294 38.5384 118.41 38.562 118.518 38.6096C118.623 38.6728 118.676 38.7941 118.677 38.9735V41.9779C118.677 42.1599 118.621 42.284 118.51 42.3485C118.405 42.394 118.291 42.4154 118.176 42.411V42.5674H120.104V42.4073Z" fill="white"/>
<path fill-rule="evenodd" clip-rule="evenodd" d="M122.385 42.684C122.735 42.6856 123.075 42.5716 123.353 42.3599C123.567 42.188 123.758 41.9907 123.923 41.7723L123.759 41.6216C123.613 41.8036 123.448 41.9686 123.265 42.1135C123.038 42.2856 122.76 42.379 122.475 42.3798C122.013 42.3798 121.696 42.1119 121.525 41.5761C121.424 41.2209 121.377 40.8525 121.387 40.4833C121.387 39.8812 121.465 39.4016 121.621 39.0446C121.776 38.6877 122.039 38.5089 122.408 38.5082C122.735 38.5082 123.028 38.6741 123.287 39.0058C123.452 39.2342 123.588 39.4818 123.694 39.7431H123.833V38.2978H123.677C123.665 38.3659 123.638 38.4306 123.599 38.4874C123.581 38.5164 123.556 38.5404 123.526 38.557C123.497 38.5736 123.463 38.5823 123.429 38.5821C123.295 38.5448 123.164 38.497 123.037 38.439C122.816 38.3469 122.579 38.2987 122.34 38.2969C122.087 38.2927 121.836 38.3429 121.604 38.4442C121.372 38.5454 121.164 38.6952 120.996 38.8835C120.606 39.3005 120.411 39.8455 120.411 40.5184C120.411 41.1913 120.615 41.7315 121.021 42.1391C121.2 42.3173 121.413 42.4576 121.647 42.5513C121.882 42.6449 122.133 42.6901 122.385 42.684Z" fill="white"/>
<path fill-rule="evenodd" clip-rule="evenodd" d="M125.38 42.4072C125.286 42.4096 125.193 42.3972 125.103 42.3703C125.059 42.3596 125.02 42.3348 124.992 42.2997C124.963 42.2646 124.947 42.2211 124.946 42.176C124.955 42.0575 124.979 41.9406 125.018 41.8282C125.042 41.7514 125.096 41.5884 125.177 41.3382H126.4L126.542 41.7173C126.574 41.8007 126.598 41.8727 126.616 41.9315C126.64 42.0037 126.654 42.0785 126.659 42.1542C126.659 42.2613 126.632 42.3286 126.576 42.3542C126.462 42.3908 126.343 42.4084 126.224 42.4063V42.5627H128.014V42.4063C127.955 42.4103 127.897 42.398 127.845 42.3707C127.793 42.3434 127.75 42.3022 127.72 42.2518C127.598 42.0228 127.495 41.7845 127.411 41.5391L126.176 38.2874H126.018L124.795 41.6775C124.738 41.8592 124.663 42.0351 124.572 42.2025C124.54 42.2604 124.494 42.3093 124.438 42.345C124.382 42.3808 124.318 42.4021 124.252 42.4072V42.5636H125.376L125.38 42.4072ZM125.76 39.6588H125.795L126.318 41.087H125.262L125.76 39.6588Z" fill="white"/>
<path fill-rule="evenodd" clip-rule="evenodd" d="M131.624 41.1629H131.462C131.3 41.6323 131.106 41.9482 130.881 42.1106C130.636 42.279 130.344 42.3644 130.047 42.3542C129.862 42.3542 129.738 42.3324 129.675 42.2878C129.613 42.2433 129.58 42.1542 129.58 42.0168V39.0986C129.58 38.856 129.618 38.7034 129.693 38.6409C129.768 38.5783 129.916 38.5461 130.139 38.5357V38.384H128.227V38.5404C128.338 38.54 128.449 38.5646 128.55 38.6124C128.651 38.674 128.702 38.7954 128.702 38.9745V41.976C128.702 42.158 128.649 42.2812 128.542 42.3456C128.443 42.3925 128.335 42.4153 128.226 42.412V42.5684H131.401L131.624 41.1629Z" fill="white"/>
<path fill-rule="evenodd" clip-rule="evenodd" d="M137.469 41.9077C137.799 41.5086 137.974 41.0036 137.96 40.4861C137.96 39.8618 137.797 39.3643 137.472 38.9934C137.115 38.5858 136.596 38.3821 135.915 38.3821H134.23V38.5385C134.338 38.5426 134.444 38.5684 134.542 38.6143C134.596 38.6499 134.639 38.6994 134.666 38.7575C134.693 38.8157 134.704 38.8802 134.698 38.9441V42.0044C134.705 42.0706 134.693 42.1375 134.664 42.1975C134.635 42.2574 134.59 42.3081 134.533 42.3437C134.438 42.3861 134.334 42.4087 134.229 42.41V42.5664H135.974C136.603 42.5645 137.101 42.3449 137.469 41.9077ZM135.655 42.2698C135.612 42.1847 135.59 42.0903 135.593 41.9949V38.9526C135.585 38.8651 135.6 38.7772 135.635 38.6967C135.68 38.6285 135.771 38.5944 135.915 38.5944C136.347 38.5944 136.654 38.8471 136.835 39.3526C136.956 39.7152 137.013 40.0957 137.004 40.4776C137.004 41.2117 136.9 41.7081 136.691 41.9665C136.597 42.0893 136.476 42.1884 136.337 42.2558C136.198 42.3231 136.045 42.3568 135.89 42.3541C135.847 42.3603 135.803 42.3559 135.762 42.3412C135.721 42.3265 135.685 42.3019 135.655 42.2698Z" fill="white"/>
<path fill-rule="evenodd" clip-rule="evenodd" d="M140.134 42.4073C139.999 42.4165 139.864 42.3862 139.746 42.3201C139.66 42.2619 139.617 42.1466 139.617 41.9741V38.9697C139.617 38.7868 139.671 38.6636 139.778 38.603C139.891 38.5569 140.012 38.5343 140.134 38.5366V38.384H138.205V38.5404C138.323 38.5383 138.44 38.5619 138.548 38.6096C138.653 38.6728 138.706 38.7941 138.707 38.9735V41.9779C138.707 42.1599 138.651 42.284 138.54 42.3485C138.435 42.394 138.32 42.4154 138.205 42.411V42.5674H140.134V42.4073Z" fill="white"/>
<path fill-rule="evenodd" clip-rule="evenodd" d="M140.779 38.9754L142.194 42.684H142.342L143.6 39.0446C143.639 38.9066 143.705 38.7777 143.795 38.6655C143.877 38.5877 143.984 38.541 144.097 38.5338V38.384H142.923V38.5404C143.052 38.5432 143.18 38.5652 143.303 38.6058C143.363 38.6352 143.398 38.7082 143.398 38.8247C143.395 38.8891 143.384 38.9528 143.364 39.0143C143.352 39.0626 143.338 39.1091 143.322 39.1574L142.59 41.251L141.719 38.9612C141.707 38.9325 141.698 38.9026 141.692 38.8721C141.688 38.8423 141.686 38.8122 141.686 38.7821C141.686 38.6807 141.715 38.6181 141.772 38.5925C141.896 38.5568 142.024 38.538 142.152 38.5366V38.384H140.316V38.5404C140.421 38.5429 140.521 38.5845 140.596 38.657C140.676 38.7513 140.738 38.8592 140.779 38.9754Z" fill="white"/>
<path fill-rule="evenodd" clip-rule="evenodd" d="M146.206 42.4073C146.071 42.4164 145.936 42.3861 145.818 42.3201C145.732 42.2622 145.689 42.1466 145.689 41.9741V38.9697C145.689 38.7868 145.742 38.6636 145.851 38.603C145.963 38.5567 146.084 38.5341 146.206 38.5366V38.384H144.278V38.5404C144.396 38.5382 144.513 38.5619 144.62 38.6096C144.726 38.6712 144.779 38.7925 144.779 38.9735V41.9779C144.779 42.1599 144.723 42.284 144.613 42.3485C144.508 42.394 144.394 42.4153 144.279 42.411V42.5674H146.207L146.206 42.4073Z" fill="white"/>
<path fill-rule="evenodd" clip-rule="evenodd" d="M147.642 42.4072C147.413 42.3978 147.262 42.3295 147.188 42.2016C147.131 42.0753 147.107 41.9369 147.117 41.7988V39.3688H147.155L149.583 42.6859H149.734V39.037C149.734 38.8475 149.763 38.7243 149.822 38.6693C149.925 38.597 150.045 38.552 150.17 38.5385V38.384H148.981V38.5404C149.184 38.5594 149.319 38.6124 149.388 38.7015C149.457 38.7906 149.49 38.9404 149.49 39.1489V40.9667H149.463L147.569 38.384H146.403V38.5404C146.462 38.547 146.518 38.5719 146.562 38.6115C146.601 38.6494 146.704 38.7739 146.871 38.9849V41.9135C146.88 42.0411 146.849 42.1685 146.783 42.2784C146.725 42.3618 146.593 42.4053 146.396 42.411V42.5674H147.642V42.4072Z" fill="white"/>
<path fill-rule="evenodd" clip-rule="evenodd" d="M152.443 42.684C152.753 42.6882 153.062 42.6444 153.358 42.5542C153.567 42.4964 153.767 42.4086 153.951 42.2936V41.4956C153.951 41.2833 153.981 41.1383 154.046 41.0615C154.111 40.9847 154.236 40.9421 154.426 40.9335V40.7772H152.538V40.9335C152.676 40.9267 152.814 40.9473 152.943 40.9942C153.045 41.0539 153.096 41.1781 153.096 41.3667V42.0216C153.104 42.1213 153.079 42.2208 153.027 42.3059C152.946 42.4177 152.788 42.4727 152.552 42.4727C152.119 42.4727 151.826 42.2708 151.674 41.8671C151.516 41.4254 151.439 40.9589 151.447 40.49C151.447 39.8626 151.528 39.3758 151.691 39.0295C151.854 38.6833 152.113 38.5101 152.469 38.5101C152.795 38.5101 153.088 38.676 153.346 39.0077C153.511 39.2358 153.648 39.4835 153.752 39.7451H153.891V38.2979H153.735C153.72 38.3746 153.689 38.4476 153.646 38.513C153.63 38.5356 153.608 38.5538 153.583 38.5662C153.558 38.5786 153.531 38.5847 153.503 38.5841C153.356 38.5552 153.214 38.5071 153.08 38.441C152.725 38.29 152.33 38.2578 151.954 38.3494C151.579 38.441 151.244 38.6513 150.999 38.949C150.64 39.3881 150.452 39.9417 150.469 40.508C150.469 41.1196 150.64 41.6279 150.98 42.0329C151.34 42.4676 151.828 42.6847 152.443 42.684Z" fill="white"/>
<path fill-rule="evenodd" clip-rule="evenodd" d="M101.828 55.4729C101.951 55.4706 102.073 55.4935 102.187 55.5402C102.297 55.5999 102.353 55.7193 102.353 55.8956V58.827C102.353 59.0052 102.295 59.1255 102.179 59.1881C102.068 59.2333 101.948 59.2543 101.828 59.2497V59.4023H103.851V59.2497C103.71 59.2592 103.569 59.2297 103.444 59.1644C103.353 59.1082 103.308 58.9957 103.308 58.827V55.8965C103.308 55.7177 103.365 55.5983 103.477 55.5383C103.596 55.4933 103.723 55.4715 103.851 55.4738V55.3203H101.828V55.4729Z" fill="white"/>
<path fill-rule="evenodd" clip-rule="evenodd" d="M106.761 55.4729C106.974 55.4909 107.117 55.543 107.188 55.6302C107.259 55.7174 107.295 55.8634 107.295 56.0671V57.8423H107.268L105.283 55.3213H104.059V55.4738C104.12 55.4806 104.178 55.5046 104.226 55.543C104.266 55.5803 104.374 55.7019 104.549 55.9079V58.7607C104.557 58.8865 104.523 59.0115 104.454 59.117C104.392 59.1976 104.256 59.2402 104.045 59.2469V59.3994H105.354V59.2469C105.113 59.2374 104.955 59.171 104.879 59.045C104.82 58.9231 104.795 58.7877 104.805 58.6526V56.2832H104.844L107.395 59.5189H107.554V55.9591C107.554 55.7695 107.584 55.6539 107.649 55.6008C107.758 55.5296 107.883 55.4861 108.013 55.4738V55.3203H106.765L106.761 55.4729Z" fill="white"/>
<path fill-rule="evenodd" clip-rule="evenodd" d="M108.255 55.3203L108.25 56.5344H108.418C108.453 56.1054 108.607 55.8125 108.881 55.6558C109.082 55.5604 109.302 55.513 109.524 55.5174V58.6981C109.524 58.918 109.487 59.0649 109.411 59.1388C109.335 59.2127 109.185 59.2487 108.957 59.2487V59.4023H111.014V59.2487C110.782 59.2487 110.634 59.2127 110.556 59.1398C110.478 59.0668 110.446 58.9189 110.446 58.6972V55.5174C110.668 55.5116 110.889 55.5591 111.089 55.6558C111.343 55.8087 111.497 56.1016 111.553 56.5344H111.716V55.3203H108.255Z" fill="white"/>
<path fill-rule="evenodd" clip-rule="evenodd" d="M114.863 58.9758C114.588 59.1337 114.274 59.2103 113.957 59.1966C113.762 59.1966 113.631 59.1748 113.569 59.1284C113.533 59.0958 113.507 59.0554 113.49 59.0104C113.474 58.9654 113.468 58.9172 113.474 58.8696V57.4158C113.803 57.4158 114.031 57.4859 114.159 57.6262C114.286 57.7665 114.37 58.0053 114.411 58.3522H114.558V56.3278H114.411C114.35 56.6652 114.259 56.8964 114.143 57.0253C114.028 57.1542 113.803 57.2149 113.473 57.2101V55.8131C113.467 55.7722 113.471 55.7305 113.483 55.6911C113.495 55.6517 113.516 55.6154 113.544 55.5847C113.592 55.5468 113.704 55.5269 113.88 55.5269C114.343 55.5269 114.663 55.5989 114.839 55.743C115.015 55.8871 115.139 56.154 115.212 56.5439H115.358V55.3203H112.028V55.4729C112.148 55.4724 112.266 55.4962 112.376 55.543C112.488 55.6037 112.544 55.7203 112.544 55.8956V58.827C112.544 58.9995 112.49 59.117 112.382 59.1796C112.271 59.2294 112.15 59.2534 112.028 59.2497V59.4023H115.411L115.642 58.1437H115.483C115.303 58.5512 115.096 58.8286 114.863 58.9758Z" fill="white"/>
<path fill-rule="evenodd" clip-rule="evenodd" d="M119.617 59.1303L118.393 57.4159C118.608 57.3732 118.809 57.28 118.981 57.1439C119.099 57.0533 119.194 56.9356 119.258 56.8006C119.321 56.6657 119.351 56.5175 119.345 56.3686C119.345 55.9263 119.113 55.6189 118.65 55.4464C118.348 55.3527 118.032 55.3098 117.715 55.3194H115.858V55.472C116.052 55.4897 116.177 55.5213 116.232 55.5668C116.315 55.6379 116.357 55.7886 116.357 56.0198V58.7001C116.357 58.9228 116.322 59.0678 116.251 59.1341C116.181 59.2005 116.05 59.2384 115.858 59.2488V59.4014H117.796V59.2488C117.597 59.2412 117.463 59.2005 117.396 59.1275C117.33 59.0545 117.301 58.9114 117.301 58.7001V57.5144H117.308L118.651 59.4033H119.854V59.2507C119.808 59.2484 119.763 59.2391 119.721 59.2232C119.678 59.2029 119.642 59.1706 119.617 59.1303ZM118.11 57.1495C117.946 57.2538 117.675 57.3091 117.295 57.3154V55.7857C117.292 55.7494 117.297 55.7128 117.309 55.6785C117.322 55.6443 117.342 55.6132 117.368 55.5876C117.415 55.5469 117.517 55.527 117.672 55.527C117.957 55.527 118.154 55.6417 118.261 55.871C118.331 56.0465 118.363 56.2348 118.356 56.4236C118.355 56.8036 118.271 57.0472 118.11 57.1495Z" fill="white"/>
<path fill-rule="evenodd" clip-rule="evenodd" d="M122.718 55.4729C122.931 55.4906 123.074 55.543 123.144 55.6302C123.217 55.7174 123.252 55.8634 123.252 56.0671V57.8423H123.222L121.239 55.3213H120.014V55.4738C120.076 55.4802 120.134 55.5042 120.182 55.543C120.223 55.5803 120.331 55.7019 120.505 55.9079V58.7607C120.513 58.8866 120.48 59.0116 120.41 59.117C120.35 59.1976 120.213 59.2402 120.003 59.2469V59.3994H121.311V59.2469C121.072 59.2374 120.912 59.171 120.836 59.045C120.777 58.923 120.751 58.7876 120.762 58.6526V56.2832H120.802L123.351 59.5189H123.51V55.9591C123.51 55.7695 123.541 55.6539 123.605 55.6008C123.714 55.5297 123.839 55.4861 123.969 55.4738V55.3203H122.721L122.718 55.4729Z" fill="white"/>
<path fill-rule="evenodd" clip-rule="evenodd" d="M127.475 58.4033L126.183 55.2302H126.016L124.734 58.5379C124.673 58.7161 124.594 58.8878 124.499 59.0506C124.463 59.1082 124.414 59.1564 124.356 59.1911C124.297 59.2259 124.232 59.2463 124.164 59.2506V59.4032H125.343V59.2506C125.245 59.2529 125.147 59.2411 125.052 59.2155C124.942 59.1757 124.888 59.1122 124.888 59.026C124.897 58.9092 124.923 58.7944 124.965 58.6848C124.989 58.6108 125.044 58.4516 125.131 58.2109H126.413L126.562 58.5824C126.595 58.663 126.621 58.7331 126.64 58.7919C126.665 58.8615 126.681 58.9342 126.686 59.008C126.686 59.1132 126.657 59.1776 126.599 59.2041C126.479 59.2396 126.355 59.2565 126.23 59.2544V59.407H128.107V59.2544C128.047 59.2589 127.987 59.2472 127.934 59.2207C127.88 59.1942 127.834 59.1538 127.801 59.1037C127.672 58.8802 127.563 58.6458 127.475 58.4033ZM125.215 57.9635L125.737 56.5703H125.774L126.324 57.9635H125.215Z" fill="white"/>
<path fill-rule="evenodd" clip-rule="evenodd" d="M127.934 55.3203L127.927 56.5344H128.096C128.131 56.1054 128.286 55.8125 128.559 55.6558C128.76 55.5604 128.979 55.513 129.201 55.5174V58.6981C129.201 58.918 129.164 59.0649 129.088 59.1388C129.012 59.2127 128.862 59.2487 128.633 59.2487V59.4023H130.69V59.2487C130.458 59.2487 130.31 59.2127 130.232 59.1398C130.154 59.0668 130.122 58.9189 130.122 58.6972V55.5174C130.344 55.5116 130.564 55.559 130.764 55.6558C131.017 55.8087 131.172 56.1016 131.228 56.5344H131.396L131.39 55.3203H127.934Z" fill="white"/>
<path fill-rule="evenodd" clip-rule="evenodd" d="M131.707 55.4729C131.83 55.4707 131.952 55.4936 132.066 55.5402C132.176 55.5999 132.232 55.7193 132.232 55.8956V58.827C132.232 59.0052 132.173 59.1255 132.058 59.1881C131.947 59.2333 131.827 59.2543 131.707 59.2497V59.4023H133.73V59.2497C133.589 59.2592 133.448 59.2297 133.322 59.1644C133.227 59.1085 133.187 58.9957 133.187 58.827V55.8965C133.187 55.7177 133.243 55.5983 133.357 55.5383C133.476 55.4931 133.603 55.4712 133.73 55.4738V55.3203H131.707V55.4729Z" fill="white"/>
<path fill-rule="evenodd" clip-rule="evenodd" d="M136.079 55.2303C135.802 55.2211 135.525 55.2716 135.269 55.3784C135.012 55.4852 134.782 55.6457 134.593 55.8492C134.213 56.2561 134.023 56.7755 134.023 57.4073C134.011 57.9478 134.206 58.4725 134.569 58.8744C134.759 59.0733 134.987 59.2326 135.24 59.3431C135.492 59.4536 135.764 59.5132 136.04 59.5184C136.316 59.5236 136.59 59.4743 136.846 59.3734C137.103 59.2724 137.337 59.1219 137.535 58.9304C137.932 58.5279 138.13 58.0095 138.13 57.3751C138.13 56.7407 137.931 56.2233 137.534 55.8227C137.346 55.6288 137.119 55.4761 136.869 55.3741C136.618 55.2721 136.35 55.2232 136.079 55.2303ZM136.974 58.5105C136.813 59.0457 136.514 59.3133 136.078 59.3133C135.643 59.3133 135.343 59.0457 135.179 58.5105C135.081 58.1395 135.038 57.7565 135.048 57.3732C135.039 56.9948 135.081 56.6168 135.176 56.2501C135.339 55.7074 135.64 55.4357 136.079 55.435C136.395 55.435 136.649 55.598 136.83 55.9241C137.01 56.2501 137.107 56.7325 137.107 57.3732C137.117 57.7567 137.072 58.1396 136.974 58.5105Z" fill="white"/>
<path fill-rule="evenodd" clip-rule="evenodd" d="M141.111 55.4729C141.324 55.4906 141.467 55.543 141.539 55.6302C141.61 55.7174 141.645 55.8634 141.645 56.0671V57.8423H141.616L139.632 55.3213H138.41V55.4738C138.472 55.4804 138.53 55.5044 138.577 55.543C138.619 55.58 138.726 55.7013 138.901 55.9079V58.7607C138.909 58.8865 138.876 59.0115 138.806 59.117C138.745 59.1976 138.609 59.2402 138.398 59.2469V59.3994H139.707V59.2469C139.466 59.2374 139.307 59.171 139.232 59.045C139.173 58.9231 139.147 58.7877 139.158 58.6526V56.2832H139.199L141.744 59.5189H141.903V55.9591C141.903 55.7695 141.934 55.6539 141.998 55.6008C142.107 55.5297 142.232 55.4861 142.362 55.4738V55.3203H141.114L141.111 55.4729Z" fill="white"/>
<path fill-rule="evenodd" clip-rule="evenodd" d="M145.868 58.4033L144.574 55.2302H144.409L143.126 58.5379C143.065 58.716 142.986 58.8877 142.891 59.0506C142.856 59.1081 142.806 59.1563 142.748 59.191C142.69 59.2258 142.624 59.2462 142.556 59.2506V59.4032H143.735V59.2506C143.637 59.253 143.539 59.2411 143.444 59.2155C143.334 59.1757 143.279 59.1122 143.279 59.026C143.289 58.9093 143.314 58.7945 143.355 58.6848C143.38 58.6102 143.436 58.4523 143.522 58.2109H144.804L144.953 58.5824C144.985 58.663 145.011 58.7331 145.032 58.7919C145.056 58.8616 145.071 58.9343 145.076 59.008C145.076 59.1132 145.047 59.1776 144.988 59.2041C144.869 59.2395 144.745 59.2564 144.621 59.2544V59.407H146.498V59.2544C146.438 59.259 146.378 59.2474 146.324 59.2209C146.27 59.1944 146.224 59.1539 146.192 59.1037C146.063 58.8802 145.955 58.6458 145.868 58.4033ZM143.608 57.9635L144.13 56.5703H144.166L144.715 57.9635H143.608Z" fill="white"/>
<path fill-rule="evenodd" clip-rule="evenodd" d="M149.508 58.9597C149.247 59.1247 148.942 59.2073 148.633 59.1966C148.443 59.1966 148.309 59.1758 148.243 59.1312C148.176 59.0867 148.143 59.0004 148.143 58.8668V56.0235C148.143 55.7866 148.181 55.6378 148.259 55.5762C148.337 55.5146 148.493 55.4814 148.728 55.4748V55.3203H146.722V55.4729C146.839 55.4722 146.955 55.4961 147.062 55.543C147.168 55.6037 147.221 55.7203 147.221 55.8956V58.8242C147.221 59.0017 147.165 59.1221 147.052 59.1852C146.948 59.2307 146.835 59.2527 146.721 59.2497V59.4023H150.052L150.286 58.0356H150.118C149.947 58.4937 149.744 58.8017 149.508 58.9597Z" fill="white"/>
<path fill-rule="evenodd" clip-rule="evenodd" d="M152.09 56.6918C152.086 56.745 152.077 56.7977 152.062 56.8491C152.058 56.8655 152.048 56.88 152.035 56.8904C152.022 56.9008 152.005 56.9066 151.988 56.9069C151.961 56.9069 151.928 56.8311 151.887 56.6794C151.872 56.61 151.839 56.5458 151.791 56.4933C151.743 56.4408 151.682 56.402 151.614 56.3809V56.3705C151.716 56.3635 151.815 56.3291 151.899 56.2709C151.932 56.2487 151.96 56.2187 151.978 56.1835C151.997 56.1483 152.007 56.109 152.007 56.0691C152.008 56.0221 151.996 55.9758 151.972 55.9352C151.948 55.8947 151.914 55.8613 151.872 55.8388C151.766 55.7792 151.645 55.7507 151.523 55.7563H150.953V55.8227C151.004 55.8189 151.056 55.8257 151.105 55.8426C151.119 55.8509 151.131 55.8632 151.138 55.8781C151.145 55.8929 151.148 55.9096 151.146 55.926V56.8074C151.146 56.8557 151.132 56.8851 151.106 56.8946C151.056 56.9083 151.004 56.9137 150.952 56.9107V56.9789H151.533V56.9107C151.486 56.9143 151.439 56.9104 151.393 56.8993C151.374 56.8923 151.358 56.879 151.348 56.8617C151.339 56.8444 151.335 56.8242 151.339 56.8045V56.3951C151.431 56.3836 151.525 56.4001 151.608 56.4425C151.637 56.4737 151.659 56.5104 151.673 56.5503C151.686 56.5903 151.692 56.6326 151.689 56.6747C151.688 56.7525 151.701 56.8299 151.728 56.9031C151.746 56.935 151.773 56.961 151.806 56.9778C151.839 56.9946 151.876 57.0016 151.912 56.9979C151.954 57.001 151.995 56.9918 152.031 56.9713C152.068 56.9509 152.097 56.9203 152.116 56.8832C152.141 56.8211 152.155 56.755 152.157 56.688L152.09 56.6918ZM151.343 56.3269V55.9288C151.341 55.9125 151.344 55.8959 151.352 55.8813C151.359 55.8667 151.371 55.8548 151.386 55.8473C151.423 55.8326 151.463 55.8258 151.503 55.8274C151.577 55.821 151.651 55.843 151.71 55.889C151.732 55.9124 151.75 55.9401 151.761 55.9704C151.772 56.0007 151.777 56.033 151.776 56.0653C151.782 56.1115 151.773 56.1584 151.751 56.1994C151.729 56.2404 151.694 56.2734 151.652 56.2937C151.552 56.3216 151.448 56.3332 151.344 56.3278L151.343 56.3269Z" fill="white"/>
<path fill-rule="evenodd" clip-rule="evenodd" d="M152.22 55.651C152.13 55.5553 152.022 55.4789 151.901 55.4268C151.78 55.3746 151.65 55.3477 151.519 55.3477C151.387 55.3477 151.257 55.3746 151.136 55.4268C151.016 55.4789 150.907 55.5553 150.817 55.651C150.632 55.851 150.529 56.1135 150.529 56.386C150.529 56.6585 150.632 56.921 150.817 57.121C150.907 57.2169 151.016 57.2934 151.137 57.3457C151.258 57.398 151.388 57.425 151.52 57.425C151.652 57.425 151.782 57.398 151.903 57.3457C152.024 57.2934 152.133 57.2169 152.223 57.121C152.41 56.9216 152.514 56.6589 152.514 56.386C152.514 56.1131 152.41 55.8504 152.223 55.651H152.22ZM152.147 57.0442C152.067 57.1308 151.97 57.1999 151.862 57.2472C151.753 57.2944 151.637 57.3188 151.519 57.3188C151.401 57.3188 151.284 57.2944 151.176 57.2472C151.067 57.1999 150.97 57.1308 150.89 57.0442C150.723 56.8656 150.63 56.6303 150.63 56.386C150.63 56.1417 150.723 55.9064 150.89 55.7278C150.97 55.6412 151.067 55.5721 151.176 55.5248C151.284 55.4776 151.401 55.4532 151.519 55.4532C151.637 55.4532 151.753 55.4776 151.862 55.5248C151.97 55.5721 152.067 55.6412 152.147 55.7278C152.315 55.9062 152.408 56.1415 152.408 56.386C152.408 56.6305 152.315 56.8658 152.147 57.0442Z" fill="white"/>
</g>
<defs>
<clipPath id="clip0">
<rect width="176.132" height="81.2916" fill="white"/>
</clipPath>
</defs>
</svg>
