<svg viewBox="0 0 84 40" fill="none" xmlns="http://www.w3.org/2000/svg">

<path fill="#fff" d="M35.599 20.624h5.623v4.302l-5.623-4.302ZM35.343 21.556v6.293a12.83 12.83 0 0 0-.32-1.563c-.314-1.141-.82-2.143-1.518-3.004a6.831 6.831 0 0 0-2.649-1.983c-1.068-.458-2.47-.688-4.204-.69h-8.805v10.877c-1.143-3.791-8.72-4.638-8.72-4.638-2.956-.44-2.399-1.917-2.399-1.917.27-1.028 2.7-.9 2.7-.9 2.115.385 2.272 2.272 2.272 2.272L17.358 26c-.91-6.297-8.155-5.398-8.155-5.398-7.516-.13-8.056 4.714-8.056 4.714-.54 6.165 9.045 6.342 9.225 6.685.991-1.457 4.86.9 4.86.9-2.295-.428-3.236.873-3.236.873-.49.788-1.893.37-1.893.37-.136 1.628-1.126 1.628-1.126 1.628-1.44.343-1.8 2.442-1.8 2.442-1.485-4.028.9-4.712.9-4.712l-7.692-.039c1.534 6.648 8.771 5.821 8.771 5.821 6.603 0 8.274-3.249 8.689-5.142v5.213h8.807c1.054 0 2.23-.171 3.53-.512.951-.247 1.84-.743 2.669-1.49.828-.745 1.476-1.67 1.942-2.774.252-.597.434-1.329.55-2.188v6.908h5.852V26.155l-5.852-4.599ZM29.113 33.3c-.296.67-.707 1.14-1.232 1.41-.525.268-1.406.403-2.645.403h-1.454V24.85h1.48c1.536 0 2.636.367 3.3 1.102.664.735.997 2.097.998 4.088 0 1.503-.15 2.59-.448 3.26ZM42.225 37.501c.317 0 .57.275.57.618 0 .343-.255.622-.575.622-.319 0-.576-.272-.576-.62s.258-.618.577-.618l.004-.002Zm0 .094c-.256 0-.466.234-.466.523 0 .288.21.523.47.523s.468-.23.468-.521c0-.29-.208-.525-.469-.525h-.003Zm-.113.884h-.104v-.69c.06-.01.122-.016.184-.016a.317.317 0 0 1 .201.053.167.167 0 0 1 .06.14.17.17 0 0 1-.126.168v.005c.057.012.094.066.108.167.006.06.02.117.04.172h-.11a.625.625 0 0 1-.047-.176c-.014-.088-.056-.121-.14-.121h-.066v.298Zm0-.383h.074c.087 0 .158-.032.158-.116 0-.06-.04-.122-.158-.122a.55.55 0 0 0-.074.005v.233ZM62.867 39.997H46.966c-.43 0-.86-.008-1.29 0-.43.008-.77-.154-1.06-.444a1.355 1.355 0 0 1-.415-.997l.007-22.054c0-.375.06-.75.105-1.122.117-.971.323-1.93.615-2.863.14-.452.324-.89.485-1.338.217-.592.508-1.154.81-1.706A16.44 16.44 0 0 1 47.796 7.1a17.94 17.94 0 0 1 2.658-2.716 19.542 19.542 0 0 1 1.693-1.249 18.933 18.933 0 0 1 4.193-2.05c.61-.205 1.228-.389 1.853-.539 1.2-.288 2.413-.482 3.647-.525 1.162-.04 2.323-.035 3.479.116.644.084 1.283.202 1.92.336.646.136 1.285.313 1.91.53.432.15.86.312 1.288.476.788.31 1.551.68 2.282 1.109.456.262.89.562 1.333.852.56.365 1.076.788 1.582 1.221.307.264.6.546.884.836.38.389.762.78 1.112 1.196.34.402.651.83.958 1.258a16.301 16.301 0 0 1 2.572 5.822c.152.66.259 1.329.32 2.004.022.28.038.565.038.848.003 4.6.003 9.2 0 13.8 0 2.728-.005 5.456.005 8.184 0 .5-.227.844-.603 1.125-.245.18-.544.272-.848.263H62.866ZM77.28 11.234c.016.162.047.317.041.471a.442.442 0 0 1-.328.442 1.536 1.536 0 0 1-.27.07c-.302.039-.602.067-.854-.17a.2.2 0 0 0-.243-.013.204.204 0 0 0-.119.208c.02.22.026.44.017.66a.422.422 0 0 0 .1.313c.219.284.442.568.637.868.124.202.23.415.314.637.076.178.082.38.017.562-.17.487-.415.945-.724 1.358-.137.188-.31.347-.508.469a.288.288 0 0 0-.104.128c-.07.159-.13.322-.197.482-.278.676-.58 1.34-.982 1.953-.296.455-.639.87-1.066 1.208-.158.125-.323.261-.507.331-1.283.489-2.63.785-4 .88-.811.056-1.624.078-2.439.108a.24.24 0 0 0-.222.125c-.44.681-.928 1.33-1.461 1.942-.386.456-.805.884-1.253 1.28a.294.294 0 0 1-.249.087c-.755-.094-1.511-.174-2.266-.272-.754-.1-1.517-.224-2.257-.425a3.96 3.96 0 0 0-1.76-.06c-.446.08-.805.285-1.046.678-.063.103-.138.2-.204.302-.527.82-1.26 1.433-2.02 2.02a.618.618 0 0 1-.073.047c-.281.159-.573.27-.907.255-.917-.042-1.835-.068-2.751-.114-.592-.03-1.182-.086-1.773-.13-.16-.01-.31-.046-.434-.155-.151-.134-.15-.306.01-.428.067-.046.14-.084.215-.114.276-.121.554-.234.83-.36 1.423-.646 2.784-1.411 4.133-2.197.656-.383 1.308-.776 1.916-1.235.302-.227.578-.477.788-.8.222-.343.563-.516.97-.534.281-.014.522.072.67.345.093.166.2.326.32.475.195.255.46.375.783.385.469.014.895-.123 1.295-.348.64-.36 1.324-.485 2.048-.428.034.003.068 0 .115 0 .005-.055.012-.105.015-.155.022-.353.038-.706.068-1.058a3.777 3.777 0 0 1 .583-1.763c.021-.039.04-.08.057-.12l-.188.075c-.351.135-.7.28-1.056.403-.939.328-1.896.59-2.9.629a.58.58 0 0 0-.182.05c-.264.103-.522.226-.792.312-.938.302-1.908.445-2.879.589-.7.104-1.403.193-2.1.315-1.185.208-2.311.6-3.397 1.114a3.805 3.805 0 0 0-1.589 1.358 64.602 64.602 0 0 0-2.31 3.762.448.448 0 0 0-.05.214 9987.35 9987.35 0 0 0-.005 9.633 1.396 1.396 0 0 0 .41 1.003c.351.361.786.519 1.287.515 1.209-.004 2.417-.005 3.626-.004 2.498 0 4.997.003 7.495.008H71.28c2.023 0 4.045-.002 6.067-.005.703 0 1.407.011 2.11-.007.827-.02 1.565-.703 1.548-1.595-.027-1.534-.01-3.07-.01-4.604 0-2.723.002-5.446.006-8.168 0-2.647-.006-5.293 0-7.942a15.371 15.371 0 0 0-2.627-8.68 1.15 1.15 0 0 0-.098-.107v.62c.007.006.024.02.043.033.24.157.332.389.293.66a3.23 3.23 0 0 1-.432 1.218c-.155.257-.397.382-.7.384-.07.005-.137.005-.198.005v.002Zm-32.523 11.94.034.013c.03-.047.058-.094.09-.141.288-.427.567-.861.87-1.278.105-.143.126-.255.074-.422a14.216 14.216 0 0 1-.607-3.199 15.061 15.061 0 0 1 .126-3.36 14.893 14.893 0 0 1 1.538-4.707 16.107 16.107 0 0 1 3.28-4.292c.691-.65 1.447-1.218 2.215-1.77A15.334 15.334 0 0 1 56.14 2.04c1.87-.679 3.806-1.03 5.791-1.121.772-.037 1.546-.03 2.317.02.94.06 1.874.184 2.795.375 1.487.301 2.928.791 4.29 1.458.81.4 1.56.895 2.292 1.42.951.68 1.85 1.42 2.648 2.276.184.198.376.35.645.404.084.024.165.056.243.093.04.016.082.027.159.052-.06-.075-.094-.12-.132-.164a17.933 17.933 0 0 0-5.873-4.497C68.92 1.2 66.387.585 63.73.468a19.896 19.896 0 0 0-3.72.188 18.89 18.89 0 0 0-4.956 1.415c-2.909 1.285-5.348 3.161-7.229 5.729-2.03 2.776-3.073 5.881-3.066 9.326.002 1.744.002 3.488 0 5.231v.817Zm6.25-9.72a18.9 18.9 0 0 0-2.263 4.424c.469.554 1.882 1.69 2.398 1.93.044-.03.094-.06.14-.094.339-.246.7-.459 1.08-.635a.358.358 0 0 0 .205-.235 28.03 28.03 0 0 1 1.288-3.223.811.811 0 0 0 .033-.088c-.51-.316-1.013-.615-1.501-.937a8.998 8.998 0 0 1-1.38-1.141Zm6.222-2.836c-.675.759-2.774 4.243-2.871 4.77 1.167.55 2.393.966 3.654 1.242a58.67 58.67 0 0 1 1.555-5.189c-.408-.126-.797-.234-1.181-.368-.384-.134-.765-.299-1.158-.455h.001Zm-2.118-1.505c-1.497 1.193-2.808 2.53-3.905 4.065.391.54 2.136 1.792 2.842 2.037a30.13 30.13 0 0 1 2.894-4.763c-.678-.367-1.29-.793-1.831-1.339Zm7.657-5.775c-.145.013-.406.025-.664.062a3.709 3.709 0 0 0-1.317.428 1.885 1.885 0 0 0-.596.5c-.276.367-.288.79-.013 1.157.103.133.222.252.354.356.236.18.501.317.784.407a4.86 4.86 0 0 0 1.975.234c.543-.041 1.067-.16 1.557-.405.231-.11.44-.262.618-.446.418-.447.416-.984-.004-1.427a2.097 2.097 0 0 0-.573-.422c-.629-.321-1.305-.431-2.12-.444Zm-13.383 7.555-.14.162c-.248.285-.5.563-.741.854-.64.78-1.183 1.635-1.62 2.544a.479.479 0 0 0-.028.395c.335.99.863 1.867 1.54 2.659.031.032.064.062.098.09a19.512 19.512 0 0 1 2.282-4.382c-.61-.679-1.09-1.423-1.391-2.322Zm4.696-3.359c-.042.018-.064.025-.084.036-1.533.796-2.955 1.752-4.212 2.94-.106.1-.12.186-.076.318a5.967 5.967 0 0 0 1.058 1.883c.06.075.126.146.202.235a20.388 20.388 0 0 1 3.93-4.063 4.52 4.52 0 0 1-.818-1.349Zm-6.457 13.117c.013-.047.024-.078.031-.11.178-.815.381-1.623.657-2.41.047-.136.02-.22-.07-.321a8.297 8.297 0 0 1-1.586-2.556c-.014-.035-.034-.068-.061-.12-.026.056-.044.09-.058.126a13.28 13.28 0 0 0-.867 3.829.52.52 0 0 0 .05.25c.223.477.454.95.684 1.424.022.04.047.079.074.116.349-.272.73-.335 1.146-.228ZM61.893 6.717c-.27.367-1.838 4.153-1.859 4.49.39.11 1.683.276 2.052.27a.164.164 0 0 0 .14-.084c.133-.176.264-.353.404-.522.06-.07.09-.16.087-.253-.002-1.21-.002-2.42 0-3.631V6.81l-.824-.093Zm-7.974-.95a.525.525 0 0 0-.076.011 16.177 16.177 0 0 0-4.041 2.117.338.338 0 0 0-.128.197 4.72 4.72 0 0 0-.17 1.736c.011.14.04.278.067.45 1.332-1.256 2.814-2.232 4.41-3.048a3.48 3.48 0 0 1-.06-1.463h-.002Zm3.936 11.144c-1.275-.301-2.486-.7-3.643-1.25-.293.474-1.248 2.873-1.255 3.148.034-.01.068-.019.1-.031a6.982 6.982 0 0 1 2.958-.426.293.293 0 0 0 .235-.081c.327-.287.657-.571.988-.853.194-.163.392-.32.617-.507ZM61.55 6.64c-.133-.047-.261-.07-.372-.128-.147-.077-.245-.043-.363.067a29.841 29.841 0 0 0-3.012 3.276c-.125.158-.246.319-.383.496.722.347 1.48.61 2.262.787a52.151 52.151 0 0 1 1.868-4.498Zm-3.162 9.869a.485.485 0 0 0 .074-.028c.407-.268.832-.508 1.272-.718a.322.322 0 0 0 .126-.132c.087-.157.163-.32.243-.48.563-1.124 1.13-2.244 1.813-3.302a.194.194 0 0 0 .018-.05l-2.043-.274a54.726 54.726 0 0 0-1.505 4.984h.002Zm2.275-10.213c-.114-.076-.215-.134-.304-.207-.076-.062-.14-.058-.221-.016-.212.106-.43.204-.643.308-1.398.68-2.73 1.49-3.974 2.422-.047.037-.094.078-.141.117.292.377 1.287 1.089 1.756 1.273a30.015 30.015 0 0 1 3.526-3.897h.001ZM49.26 8.325c-.054.035-.094.057-.127.085A16.601 16.601 0 0 0 47.3 10.14c-.224.25-.39.547-.484.87a6.198 6.198 0 0 0-.24 2.538c.02.181.056.361.084.542a.182.182 0 0 0 .082-.084 13.584 13.584 0 0 1 2.427-3.326.292.292 0 0 0 .087-.306 4.563 4.563 0 0 1-.009-1.912c.006-.046.01-.092.01-.138l.002.002ZM72.92 9.97c.246-.074.328-.22.358-.431.05-.328.134-.656.204-.984-.417-.466-1.044-.937-1.609-1.158-.564-.22-1.135-.28-1.717-.078-.538.188-.931.532-1.144 1.066a.943.943 0 0 0-.077.415c.06-.006.121-.017.18-.033.228-.084.457-.168.68-.264a.936.936 0 0 1 .489-.093c.586.073 1.136.234 1.574.66.075.072.154.14.234.208.277.235.557.468.826.691l.001.001ZM59.766 5.446c-1.865.469-3.665 1.086-5.39 1.933.17.482.432.927.773 1.309 1.516-1.158 3.142-2.101 4.858-2.897l-.24-.345Zm-.122-.66c-.828-.16-4.384.409-5.353.854-.123.403-.12 1.066.01 1.433 1.717-.833 3.514-1.445 5.363-1.915l-.02-.373Zm6.462.374c.062.017.118.033.174.047 1.39.352 2.75.81 4.07 1.369a.972.972 0 0 0 .435.09c.18 0 .36.01.538.03.067.005.134.016.205.024.04-.308.034-.62-.018-.927-.018-.12-.07-.18-.188-.21-.545-.137-1.086-.295-1.634-.421-1.136-.258-2.291-.372-3.455-.399a1.261 1.261 0 0 0-.127.01v.387ZM54.612 4.158c-.082.008-.14.011-.195.02-.66.093-1.32.194-1.98.285a.45.45 0 0 0-.263.115c-.3.28-.612.55-.898.843a6.81 6.81 0 0 0-1.265 1.798c-.025.052-.073.1-.047.179l.154-.1a16.615 16.615 0 0 1 3.746-1.847.265.265 0 0 0 .184-.18c.075-.207.163-.408.262-.604.086-.167.19-.32.302-.509Zm8.431 2.652c0 .6-.003 1.194 0 1.788.004.595-.007 1.182.008 1.763.184-.094.349-.19.52-.268.44-.196.882-.384 1.323-.575.057-.025.113-.053.18-.083a48.93 48.93 0 0 0-1.188-2.72l-.843.095Zm8.11-2.656a.66.66 0 0 0 .034.078c.236.332.419.698.541 1.085.027.089.094.106.164.134.433.168.868.328 1.295.51.58.25 1.144.538 1.688.86.038.021.09.051.126.04.152-.046.3-.107.454-.164-.016-.033-.024-.054-.037-.074-.507-.81-1.157-1.49-1.897-2.09a.34.34 0 0 0-.158-.06c-.436-.067-.872-.132-1.31-.195-.29-.042-.583-.08-.9-.124Zm-.003 15.392c.018-.324.103-.641.25-.93.155-.317.332-.623.5-.933l.064-.127a.452.452 0 0 0-.181.08l-3.334 2.146c-.127.082-.26.152-.4.21-.279.113-.534.07-.75-.148-.065-.065-.131-.128-.214-.208-.094.456-.317.838-.522 1.262.175-.012.316-.006.45-.034.818-.168 1.628-.367 2.386-.733.197-.1.4-.185.61-.256.367-.119.742-.215 1.141-.329Zm-22.532-1.3c-.28.821-.5 1.661-.662 2.514.547.14 1.068.187 1.586-.036.424-.189.832-.41 1.222-.66a.367.367 0 0 1 .08-.03c-.411-.304-.793-.568-1.153-.858-.361-.29-.707-.611-1.073-.93Zm20.065-10.51c-.056-.036-.102-.07-.151-.099-.4-.234-.794-.481-1.203-.7-.558-.298-1.126-.575-1.692-.857-.047-.025-.123-.055-.16-.035-.128.07-.245.162-.369.248.051.052.087.09.124.126.364.358.737.707 1.09 1.077.411.432.805.881 1.207 1.323.043.047.075.105.152.1l.635-.034c.09-.647.103-.687.367-1.148Zm-5.621-6.534c-.04.31-.026 1.72.011 1.827.282.038.557.07.83.115a.21.21 0 0 0 .215-.066 11.861 11.861 0 0 1 1.68-1.453c.036-.025.067-.057.117-.1a13.279 13.279 0 0 0-2.853-.323Zm-.357 1.821V1.218c-.465-.074-2.602.169-2.837.332l.123.093c.22.17.45.328.657.512.335.294.656.603.985.906.05.047.087.1.174.086.291-.043.584-.08.898-.124Zm4.488 5.903a28.725 28.725 0 0 0-2.401-2.486l-.569.196 1.173 2.67c.21-.087.412-.16.603-.253.191-.098.406-.143.62-.13.175.014.353.004.574.004v-.001ZM64.39 3.248l.375.147c.015.009.03.015.047.018.05.004.1 0 .15-.011 1.165-.414 2.369-.652 3.598-.778.066-.006.132-.02.229-.034-.043-.03-.06-.047-.079-.055-.729-.385-1.5-.686-2.298-.895a.183.183 0 0 0-.173.047c-.246.184-.496.364-.738.553-.395.31-.766.647-1.111 1.01v-.002Zm-3.028 0c-.038-.043-.067-.078-.098-.11-.534-.546-1.13-1.015-1.75-1.458a.22.22 0 0 0-.209-.03c-.758.2-1.491.483-2.187.843-.044.023-.085.053-.157.098.265.03.495.053.725.084 1.06.14 2.104.362 3.114.725a.22.22 0 0 0 .132.014c.142-.044.28-.103.43-.163v-.003Zm4.492.901c.14.311.14.313.447.317.784.012 1.566.076 2.341.19.867.125 1.723.314 2.562.568.046.014.093.02.157.033a3.754 3.754 0 0 0-.62-1.087.229.229 0 0 0-.146-.074c-.486-.037-.972-.076-1.46-.097a20.394 20.394 0 0 0-2.868.098c-.136.016-.271.037-.413.055v-.003ZM54.398 5.268c1.731-.53 3.53-.801 5.34-.808l.176-.307a1.064 1.064 0 0 0-.109-.022c-.59-.045-1.18-.1-1.771-.13-.947-.046-1.892.004-2.837.085a.277.277 0 0 0-.216.12 4.284 4.284 0 0 0-.52.881c-.02.05-.033.099-.062.183v-.002Zm12.765 6.436c-.595.115-1.19.056-1.78.071-.038.05-.076.094-.11.14-.33.464-.741.865-1.213 1.184-.32.221-.642.437-.966.653-.453.303-.85.663-1.158 1.115-.024.035-.042.074-.077.135.575-.108 1.099-.288 1.626-.479 0-.15.006-.288 0-.426a.206.206 0 0 1 .103-.2c.456-.322.926-.62 1.437-.844.743-.328 1.418-.765 2.052-1.267.03-.023.057-.052.086-.079v-.003ZM65.75 5.79a26.879 26.879 0 0 1 3.137 1.696 2.909 2.909 0 0 1 1.097-.716 27.054 27.054 0 0 0-3.994-1.327l-.24.347Zm-.51-2.164c.106.08.183.132.253.192a.213.213 0 0 0 .176.047c.469-.047.934-.099 1.403-.134a20.11 20.11 0 0 1 2.678-.006l.61.035a.782.782 0 0 0-.054-.072 5.777 5.777 0 0 0-.962-.77.347.347 0 0 0-.196-.045c-.231.015-.463.039-.693.063-.916.095-1.823.272-2.707.53-.16.047-.317.102-.508.163v-.003Zm-9.83.108.016.03c.255-.017.509-.04.763-.052a22.289 22.289 0 0 1 3.823.14c.09.012.179.048.26-.04.074-.067.152-.13.235-.187-.081-.027-.13-.047-.18-.061a13.87 13.87 0 0 0-2.404-.549c-.437-.061-.877-.097-1.314-.144a.29.29 0 0 0-.227.06c-.29.234-.581.46-.87.692-.036.036-.07.074-.101.114v-.003Zm18.31 4.244c.208-.42.568-.662.934-.927a16.234 16.234 0 0 0-2.784-1.284v1.054c.702.238 1.294.647 1.85 1.16v-.003Zm-27.506 4.637c-.404.664-.868 4.058-.678 4.88.004-.003.012-.005.013-.01.008-.027.014-.055.02-.083.184-.92.465-1.818.839-2.678a.338.338 0 0 0 .01-.234 6.263 6.263 0 0 1-.203-1.371c-.004-.157 0-.317 0-.501v-.003Zm6.65-8.518c.185-.028.326-.052.47-.07.469-.064.941-.128 1.413-.188A.375.375 0 0 0 55 3.712a5.93 5.93 0 0 1 .862-.78.663.663 0 0 0 .073-.075l-.012-.037c-.22 0-.44-.003-.66 0a.489.489 0 0 0-.182.047c-.723.327-1.422.705-2.092 1.13-.033.022-.06.05-.123.1ZM69.839 2.82l-.015.047c.024.022.047.044.075.064.327.24.629.514.9.817a.24.24 0 0 0 .166.078c.414.053.828.108 1.242.164.21.028.417.061.66.098a.924.924 0 0 0-.077-.069 17.899 17.899 0 0 0-2.158-1.162.434.434 0 0 0-.168-.036c-.208-.003-.417 0-.625 0ZM47.87 9.08a.33.33 0 0 0 .043-.029c.455-.43.934-.834 1.434-1.212a.379.379 0 0 0 .116-.165c.172-.461.395-.902.664-1.314.026-.04.047-.085.07-.127A13.379 13.379 0 0 0 47.87 9.08Zm8.088-6.55c.098.007.196.011.293.023a.415.415 0 0 0 .279-.065c.198-.118.403-.225.606-.336.054-.03.11-.057.164-.085l-.013-.032c-.456.127-.9.292-1.329.495Zm12.504-.473a.35.35 0 0 0 .042.034l.79.434c.03.018.063.03.097.032.13-.005.26-.017.41-.027-.228-.133-1.121-.445-1.339-.475v.002Zm7.523 4.601c-.103-.165-.297-.351-.394-.375.06.094.123.188.172.281.049.094.118.131.222.092v.002ZM46.127 21.231l.047.011c.016-.043.057-.097.043-.127-.06-.14-.137-.273-.208-.409l-.027.014.145.511Z"/>
<path fill="#fff" d="M74.394 31.445v3.622h-.841c-.035-.125-.05-5.448-.016-5.805.137-.046.281-.015.422-.02.14-.006.278 0 .435 0l.575 1.803.57 1.78.034-.005v-3.568h.873v5.792c-.128.042-.67.05-.878.012l-1.138-3.613-.036.002ZM54.968 29.24c.52.012 1.02-.047 1.51.09.316.08.605.245.837.475.218.22.354.509.382.817.059.593-.104 1.099-.593 1.474a.466.466 0 0 0-.043.047c.036.03.069.06.104.087.375.289.547.673.545 1.144-.004.925-.648 1.584-1.589 1.687-.356.038-.718.015-1.078.02a.371.371 0 0 1-.075-.018V29.24Zm.878 2.597c.108-.015.206-.02.3-.041.537-.124.905-.558.81-1.188-.067-.454-.602-.807-1.11-.74v1.969Zm.008.634c-.04.305-.025 1.772.018 1.893.382-.021.711-.145.938-.475.348-.508.15-1.166-.419-1.406-.181-.075-.353 0-.538-.011ZM51.356 29.25h.878v4.576a.526.526 0 0 0 .54.504c.273 0 .546-.195.547-.512v-4.554c.152-.044.29-.02.428-.023.137-.005.277 0 .433 0 .006.06.015.11.015.159v4.397c0 .727-.535 1.17-1.079 1.296-.296.07-.607.047-.89-.065a1.305 1.305 0 0 1-.872-1.258v-4.52ZM63.603 35.076V29.27c.011-.008.02-.02.03-.02.453-.01.908-.05 1.354.05.21.048.411.12.603.217.312.156.522.409.654.737.311.775.375 1.582.328 2.405a5.405 5.405 0 0 1-.21 1.193c-.198.686-.678 1.042-1.351 1.172-.206.033-.415.05-.623.05-.255.008-.51.002-.785.002Zm.905-.592c.1-.01.199-.025.297-.047.468-.133.803-.403.89-.91a7.81 7.81 0 0 0 .1-1.382 7.047 7.047 0 0 0-.14-1.379c-.094-.456-.395-.718-.817-.863a.626.626 0 0 0-.365-.04l.035 4.621ZM80.222 31.739c.004.065.009.122.009.178 0 .834 0 1.668.003 2.502a.282.282 0 0 1-.131.26 2.461 2.461 0 0 1-.964.422c-.422.081-.794-.028-1.129-.281a2.085 2.085 0 0 1-.624-.802c-.278-.596-.353-1.231-.353-1.88 0-.564.059-1.12.26-1.654a2.36 2.36 0 0 1 .523-.853c.317-.318.69-.498 1.153-.479.328.014.65.028.96.14.251.094.251.094.251.357v.468a.997.997 0 0 1-.015.118c-.029-.01-.047-.01-.06-.02-.238-.249-.548-.31-.873-.328-.105-.006-.21 0-.314-.005-.263-.01-.457.108-.605.315-.154.218-.231.469-.281.723a6.63 6.63 0 0 0-.092 1.713c.021.328.052.659.157.974.05.154.116.302.199.441.212.344.524.413.91.306.085-.023.154-.063.152-.18-.006-.521-.002-1.042-.003-1.563a.622.622 0 0 0-.013-.08h-.411c-.04-.134-.047-.586-.014-.796l1.305.004ZM58.816 35.071h-.818c.083-.5.195-.984.292-1.466.097-.482.198-.963.297-1.445l.299-1.462.3-1.448h.701l1.194 5.813h-.825l-.258-1.378h-.922l-.26 1.386Zm1.068-2.003c-.114-.623-.216-1.223-.367-1.816l-.333 1.816h.7ZM70.53 29.255h.832l-1.125 5.791c-.131.038-.368.041-.556.009l-1.126-5.797h.832l.554 3.827h.032l.557-3.83ZM50.753 33.926c.008.082.014.12.015.158 0 .122.004.244 0 .365-.004.122-.018.239-.028.358-.173.12-.312.285-.549.312a1.477 1.477 0 0 1-1.167-.34c-.321-.267-.526-.613-.67-.999a4.085 4.085 0 0 1-.235-1.135c-.047-.65-.02-1.296.164-1.927.108-.37.27-.714.53-1.006.234-.267.515-.463.875-.533.206-.038.418-.034.623.011.126.026.205.126.307.187.135.082.16.188.154.333-.01.2-.002.401-.002.602l-.037.017c-.059-.065-.12-.129-.177-.196a.684.684 0 0 0-.48-.248c-.334-.03-.574.106-.74.387-.174.295-.245.623-.286.958a7.108 7.108 0 0 0 0 1.819c.039.24.095.476.167.707.038.11.09.213.154.31.27.45.932.421 1.18.087.052-.069.117-.13.202-.227ZM45.725 34.158c.088.077.14.123.192.166.218.178.426.197.656.062.249-.143.367-.374.329-.636-.038-.245-.144-.464-.262-.676-.26-.465-.526-.926-.787-1.39a9.914 9.914 0 0 1-.31-.582 1.442 1.442 0 0 1-.111-.9c.08-.429.34-.725.734-.909.328-.152.671-.17 1.021-.11.078.019.151.054.215.102a.162.162 0 0 1 .062.114c.004.22 0 .44 0 .66 0 .009-.013.017-.028.035l-.183-.15c-.173-.14-.366-.18-.57-.086-.215.1-.382.255-.393.508a1.03 1.03 0 0 0 .062.406c.087.22.19.434.307.64.242.435.5.861.742 1.296.114.202.213.41.298.625.1.262.114.55.04.82-.141.526-.512.81-1.02.937a1.69 1.69 0 0 1-.726.01c-.197-.036-.267-.12-.267-.314l-.001-.628ZM72.732 35.07h-.824c-.034-.129-.042-5.622-.009-5.816.039-.007.078-.011.117-.013h.706c.04.14.048 5.63.01 5.829ZM72.254 35.897h.816c.081 0 .108.055.14.108l.642.993c.03.05.07.097.114.136-.067-.404-.054-.807-.047-1.225h.883v2.326h-.435c-.143 0-.3-.01-.45-.015-.083-.119-.167-.234-.248-.356-.148-.221-.295-.444-.444-.665-.03-.047-.065-.09-.106-.146l.027 1.171h-.895l.003-2.327ZM60.11 37.131c-.087-.4-.069-.803-.062-1.22h.88v2.301c-.148.042-.298.014-.446.02-.148.004-.29 0-.438 0l-.782-1.172-.027.006c.01.188.023.379.028.568.005.19 0 .38 0 .566-.135.039-.667.047-.887.016v-2.32h.207c.174 0 .35.011.523 0 .123-.008.188.04.25.142.2.324.411.644.618.965l.097.14.038-.012ZM67.19 35.065v-5.792c.124-.04.63-.047.853-.007v5.799h-.854ZM47.384 35.902h.883c.14.212.278.425.416.639.138.213.267.416.415.617-.086-.412-.047-.822-.054-1.252.296-.02.582-.007.883-.008v2.336h-.332c-.14 0-.279-.003-.418.003a.215.215 0 0 1-.212-.113c-.206-.321-.422-.637-.634-.955-.028-.042-.06-.082-.091-.125l.028 1.18h-.87c-.036-.123-.049-2.007-.014-2.322ZM70.169 38.269a1.597 1.597 0 0 1-.782-.182 1.142 1.142 0 0 1-.107-1.968c.51-.347 1.302-.346 1.813 0a1.143 1.143 0 0 1-.094 1.96 1.64 1.64 0 0 1-.83.19Zm.013-.736c.274 0 .474-.187.477-.444a.462.462 0 0 0-.484-.46c-.274.004-.469.199-.469.457s.202.447.474.447h.002ZM56.812 38.22l-.375-.671-.034.008v.669c-.31.018-.603.005-.892.005-.039-.137-.049-2.076-.013-2.321a.885.885 0 0 1 .111-.013c.372 0 .744-.01 1.115.006.168.008.333.043.49.105.403.162.522.523.427.932-.034.145-.141.237-.269.302l-.16.074.668.904h-1.068Zm-.401-1.295c.131 0 .259.02.322-.1a.225.225 0 0 0-.006-.192c-.07-.112-.192-.094-.316-.087v.38ZM76.206 35.903h1.038l.907 2.323h-.979l-.1-.274h-.682l-.087.273h-.981l.883-2.322Zm.348 1.47h.355l-.166-.655-.033.005-.156.65ZM64.27 38.223h-.98l-.089-.27h-.69l-.086.27h-.976l.88-2.317h1.037l.904 2.317Zm-1.597-.843h.361l-.165-.666h-.035l-.161.666ZM53.028 35.904h1.7v.628h-.756v.22h.682v.618h-.685v.22h.79c.012.213.003.413.005.609-.13.043-1.36.058-1.72.024-.035-.123-.05-1.926-.016-2.319ZM51.012 36.65h-.502v-.744h1.937v.744h-.498c-.014.166-.004.338-.006.508v1.068h-.93V36.65ZM66.569 36.648h-.503v1.573h-.93V36.65h-.481c-.038-.127-.043-.557-.007-.743h1.92v.741ZM78.686 35.906h.927v1.57h.767v.75h-1.694v-2.32ZM68.079 38.223h-.9v-2.315h.89c.031.125.042 2.07.01 2.315ZM46.606 38.226h-.888c-.037-.13-.051-2-.02-2.302.121-.035.64-.044.892-.016.035.128.049 1.984.016 2.318ZM82.506 38.07c.317 0 .57.274.57.617 0 .344-.253.62-.572.62-.32 0-.578-.272-.578-.62s.259-.617.578-.617h.002Zm0 .093c-.256 0-.466.235-.466.523 0 .289.21.524.47.524s.469-.23.469-.522c0-.29-.21-.524-.47-.524h-.003Zm-.109.883h-.104v-.688a1.1 1.1 0 0 1 .184-.017.318.318 0 0 1 .201.053.166.166 0 0 1 .06.14.17.17 0 0 1-.126.169v.005c.057.011.094.066.108.167.006.059.02.116.041.171h-.108a.625.625 0 0 1-.047-.175c-.015-.089-.057-.122-.141-.122h-.071l.003.297Zm0-.383h.073c.087 0 .158-.032.158-.116 0-.061-.041-.122-.158-.122a.567.567 0 0 0-.074.005l.001.233Z"/>

</svg>