<svg width="111" height="54" viewBox="0 0 111 54" fill="none" xmlns="http://www.w3.org/2000/svg">
<g clip-path="url(#clip0)">
<path d="M47.8118 27.4485H55.2954V33.1737L47.8118 27.4485Z" fill="white"/>
<path d="M47.4715 28.6892V37.0635C47.3725 36.3623 47.2299 35.6679 47.0446 34.9843C46.6284 33.4651 45.9554 32.1322 45.0257 30.9854C44.096 29.8387 42.9209 28.959 41.5005 28.3463C40.0789 27.737 38.2136 27.4309 35.9046 27.428H24.1866V41.9041C22.6653 36.8584 12.5798 35.7318 12.5798 35.7318C8.64692 35.1452 9.38854 33.1806 9.38854 33.1806C9.74687 31.8121 12.9805 31.9817 12.9805 31.9817C15.796 32.4948 16.0057 35.0067 16.0057 35.0067L23.5349 34.6021C22.3232 26.2209 12.6821 27.418 12.6821 27.418C2.67962 27.2453 1.96109 33.6919 1.96109 33.6919C1.24194 41.8966 13.9987 42.1323 14.2378 42.588C15.5569 40.6491 20.707 43.7851 20.707 43.7851C17.6519 43.2165 16.3996 44.9484 16.3996 44.9484C15.7479 45.9965 13.8795 45.4397 13.8795 45.4397C13.6991 47.6075 12.3812 47.6069 12.3812 47.6069C10.4641 48.0633 9.98596 50.8576 9.98596 50.8576C8.00893 45.4958 11.1839 44.5856 11.1839 44.5856L0.946045 44.5345C2.98738 53.382 12.6197 52.2816 12.6197 52.2816C21.4068 52.2816 23.6317 47.9573 24.1835 45.4385V52.3751H35.9046C37.3076 52.3751 38.8738 52.148 40.6034 51.6937C41.869 51.3653 43.0528 50.7049 44.1549 49.7123C45.2569 48.7198 46.1186 47.4886 46.7399 46.0189C47.0745 45.2253 47.3167 44.2508 47.4715 43.108V52.3015H55.2604V34.8097L47.4715 28.6892ZM39.1789 44.3175C38.7856 45.2099 38.2396 45.835 37.5408 46.1929C36.8421 46.5507 35.6687 46.7299 34.0206 46.7303H32.0854V33.0715H34.0543C36.0994 33.0715 37.5637 33.5603 38.4472 34.5379C39.3308 35.5155 39.7734 37.3291 39.775 39.9788C39.775 41.9785 39.5763 43.4247 39.1789 44.3175Z" fill="white"/>
<path d="M56.6302 49.9099C57.0528 49.9099 57.3899 50.2753 57.3899 50.7323C57.3899 51.1892 57.0497 51.5602 56.6245 51.5602C56.1994 51.5602 55.8567 51.198 55.8567 50.7347C55.8567 50.2715 56.2007 49.9124 56.6245 49.9124L56.6302 49.9099ZM56.6302 50.0346C56.2893 50.0346 56.0109 50.3463 56.0109 50.7304C56.0109 51.1144 56.2893 51.4274 56.6352 51.4274C56.981 51.4274 57.2594 51.1207 57.2594 50.7335C57.2594 50.3463 56.9816 50.0352 56.6352 50.0352L56.6302 50.0346ZM56.4803 51.2111H56.3418V50.2933C56.4226 50.2793 56.5044 50.272 56.5865 50.2715C56.6811 50.2643 56.7755 50.2891 56.8543 50.342C56.8817 50.3645 56.9033 50.3932 56.9173 50.4257C56.9313 50.4583 56.9373 50.4937 56.9348 50.529C56.9358 50.5797 56.9197 50.6292 56.8892 50.6697C56.8586 50.7102 56.8153 50.7392 56.7663 50.7522V50.7591C56.8418 50.7746 56.8911 50.847 56.9098 50.9816C56.9174 51.0598 56.9357 51.1366 56.9641 51.2098H56.8174C56.7853 51.1354 56.7643 51.0566 56.755 50.976C56.7357 50.8582 56.6801 50.8139 56.5677 50.8139H56.4803V51.2111ZM56.4803 50.7017H56.5783C56.6938 50.7017 56.7887 50.6593 56.7887 50.5471C56.7887 50.466 56.7344 50.3844 56.5783 50.3844C56.5456 50.3845 56.5128 50.3868 56.4803 50.3912V50.7017Z" fill="white"/>
<path d="M84.1019 53.2318H62.9395C62.367 53.2318 61.7946 53.2212 61.2228 53.2318C60.6509 53.2424 60.1996 53.026 59.8132 52.6401C59.635 52.4687 59.4941 52.2625 59.399 52.0344C59.304 51.8063 59.2569 51.5611 59.2607 51.314C59.264 41.5303 59.267 31.7463 59.2695 21.9621C59.2695 21.4634 59.35 20.9646 59.4093 20.4696C59.5653 19.1769 59.8392 17.9012 60.2277 16.6583C60.415 16.0567 60.6584 15.4738 60.8732 14.8784C61.1622 14.0903 61.5492 13.3422 61.9513 12.6071C62.5563 11.496 63.2566 10.4395 64.0444 9.44927C64.5462 8.81366 65.08 8.20396 65.6438 7.62253C66.2578 6.99294 66.9048 6.39629 67.5821 5.83507C68.3028 5.24097 69.0551 4.68611 69.8357 4.17292C71.5756 3.03655 73.4498 2.11974 75.4153 1.44341C76.2269 1.17096 77.0502 0.927185 77.8824 0.727054C79.478 0.343002 81.0936 0.0855132 82.736 0.0287783C84.2823 -0.0248393 85.8273 -0.0179812 87.3655 0.182773C88.2233 0.294996 89.0735 0.450861 89.92 0.629171C90.7816 0.810771 91.6309 1.0467 92.4626 1.33555C93.0382 1.53506 93.6081 1.75078 94.1774 1.96836C95.2267 2.3802 96.2419 2.87363 97.2138 3.4441C97.8219 3.79386 98.3999 4.19225 98.9886 4.57879C99.734 5.06447 100.421 5.62683 101.094 6.20415C101.503 6.55516 101.893 6.93049 102.27 7.31578C102.777 7.83388 103.284 8.35447 103.751 8.90748C104.203 9.44303 104.617 10.0123 105.025 10.5827C106.664 12.9156 107.828 15.5481 108.449 18.3298C108.651 19.2081 108.793 20.0993 108.873 20.997C108.903 21.3711 108.926 21.7501 108.926 22.1267C108.929 28.2483 108.929 34.37 108.926 40.492C108.926 44.123 108.919 47.7541 108.932 51.3851C108.932 52.0491 108.63 52.5073 108.129 52.8814C107.803 53.1204 107.406 53.2438 107.001 53.2318C99.3688 53.2301 91.7358 53.2301 84.1019 53.2318ZM103.287 14.9513C103.307 15.1676 103.349 15.3734 103.341 15.5785C103.345 15.7114 103.305 15.8418 103.225 15.9486C103.146 16.0554 103.033 16.1321 102.904 16.1664C102.788 16.2086 102.668 16.2401 102.546 16.2606C102.143 16.3111 101.743 16.3485 101.408 16.0336C101.363 15.9955 101.307 15.9731 101.249 15.9699C101.19 15.9668 101.133 15.983 101.084 16.0162C101.032 16.0396 100.988 16.0791 100.96 16.1288C100.932 16.1786 100.92 16.2361 100.926 16.293C100.953 16.5846 100.961 16.8776 100.949 17.1702C100.942 17.245 100.95 17.3205 100.973 17.3922C100.996 17.4638 101.033 17.5302 101.082 17.5873C101.373 17.9664 101.67 18.3436 101.93 18.7432C102.095 19.0119 102.235 19.2956 102.347 19.5905C102.449 19.828 102.457 20.0954 102.37 20.3386C102.143 20.987 101.819 21.5968 101.407 22.1467C101.225 22.3966 100.995 22.6084 100.731 22.7701C100.669 22.8121 100.62 22.8712 100.592 22.9403C100.498 23.1517 100.418 23.3686 100.33 23.5825C99.9606 24.4815 99.5573 25.3643 99.0236 26.1817C98.629 26.7865 98.1733 27.3395 97.604 27.7896C97.3936 27.9561 97.1751 28.1369 96.9292 28.2298C95.2225 28.8799 93.429 29.2748 91.6067 29.4019C90.5268 29.4748 89.4443 29.5041 88.3606 29.5453C88.3007 29.5425 88.2413 29.5565 88.189 29.5857C88.1367 29.6149 88.0937 29.6581 88.0647 29.7105C87.4792 30.6174 86.8293 31.4812 86.1201 32.2954C85.606 32.9024 85.0485 33.4714 84.4521 33.998C84.4098 34.0417 84.3578 34.075 84.3004 34.0952C84.243 34.1154 84.1817 34.1221 84.1212 34.1146C83.1168 33.9899 82.1099 33.8839 81.1061 33.7524C80.1023 33.6208 79.0866 33.455 78.1015 33.1875C77.3366 32.9856 76.5361 32.9585 75.7593 33.1083C75.1662 33.2143 74.6874 33.4868 74.3672 34.0092C74.2829 34.147 74.183 34.2761 74.0956 34.412C73.3946 35.5024 72.4182 36.3185 71.4063 37.0997C71.3758 37.1227 71.3436 37.1436 71.3102 37.1621C70.9356 37.3741 70.548 37.5218 70.1035 37.5019C68.8831 37.4458 67.6614 37.4115 66.4416 37.3498C65.6544 37.3098 64.8684 37.2363 64.0825 37.1783C63.8702 37.1627 63.6686 37.116 63.5044 36.9713C63.3028 36.7924 63.3059 36.5636 63.5188 36.4015C63.6075 36.3401 63.703 36.2893 63.8034 36.25C64.1705 36.0879 64.5419 35.9382 64.9078 35.7699C66.803 34.9108 68.6134 33.892 70.4087 32.8459C71.2827 32.3365 72.1498 31.814 72.9588 31.2031C73.3609 30.9001 73.7279 30.5677 74.0076 30.1369C74.3029 29.6818 74.7567 29.4511 75.2986 29.4274C75.6731 29.4094 75.9934 29.5228 76.19 29.8863C76.3147 30.1082 76.4568 30.3198 76.6151 30.5191C76.8755 30.8577 77.2282 31.0179 77.6583 31.0316C78.2825 31.0497 78.85 30.867 79.3825 30.5677C80.2327 30.0889 81.1435 29.9225 82.1074 29.9985C82.1523 30.0023 82.1979 29.9985 82.2603 29.9985C82.2678 29.9256 82.2759 29.8589 82.2803 29.7915C82.3103 29.3227 82.3315 28.8526 82.3714 28.3844C82.4306 27.5502 82.6971 26.7438 83.1468 26.0383C83.1752 25.9862 83.2006 25.9325 83.2229 25.8775C83.1112 25.9217 83.0413 25.9504 82.9732 25.9772C82.505 26.1574 82.0406 26.3513 81.5668 26.5146C80.3182 26.9511 79.0441 27.2989 77.7076 27.3507C77.624 27.3596 77.5424 27.3822 77.466 27.4174C77.1139 27.5552 76.7706 27.7179 76.4116 27.8332C75.1631 28.2348 73.8715 28.4249 72.5799 28.6169C71.6479 28.7553 70.7121 28.8738 69.7839 29.0365C68.2076 29.3133 66.7088 29.8358 65.2636 30.5185C64.4036 30.9122 63.6712 31.5385 63.1492 32.3265C62.0636 33.9594 61.0467 35.6309 60.0754 37.3335C60.0295 37.421 60.0061 37.5185 60.0073 37.6172C60.0032 41.8946 60.0011 46.1682 60.0011 50.4381C59.9987 50.6857 60.0458 50.9313 60.1397 51.1605C60.2336 51.3898 60.3724 51.5979 60.5479 51.7729C61.0149 52.2536 61.5929 52.4637 62.2603 52.4587C63.8688 52.4533 65.4773 52.4516 67.0858 52.4537C70.411 52.4537 73.7363 52.4568 77.0615 52.4631C80.6581 52.4631 84.2544 52.4631 87.8506 52.4631C90.333 52.4631 92.8157 52.4631 95.2986 52.4631C97.99 52.4631 100.681 52.4612 103.372 52.4574C104.309 52.4574 105.245 52.4718 106.181 52.4481C107.281 52.4207 108.264 51.5129 108.241 50.3252C108.205 48.2834 108.227 46.2403 108.228 44.1972C108.228 40.5737 108.23 36.9503 108.235 33.3272C108.235 29.804 108.228 26.2821 108.235 22.757C108.258 18.6428 107.04 14.617 104.739 11.2043C104.699 11.1542 104.655 11.1067 104.609 11.0622V11.8882C104.618 11.8951 104.641 11.9151 104.666 11.9313C104.987 12.1401 105.108 12.4487 105.056 12.8097C104.976 13.3832 104.78 13.9346 104.481 14.4307C104.274 14.773 103.953 14.9395 103.55 14.9426C103.457 14.9488 103.367 14.9488 103.287 14.9488V14.9513ZM60.0011 30.8421L60.0467 30.8589C60.0866 30.7966 60.1247 30.7342 60.1659 30.6719C60.5498 30.1033 60.9212 29.5253 61.3251 28.9711C61.4637 28.7809 61.4918 28.6319 61.4225 28.4099C60.991 27.0263 60.72 25.5977 60.6147 24.1523C60.5038 22.6596 60.5603 21.1592 60.7833 19.679C61.1113 17.4917 61.8031 15.3745 62.8302 13.4151C63.9532 11.2795 65.4291 9.34852 67.1957 7.70358C68.1152 6.83946 69.1203 6.08258 70.1434 5.34814C71.6816 4.24205 73.3667 3.35548 75.15 2.71402C77.6396 1.81063 80.2146 1.34241 82.8571 1.22146C83.8848 1.17333 84.9143 1.18228 85.941 1.24827C87.1911 1.32736 88.4342 1.49403 89.6609 1.74704C91.6392 2.14843 93.5579 2.80088 95.3704 3.68849C96.4479 4.2203 97.4448 4.87868 98.4199 5.57695C99.6865 6.48409 100.883 7.46791 101.945 8.6076C102.19 8.87007 102.445 9.07332 102.803 9.14439C102.914 9.17716 103.023 9.21886 103.127 9.26909C103.181 9.28966 103.235 9.30462 103.337 9.33767C103.257 9.23791 103.212 9.17744 103.162 9.11946C101.001 6.6035 98.3396 4.56504 95.3461 3.13424C92.1567 1.59678 88.787 0.779425 85.2499 0.62356C83.5956 0.551728 81.9382 0.635222 80.2995 0.872944C78.0245 1.19659 75.8047 1.83053 73.7023 2.75704C69.8319 4.46719 66.5858 6.96353 64.0825 10.3807C61.3794 14.0753 59.9917 18.2083 60.0011 22.7932C60.0048 25.1141 60.0048 27.4349 60.0011 29.7554V30.8421ZM68.32 17.9071C67.061 19.7283 66.048 21.7074 65.3073 23.7932C65.9316 24.5314 67.8118 26.0439 68.4991 26.3619C68.5578 26.3232 68.624 26.2827 68.6864 26.2372C69.1365 25.9096 69.6173 25.6265 70.1222 25.3918C70.1884 25.3638 70.2473 25.3212 70.2947 25.2672C70.342 25.2132 70.3766 25.1492 70.3956 25.08C70.8779 23.6163 71.4504 22.1837 72.1099 20.7906C72.1267 20.752 72.1413 20.7125 72.1536 20.6722C71.475 20.252 70.8052 19.8542 70.1559 19.4253C69.4945 18.9815 68.879 18.473 68.3187 17.9071H68.32ZM76.6008 14.1321C75.7018 15.1415 72.9083 19.7781 72.7791 20.4808C74.333 21.2117 75.9642 21.7659 77.642 22.1329C78.2382 19.7881 78.9093 17.4888 79.7121 15.2275C79.1684 15.0598 78.6508 14.9158 78.1402 14.7375C77.6296 14.5591 77.122 14.3397 76.5995 14.1321H76.6008ZM73.7816 12.1289C71.7896 13.7162 70.0448 15.4956 68.584 17.5387C69.1053 18.2581 71.4269 19.9234 72.3664 20.2501C73.4518 18.0227 74.7414 15.9005 76.2187 13.9108C75.3154 13.422 74.502 12.8552 73.781 12.1289H73.7816ZM83.9727 4.44226C83.7798 4.45971 83.4314 4.47655 83.0881 4.5258C82.4734 4.6039 81.8789 4.79701 81.3358 5.09502C81.0281 5.25932 80.7581 5.48589 80.543 5.76025C80.1753 6.24842 80.1597 6.81203 80.5255 7.3002C80.6621 7.47682 80.8202 7.63578 80.9962 7.77341C81.3101 8.01292 81.6633 8.19623 82.04 8.31519C82.8853 8.59924 83.7803 8.70538 84.6687 8.62692C85.3904 8.57206 86.0889 8.41432 86.7406 8.08763C87.0479 7.94052 87.3263 7.73972 87.5628 7.49472C88.1196 6.89994 88.1165 6.18545 87.5572 5.59503C87.3368 5.36595 87.0788 5.17618 86.7943 5.03392C85.9584 4.60623 85.0576 4.45971 83.9727 4.44226ZM66.1607 14.498C66.0751 14.5972 66.0258 14.6558 65.9734 14.7138C65.6444 15.0922 65.3085 15.4619 64.9883 15.8497C64.1371 16.8885 63.4134 18.0252 62.8327 19.2357C62.7894 19.3156 62.7636 19.4038 62.7571 19.4945C62.7507 19.5851 62.7637 19.6761 62.7953 19.7613C63.2404 21.0793 63.9433 22.2464 64.8453 23.3001C64.8865 23.3422 64.9298 23.3822 64.9752 23.4198C65.7363 21.3555 66.7568 19.396 68.0122 17.5885C67.2007 16.6845 66.5614 15.6938 66.1607 14.498ZM72.4108 10.0272C72.3546 10.0509 72.3258 10.0609 72.299 10.0746C70.2583 11.1345 68.3662 12.4063 66.6938 13.9887C66.5527 14.1221 66.5333 14.235 66.592 14.4108C66.9047 15.325 67.3817 16.1745 67.9997 16.9177C68.0809 17.0168 68.1676 17.1116 68.2688 17.2294C69.7527 15.1934 71.5134 13.3737 73.5001 11.8228C73.0344 11.2926 72.6657 10.6849 72.4108 10.0272ZM63.8172 27.4841C63.8347 27.4218 63.849 27.3806 63.859 27.337C64.095 26.2528 64.3659 25.1779 64.733 24.1305C64.7954 23.9497 64.7604 23.8381 64.6393 23.7028C63.7373 22.6922 63.0163 21.5693 62.5287 20.3018C62.5106 20.2551 62.4831 20.2114 62.4476 20.1422C62.4132 20.2158 62.3889 20.2619 62.3702 20.3093C61.7352 21.9417 61.3464 23.6591 61.2165 25.4055C61.2107 25.52 61.2334 25.6342 61.2827 25.7378C61.5805 26.3725 61.8876 27.0028 62.1935 27.6337C62.2232 27.6869 62.2559 27.7383 62.2915 27.7877C62.7559 27.4255 63.2635 27.3413 63.8178 27.4847L63.8172 27.4841ZM82.8059 8.93928C82.4457 9.42869 80.3607 14.4675 80.3326 14.9158C80.8514 15.0617 82.5718 15.283 83.0625 15.2736C83.1006 15.2732 83.138 15.2627 83.1709 15.2434C83.2037 15.224 83.2309 15.1964 83.2498 15.1633C83.4258 14.9289 83.6006 14.6932 83.7879 14.4681C83.8672 14.3745 83.9082 14.2545 83.9028 14.1321C83.9007 12.5211 83.9007 10.91 83.9028 9.29901C83.9028 9.22357 83.9028 9.14814 83.9028 9.06397L82.8059 8.93928ZM72.1935 7.67552C72.1597 7.67806 72.1261 7.68306 72.093 7.69048C70.1758 8.37097 68.3649 9.31955 66.7144 10.5079C66.6281 10.5721 66.5677 10.665 66.544 10.7698C66.3256 11.519 66.2487 12.3023 66.3173 13.0797C66.333 13.2667 66.3723 13.45 66.4072 13.6801C68.1801 12.0073 70.1528 10.708 72.2753 9.62259C72.1111 8.9865 72.084 8.32283 72.196 7.67552H72.1935ZM77.4317 22.507C75.7349 22.1061 74.1231 21.575 72.5837 20.8436C72.1941 21.4746 70.9231 24.6667 70.9132 25.0333C70.9593 25.0189 71.0037 25.0077 71.0467 24.9915C72.3026 24.5203 73.6459 24.3268 74.9839 24.4242C75.0407 24.4302 75.0981 24.4236 75.152 24.405C75.206 24.3863 75.2552 24.3561 75.2961 24.3163C75.7314 23.9347 76.1698 23.5565 76.6114 23.1816C76.8686 22.9653 77.1333 22.7564 77.4317 22.507ZM82.3496 8.8364C82.1723 8.77406 82.0025 8.74226 81.8552 8.66558C81.6585 8.56333 81.5287 8.60884 81.372 8.75535C79.9289 10.1067 78.5888 11.5639 77.363 13.1146C77.1969 13.3247 77.0353 13.5392 76.8536 13.7742C77.8138 14.2362 78.8235 14.5876 79.8632 14.8216C80.6017 12.781 81.4251 10.7984 82.3496 8.8364ZM78.1415 21.9702C78.1753 21.9607 78.2083 21.9484 78.2401 21.9334C78.7816 21.5766 79.347 21.2575 79.9325 20.9783C80.0045 20.9372 80.0631 20.8762 80.101 20.8025C80.2159 20.5936 80.3176 20.3767 80.4244 20.1634C81.1735 18.6671 81.9282 17.1771 82.8365 15.7693C82.8477 15.7483 82.8559 15.7258 82.8609 15.7026L80.1416 15.3372C79.3744 17.5031 78.7077 19.7015 78.139 21.9702H78.1415ZM81.1697 8.37879C81.0174 8.27654 80.8832 8.19923 80.7646 8.10259C80.6641 8.0203 80.5773 8.02591 80.4706 8.08077C80.1878 8.22292 79.8994 8.3526 79.6153 8.49163C77.7537 9.39627 75.9825 10.4756 74.3254 11.7149C74.2629 11.7642 74.2005 11.819 74.1381 11.8702C74.5264 12.3727 75.851 13.3197 76.4753 13.5641C77.8846 11.7015 79.4548 9.96603 81.1679 8.37754L81.1697 8.37879ZM65.9921 11.0796C65.9203 11.127 65.8673 11.1563 65.8229 11.1931C64.953 11.8971 64.1378 12.6662 63.3846 13.4937C63.0865 13.827 62.8666 14.2225 62.741 14.6514C62.4016 15.7434 62.2929 16.8939 62.422 18.03C62.4482 18.2712 62.4956 18.5106 62.5331 18.7507C62.5808 18.7265 62.6192 18.6873 62.6423 18.6391C63.4876 17.0083 64.5767 15.5156 65.8723 14.2125C65.9288 14.163 65.9699 14.0983 65.9905 14.0261C66.0111 13.9538 66.0104 13.8772 65.9884 13.8054C65.8046 12.9676 65.8003 12.1005 65.9759 11.261C65.9839 11.2002 65.9884 11.1391 65.9896 11.0777L65.9921 11.0796ZM97.4798 13.2711C97.8075 13.1726 97.9168 12.9774 97.9573 12.6969C98.0241 12.2605 98.1359 11.824 98.2289 11.3876C97.6733 10.7673 96.8393 10.1407 96.0877 9.84641C95.3361 9.55214 94.577 9.47234 93.8016 9.74292C93.0856 9.9923 92.5625 10.4505 92.2797 11.1607C92.2039 11.3349 92.1687 11.5239 92.1767 11.7137C92.2579 11.7059 92.3383 11.6913 92.417 11.67C92.7204 11.5578 93.0244 11.4462 93.321 11.3184C93.5313 11.228 93.7436 11.1657 93.9721 11.1937C94.7518 11.291 95.484 11.5054 96.0671 12.0715C96.1663 12.1682 96.2718 12.2586 96.3792 12.349C96.7469 12.662 97.1202 12.9718 97.4773 13.2698L97.4798 13.2711ZM79.9774 7.24845C77.4947 7.87191 75.0994 8.69363 72.8028 9.82085C73.0294 10.4626 73.3788 11.0543 73.8316 11.5628C75.8492 10.0216 78.0141 8.76658 80.2983 7.70794L79.9774 7.24845ZM79.8145 6.36875C78.7127 6.15615 73.9795 6.91365 72.6904 7.50656C72.5262 8.04212 72.5294 8.92556 72.7042 9.41311C74.9889 8.30459 77.3799 7.49098 79.8407 6.86502L79.8145 6.36875ZM88.4149 6.86752C88.4973 6.88996 88.5716 6.91116 88.6459 6.92986C90.4953 7.39844 92.3061 8.00746 94.0626 8.75161C94.2438 8.83572 94.4421 8.87669 94.6419 8.87132C94.8812 8.87154 95.1202 8.88528 95.3579 8.91247C95.4472 8.9187 95.5358 8.93304 95.6307 8.94426C95.6845 8.53409 95.6763 8.11818 95.6064 7.71044C95.5827 7.54958 95.5134 7.4704 95.3567 7.43113C94.6307 7.24783 93.9115 7.03772 93.1818 6.87001C91.6698 6.52648 90.1329 6.37498 88.5835 6.33945C88.5269 6.34116 88.4704 6.34573 88.4143 6.35316L88.4149 6.86752ZM73.1162 5.53456C73.0075 5.54453 72.9289 5.5489 72.8565 5.5595C71.9781 5.68419 71.1004 5.81886 70.2215 5.93981C70.0914 5.95123 69.9686 6.00488 69.8719 6.09256C69.473 6.46663 69.0566 6.82512 68.6764 7.21478C67.9892 7.91633 67.4206 8.72467 66.9928 9.60825C66.9597 9.67683 66.896 9.74167 66.9304 9.84579C67.0065 9.79653 67.0715 9.75601 67.1351 9.71361C67.8619 9.23307 68.6165 8.79588 69.3949 8.40435C70.2764 7.95953 71.1872 7.57542 72.1211 7.25469C72.179 7.23883 72.2319 7.20845 72.2747 7.16644C72.3175 7.12443 72.3489 7.07218 72.3658 7.01465C72.4659 6.74025 72.5825 6.47209 72.7148 6.21164C72.829 5.98968 72.967 5.78519 73.1162 5.53456ZM84.3372 9.06334C84.3372 9.86137 84.3322 10.6525 84.3372 11.4437C84.3422 12.2349 84.3272 13.0167 84.3472 13.7898C84.5926 13.6651 84.8117 13.5361 85.0408 13.4332C85.6251 13.172 86.2138 12.9219 86.8006 12.6669C86.8761 12.6339 86.951 12.5977 87.039 12.5566C86.5396 11.3215 86.0215 10.1157 85.459 8.93616L84.3372 9.06334ZM95.1307 5.52832C95.1435 5.56421 95.1588 5.5992 95.1763 5.63306C95.4897 6.07394 95.7326 6.56087 95.896 7.07638C95.9316 7.19483 96.0209 7.2179 96.1139 7.25469C96.6895 7.47788 97.2688 7.69111 97.8369 7.93301C98.6092 8.26692 99.3598 8.64903 100.084 9.07706C100.135 9.10636 100.205 9.14627 100.251 9.13193C100.454 9.06958 100.651 8.98915 100.856 8.91309C100.835 8.86945 100.823 8.84077 100.807 8.81521C100.132 7.73787 99.267 6.83136 98.2813 6.03395C98.2192 5.99018 98.1471 5.96274 98.0716 5.95415C97.4914 5.86437 96.9107 5.77771 96.3293 5.69416C95.9416 5.63805 95.5521 5.58631 95.1313 5.52895L95.1307 5.52832ZM95.1269 26.014C95.1503 25.5825 95.2634 25.1606 95.4591 24.7752C95.6657 24.3543 95.9004 23.9472 96.1233 23.5339C96.1532 23.4784 96.1813 23.4216 96.21 23.3655C96.1226 23.3827 96.0401 23.4191 95.9685 23.4721C94.4898 24.4248 93.0107 25.3768 91.5312 26.3282C91.3627 26.4367 91.1847 26.5298 90.9993 26.6063C90.6285 26.7584 90.2889 26.6998 90.0005 26.4105C89.9144 26.3245 89.8264 26.2403 89.7165 26.1331C89.5916 26.7403 89.2945 27.2491 89.0211 27.8133C89.2539 27.7971 89.4418 27.8052 89.6203 27.7684C90.7097 27.5446 91.7872 27.2796 92.796 26.7927C93.0582 26.6601 93.3294 26.546 93.6075 26.451C94.0957 26.2939 94.5951 26.1649 95.1269 26.014ZM65.1394 24.2839C64.7669 25.3767 64.4721 26.4945 64.2573 27.6288C64.9858 27.8158 65.6794 27.8781 66.3685 27.5814C66.9323 27.3299 67.4762 27.0361 67.9954 26.7023C68.0294 26.6856 68.0652 26.6728 68.1021 26.6643C67.554 26.2584 67.0465 25.9068 66.5664 25.5208C66.0864 25.1349 65.6257 24.7078 65.1394 24.2839ZM91.8433 10.2972C91.7684 10.2479 91.7072 10.2024 91.6417 10.1644C91.1092 9.85265 90.5848 9.52346 90.0405 9.23293C89.2982 8.83641 88.5423 8.46794 87.7894 8.09137C87.727 8.05895 87.6252 8.01905 87.5765 8.04586C87.4061 8.13938 87.2507 8.26095 87.0852 8.37504C87.1533 8.44425 87.2013 8.49413 87.25 8.54276C87.7345 9.01908 88.2307 9.48356 88.6996 9.97672C89.2483 10.5515 89.7727 11.1494 90.307 11.738C90.3638 11.8003 90.4075 11.877 90.5099 11.8708C90.7933 11.8546 91.0761 11.8396 91.3539 11.8247C91.475 10.9643 91.4913 10.9107 91.8427 10.2972H91.8433ZM84.3616 1.5999C84.3085 2.01325 84.3279 3.888 84.3772 4.03139C84.7517 4.0819 85.1176 4.12367 85.4821 4.18414C85.533 4.19793 85.5868 4.19698 85.6372 4.18142C85.6876 4.16586 85.7326 4.13631 85.7668 4.09623C86.4504 3.3835 87.1995 2.73642 88.0041 2.16351C88.051 2.12984 88.0928 2.08744 88.1596 2.02946C86.9129 1.74939 85.6394 1.60536 84.3616 1.5999ZM83.8871 4.02391V1.6211C83.2685 1.52259 80.4244 1.84554 80.111 2.06251L80.2752 2.1872C80.568 2.41351 80.8732 2.62362 81.1491 2.86864C81.5949 3.25955 82.0231 3.67103 82.4601 4.07441C82.5263 4.13676 82.5756 4.20721 82.6923 4.18851C83.0794 4.13115 83.4695 4.0819 83.8871 4.02391ZM89.8601 11.8795C88.8623 10.7135 87.7952 9.60864 86.6645 8.57081L85.9079 8.83142L87.4685 12.3851C87.7469 12.2698 88.016 12.1725 88.2713 12.0485C88.5256 11.9179 88.8106 11.8584 89.096 11.8764C89.3294 11.8945 89.566 11.8814 89.8601 11.8814V11.8795ZM86.1295 4.32317L86.6289 4.51832C86.6482 4.52994 86.6693 4.53817 86.6913 4.54263C86.7579 4.54806 86.8249 4.54301 86.8898 4.52767C88.4417 3.97715 90.0436 3.65981 91.6792 3.49272C91.7678 3.484 91.8552 3.46654 91.9838 3.44721C91.9264 3.40606 91.9045 3.38487 91.8795 3.37364C90.909 2.86099 89.8827 2.46163 88.8207 2.18346C88.7802 2.17317 88.7377 2.1735 88.6973 2.18442C88.6569 2.19534 88.6201 2.21649 88.5903 2.2458C88.2626 2.4902 87.9299 2.72961 87.6077 2.98149C87.083 3.39291 86.5889 3.84195 86.1295 4.32505V4.32317ZM82.0999 4.32317C82.0487 4.26582 82.0106 4.21906 81.9688 4.17666C81.259 3.45033 80.4643 2.82625 79.6409 2.23583C79.6015 2.20647 79.5554 2.18749 79.5067 2.18062C79.4581 2.17376 79.4085 2.17924 79.3625 2.19655C78.3537 2.46231 77.3775 2.83867 76.4516 3.31878C76.3929 3.34933 76.3386 3.38861 76.2431 3.44846C76.5952 3.48898 76.9017 3.51891 77.2069 3.56006C78.619 3.7471 80.0074 4.04199 81.3514 4.52518C81.4067 4.5494 81.4682 4.55594 81.5274 4.54388C81.7166 4.4859 81.9001 4.40672 82.0999 4.32692V4.32317ZM88.0778 5.52209C88.2651 5.93607 88.2651 5.93918 88.6733 5.94417C89.7161 5.96029 90.7567 6.04484 91.7884 6.1973C92.9423 6.36259 94.0819 6.6152 95.1975 6.95293C95.2599 6.97101 95.3223 6.97912 95.4072 6.9972C95.215 6.47188 94.9358 5.98252 94.5813 5.54952C94.531 5.49392 94.4619 5.45884 94.3872 5.45101C93.7405 5.40238 93.0937 5.35001 92.4457 5.32196C91.1716 5.27567 89.8958 5.31921 88.6278 5.45226C88.4467 5.47408 88.2663 5.50151 88.0784 5.52583L88.0778 5.52209ZM72.8315 7.01091C75.1351 6.30702 77.5297 5.94467 79.9387 5.93544L80.1722 5.52708C80.1244 5.51479 80.0761 5.50501 80.0273 5.49777C79.2414 5.43855 78.4567 5.3656 77.6701 5.3257C76.4098 5.26335 75.1519 5.33069 73.8952 5.43855C73.8381 5.44111 73.7824 5.45692 73.7324 5.48473C73.6825 5.51254 73.6397 5.55159 73.6075 5.59877C73.3309 5.96055 73.0987 6.35404 72.9158 6.77088C72.8896 6.83634 72.8715 6.90181 72.8321 7.01465L72.8315 7.01091ZM89.8195 15.5773C89.0286 15.7294 88.237 15.6521 87.451 15.6714C87.3999 15.7369 87.3493 15.7961 87.3056 15.8584C86.8653 16.4755 86.3182 17.0091 85.69 17.4339C85.2649 17.7276 84.8354 18.0156 84.4053 18.303C83.8022 18.7058 83.2741 19.1846 82.8634 19.7862C82.8315 19.833 82.8072 19.8854 82.7616 19.9664C83.5269 19.8224 84.2236 19.583 84.9253 19.3292C84.9253 19.1297 84.9328 18.9452 84.9253 18.7613C84.92 18.7084 84.9302 18.6551 84.9546 18.6079C84.979 18.5607 85.0165 18.5215 85.0626 18.4951C85.6688 18.0667 86.2943 17.6715 86.9754 17.3728C87.9629 16.9364 88.8612 16.3541 89.7059 15.6864C89.7446 15.6552 89.7814 15.6172 89.8201 15.5816L89.8195 15.5773ZM87.9405 7.70607C89.3809 8.36538 90.7759 9.11956 92.1161 9.96362C92.5239 9.53926 93.0233 9.21344 93.5763 9.01097C91.8531 8.28493 90.0759 7.69418 88.2607 7.24409L87.9405 7.70607ZM87.2613 4.82568C87.4036 4.9323 87.5054 5.00212 87.599 5.0813C87.6309 5.10828 87.6684 5.12786 87.7087 5.13864C87.7491 5.14942 87.7914 5.15113 87.8325 5.14365C88.4567 5.0813 89.076 5.01272 89.6996 4.96596C90.8865 4.88402 92.0775 4.88131 93.2648 4.95786C93.5232 4.97282 93.7823 4.98716 94.0763 5.00399C94.0542 4.97065 94.0303 4.9386 94.0045 4.90798C93.6156 4.52169 93.1863 4.17808 92.7242 3.88301C92.6449 3.83814 92.5541 3.81774 92.4632 3.82441C92.1555 3.84373 91.8477 3.87553 91.5412 3.90795C90.3212 4.0339 89.1152 4.27012 87.938 4.61371C87.7257 4.67605 87.5166 4.749 87.2619 4.83005L87.2613 4.82568ZM74.1799 4.9697L74.2011 5.0096C74.5395 4.98654 74.8778 4.95723 75.2162 4.94102C76.9145 4.85741 78.6169 4.91999 80.3045 5.12806C80.4244 5.14302 80.5424 5.19041 80.6504 5.07444C80.7484 4.98407 80.8527 4.90073 80.9625 4.82506C80.8551 4.78828 80.7902 4.76271 80.724 4.74339C79.681 4.40546 78.6099 4.16113 77.5234 4.01331C76.9429 3.93164 76.3573 3.88426 75.7755 3.82067C75.7222 3.81218 75.6677 3.81495 75.6156 3.8288C75.5634 3.84266 75.5148 3.86728 75.4727 3.90109C75.0882 4.21282 74.6999 4.51395 74.3154 4.82257C74.2666 4.86958 74.2216 4.92022 74.1805 4.97407L74.1799 4.9697ZM98.5473 10.6176C98.8251 10.0603 99.3039 9.73668 99.7908 9.38443C98.6128 8.6993 97.3725 8.12711 96.0864 7.67552V9.07769C97.0197 9.3944 97.8081 9.93931 98.5485 10.622L98.5473 10.6176ZM61.9413 16.7899C61.4032 17.6733 60.7858 22.1903 61.038 23.2851C61.0442 23.2807 61.0548 23.2776 61.0561 23.2714C61.0661 23.2348 61.0748 23.1978 61.0823 23.1604C61.3265 21.9361 61.7007 20.7412 62.1985 19.5961C62.2398 19.497 62.2445 19.3865 62.2116 19.2844C62.0545 18.6881 61.9641 18.0763 61.9419 17.4601C61.9363 17.2506 61.9419 17.038 61.9419 16.793L61.9413 16.7899ZM70.792 5.45351C71.0368 5.4161 71.2247 5.3843 71.4163 5.35874C72.0406 5.27395 72.6692 5.18916 73.2966 5.10936C73.4264 5.09921 73.5472 5.03881 73.633 4.94102C73.9804 4.55854 74.3645 4.21106 74.7798 3.90359C74.8149 3.87257 74.8475 3.8388 74.8772 3.80258L74.8616 3.75333C74.5688 3.75333 74.276 3.74897 73.9833 3.75333C73.899 3.75816 73.8165 3.77933 73.7404 3.81568C72.7785 4.25152 71.8482 4.75379 70.9562 5.31884C70.9119 5.34877 70.8751 5.38555 70.792 5.45351ZM93.3796 3.75395L93.3597 3.8163C93.3928 3.84498 93.4221 3.87491 93.4595 3.90109C93.8951 4.22162 94.2967 4.58574 94.6581 4.98778C94.6862 5.01874 94.7201 5.04388 94.7579 5.06174C94.7957 5.07961 94.8367 5.08985 94.8785 5.0919C95.4299 5.16256 95.9811 5.2353 96.5322 5.31011C96.8099 5.34814 97.0871 5.39179 97.4111 5.44042C97.3783 5.40812 97.3437 5.37773 97.3075 5.34939C96.3869 4.76859 95.4274 4.25157 94.4359 3.80196C94.3653 3.77144 94.2893 3.75533 94.2124 3.75458C93.9352 3.75084 93.6574 3.75395 93.3796 3.75395ZM64.1437 12.0853C64.1634 12.0739 64.1822 12.0609 64.1999 12.0466C64.806 11.4741 65.4433 10.9355 66.1088 10.4331C66.1791 10.3752 66.2324 10.2993 66.263 10.2136C66.4924 9.5998 66.7888 9.01311 67.147 8.4642C67.1819 8.41058 67.2094 8.35135 67.24 8.29524C66.0382 9.41025 64.9962 10.6856 64.1437 12.0853ZM74.9078 3.36679C75.0376 3.37676 75.1687 3.38237 75.298 3.39858C75.4279 3.41461 75.5594 3.38389 75.6688 3.31192C75.9328 3.15419 76.2056 3.01204 76.4753 2.86428C76.5471 2.825 76.6208 2.78884 76.6938 2.75143L76.6757 2.70904C76.0687 2.8777 75.4773 3.09775 74.9078 3.36679ZM91.5493 2.73834C91.5669 2.75451 91.5857 2.76931 91.6055 2.7826C91.9555 2.97588 92.3059 3.16853 92.6567 3.36055C92.6954 3.38528 92.7396 3.39986 92.7854 3.40295C92.9583 3.39671 93.1312 3.38113 93.3322 3.36741C93.0282 3.19097 91.8383 2.7745 91.5493 2.73584V2.73834ZM101.562 8.86134C101.424 8.64126 101.166 8.39375 101.037 8.36258C101.115 8.48727 101.2 8.61196 101.265 8.73665C101.331 8.86134 101.423 8.9106 101.562 8.85885V8.86134ZM61.8233 28.2566L61.8857 28.2715C61.9069 28.2142 61.9619 28.1425 61.9438 28.102C61.8626 27.9149 61.7609 27.7385 61.6666 27.5577L61.6304 27.5758L61.8233 28.2566Z" fill="white"/>
<path d="M99.4438 41.8498V46.6697H98.3245C98.2777 46.5033 98.2571 39.4201 98.3033 38.945C98.4862 38.8827 98.6779 38.9245 98.8652 38.917C99.0524 38.9095 99.2353 38.917 99.4445 38.917C99.701 39.7206 99.9551 40.5187 100.21 41.3167C100.465 42.1147 100.715 42.8972 100.968 43.6858L101.014 43.6802V38.9313H102.176V46.6392C102.005 46.6959 101.282 46.7065 101.006 46.6548L99.4913 41.8473L99.4438 41.8498Z" fill="white"/>
<path d="M73.5906 38.9152C74.281 38.9314 74.9465 38.8529 75.5988 39.0355C76.0204 39.1422 76.4053 39.3604 76.7131 39.6671C77.0043 39.9597 77.1844 40.3443 77.2225 40.755C77.2999 41.5431 77.0839 42.2171 76.4335 42.7158C76.4129 42.7353 76.3937 42.7561 76.376 42.7782C76.4235 42.8187 76.4672 42.8592 76.514 42.8948C77.0134 43.2788 77.2419 43.79 77.2394 44.4172C77.2344 45.6486 76.3767 46.5252 75.125 46.6617C74.6512 46.7128 74.1687 46.6823 73.6892 46.6879C73.6552 46.6839 73.6218 46.6764 73.5894 46.6654L73.5906 38.9152ZM74.7586 42.3711C74.9015 42.3517 75.032 42.3449 75.1575 42.3162C75.8729 42.1522 76.3617 41.5743 76.2362 40.7363C76.1463 40.1316 75.4347 39.6621 74.7586 39.7513V42.3711ZM74.7686 43.2158C74.7161 43.6205 74.7361 45.5731 74.7929 45.7346C75.3017 45.7066 75.7399 45.5413 76.0414 45.1018C76.5053 44.426 76.24 43.5506 75.484 43.2314C75.2424 43.1317 75.0145 43.2314 74.768 43.2158H74.7686Z" fill="white"/>
<path d="M68.7831 38.9283H69.9511C69.9511 39.086 69.9511 39.2301 69.9511 39.3747C69.9511 41.1865 69.9511 42.9983 69.9511 44.81C69.9511 44.8793 69.9511 44.9491 69.9511 45.0183C69.9589 45.2017 70.0385 45.3748 70.1727 45.5003C70.307 45.6257 70.4852 45.6935 70.669 45.6891C71.0329 45.6891 71.3969 45.4291 71.3987 45.0077C71.3987 44.9304 71.3987 44.8537 71.3987 44.7764C71.3987 42.9185 71.3987 41.0605 71.3987 39.2026C71.3987 39.1191 71.3987 39.0362 71.3987 38.9476C71.5998 38.889 71.7852 38.9215 71.9674 38.9158C72.1497 38.9102 72.337 38.9158 72.5443 38.9158C72.5524 38.9969 72.5642 39.0624 72.5642 39.1278C72.5642 41.0784 72.5642 43.029 72.5642 44.9796C72.5642 45.9479 71.8513 46.5383 71.1284 46.7047C70.7335 46.7968 70.3198 46.7668 69.9423 46.6187C69.2157 46.3413 68.7831 45.7191 68.7825 44.9435C68.7825 43.1562 68.7825 41.3675 68.7825 39.5773C68.7831 39.3691 68.7831 39.1615 68.7831 38.9283Z" fill="white"/>
<path d="M85.082 46.6822V38.955C85.0976 38.9444 85.1101 38.9288 85.1232 38.9282C85.725 38.9157 86.3312 38.8621 86.9248 38.9949C87.2027 39.0588 87.4718 39.1559 87.7264 39.2842C88.1415 39.4912 88.4218 39.8279 88.5972 40.2643C89.0111 41.2967 89.0966 42.3703 89.0342 43.4651C89.001 44.0034 88.9074 44.5363 88.7551 45.0537C88.4905 45.9665 87.8512 46.4397 86.956 46.6124C86.6817 46.6563 86.4043 46.6784 86.1264 46.6784C85.7874 46.6903 85.4478 46.6822 85.082 46.6822ZM86.2868 45.8948C86.4195 45.8819 86.5512 45.8611 86.6814 45.8324C87.3056 45.6541 87.7507 45.2956 87.8675 44.6217C87.966 44.0133 88.0103 43.3974 87.9998 42.7812C87.9978 42.1649 87.9351 41.5504 87.8125 40.9464C87.6877 40.3385 87.2869 39.99 86.7257 39.7979C86.5765 39.7468 86.4192 39.7013 86.2406 39.7449L86.2868 45.8948Z" fill="white"/>
<path d="M107.201 42.2408C107.205 42.328 107.212 42.4029 107.212 42.4777C107.212 43.5881 107.212 44.6978 107.216 45.8082C107.221 45.8763 107.208 45.9445 107.177 46.0055C107.146 46.0665 107.1 46.1179 107.042 46.1542C106.66 46.4315 106.222 46.6229 105.759 46.7153C105.197 46.8238 104.703 46.6785 104.257 46.3413C103.896 46.0596 103.611 45.6931 103.426 45.2745C103.056 44.4815 102.956 43.6354 102.956 42.7732C102.956 42.0219 103.034 41.2812 103.302 40.5705C103.45 40.1469 103.688 39.76 103.998 39.4358C104.42 39.0119 104.917 38.7724 105.532 38.798C105.969 38.8161 106.397 38.8354 106.81 38.985C107.145 39.1097 107.145 39.1097 107.145 39.4589C107.145 39.6671 107.145 39.8753 107.145 40.0823C107.141 40.1351 107.134 40.1875 107.124 40.2394C107.086 40.227 107.062 40.2264 107.045 40.2126C106.728 39.8816 106.315 39.8005 105.882 39.7762C105.744 39.7681 105.604 39.7762 105.465 39.7694C105.115 39.7556 104.857 39.9134 104.66 40.1889C104.454 40.4782 104.352 40.8124 104.286 41.1509C104.146 41.9023 104.105 42.6685 104.164 43.4303C104.191 43.8667 104.233 44.3075 104.373 44.7271C104.438 44.9323 104.527 45.1294 104.637 45.3144C104.92 45.772 105.334 45.8631 105.849 45.7215C105.961 45.691 106.053 45.6367 106.051 45.4821C106.043 44.7882 106.047 44.0943 106.046 43.401C106.043 43.3656 106.037 43.3304 106.03 43.2957H105.482C105.429 43.1161 105.42 42.5145 105.464 42.2358L107.201 42.2408Z" fill="white"/>
<path d="M78.7108 46.6753H77.6221C77.7326 46.0095 77.8824 45.3661 78.0116 44.7245C78.1408 44.083 78.2744 43.4427 78.4061 42.8012C78.5379 42.1596 78.6708 41.5037 78.8044 40.8553C78.938 40.2069 79.0691 39.5766 79.2039 38.9282H80.1372L81.7253 46.6641H80.6279L80.2839 44.8305H79.0572L78.7108 46.6753ZM80.1328 44.01C79.9805 43.1802 79.8457 42.3816 79.644 41.5929L79.2014 44.01H80.1328Z" fill="white"/>
<path d="M94.301 38.9351H95.409L93.9108 46.6423C93.7367 46.6921 93.4208 46.6971 93.1711 46.6535L91.6729 38.9382H92.7797L93.5175 44.0318H93.5594L94.301 38.9351Z" fill="white"/>
<path d="M67.9805 45.1523C67.9911 45.2607 67.9998 45.3112 68.0004 45.3624C68.0004 45.5245 68.0061 45.6866 68.0004 45.848C67.9948 46.0095 67.9767 46.1654 67.9636 46.3237C67.7326 46.4833 67.5478 46.7028 67.2326 46.7396C66.9563 46.7785 66.6749 46.7582 66.4071 46.6801C66.1393 46.6019 65.8912 46.4677 65.6794 46.2863C65.2518 45.931 64.979 45.4708 64.7867 44.9577C64.6113 44.4716 64.5062 43.9629 64.4746 43.4471C64.4121 42.5817 64.4471 41.722 64.6931 40.8822C64.8373 40.389 65.0533 39.9314 65.3979 39.543C65.71 39.1876 66.0846 38.9264 66.5634 38.8341C66.8377 38.7833 67.1194 38.7882 67.3918 38.8485C67.5597 38.8834 67.6646 39.0162 67.8007 39.0979C67.9805 39.207 68.0148 39.3472 68.0061 39.5405C67.9936 39.8074 68.0029 40.0748 68.0029 40.3423L67.9543 40.3647C67.8756 40.2774 67.7951 40.1926 67.7189 40.1035C67.6403 40.0081 67.5431 39.9296 67.4332 39.8729C67.3233 39.8162 67.203 39.7825 67.0796 39.7737C66.6352 39.7332 66.3155 39.9152 66.0958 40.288C65.8636 40.6808 65.7687 41.1179 65.7144 41.563C65.6107 42.3667 65.6107 43.1803 65.7144 43.9839C65.7654 44.3027 65.8397 44.6173 65.9366 44.9253C65.9868 45.0708 66.0554 45.2093 66.1407 45.3374C66.5009 45.9378 67.3812 45.8985 67.7127 45.4534C67.7813 45.3624 67.8668 45.2813 67.9805 45.1523Z" fill="white"/>
<path d="M61.2883 45.461C61.4057 45.5626 61.4756 45.6243 61.5437 45.6817C61.8346 45.918 62.1111 45.9435 62.4176 45.7646C62.7485 45.5732 62.9058 45.2658 62.8546 44.9179C62.8053 44.5919 62.6642 44.3007 62.5063 44.0177C62.1611 43.3986 61.8059 42.7851 61.4588 42.1678C61.3152 41.9128 61.1722 41.6572 61.0461 41.3935C60.8696 41.0206 60.8179 40.6009 60.8988 40.1965C61.0049 39.6247 61.3508 39.2307 61.8752 38.9863C62.3121 38.7831 62.7691 38.7588 63.2348 38.8392C63.3384 38.8647 63.4357 38.9112 63.5207 38.9757C63.5441 38.994 63.5634 39.0168 63.5775 39.0429C63.5915 39.069 63.6001 39.0977 63.6025 39.1272C63.6087 39.4196 63.6025 39.7127 63.6025 40.0051C63.6025 40.0169 63.5856 40.0281 63.5663 40.0524L63.3222 39.8529C63.0925 39.6659 62.8353 39.6129 62.565 39.7376C62.2778 39.8698 62.0549 40.0774 62.0406 40.4134C62.0314 40.5973 62.0595 40.7811 62.123 40.954C62.2395 41.2471 62.3762 41.5318 62.5319 41.8062C62.854 42.3848 63.1967 42.9522 63.5188 43.5314C63.6705 43.799 63.8034 44.0769 63.9165 44.3631C64.0498 44.7119 64.068 45.0942 63.9683 45.4541C63.781 46.1543 63.2872 46.5308 62.6124 46.701C62.295 46.7753 61.9653 46.7798 61.646 46.7141C61.3826 46.6661 61.2902 46.5545 61.2896 46.2964C61.289 46.0383 61.2883 45.7771 61.2883 45.461Z" fill="white"/>
<path d="M97.2327 46.674H96.1353C96.0897 46.5025 96.0791 39.1925 96.124 38.9331C96.1753 38.9246 96.227 38.919 96.2788 38.9163C96.5941 38.9163 96.91 38.9163 97.219 38.9163C97.2727 39.1033 97.2827 46.409 97.2327 46.674Z" fill="white"/>
<path d="M96.5958 47.7747C96.9703 47.7747 97.3274 47.7747 97.682 47.7747C97.79 47.7747 97.8256 47.8482 97.8693 47.9187C98.1535 48.3593 98.4378 48.7998 98.722 49.2404C98.7635 49.3079 98.8146 49.3691 98.8737 49.4218C98.7844 48.8838 98.8019 48.3476 98.8113 47.7915H99.9874V50.887C99.7889 50.887 99.5978 50.887 99.4074 50.887C99.2171 50.887 99.0085 50.8732 98.8088 50.8664C98.6989 50.7087 98.5865 50.5547 98.4792 50.3926C98.2813 50.0983 98.0859 49.8021 97.8886 49.5073C97.8474 49.4449 97.8019 49.3882 97.7463 49.3134L97.7825 50.872H96.592L96.5958 47.7747Z" fill="white"/>
<path d="M80.4324 49.4173C80.3181 48.8848 80.3419 48.348 80.3512 47.7925H81.5211V50.8562C81.3257 50.9117 81.1253 50.8743 80.9287 50.8812C80.732 50.888 80.5435 50.8812 80.3462 50.8812L79.3043 49.3225L79.2688 49.3306C79.2819 49.58 79.2993 49.8344 79.3062 50.0862C79.3131 50.3381 79.3062 50.5925 79.3062 50.84C79.1271 50.8911 78.4185 50.9024 78.1257 50.8606V47.7744H78.4017C78.6333 47.7744 78.8661 47.7882 79.0971 47.7744C79.2606 47.7632 79.3468 47.8274 79.4292 47.9615C79.697 48.3935 79.9773 48.8187 80.2532 49.2458C80.2938 49.3082 80.3387 49.3705 80.3812 49.4329L80.4324 49.4173Z" fill="white"/>
<path d="M89.855 46.6672V38.9587C90.0217 38.9045 90.6952 38.8964 90.9918 38.9494V46.6672H89.855Z" fill="white"/>
<path d="M63.4971 47.782H64.6719C64.8592 48.0645 65.0421 48.3475 65.2256 48.6318C65.4091 48.9161 65.5802 49.1854 65.7781 49.4529C65.6632 48.9049 65.7157 48.3587 65.7063 47.787C66.0996 47.7596 66.481 47.7777 66.8818 47.7764V50.8856H66.4398C66.2525 50.8856 66.0684 50.8819 65.8836 50.89C65.8268 50.8958 65.7697 50.8846 65.7194 50.8577C65.6691 50.8308 65.628 50.7895 65.6014 50.7391C65.3261 50.3114 65.0396 49.8906 64.7568 49.4679C64.7193 49.4118 64.6769 49.3581 64.6357 49.3014L64.6732 50.8725H63.5145C63.4677 50.7079 63.4502 48.201 63.4971 47.782Z" fill="white"/>
<path d="M93.8203 50.9317C93.4586 50.9407 93.1006 50.8572 92.7803 50.6891C92.544 50.568 92.3435 50.3872 92.199 50.1646C92.0544 49.9421 91.9707 49.6856 91.9563 49.4207C91.9419 49.1558 91.9973 48.8917 92.1169 48.6549C92.2365 48.418 92.4162 48.2165 92.638 48.0706C93.3166 47.608 94.3709 47.6092 95.0501 48.0706C95.27 48.216 95.4483 48.4159 95.5676 48.6508C95.6868 48.8857 95.7429 49.1476 95.7303 49.4106C95.7177 49.6737 95.6369 49.929 95.4958 50.1515C95.3546 50.374 95.1581 50.556 94.9253 50.6798C94.5856 50.8595 94.2044 50.9464 93.8203 50.9317ZM93.8378 49.9528C94.203 49.9528 94.4696 49.7034 94.4727 49.3612C94.4758 49.0189 94.1937 48.7446 93.8291 48.7496C93.4645 48.7545 93.2048 49.0139 93.2048 49.3574C93.2048 49.7009 93.4739 49.9516 93.8359 49.9528H93.8378Z" fill="white"/>
<path d="M76.0446 50.8669L75.5451 49.9728L75.4996 49.9834V50.8743C75.0869 50.898 74.698 50.8812 74.3135 50.8812C74.2616 50.6991 74.2479 48.118 74.296 47.792C74.3449 47.783 74.3943 47.7772 74.4439 47.7745C74.9383 47.7745 75.434 47.7614 75.9278 47.7826C76.151 47.7928 76.3708 47.8403 76.5783 47.9229C77.1152 48.1386 77.2737 48.618 77.147 49.1623C77.1021 49.3556 76.9597 49.4784 76.7899 49.5645C76.7156 49.6012 76.6401 49.6343 76.5777 49.663L77.4654 50.8669H76.0446ZM75.5102 49.143C75.6856 49.143 75.8548 49.1686 75.9397 49.0096C75.9572 48.969 75.9655 48.925 75.964 48.8808C75.9625 48.8366 75.9512 48.7933 75.9309 48.754C75.8373 48.6056 75.675 48.6293 75.5102 48.638V49.143Z" fill="white"/>
<path d="M101.855 47.7827H103.237L104.443 50.8745H103.141L103.009 50.5104H102.101L101.984 50.8732H100.678L101.855 47.7827ZM102.318 49.7398H102.791L102.569 48.8669L102.526 48.8738L102.318 49.7398Z" fill="white"/>
<path d="M85.9704 50.87H84.6663L84.5477 50.5109H83.6294L83.5146 50.8713H82.2148L83.3866 47.7864H84.7668L85.9704 50.87ZM83.8442 49.7478H84.3255L84.1057 48.8625H84.0589L83.8442 49.7478Z" fill="white"/>
<path d="M71.0086 47.7844H73.2709V48.6199H72.2646V48.9116H73.1729V49.7352H72.2608V50.0276H73.3108C73.3277 50.3119 73.3158 50.5775 73.3189 50.8381C73.1466 50.8955 71.5086 50.9154 71.0305 50.8699C70.983 50.706 70.9624 48.3069 71.0086 47.7844Z" fill="white"/>
<path d="M68.3257 48.7763H67.6565V47.7869H70.2353V48.7763H69.573C69.553 48.9982 69.5667 49.2264 69.5642 49.4534C69.5642 49.6922 69.5642 49.9303 69.5642 50.1691C69.5642 50.3979 69.5642 50.6274 69.5642 50.873H68.3263L68.3257 48.7763Z" fill="white"/>
<path d="M89.0293 48.7746H88.3607V50.8676H87.1222V48.7765H86.4823C86.4311 48.6082 86.4249 48.0358 86.473 47.7883H89.0293V48.7746Z" fill="white"/>
<path d="M105.156 47.7864H106.389V49.8768H107.411V50.8744H105.156V47.7864Z" fill="white"/>
<path d="M91.0388 50.8707H89.8408V47.7896H91.0269C91.0675 47.9566 91.0825 50.5452 91.0388 50.8707Z" fill="white"/>
<path d="M62.4612 50.8745H61.2788C61.2301 50.7018 61.2114 48.2136 61.2538 47.8114C61.4136 47.7647 62.1047 47.7528 62.44 47.7902C62.4868 47.9604 62.5049 50.43 62.4612 50.8745Z" fill="white"/>
<path d="M110.24 50.666C110.662 50.666 110.999 51.0314 110.999 51.4884C110.999 51.9454 110.662 52.3138 110.237 52.3138C109.811 52.3138 109.469 51.9516 109.469 51.4884C109.469 51.0251 109.813 50.666 110.237 50.666H110.24ZM110.24 50.7907C109.899 50.7907 109.62 51.1024 109.62 51.4865C109.62 51.8705 109.899 52.1835 110.245 52.1835C110.591 52.1835 110.869 51.8768 110.869 51.4896C110.869 51.1024 110.591 50.7913 110.245 50.7913L110.24 50.7907ZM110.096 51.9653H109.957V51.0494C110.038 51.0354 110.12 51.0281 110.202 51.0276C110.296 51.0204 110.391 51.0452 110.469 51.0981C110.497 51.1206 110.518 51.1493 110.532 51.1818C110.546 51.2144 110.552 51.2498 110.55 51.2851C110.551 51.3358 110.535 51.3853 110.504 51.4258C110.474 51.4663 110.43 51.4953 110.381 51.5083V51.5152C110.457 51.5308 110.506 51.6031 110.525 51.7377C110.533 51.8159 110.551 51.8927 110.579 51.9659H110.435C110.403 51.8915 110.382 51.8127 110.373 51.7321C110.353 51.6143 110.298 51.57 110.185 51.57H110.091L110.096 51.9653ZM110.096 51.4559H110.192C110.307 51.4559 110.402 51.4135 110.402 51.3013C110.402 51.2203 110.348 51.1386 110.192 51.1386C110.159 51.1387 110.126 51.141 110.094 51.1455L110.096 51.4559Z" fill="white"/>
</g>
<defs>
<clipPath id="clip0">
<rect width="110.054" height="53.2354" fill="white" transform="translate(0.946045)"/>
</clipPath>
</defs>
</svg>
