<svg width="21" height="20" viewBox="0 0 21 20" fill="none" xmlns="http://www.w3.org/2000/svg">
<g clip-path="url(#clip0_2044_5)">
<path d="M4.7619 6.6665V19.6991H16.1959V6.6665" stroke="#2C60AE" stroke-width="0.8" stroke-miterlimit="10"/>
<path d="M11.4245 0.959684C11.4245 0.959684 8.77255 0.942729 7.88855 0.959684C6.73751 0.983905 5.58647 1.05657 3.92437 3.38178C2.26227 5.707 0.952393 7.87962 0.952393 7.87962L4.96031 11.9972" stroke="#2C60AE" stroke-width="0.8" stroke-miterlimit="10"/>
<path d="M9.52789 0.959684C9.52789 0.959684 12.1799 0.942729 13.0639 0.959684C14.2149 0.983905 15.366 1.05657 17.0281 3.38178C18.6902 5.707 20 7.87962 20 7.87962L15.9921 11.9972" stroke="#2C60AE" stroke-width="0.8" stroke-miterlimit="10"/>
<path d="M14.2857 8.77655C14.2721 8.20451 14.0247 7.66108 13.5977 7.26556C13.1707 6.87004 12.599 6.65476 12.0083 6.667C11.4345 6.66447 10.88 6.86755 10.4515 7.23715L10.435 7.25311C10.0167 6.91752 9.48976 6.73508 8.94651 6.7377C8.35552 6.72546 7.78363 6.94066 7.35625 7.33612C6.92887 7.73157 6.68089 8.275 6.66669 8.84724C6.66729 9.16395 6.743 9.47629 6.88796 9.76019C7.03291 10.0441 7.24326 10.292 7.50278 10.4847L10.4515 13.3332L13.5862 10.2954C13.8058 10.1035 13.9815 9.86924 14.102 9.60766C14.2224 9.34607 14.285 9.06296 14.2857 8.77655Z" stroke="#2C60AE" stroke-width="0.8" stroke-miterlimit="10"/>
</g>
<defs>
<clipPath id="clip0_2044_5">
<rect width="20.9524" height="20" fill="white"/>
</clipPath>
</defs>
</svg>
