<svg width="16" height="20" viewBox="0 0 16 20" fill="none" xmlns="http://www.w3.org/2000/svg">
<path d="M2.80903 16.1111H2.78665C2.78665 16.1111 1.39703 16.1992 1.39703 18.0327V1.68134C1.39703 1.3824 1.5205 1.09571 1.74028 0.884331C1.96006 0.672951 2.25814 0.554199 2.56895 0.554199H2.80903V16.1111Z" stroke="#2C60AE" stroke-width="0.8" stroke-miterlimit="10"/>
<path d="M8.87354 0.554199V6.38755L11.079 4.26437L13.3171 6.4169V0.554199" stroke="#2C60AE" stroke-width="0.8" stroke-linecap="round" stroke-linejoin="round"/>
<path d="M2.80847 17.6431H13.8562" stroke="#2C60AE" stroke-width="0.8" stroke-miterlimit="10" stroke-linecap="round"/>
<path d="M12.078 16.1109H2.97326C2.54656 16.1237 2.14216 16.2972 1.84721 16.594C1.55227 16.8909 1.39039 17.2873 1.39647 17.6979V17.8544C1.39146 18.2643 1.55382 18.6597 1.84865 18.9557C2.14348 19.2517 2.54727 19.4247 2.97326 19.4375H13.9315C14.3589 19.4247 14.7639 19.2506 15.059 18.9529C15.354 18.6552 15.5154 18.2578 15.5083 17.8466V14.8115C15.5083 15.1559 15.254 15.4573 14.9691 15.7332C14.552 16.1324 12.7982 16.1109 12.078 16.1109Z" stroke="#2C60AE" stroke-width="0.8" stroke-miterlimit="10"/>
<path d="M15.5083 15V1.43478C15.5072 1.20087 15.4099 0.976905 15.2375 0.811876C15.0652 0.646847 14.8319 0.554197 14.5887 0.554199H2.80847V16.1052H13.4291" stroke="#2C60AE" stroke-width="0.8" stroke-miterlimit="10"/>
</svg>
