<svg xmlns="http://www.w3.org/2000/svg" xmlns:xlink="http://www.w3.org/1999/xlink"><defs><clipPath id="clip0"><path fill="#fff" d="M0 0h20v20H0z"/></clipPath><clipPath id="clip0"><path fill="#fff" d="M0 0h46.553v61H0z"/></clipPath></defs><symbol id="arrow-angle" viewBox="0 0 5 10"><path d="M0 10l5-5-5-5v10z"/></symbol><symbol id="arrow-thin" viewBox="0 0 9 18"><path d="M1 1l7 8-7 8" fill="none" stroke="#262C36"/></symbol><symbol id="box" viewBox="0 0 20 20"><g clip-path="url(#clip0)" fill="#262C36"><path d="M4.346 2.771L.738 4.686c-.061.033-.12.07-.175.11l9.226 4.81 3.864-1.91L4.346 2.77zm15.652 3.093l-4.616 2.283v2.572a.586.586 0 01-1.171 0V8.726l-3.843 1.901v9.309l.036-.017 8.835-4.477c.47-.234.76-.706.76-1.23V5.863zm-.758-1.179L10.407.21l-.004-.002a1.38 1.38 0 00-1.25.012L5.597 2.108l9.35 4.948 4.513-2.233a1.393 1.393 0 00-.22-.138zM.003 5.825a1.388 1.388 0 00-.003.08v8.316c0 .515.283.982.738 1.22l8.412 4.464.004.002.042.021v-9.31L.003 5.826zm6.315 6.95l-2.332 1.37c-.003 0-.006.002-.01.004l-.003.003-.011.005a.682.682 0 01-.035.017l-.018.008-.018.007-.018.006-.019.006-.017.005-.02.005c-.006 0-.011.002-.016.003l-.023.004-.014.002a.515.515 0 01-.028.003h-.009a.66.66 0 01-.037.002l-.021-.001h-.017l-.02-.002-.018-.002-.018-.003-.02-.003-.016-.004-.02-.005-.016-.005-.02-.006-.016-.006a.504.504 0 01-.02-.007l-.016-.007-.02-.009-.014-.007-.02-.01-.014-.01-.018-.01-.014-.01-.017-.013-.014-.011-.016-.013-.014-.013-.014-.013-.014-.015-.013-.013-.013-.017-.012-.014-.013-.017a.765.765 0 01-.022-.034l-.006-.01-.002-.004-.006-.01-.671-1.216a.586.586 0 011.026-.566l.38.69 1.814-1.064a.586.586 0 01.593 1.01z"/></g></symbol><symbol id="cart" viewBox="0 0 20 20"><path d="M6 16c-1.1 0-1.99.9-1.99 2S4.9 20 6 20s2-.9 2-2-.9-2-2-2zM0 0v2h2l3.6 7.59-1.35 2.45c-.16.28-.25.61-.25.96 0 1.1.9 2 2 2h12v-2H6.42c-.14 0-.25-.11-.25-.25l.03-.12.9-1.63h7.45c.75 0 1.41-.41 1.75-1.03l3.58-6.49A1.003 1.003 0 0019 2H4.21l-.94-2H0zm16 16c-1.1 0-1.99.9-1.99 2s.89 2 1.99 2 2-.9 2-2-.9-2-2-2z"/></symbol><symbol id="chevron-left" viewBox="0 0 7 11"><path d="M7 .974L5.947 0 0 5.5 5.947 11 7 10.027 2.105 5.5 7 .973z"/></symbol><symbol id="chevron-right" viewBox="0 0 7 11"><path d="M0 10.027L1.053 11 7 5.5 1.053 0 0 .974 4.895 5.5 0 10.027z"/></symbol><symbol id="info" viewBox="0 0 20 20"><path d="M9 5h2v2H9V5zm0 4h2v6H9V9zm1-9C4.48 0 0 4.48 0 10s4.48 10 10 10 10-4.48 10-10S15.52 0 10 0zm0 18c-4.41 0-8-3.59-8-8s3.59-8 8-8 8 3.59 8 8-3.59 8-8 8z"/></symbol><symbol id="mortarboard" viewBox="0 0 71 61"><path d="M69.612 12.307L36.192.19a2.026 2.026 0 00-1.384 0L1.388 12.307A2.135 2.135 0 000 14.321a2.135 2.135 0 001.383 2.017l33.42 12.21a2.028 2.028 0 001.394 0l33.42-12.21A2.135 2.135 0 0071 14.32a2.135 2.135 0 00-1.388-2.014zm-3.607 28.537V22.196l-4.16 1.52v17.128a4.313 4.313 0 00-2.098 3.722c0 1.593.844 2.982 2.097 3.723v10.506c0 1.181.932 2.138 2.08 2.138 1.15 0 2.08-.957 2.08-2.138V48.29a4.313 4.313 0 002.098-3.722 4.313 4.313 0 00-2.097-3.723z" fill="#1B498E"/><path d="M35.5 32.948a6.072 6.072 0 01-2.09-.37l-18.788-6.865v9.408c0 2.301 2.336 4.248 6.944 5.785 4.016 1.34 8.965 2.077 13.934 2.077 4.97 0 9.918-.738 13.934-2.077 4.608-1.537 6.944-3.484 6.944-5.785v-9.408L37.59 32.577a6.073 6.073 0 01-2.09.371z" fill="#1B498E"/></symbol><symbol id="open-book" viewBox="0 0 78 61"><path d="M11.932.013h-.007a2.72 2.72 0 00-1.955.83c-.53.54-.822 1.26-.822 2.026v42.825c0 1.57 1.254 2.851 2.795 2.855 6.497.016 17.382 1.402 24.89 9.442V13.174a2.78 2.78 0 00-.383-1.446C30.287 1.572 18.444.029 11.932.013zm56.92 45.681V2.87c0-.766-.292-1.486-.822-2.027a2.72 2.72 0 00-1.955-.83h-.007c-6.51.017-18.354 1.56-24.518 11.715-.25.414-.383.914-.383 1.447V57.99c7.509-8.04 18.394-9.426 24.89-9.442 1.541-.004 2.795-1.285 2.795-2.855z" fill="#1B498E"/><path d="M75.209 9.89h-2.024v35.804c0 4.01-3.193 7.28-7.118 7.29-5.51.013-14.597 1.115-21.032 7.347 11.13-2.788 22.862-.975 29.549.584a2.737 2.737 0 002.366-.552 2.865 2.865 0 001.05-2.23V12.744c0-1.575-1.253-2.856-2.791-2.856zM4.814 45.694V9.89H2.791C1.252 9.89 0 11.17 0 12.745V58.13c0 .874.382 1.687 1.049 2.23.668.546 1.53.748 2.366.553 6.687-1.56 18.42-3.372 29.549-.584-6.435-6.231-15.521-7.334-21.032-7.347-3.925-.01-7.118-3.28-7.118-7.289z" fill="#1B498E"/></symbol><symbol id="scuba-diving" viewBox="0 0 61 61"><path d="M34.074 43.129c-4.927 0-8.935 4.009-8.935 8.936 0 4.926 4.008 8.935 8.935 8.935 4.927 0 8.936-4.009 8.936-8.935 0-4.927-4.009-8.936-8.936-8.936zm1.787 10.723h-3.574v-3.575h3.574v3.575zM43.01 0H28.712c-6.31 0-11.99 3.853-14.637 9.495 2.16-1.31 4.783-2.108 7.488-2.108h28.594c2.705 0 5.328.798 7.488 2.108C54.999 3.853 49.319 0 43.009 0zm7.148 10.96H21.564c-5.912 0-10.841 4.81-10.841 10.724 0 5.912 4.929 10.722 10.841 10.722h3.575c3.783 0 7.216-1.979 9.186-5.295l1.536-2.588 1.536 2.588c1.97 3.316 5.403 5.295 9.187 5.295h3.574c5.913 0 10.842-4.81 10.842-10.722 0-5.913-4.929-10.723-10.842-10.723z" fill="#1B498E"/><path d="M35.862 31.071a14.095 14.095 0 01-7.351 4.475c1.637 2.446 4.326 4.009 7.35 4.009 3.025 0 5.714-1.563 7.352-4.009a14.09 14.09 0 01-7.351-4.475zM22.148 48.49h-2.37c-6.91 0-12.63-5.6-12.63-12.51v-3.574H0v3.575c0 10.856 8.92 19.658 19.777 19.658h2.37c-.342-1.14-.582-2.324-.582-3.575 0-1.25.24-2.434.583-3.574zm-15-23.232H0v3.574h7.148v-3.574zM7.148 0H0v21.684h7.148V0z" fill="#1B498E"/></symbol><symbol id="textbook" viewBox="0 0 47 61"><g clip-path="url(#clip0)" fill="#1B498E"><path d="M-.05 49.862v.002c0 3.293 2.712 5.973 6.046 5.973h3.34v-5.973c0-1.001.82-1.811 1.833-1.811h35.435v-4.164H5.996c-3.334 0-6.047 2.68-6.047 5.973z"/><path d="M25.046 55.837h20.947c.337 0 .61-.27.61-.604v-3.558H25.047v4.162zM7.344 40.268V0H5.996C2.662 0-.051 2.68-.051 5.975v36.384c2.57-2.029 4.79-2.091 7.395-2.091zM11.01 0v40.268h35.594V.604A.607.607 0 0045.993 0H11.01zm29.337 16.751c0 1-.821 1.811-1.833 1.811H19.1a1.822 1.822 0 01-1.833-1.81v-8.93c0-.999.82-1.81 1.833-1.81h19.413c1.012 0 1.833.811 1.833 1.81v8.93zM13.002 60.395c0 .51.602.79 1 .466l2.022-1.65a1.848 1.848 0 012.334 0l2.022 1.65c.399.325 1 .045 1-.466v-8.72h-8.378v8.72z"/><path d="M20.934 9.634H36.68v5.306H20.934V9.634z"/></g></symbol></svg>