<svg xmlns="http://www.w3.org/2000/svg" xmlns:xlink="http://www.w3.org/1999/xlink"><defs><clipPath id="clip0"><path fill="#fff" d="M0 0h20v20H0z"/></clipPath></defs><symbol id="arrow-angle" viewBox="0 0 5 10"><path d="M0 10l5-5-5-5v10z"/></symbol><symbol id="arrow-thin" viewBox="0 0 9 18"><path d="M1 1l7 8-7 8" fill="none" stroke="#262C36"/></symbol><symbol id="box" viewBox="0 0 20 20"><g clip-path="url(#clip0)" fill="#262C36"><path d="M4.346 2.771L.738 4.686c-.061.033-.12.07-.175.11l9.226 4.81 3.864-1.91L4.346 2.77zm15.652 3.093l-4.616 2.283v2.572a.586.586 0 01-1.171 0V8.726l-3.843 1.901v9.309l.036-.017 8.835-4.477c.47-.234.76-.706.76-1.23V5.863zm-.758-1.179L10.407.21l-.004-.002a1.38 1.38 0 00-1.25.012L5.597 2.108l9.35 4.948 4.513-2.233a1.393 1.393 0 00-.22-.138zM.003 5.825a1.388 1.388 0 00-.003.08v8.316c0 .515.283.982.738 1.22l8.412 4.464.004.002.042.021v-9.31L.003 5.826zm6.315 6.95l-2.332 1.37c-.003 0-.006.002-.01.004l-.003.003-.011.005a.682.682 0 01-.035.017l-.018.008-.018.007-.018.006-.019.006-.017.005-.02.005c-.006 0-.011.002-.016.003l-.023.004-.014.002a.515.515 0 01-.028.003h-.009a.66.66 0 01-.037.002l-.021-.001h-.017l-.02-.002-.018-.002-.018-.003-.02-.003-.016-.004-.02-.005-.016-.005-.02-.006-.016-.006a.504.504 0 01-.02-.007l-.016-.007-.02-.009-.014-.007-.02-.01-.014-.01-.018-.01-.014-.01-.017-.013-.014-.011-.016-.013-.014-.013-.014-.013-.014-.015-.013-.013-.013-.017-.012-.014-.013-.017a.765.765 0 01-.022-.034l-.006-.01-.002-.004-.006-.01-.671-1.216a.586.586 0 011.026-.566l.38.69 1.814-1.064a.586.586 0 01.593 1.01z"/></g></symbol><symbol id="cart" viewBox="0 0 20 20"><path d="M6 16c-1.1 0-1.99.9-1.99 2S4.9 20 6 20s2-.9 2-2-.9-2-2-2zM0 0v2h2l3.6 7.59-1.35 2.45c-.16.28-.25.61-.25.96 0 1.1.9 2 2 2h12v-2H6.42c-.14 0-.25-.11-.25-.25l.03-.12.9-1.63h7.45c.75 0 1.41-.41 1.75-1.03l3.58-6.49A1.003 1.003 0 0019 2H4.21l-.94-2H0zm16 16c-1.1 0-1.99.9-1.99 2s.89 2 1.99 2 2-.9 2-2-.9-2-2-2z"/></symbol><symbol id="chevron-left" viewBox="0 0 7 11"><path d="M7 .974L5.947 0 0 5.5 5.947 11 7 10.027 2.105 5.5 7 .973z"/></symbol><symbol id="chevron-right" viewBox="0 0 7 11"><path d="M0 10.027L1.053 11 7 5.5 1.053 0 0 .974 4.895 5.5 0 10.027z"/></symbol></svg>