<svg xmlns="http://www.w3.org/2000/svg" xmlns:xlink="http://www.w3.org/1999/xlink"><defs><clipPath id="clip0"><path fill="#fff" d="M0 0h20v20H0z"/></clipPath><clipPath id="clip0_1989:3422"><path fill="#2c60ae" d="M0 0h20v14H0z"/></clipPath><clipPath id="clip0_1989:3422"><path fill="#fff" d="M0 0h20v14H0z"/></clipPath><clipPath id="clip0_2044_5"><path fill="#fff" d="M0 0h20.952v20H0z"/></clipPath><clipPath id="clip0"><path fill="#fff" d="M0 0h46.553v61H0z"/></clipPath></defs><symbol id="arrow-angle-down" viewBox="0 0 8 4"><path d="M0 0l4 4 4-4H0z"/></symbol><symbol id="arrow-angle" viewBox="0 0 5 10"><path d="M0 10l5-5-5-5v10z"/></symbol><symbol id="arrow-down" viewBox="0 0 16 16"><path d="M16 8l-1.41-1.41L9 12.17V0H7v12.17L1.42 6.58 0 8l8 8 8-8z"/></symbol><symbol id="arrow-thin" viewBox="0 0 9 18"><path d="M1 1l7 8-7 8" fill="none" stroke="#262C36"/></symbol><symbol id="back" viewBox="0 0 512 512"><path d="M492 236H68.442l70.164-69.824c7.829-7.792 7.859-20.455.067-28.284-7.792-7.83-20.456-7.859-28.285-.068l-104.504 104-.018.019c-7.809 7.792-7.834 20.496-.002 28.314l.018.019 104.504 104c7.828 7.79 20.492 7.763 28.285-.068 7.792-7.829 7.762-20.492-.067-28.284L68.442 276H492c11.046 0 20-8.954 20-20s-8.954-20-20-20z"/></symbol><symbol id="box" viewBox="0 0 20 20"><g clip-path="url(#clip0)" fill="#262C36"><path d="M4.346 2.771L.738 4.686c-.061.033-.12.07-.175.11l9.226 4.81 3.864-1.91L4.346 2.77zm15.652 3.093l-4.616 2.283v2.572a.586.586 0 01-1.171 0V8.726l-3.843 1.901v9.309l.036-.017 8.835-4.477c.47-.234.76-.706.76-1.23V5.863zm-.758-1.179L10.407.21l-.004-.002a1.38 1.38 0 00-1.25.012L5.597 2.108l9.35 4.948 4.513-2.233a1.393 1.393 0 00-.22-.138zM.003 5.825a1.388 1.388 0 00-.003.08v8.316c0 .515.283.982.738 1.22l8.412 4.464.004.002.042.021v-9.31L.003 5.826zm6.315 6.95l-2.332 1.37c-.003 0-.006.002-.01.004l-.003.003-.011.005a.682.682 0 01-.035.017l-.018.008-.018.007-.018.006-.019.006-.017.005-.02.005c-.006 0-.011.002-.016.003l-.023.004-.014.002a.515.515 0 01-.028.003h-.009a.66.66 0 01-.037.002l-.021-.001h-.017l-.02-.002-.018-.002-.018-.003-.02-.003-.016-.004-.02-.005-.016-.005-.02-.006-.016-.006a.504.504 0 01-.02-.007l-.016-.007-.02-.009-.014-.007-.02-.01-.014-.01-.018-.01-.014-.01-.017-.013-.014-.011-.016-.013-.014-.013-.014-.013-.014-.015-.013-.013-.013-.017-.012-.014-.013-.017a.765.765 0 01-.022-.034l-.006-.01-.002-.004-.006-.01-.671-1.216a.586.586 0 011.026-.566l.38.69 1.814-1.064a.586.586 0 01.593 1.01z"/></g></symbol><symbol id="buoy" viewBox="0 0 26 20"><path d="M19.36 14.848c-.451-1.584-1.393-2.972-2.653-3.907a.384.384 0 00-.458.617c1.125.835 1.967 2.078 2.373 3.5a.384.384 0 10.738-.21zm-3.855-4.616a6.2 6.2 0 00-2.575-.558c-1.47 0-2.867.508-4.04 1.47-1.141.938-1.969 2.219-2.392 3.704a.384.384 0 10.739.21c.374-1.315 1.135-2.494 2.141-3.32 1.033-.848 2.261-1.296 3.551-1.296.782 0 1.542.164 2.259.49a.384.384 0 00.317-.7zm2.76-8.228l-5.2-1.959a.384.384 0 00-.52.36v6.938a1.616 1.616 0 00-1.229 1.567v.126a.384.384 0 10.768 0V8.91a.846.846 0 011.69 0v.126a.384.384 0 10.768 0V8.91c0-.758-.524-1.394-1.229-1.567V4.588l4.952-1.865a.384.384 0 000-.72zm-4.952 1.763V.96l3.727 1.403-3.727 1.404zm6.029 11.936h-7.459a.384.384 0 100 .768h7.46c.317 0 .575.259.575.576v.399a.384.384 0 10.768 0v-.399c0-.74-.603-1.344-1.344-1.344zm-8.739 0H6.516c-.741 0-1.344.603-1.344 1.345v1.23c0 .137.02.273.062.405a.384.384 0 10.733-.23.59.59 0 01-.027-.175v-1.23c0-.318.258-.576.576-.576h4.087a.384.384 0 100-.769z"/><path d="M25.475 19.211c-1.173 0-1.745-.257-2.352-.53-.654-.293-1.33-.596-2.667-.596l-.161.001c-1.232.024-1.879.314-2.505.596-.607.272-1.18.529-2.352.529s-1.745-.257-2.352-.53c-.654-.293-1.33-.597-2.666-.597-1.337 0-2.013.304-2.667.597-.581.261-1.13.508-2.205.528a6.99 6.99 0 01-.146.002c-1.172 0-1.745-.257-2.352-.53-.653-.293-1.33-.597-2.666-.597a.384.384 0 100 .769c1.172 0 1.745.257 2.352.53.653.293 1.33.596 2.666.596.055 0 .109 0 .161-.002 1.231-.023 1.879-.314 2.505-.595.607-.272 1.18-.53 2.352-.53s1.745.258 2.352.53c.653.294 1.33.597 2.666.597 1.337 0 2.013-.303 2.666-.597.582-.26 1.131-.507 2.206-.528a6.96 6.96 0 01.146-.001c1.173 0 1.746.257 2.352.53.654.293 1.33.596 2.667.596a.384.384 0 100-.768z"/></symbol><symbol id="burger" viewBox="0 0 17 11"><path d="M1.5 1.75h13.75M1.5 5.5h13.75M1.5 5.5h13.75M1.5 9.25h13.75"/></symbol><symbol id="cart" viewBox="0 0 20 20"><path d="M6 16c-1.1 0-1.99.9-1.99 2S4.9 20 6 20s2-.9 2-2-.9-2-2-2zM0 0v2h2l3.6 7.59-1.35 2.45c-.16.28-.25.61-.25.96 0 1.1.9 2 2 2h12v-2H6.42c-.14 0-.25-.11-.25-.25l.03-.12.9-1.63h7.45c.75 0 1.41-.41 1.75-1.03l3.58-6.49A1.003 1.003 0 0019 2H4.21l-.94-2H0zm16 16c-1.1 0-1.99.9-1.99 2s.89 2 1.99 2 2-.9 2-2-.9-2-2-2z"/></symbol><symbol id="cat" viewBox="0 0 16 10"><path stroke="#fff" stroke-width="2" stroke-linecap="round" d="M1 1h13.75M1 4.75h13.75M1 4.75h13.75M1 8.5h13.75"/></symbol><symbol id="checked" viewBox="0 0 515.556 515.556"><path d="M0 274.226l176.549 176.886L515.556 112.44l-48.67-47.997-290.337 290L47.996 225.891z"/></symbol><symbol id="chevron-down" viewBox="0 0 330 330"><path d="M325.607 79.393c-5.857-5.857-15.355-5.858-21.213.001l-139.39 139.393L25.607 79.393c-5.857-5.857-15.355-5.858-21.213.001-5.858 5.858-5.858 15.355 0 21.213l150.004 150a14.999 14.999 0 0021.212-.001l149.996-150c5.859-5.857 5.859-15.355.001-21.213z"/></symbol><symbol id="chevron-left" viewBox="0 0 7 11"><path d="M7 .974L5.947 0 0 5.5 5.947 11 7 10.027 2.105 5.5 7 .973z"/></symbol><symbol id="chevron-right" viewBox="0 0 7 11"><path d="M0 10.027L1.053 11 7 5.5 1.053 0 0 .974 4.895 5.5 0 10.027z"/></symbol><symbol id="chevron-up" viewBox="0 0 240.835 240.835"><path d="M129.007 57.819c-4.68-4.68-12.499-4.68-17.191 0L3.555 165.803c-4.74 4.74-4.74 12.427 0 17.155 4.74 4.74 12.439 4.74 17.179 0l99.683-99.406 99.671 99.418c4.752 4.74 12.439 4.74 17.191 0 4.74-4.74 4.74-12.427 0-17.155L129.007 57.819z"/></symbol><symbol id="climb" viewBox="0 0 17 20"><path d="M9.253 13.354a.805.805 0 00-.857.078 1.602 1.602 0 01-.086-.184c-.114-.286-.204-.576-.3-.885a17.734 17.734 0 00-.2-.62c-.198-.569-.442-1.155-.875-1.583a1.579 1.579 0 00-.68-.396.295.295 0 00-.059-.01.853.853 0 00-.05-1.077.855.855 0 00.217-.57.865.865 0 00-.63-.828c.022-.093.046-.186.073-.277l.802-2.71a3.334 3.334 0 00-.592-3.022A3.366 3.366 0 003.37 0 3.366 3.366 0 00.723 1.27a3.338 3.338 0 00-.592 3.023l.802 2.709c.027.09.051.184.073.277a.865.865 0 00-.63.829.86.86 0 00.218.57.855.855 0 000 1.138.855.855 0 000 1.14.855.855 0 00-.217.569c0 .418.3.767.699.846a5.123 5.123 0 01-.143.627l-.19.64a.293.293 0 00.284.375.295.295 0 00.283-.21l.19-.64c.074-.253.132-.514.171-.776h.605a346.8 346.8 0 01-1.055 3.638 2.212 2.212 0 00.393 2.005 2.234 2.234 0 001.755.843c.689 0 1.329-.307 1.756-.843.45-.565.598-1.314.393-2.005a363.73 363.73 0 01-1.055-3.637h.605c.039.261.097.522.172.776l.801 2.708a2.75 2.75 0 01-.488 2.494 2.777 2.777 0 01-2.184 1.048 2.777 2.777 0 01-2.183-1.048 2.75 2.75 0 01-.488-2.494l.28-.943a.296.296 0 00-.567-.165l-.28.943a3.334 3.334 0 00.592 3.023A3.367 3.367 0 003.37 20a3.366 3.366 0 002.646-1.27c.679-.851.9-1.981.592-3.023l-.802-2.709a5.113 5.113 0 01-.142-.627.87.87 0 00.563-.384c.107.268.192.547.281.838.047.152.094.308.145.462.173.523.41 1.24 1.033 1.614a1.436 1.436 0 001.126.137c.35-.103.624-.329.774-.637a.784.784 0 00-.333-1.046zM.967 10.386c0-.153.125-.277.279-.277h4.247c.154 0 .28.124.28.277a.278.278 0 01-.28.277H1.246a.278.278 0 01-.279-.277zm0-1.14c0-.152.125-.276.279-.276h4.247c.154 0 .28.124.28.277a.278.278 0 01-.28.276H1.246a.278.278 0 01-.279-.276zm-.27-5.118a2.75 2.75 0 01.49-2.494A2.777 2.777 0 013.37.586c.856 0 1.651.382 2.183 1.048a2.75 2.75 0 01.488 2.494L5.24 6.837c-.04.134-.075.271-.105.408h-.57c.275-.96.946-3.245.953-3.27a2.212 2.212 0 00-.393-2.005 2.233 2.233 0 00-1.755-.843c-.689 0-1.329.307-1.756.843a2.211 2.211 0 00-.393 2.005c.007.024.678 2.311.952 3.27h-.57a5.719 5.719 0 00-.104-.409L.698 4.128zm2.09 3.117l-.004-.012a571.47 571.47 0 00-.996-3.423 1.629 1.629 0 01.29-1.477c.314-.394.786-.62 1.293-.62.507 0 .978.226 1.292.62.332.416.44.968.29 1.478-.008.026-.763 2.596-1 3.434H2.786zm-1.541.586h4.247c.154 0 .28.124.28.277a.278.278 0 01-.28.276H1.246a.278.278 0 01-.279-.276c0-.153.125-.277.279-.277zm3.706 8.359a1.64 1.64 0 01-1.582 2.097c-.507 0-.979-.226-1.293-.62a1.629 1.629 0 01-.29-1.478c1.082-3.68 1.082-3.721 1.082-3.776v-.026H3.87v.026c0 .055 0 .095 1.082 3.777zm.541-4.389H1.246a.278.278 0 01-.279-.276c0-.152.125-.277.279-.277h4.247a.28.28 0 01.28.277.278.278 0 01-.28.277zm3.561 2.345a.646.646 0 01-.41.33.832.832 0 01-.652-.077c-.436-.261-.618-.81-.778-1.294-.049-.148-.095-.301-.14-.45-.117-.38-.238-.775-.413-1.151-.06-.13-.197-.32-.296-.443a2.492 2.492 0 00-.16-.181.853.853 0 00.155-.432c.057.037.11.08.158.127.348.344.559.857.735 1.36.069.197.132.402.193.6.094.306.192.622.316.93.073.182.178.402.353.544a.294.294 0 00.142.088.298.298 0 00.415-.068.292.292 0 00.086-.135.215.215 0 01.219-.021c.104.054.12.184.077.273zm5.28-7.15V.883a.867.867 0 00-.868-.862c-.48 0-.87.386-.87.862v3.16c0 .162.133.293.296.293a.294.294 0 00.295-.293V.883a.279.279 0 01.557 0v6.04l-.03-.001h-.527V5.215a.294.294 0 00-.295-.293.294.294 0 00-.295.293v1.749c0 .01 0 .022.002.033a2.583 2.583 0 00-1.35.827 2.54 2.54 0 00-.616 1.598.58.58 0 00-.249.555l.37 2.706a.574.574 0 00.455.488c.192.756.71 1.365 1.39 1.686a.289.289 0 00-.002.037v4.232c0 .475.39.862.869.862s.869-.387.869-.862V15.03a2.574 2.574 0 001.965-2.49V9.487a2.573 2.573 0 00-1.966-2.49zm-3.364 2.91c.005 0 .01 0 .015-.002l1.108-.15.368 2.691-1.123.152-.368-2.69zm2.077 2.468l-.37-2.705a.574.574 0 00-.224-.383l-.02-.014a.807.807 0 01.784-.593h.498c.449 0 .813.363.813.808v3.053a.811.811 0 01-.813.807.809.809 0 01-.773-.556.57.57 0 00.105-.417zm.697 6.752a.278.278 0 01-.278.276.278.278 0 01-.279-.276V15.05c.17.035.347.054.528.054h.03v4.02zm1.965-6.586a1.99 1.99 0 01-1.994 1.98c-.89 0-1.652-.573-1.906-1.395l.597-.08c.205.528.717.888 1.309.888a1.4 1.4 0 001.404-1.393V9.487a1.4 1.4 0 00-1.404-1.394h-.498c-.412 0-.802.18-1.07.49a1.389 1.389 0 00-.303.614l-.61.082c.04-.394.2-.768.464-1.075.38-.443.933-.697 1.519-.697h.498c1.1 0 1.994.888 1.994 1.98v3.053z"/></symbol><symbol id="close" viewBox="0 0 311 311.077"><path d="M16.035 311.078c-4.097 0-8.195-1.558-11.308-4.695-6.25-6.25-6.25-16.383 0-22.633L283.789 4.687c6.25-6.25 16.383-6.25 22.633 0s6.25 16.383 0 22.637L27.363 306.383a16.045 16.045 0 01-11.328 4.695zm0 0"/><path d="M295.117 311.078a15.879 15.879 0 01-11.308-4.695L4.727 27.324c-6.25-6.254-6.25-16.386 0-22.636s16.382-6.25 22.636 0L306.422 283.75c6.25 6.25 6.25 16.383 0 22.633-3.137 3.117-7.23 4.695-11.305 4.695zm0 0"/></symbol><symbol id="computer" viewBox="0 0 24 22"><path d="M22.346 5.84H19.17a.828.828 0 01-.828-.83V1.83A.83.83 0 0119.17 1h3.177a.828.828 0 01.829.83v3.18a.83.83 0 01-.829.83z" stroke="#2C60AE" stroke-width=".8" stroke-miterlimit="10"/><path d="M21.573 2.182h-1.63a.422.422 0 00-.422.422v1.632c0 .233.189.422.422.422h1.63a.422.422 0 00.421-.422V2.604a.422.422 0 00-.42-.422zm-7.468 5.401V3.421h4.234" stroke="#2C60AE" stroke-width=".8" stroke-miterlimit="10"/><path d="M19.17 16.153a.828.828 0 00-.83.83v3.187a.83.83 0 00.83.83h3.176a.828.828 0 00.829-.83v-3.188a.83.83 0 00-.829-.83h-1.464" stroke="#2C60AE" stroke-width=".8" stroke-miterlimit="10" stroke-linecap="round"/><path d="M19.521 17.756v1.633c0 .233.189.422.422.422h1.63a.422.422 0 00.421-.422v-1.633a.422.422 0 00-.42-.422h-1.631a.422.422 0 00-.422.422zm-5.416-3.344v4.162h4.234M1.78 16.153h3.178a.828.828 0 01.828.83v3.187a.83.83 0 01-.828.83H1.78a.828.828 0 01-.829-.83v-3.188a.83.83 0 01.829-.83v0z" stroke="#2C60AE" stroke-width=".8" stroke-miterlimit="10"/><path d="M2.554 19.81h1.63a.422.422 0 00.422-.421v-1.633a.422.422 0 00-.422-.422h-1.63a.422.422 0 00-.422.422v1.633c0 .233.19.422.422.422zm7.468-5.398v4.162H5.786" stroke="#2C60AE" stroke-width=".8" stroke-miterlimit="10"/><path d="M4.958 5.84a.828.828 0 00.828-.83V1.83A.83.83 0 004.958 1H1.78a.828.828 0 00-.829.83v3.18a.83.83 0 00.829.83h1.46" stroke="#2C60AE" stroke-width=".8" stroke-miterlimit="10" stroke-linecap="round"/><path d="M4.606 4.236V2.604a.422.422 0 00-.422-.422h-1.63a.422.422 0 00-.422.422v1.632c0 .233.19.422.422.422h1.63a.422.422 0 00.422-.422zm5.416 3.347V3.421H5.786" stroke="#2C60AE" stroke-width=".8" stroke-miterlimit="10"/><path d="M14.454 7.602a1.168 1.168 0 011.165 1.17v4.473a1.168 1.168 0 01-1.165 1.167h-4.47a1.164 1.164 0 01-1.166-1.167V8.772a1.168 1.168 0 011.166-1.17h4.47z" stroke="#2C60AE" stroke-width=".8" stroke-miterlimit="10" stroke-linecap="round"/><path d="M13.96 10.155v2.17a.425.425 0 01-.421.423h-2.65a.421.421 0 01-.419-.422V9.672a.42.42 0 01.42-.42h2.649" stroke="#2C60AE" stroke-width=".8" stroke-miterlimit="10" stroke-linecap="round"/><path d="M12.219 6.365a.841.841 0 10-.001-1.682.841.841 0 000 1.682zm0 1.24V6.368m5.479 5.482a.841.841 0 10-.001-1.683.841.841 0 000 1.682zm-2.078-.843h1.237m-4.638 6.328a.841.841 0 10-.001-1.682.841.841 0 000 1.682zm0-2.923v1.24M6.76 11.85a.841.841 0 10-.002-1.683.841.841 0 00.001 1.682zm2.078-.843H7.6" stroke="#2C60AE" stroke-width=".8" stroke-miterlimit="10"/></symbol><symbol id="contacts-email" viewBox="0 0 20 14"><g clip-path="url(#clip0_1989:3422)" fill="#2c60ae"><path d="M0-.5l10 10 10-10H0z"/><path fill-rule="evenodd" clip-rule="evenodd" d="M0 2v12h20V2L10 12 0 2z"/></g></symbol><symbol id="contacts-phone" viewBox="0 0 20 20"><path d="M19.475 15.43l-4.048-2.7a1.182 1.182 0 00-1.582.257l-1.18 1.516a.504.504 0 01-.645.136l-.225-.124c-.743-.405-1.668-.91-3.532-2.774-1.865-1.865-2.37-2.791-2.775-3.533l-.123-.224a.505.505 0 01.133-.649l1.515-1.179c.485-.38.597-1.068.257-1.582L4.57.526A1.175 1.175 0 002.987.169L1.294 1.186C.762 1.5.37 2.006.204 2.6-.404 4.82.055 8.653 5.7 14.301 10.192 18.79 13.536 20 15.834 20a5.902 5.902 0 001.567-.205 2.385 2.385 0 001.413-1.089l1.017-1.691a1.176 1.176 0 00-.356-1.586z" fill="#2c60ae"/></symbol><symbol id="coupon" viewBox="0 0 20 20"><path d="M8.726 14.517a.585.585 0 10-.828.827.585.585 0 00.828-.827zm-.831-5.8a.585.585 0 10-.829.828.598.598 0 00.828 0 .585.585 0 000-.828zm11.583-1.634l-.958-.957a3.514 3.514 0 00-.664-4.05 3.512 3.512 0 00-4.05-.664l-.898-.899a1.76 1.76 0 00-2.486.001l-.378.378 1.183 1.184a.586.586 0 11-.828.829L9.215 1.72 7.602 3.378l9.055 9.055 1.613-1.657-1.242-1.243a.586.586 0 11.828-.828L19.1 9.947l.379-.378a1.76 1.76 0 000-2.486zM13.713 5.39a.586.586 0 01-.828 0l-.83-.828a.586.586 0 11.83-.829l.829.829c.228.228.228.6 0 .828zM16.2 7.876a.586.586 0 01-.829 0l-.828-.829a.586.586 0 11.829-.828l.828.829c.229.228.229.6 0 .828z"/><path d="M6.772 4.207l-6.25 6.25a1.76 1.76 0 000 2.486l.924.924a3.54 3.54 0 00.71 3.952 3.54 3.54 0 003.965.704l1.012.983a1.765 1.765 0 002.468-.018l6.226-6.226-9.055-9.055zm-.533 3.681c.664-.664 1.823-.663 2.486 0a1.757 1.757 0 11-2.486 0zm3.314 8.286a1.76 1.76 0 01-2.485.001 1.76 1.76 0 010-2.487c.664-.664 1.823-.663 2.486 0a1.76 1.76 0 010 2.486zM11.69 12.2l-7.458.828a.586.586 0 11-.129-1.165l7.457-.828a.586.586 0 01.13 1.165z"/></symbol><symbol id="date" viewBox="0 0 20 20"><path d="M10 0C4.486 0 0 4.486 0 10s4.486 10 10 10 10-4.486 10-10S15.514 0 10 0zm4.756 15.172a.831.831 0 01-1.178 0L9.41 11.006a.83.83 0 01-.244-.59V5a.833.833 0 111.666 0v5.072l3.923 3.922a.833.833 0 010 1.178z"/></symbol><symbol id="diving-goggles" viewBox="0 0 25 20"><path d="M7.304 6.363l.565-.573 4.392 4.455-.565.573-4.392-4.455zm3.594 1.215l.565-.573 1.996 2.025-.564.573-1.997-2.025zm-4.393.404l.565-.572.799.81-.565.572-.799-.81z"/><path d="M22.666 4.104C21.709 2.054 19.08 0 12.38 0c-1.054 0-2.047.052-2.952.154-4.563.514-6.525 2.251-7.324 3.948L0 4.529v5.525l.799.162v1.53c0 7.402 3.503 8.507 5.591 8.507 1.777 0 3.097-.675 4.061-1.167.87-.445 1.134-.548 1.47-.492.59.1 1.12.317 1.735.57 1.379.564 3.094 1.267 5.484.575 4.823-1.398 4.823-6.188 4.823-7.992v-1.531l.799-.162V4.529l-2.096-.425zm1.297 2.377v1.62h-.799v-1.62h.8zM14.594.896L14.09 2.43h-3.418L10.168.896A27.313 27.313 0 0112.38.81c.8 0 1.534.03 2.213.086zm-4.498 2.345h4.57l.249-.759c2.414.262 5.853 1.127 5.853 3.931V8.17c0 3.466-5.255 3.983-8.387 3.983-3.132 0-8.387-.517-8.387-3.983V6.414c0-2.804 3.439-3.67 5.853-3.931l.25.758zM9.353.98l.236.717c-4.13.481-6.394 2.14-6.394 4.716V8.17c0 3.09 3.262 4.793 9.186 4.793 5.924 0 9.186-1.703 9.186-4.793V6.414c0-2.576-2.264-4.236-6.394-4.717L15.41.98c5.972.724 6.957 3.625 6.957 5.45v1.722c0 2.099-1.298 5.62-9.985 5.62s-9.985-3.521-9.985-5.62V6.43c0-2.11 1.215-4.755 6.957-5.45zm11.394 11.703c-.086 1.76-.518 3.37-2.485 3.94-1.333.386-2.25.01-3.411-.465-.688-.282-1.468-.602-2.405-.76-1.412-.239-2.439.287-3.433.794-.825.422-1.605.82-2.623.82-1.44 0-2.235-1.458-2.372-4.327 1.593 1.098 4.186 1.897 8.363 1.897 4.18 0 6.773-.8 8.366-1.9zM.8 8.1V6.48h.799V8.1h-.8zm0-2.908l.981-.2c-.06.233-.104.46-.133.678H.8v-.478zm.847 3.718c.029.22.071.446.13.677L.8 9.389v-.478h.847zm21.518 2.836c0 1.636 0 5.983-4.244 7.213-2.124.616-3.634-.003-4.967-.549-.657-.269-1.223-.501-1.9-.615-.611-.105-1.068.11-1.961.567-.893.455-2.115 1.08-3.702 1.08-4.17 0-4.792-4.822-4.792-7.696v-1.37l.498.102c.245.524.598 1.05 1.102 1.54.063 4.786 1.762 5.804 3.192 5.804 1.208 0 2.11-.462 2.983-.908.959-.49 1.787-.913 2.942-.718.85.144 1.555.433 2.236.712 1.2.491 2.333.956 3.93.493 2.927-.848 3.077-3.677 3.085-5.386a5.214 5.214 0 001.1-1.537l.498-.101v1.369zm.8-2.358l-.979.199c.06-.23.102-.457.13-.677h.848v.478zm-.848-3.718a5.54 5.54 0 00-.13-.677l.977.199v.478h-.847z"/></symbol><symbol id="file" viewBox="0 0 24 30">&gt;<path d="M16.312.173a.736.736 0 00-.526-.232H3.973c-2.18 0-3.98 1.776-3.98 3.935v22.13c0 2.16 1.8 3.936 3.98 3.936h16.033c2.18 0 3.979-1.776 3.979-3.936V8.434a.776.776 0 00-.212-.507L16.313.173zm.212 2.326l4.996 5.196h-3.247a1.734 1.734 0 01-1.749-1.725V2.5zm3.482 25.993H3.973c-1.368 0-2.516-1.123-2.516-2.486V3.877c0-1.355 1.14-2.485 2.516-2.485H15.06v4.58c0 1.76 1.434 3.173 3.212 3.173h4.25v16.863c0 1.362-1.142 2.485-2.517 2.485z"/><path d="M18.01 23.492H5.97a.73.73 0 00-.732.725c0 .398.33.725.732.725h12.047a.73.73 0 00.731-.725.732.732 0 00-.739-.725zm-6.555-2.602a.74.74 0 00.534.233.74.74 0 00.534-.232l4.287-4.558a.717.717 0 00-.037-1.022.734.734 0 00-1.031.036l-3.021 3.21v-7.913a.73.73 0 00-.732-.724.73.73 0 00-.731.724v7.913l-3.014-3.21a.734.734 0 00-1.031-.036.718.718 0 00-.037 1.022l4.28 4.558z"/></symbol><symbol id="filter" viewBox="0 0 511.999 511.999"><path d="M510.078 35.509a20.68 20.68 0 00-18.761-11.977H20.682A20.681 20.681 0 004.89 57.569l183.364 216.828v146.324a20.684 20.684 0 0011.433 18.499l94.127 47.063a20.663 20.663 0 009.249 2.183 20.685 20.685 0 0020.683-20.683V274.397L507.11 57.569a20.686 20.686 0 002.968-22.06zM287.27 253.469a20.686 20.686 0 00-4.889 13.355V434.32l-52.763-26.381V266.825c0-4.89-1.733-9.621-4.89-13.355L65.259 64.896h381.482L287.27 253.469z"/></symbol><symbol id="flippers" viewBox="0 0 20 20"><path d="M9.152.573L8.288.86A3.623 3.623 0 015.02.331L4.58 0l-.442.33A3.62 3.62 0 01.869.861L.004.573l.584 3.793c.317 2.063.537 4.152.66 6.244l-1.168.876v2.186l.643.963v1.51A3.86 3.86 0 004.578 20a3.86 3.86 0 003.856-3.855v-1.51l.642-.963v-2.186l-1.168-.876a67.2 67.2 0 01.661-6.244L9.152.573zM.722 11.807l.565-.423c.045.945.07 1.89.075 2.833h-.146l-.493-.74v-1.67zm7.07 4.338a3.216 3.216 0 01-3.214 3.212 3.216 3.216 0 01-3.213-3.212v-1.286h6.426v1.286zm-5.546-1.928l1.643-2.818a.8.8 0 01.69-.395.8.8 0 01.688.396l1.643 2.817H2.247zm6.188-2.41v1.67l-.493.74h-.147c.005-.943.03-1.888.075-2.833l.565.423zm-.5-7.54a67.81 67.81 0 00-.774 9.102l-1.338-2.293a1.445 1.445 0 00-1.244-.715c-.51 0-.987.274-1.244.715l-1.337 2.293a67.76 67.76 0 00-.775-9.101L.8 1.513c.6.178 1.235.209 1.852.111v5.203h.642V1.471c.44-.14.86-.348 1.23-.627l.055-.04.055.04c.46.346.994.582 1.552.714v5.27h.642V1.662a4.176 4.176 0 001.53-.15l-.423 2.755z"/><path d="M4.578 18.715a2.573 2.573 0 002.57-2.57v-.643h-5.14v.643a2.573 2.573 0 002.57 2.57zm1.928-2.57a1.93 1.93 0 01-1.928 1.927 1.93 1.93 0 01-1.927-1.927h3.855zm-2.249-3.213h-.642v.642h.642v-.642zm1.285 0H4.9v.642h.642v-.642zm13.629-8.566l.584-3.793-.864.288a3.623 3.623 0 01-3.27-.53L15.181 0l-.441.33a3.622 3.622 0 01-3.27.531l-.864-.288.584 3.793c.317 2.063.537 4.152.66 6.244l-1.167.876v2.186l.642.963v1.51A3.86 3.86 0 0015.181 20a3.86 3.86 0 003.855-3.855v-1.51l.643-.963v-2.186l-1.168-.876a67.18 67.18 0 01.66-6.244zm-7.77-2.853a4.21 4.21 0 001.852.11v5.204h.643V1.471c.44-.14.858-.348 1.23-.627l.055-.04.055.04c.46.346.993.582 1.551.714v5.27h.643V1.662a4.176 4.176 0 001.53-.15l-.424 2.755a67.804 67.804 0 00-.774 9.101l-1.337-2.293a1.445 1.445 0 00-1.244-.715c-.51 0-.987.274-1.244.715l-1.338 2.293a67.76 67.76 0 00-.774-9.101L11.4 1.513zm6.112 12.704h-4.665l1.644-2.818a.8.8 0 01.689-.395.8.8 0 01.689.396l1.643 2.817zm-6.188-2.41l.565-.423c.044.945.07 1.89.075 2.833h-.147l-.493-.74v-1.67zm7.069 4.338a3.216 3.216 0 01-3.213 3.212 3.217 3.217 0 01-3.213-3.212v-1.286h6.425v1.286zm.642-4.338v1.67l-.493.74h-.146c.004-.943.03-1.888.075-2.833l.564.423z"/><path d="M15.18 18.715a2.573 2.573 0 002.57-2.57v-.643h-5.14v.643a2.573 2.573 0 002.57 2.57zm1.928-2.57a1.93 1.93 0 01-1.927 1.927 1.93 1.93 0 01-1.928-1.927h3.855zm-2.248-3.213h-.643v.642h.642v-.642zm1.285 0h-.643v.642h.643v-.642z"/></symbol><symbol id="footer-email" viewBox="0 0 20 14"><g clip-path="url(#clip0_1989:3422)" fill="#fff"><path d="M0-.5l10 10 10-10H0z"/><path fill-rule="evenodd" clip-rule="evenodd" d="M0 2v12h20V2L10 12 0 2z"/></g></symbol><symbol id="footer-phone" viewBox="0 0 20 20"><path d="M19.475 15.43l-4.048-2.7a1.182 1.182 0 00-1.582.257l-1.18 1.516a.504.504 0 01-.645.136l-.225-.124c-.743-.405-1.668-.91-3.532-2.774-1.865-1.865-2.37-2.791-2.775-3.533l-.123-.224a.505.505 0 01.133-.649l1.515-1.179c.485-.38.597-1.068.257-1.582L4.57.526A1.175 1.175 0 002.987.169L1.294 1.186C.762 1.5.37 2.006.204 2.6-.404 4.82.055 8.653 5.7 14.301 10.192 18.79 13.536 20 15.834 20a5.902 5.902 0 001.567-.205 2.385 2.385 0 001.413-1.089l1.017-1.691a1.176 1.176 0 00-.356-1.586z" fill="#fff"/></symbol><symbol id="info" viewBox="0 0 20 20"><path d="M9 5h2v2H9V5zm0 4h2v6H9V9zm1-9C4.48 0 0 4.48 0 10s4.48 10 10 10 10-4.48 10-10S15.52 0 10 0zm0 18c-4.41 0-8-3.59-8-8s3.59-8 8-8 8 3.59 8 8-3.59 8-8 8z"/></symbol><symbol id="location" viewBox="0 0 24 38"><path d="M12 0C5.442 0 .125 5.317.125 11.875.125 23.75 12 38 12 38s11.875-14.25 11.875-26.125C23.875 5.317 18.558 0 12 0zm0 19a7.125 7.125 0 110-14.25A7.125 7.125 0 0112 19z" fill="#2C60AE"/></symbol><symbol id="logo-sdi" viewBox="0 0 84 40"><path fill="#fff" d="M35.599 20.624h5.623v4.302l-5.623-4.302zm-.256.932v6.293a12.83 12.83 0 00-.32-1.563c-.314-1.141-.82-2.143-1.518-3.004a6.831 6.831 0 00-2.649-1.983c-1.068-.458-2.47-.688-4.204-.69h-8.805v10.877c-1.143-3.791-8.72-4.638-8.72-4.638-2.956-.44-2.399-1.917-2.399-1.917.27-1.028 2.7-.9 2.7-.9 2.115.385 2.272 2.272 2.272 2.272L17.358 26c-.91-6.297-8.155-5.398-8.155-5.398-7.516-.13-8.056 4.714-8.056 4.714-.54 6.165 9.045 6.342 9.225 6.685.991-1.457 4.86.9 4.86.9-2.295-.428-3.236.873-3.236.873-.49.788-1.893.37-1.893.37-.136 1.628-1.126 1.628-1.126 1.628-1.44.343-1.8 2.442-1.8 2.442-1.485-4.028.9-4.712.9-4.712l-7.692-.039c1.534 6.648 8.771 5.821 8.771 5.821 6.603 0 8.274-3.249 8.689-5.142v5.213h8.807c1.054 0 2.23-.171 3.53-.512.951-.247 1.84-.743 2.669-1.49.828-.745 1.476-1.67 1.942-2.774.252-.597.434-1.329.55-2.188v6.908h5.852V26.155l-5.852-4.599zM29.113 33.3c-.296.67-.707 1.14-1.232 1.41-.525.268-1.406.403-2.645.403h-1.454V24.85h1.48c1.536 0 2.636.367 3.3 1.102.664.735.997 2.097.998 4.088 0 1.503-.15 2.59-.448 3.26zm13.112 4.201c.317 0 .57.275.57.618 0 .343-.255.622-.575.622-.319 0-.576-.272-.576-.62s.258-.618.577-.618l.004-.002zm0 .094c-.256 0-.466.234-.466.523 0 .288.21.523.47.523s.468-.23.468-.521c0-.29-.208-.525-.469-.525h-.003zm-.113.884h-.104v-.69c.06-.01.122-.016.184-.016a.317.317 0 01.201.053.167.167 0 01.06.14.17.17 0 01-.126.168v.005c.057.012.094.066.108.167.006.06.02.117.04.172h-.11a.625.625 0 01-.047-.176c-.014-.088-.056-.121-.14-.121h-.066v.298zm0-.383h.074c.087 0 .158-.032.158-.116 0-.06-.04-.122-.158-.122a.55.55 0 00-.074.005v.233zm20.755 1.901H46.966c-.43 0-.86-.008-1.29 0-.43.008-.77-.154-1.06-.444a1.355 1.355 0 01-.415-.997l.007-22.054c0-.375.06-.75.105-1.122.117-.971.323-1.93.615-2.863.14-.452.324-.89.485-1.338.217-.592.508-1.154.81-1.706A16.44 16.44 0 0147.796 7.1a17.94 17.94 0 012.658-2.716 19.542 19.542 0 011.693-1.249 18.933 18.933 0 014.193-2.05c.61-.205 1.228-.389 1.853-.539 1.2-.288 2.413-.482 3.647-.525 1.162-.04 2.323-.035 3.479.116.644.084 1.283.202 1.92.336a15.67 15.67 0 011.91.53c.432.15.86.312 1.288.476.788.31 1.551.68 2.282 1.109.456.262.89.562 1.333.852.56.365 1.076.788 1.582 1.221.307.264.6.546.884.836.38.389.762.78 1.112 1.196.34.402.651.83.958 1.258a16.301 16.301 0 012.572 5.822c.152.66.259 1.329.32 2.004.022.28.038.565.038.848.003 4.6.003 9.2 0 13.8 0 2.728-.005 5.456.005 8.184 0 .5-.227.844-.603 1.125-.245.18-.544.272-.848.263H62.866zM77.28 11.234c.016.162.047.317.041.471a.442.442 0 01-.328.442 1.536 1.536 0 01-.27.07c-.302.039-.602.067-.854-.17a.2.2 0 00-.243-.013.204.204 0 00-.119.208c.02.22.026.44.017.66a.422.422 0 00.1.313c.219.284.442.568.637.868.124.202.23.415.314.637.076.178.082.38.017.562-.17.487-.415.945-.724 1.358a1.79 1.79 0 01-.508.469.288.288 0 00-.104.128c-.07.159-.13.322-.197.482-.278.676-.58 1.34-.982 1.953-.296.455-.639.87-1.066 1.208-.158.125-.323.261-.507.331-1.283.489-2.63.785-4 .88-.811.056-1.624.078-2.439.108a.24.24 0 00-.222.125c-.44.681-.928 1.33-1.461 1.942-.386.456-.805.884-1.253 1.28a.294.294 0 01-.249.087c-.755-.094-1.511-.174-2.266-.272-.754-.1-1.517-.224-2.257-.425a3.96 3.96 0 00-1.76-.06c-.446.08-.805.285-1.046.678-.063.103-.138.2-.204.302-.527.82-1.26 1.433-2.02 2.02a.618.618 0 01-.073.047c-.281.159-.573.27-.907.255-.917-.042-1.835-.068-2.751-.114-.592-.03-1.182-.086-1.773-.13-.16-.01-.31-.046-.434-.155-.151-.134-.15-.306.01-.428.067-.046.14-.084.215-.114.276-.121.554-.234.83-.36 1.423-.646 2.784-1.411 4.133-2.197.656-.383 1.308-.776 1.916-1.235.302-.227.578-.477.788-.8.222-.343.563-.516.97-.534.281-.014.522.072.67.345.093.166.2.326.32.475.195.255.46.375.783.385.469.014.895-.123 1.295-.348.64-.36 1.324-.485 2.048-.428.034.003.068 0 .115 0 .005-.055.012-.105.015-.155.022-.353.038-.706.068-1.058a3.777 3.777 0 01.583-1.763c.021-.039.04-.08.057-.12l-.188.075c-.351.135-.7.28-1.056.403-.939.328-1.896.59-2.9.629a.58.58 0 00-.182.05c-.264.103-.522.226-.792.312-.938.302-1.908.445-2.879.589-.7.104-1.403.193-2.1.315-1.185.208-2.311.6-3.397 1.114a3.805 3.805 0 00-1.589 1.358 64.602 64.602 0 00-2.31 3.762.448.448 0 00-.05.214 9987.35 9987.35 0 00-.005 9.633 1.396 1.396 0 00.41 1.003c.351.361.786.519 1.287.515 1.209-.004 2.417-.005 3.626-.004 2.498 0 4.997.003 7.495.008H71.28c2.023 0 4.045-.002 6.067-.005.703 0 1.407.011 2.11-.007.827-.02 1.565-.703 1.548-1.595-.027-1.534-.01-3.07-.01-4.604 0-2.723.002-5.446.006-8.168 0-2.647-.006-5.293 0-7.942a15.371 15.371 0 00-2.627-8.68 1.15 1.15 0 00-.098-.107v.62c.007.006.024.02.043.033.24.157.332.389.293.66a3.23 3.23 0 01-.432 1.218c-.155.257-.397.382-.7.384-.07.005-.137.005-.198.005v.002zm-32.523 11.94l.034.013c.03-.047.058-.094.09-.141.288-.427.567-.861.87-1.278.105-.143.126-.255.074-.422a14.216 14.216 0 01-.607-3.199 15.061 15.061 0 01.126-3.36 14.893 14.893 0 011.538-4.707 16.107 16.107 0 013.28-4.292c.691-.65 1.447-1.218 2.215-1.77A15.334 15.334 0 0156.14 2.04c1.87-.679 3.806-1.03 5.791-1.121a20.585 20.585 0 015.112.395c1.487.301 2.928.791 4.29 1.458.81.4 1.56.895 2.292 1.42.951.68 1.85 1.42 2.648 2.276.184.198.376.35.645.404.084.024.165.056.243.093.04.016.082.027.159.052-.06-.075-.094-.12-.132-.164a17.933 17.933 0 00-5.873-4.497C68.92 1.2 66.387.585 63.73.468a19.896 19.896 0 00-3.72.188 18.89 18.89 0 00-4.956 1.415c-2.909 1.285-5.348 3.161-7.229 5.729-2.03 2.776-3.073 5.881-3.066 9.326.002 1.744.002 3.488 0 5.231v.817zm6.25-9.72a18.9 18.9 0 00-2.263 4.424c.469.554 1.882 1.69 2.398 1.93.044-.03.094-.06.14-.094.339-.246.7-.459 1.08-.635a.358.358 0 00.205-.235 28.03 28.03 0 011.288-3.223.811.811 0 00.033-.088c-.51-.316-1.013-.615-1.501-.937a8.998 8.998 0 01-1.38-1.141zm6.222-2.836c-.675.759-2.774 4.243-2.871 4.77 1.167.55 2.393.966 3.654 1.242a58.67 58.67 0 011.555-5.189c-.408-.126-.797-.234-1.181-.368-.384-.134-.765-.299-1.158-.455h.001zm-2.118-1.505c-1.497 1.193-2.808 2.53-3.905 4.065.391.54 2.136 1.792 2.842 2.037a30.13 30.13 0 012.894-4.763c-.678-.367-1.29-.793-1.831-1.339zm7.657-5.775c-.145.013-.406.025-.664.062a3.709 3.709 0 00-1.317.428 1.885 1.885 0 00-.596.5c-.276.367-.288.79-.013 1.157.103.133.222.252.354.356.236.18.501.317.784.407a4.86 4.86 0 001.975.234 4.133 4.133 0 001.557-.405c.231-.11.44-.262.618-.446.418-.447.416-.984-.004-1.427a2.097 2.097 0 00-.573-.422c-.629-.321-1.305-.431-2.12-.444zm-13.383 7.555l-.14.162c-.248.285-.5.563-.741.854-.64.78-1.183 1.635-1.62 2.544a.479.479 0 00-.028.395c.335.99.863 1.867 1.54 2.659.031.032.064.062.098.09a19.512 19.512 0 012.282-4.382c-.61-.679-1.09-1.423-1.391-2.322zm4.696-3.359c-.042.018-.064.025-.084.036-1.533.796-2.955 1.752-4.212 2.94-.106.1-.12.186-.076.318a5.967 5.967 0 001.058 1.883c.06.075.126.146.202.235a20.388 20.388 0 013.93-4.063 4.52 4.52 0 01-.818-1.349zm-6.457 13.117c.013-.047.024-.078.031-.11.178-.815.381-1.623.657-2.41.047-.136.02-.22-.07-.321a8.297 8.297 0 01-1.586-2.556c-.014-.035-.034-.068-.061-.12-.026.056-.044.09-.058.126a13.28 13.28 0 00-.867 3.829.52.52 0 00.05.25c.223.477.454.95.684 1.424.022.04.047.079.074.116.349-.272.73-.335 1.146-.228zM61.893 6.717c-.27.367-1.838 4.153-1.859 4.49.39.11 1.683.276 2.052.27a.164.164 0 00.14-.084c.133-.176.264-.353.404-.522.06-.07.09-.16.087-.253-.002-1.21-.002-2.42 0-3.631V6.81l-.824-.093zm-7.974-.95a.525.525 0 00-.076.011 16.177 16.177 0 00-4.041 2.117.338.338 0 00-.128.197 4.72 4.72 0 00-.17 1.736c.011.14.04.278.067.45 1.332-1.256 2.814-2.232 4.41-3.048a3.48 3.48 0 01-.06-1.463h-.002zm3.936 11.144c-1.275-.301-2.486-.7-3.643-1.25-.293.474-1.248 2.873-1.255 3.148.034-.01.068-.019.1-.031a6.982 6.982 0 012.958-.426.293.293 0 00.235-.081c.327-.287.657-.571.988-.853.194-.163.392-.32.617-.507zM61.55 6.64c-.133-.047-.261-.07-.372-.128-.147-.077-.245-.043-.363.067a29.841 29.841 0 00-3.012 3.276c-.125.158-.246.319-.383.496.722.347 1.48.61 2.262.787A52.151 52.151 0 0161.55 6.64zm-3.162 9.869a.485.485 0 00.074-.028 10.67 10.67 0 011.272-.718.322.322 0 00.126-.132c.087-.157.163-.32.243-.48.563-1.124 1.13-2.244 1.813-3.302a.194.194 0 00.018-.05l-2.043-.274a54.726 54.726 0 00-1.505 4.984h.002zm2.275-10.213c-.114-.076-.215-.134-.304-.207-.076-.062-.14-.058-.221-.016-.212.106-.43.204-.643.308-1.398.68-2.73 1.49-3.974 2.422-.047.037-.094.078-.141.117.292.377 1.287 1.089 1.756 1.273a30.015 30.015 0 013.526-3.897h.001zM49.26 8.325c-.054.035-.094.057-.127.085a16.601 16.601 0 00-1.833 1.73c-.224.25-.39.547-.484.87a6.198 6.198 0 00-.24 2.538c.02.181.056.361.084.542a.182.182 0 00.082-.084 13.584 13.584 0 012.427-3.326.292.292 0 00.087-.306 4.563 4.563 0 01-.009-1.912c.006-.046.01-.092.01-.138l.002.002zM72.92 9.97c.246-.074.328-.22.358-.431.05-.328.134-.656.204-.984-.417-.466-1.044-.937-1.609-1.158-.564-.22-1.135-.28-1.717-.078-.538.188-.931.532-1.144 1.066a.943.943 0 00-.077.415c.06-.006.121-.017.18-.033.228-.084.457-.168.68-.264a.936.936 0 01.489-.093c.586.073 1.136.234 1.574.66.075.072.154.14.234.208.277.235.557.468.826.691l.001.001zM59.766 5.446c-1.865.469-3.665 1.086-5.39 1.933.17.482.432.927.773 1.309 1.516-1.158 3.142-2.101 4.858-2.897l-.24-.345zm-.122-.66c-.828-.16-4.384.409-5.353.854-.123.403-.12 1.066.01 1.433 1.717-.833 3.514-1.445 5.363-1.915l-.02-.373zm6.462.374c.062.017.118.033.174.047 1.39.352 2.75.81 4.07 1.369a.972.972 0 00.435.09c.18 0 .36.01.538.03.067.005.134.016.205.024.04-.308.034-.62-.018-.927-.018-.12-.07-.18-.188-.21-.545-.137-1.086-.295-1.634-.421-1.136-.258-2.291-.372-3.455-.399a1.261 1.261 0 00-.127.01v.387zM54.612 4.158c-.082.008-.14.011-.195.02-.66.093-1.32.194-1.98.285a.45.45 0 00-.263.115c-.3.28-.612.55-.898.843a6.81 6.81 0 00-1.265 1.798c-.025.052-.073.1-.047.179l.154-.1a16.615 16.615 0 013.746-1.847.265.265 0 00.184-.18c.075-.207.163-.408.262-.604.086-.167.19-.32.302-.509zm8.431 2.652c0 .6-.003 1.194 0 1.788.004.595-.007 1.182.008 1.763.184-.094.349-.19.52-.268.44-.196.882-.384 1.323-.575.057-.025.113-.053.18-.083a48.93 48.93 0 00-1.188-2.72l-.843.095zm8.11-2.656a.66.66 0 00.034.078c.236.332.419.698.541 1.085.027.089.094.106.164.134.433.168.868.328 1.295.51.58.25 1.144.538 1.688.86.038.021.09.051.126.04.152-.046.3-.107.454-.164-.016-.033-.024-.054-.037-.074-.507-.81-1.157-1.49-1.897-2.09a.34.34 0 00-.158-.06 137.55 137.55 0 00-1.31-.195c-.29-.042-.583-.08-.9-.124zm-.003 15.392c.018-.324.103-.641.25-.93.155-.317.332-.623.5-.933l.064-.127a.452.452 0 00-.181.08l-3.334 2.146c-.127.082-.26.152-.4.21-.279.113-.534.07-.75-.148-.065-.065-.131-.128-.214-.208-.094.456-.317.838-.522 1.262.175-.012.316-.006.45-.034.818-.168 1.628-.367 2.386-.733.197-.1.4-.185.61-.256.367-.119.742-.215 1.141-.329zm-22.532-1.3c-.28.821-.5 1.661-.662 2.514.547.14 1.068.187 1.586-.036a9.22 9.22 0 001.222-.66.367.367 0 01.08-.03c-.411-.304-.793-.568-1.153-.858-.361-.29-.707-.611-1.073-.93zm20.065-10.51c-.056-.036-.102-.07-.151-.099-.4-.234-.794-.481-1.203-.7-.558-.298-1.126-.575-1.692-.857-.047-.025-.123-.055-.16-.035-.128.07-.245.162-.369.248.051.052.087.09.124.126.364.358.737.707 1.09 1.077.411.432.805.881 1.207 1.323.043.047.075.105.152.1l.635-.034c.09-.647.103-.687.367-1.148zm-5.621-6.534c-.04.31-.026 1.72.011 1.827.282.038.557.07.83.115a.21.21 0 00.215-.066 11.861 11.861 0 011.68-1.453c.036-.025.067-.057.117-.1a13.279 13.279 0 00-2.853-.323zm-.357 1.821V1.218c-.465-.074-2.602.169-2.837.332l.123.093c.22.17.45.328.657.512.335.294.656.603.985.906.05.047.087.1.174.086.291-.043.584-.08.898-.124zm4.488 5.903a28.725 28.725 0 00-2.401-2.486l-.569.196 1.173 2.67c.21-.087.412-.16.603-.253.191-.098.406-.143.62-.13.175.014.353.004.574.004v-.001zM64.39 3.248l.375.147c.015.009.03.015.047.018.05.004.1 0 .15-.011 1.165-.414 2.369-.652 3.598-.778.066-.006.132-.02.229-.034-.043-.03-.06-.047-.079-.055a10.76 10.76 0 00-2.298-.895.183.183 0 00-.173.047c-.246.184-.496.364-.738.553-.395.31-.766.647-1.111 1.01v-.002zm-3.028 0c-.038-.043-.067-.078-.098-.11-.534-.546-1.13-1.015-1.75-1.458a.22.22 0 00-.209-.03c-.758.2-1.491.483-2.187.843-.044.023-.085.053-.157.098.265.03.495.053.725.084 1.06.14 2.104.362 3.114.725a.22.22 0 00.132.014c.142-.044.28-.103.43-.163v-.003zm4.492.901c.14.311.14.313.447.317.784.012 1.566.076 2.341.19.867.125 1.723.314 2.562.568.046.014.093.02.157.033a3.754 3.754 0 00-.62-1.087.229.229 0 00-.146-.074c-.486-.037-.972-.076-1.46-.097a20.394 20.394 0 00-2.868.098c-.136.016-.271.037-.413.055v-.003zM54.398 5.268c1.731-.53 3.53-.801 5.34-.808l.176-.307a1.064 1.064 0 00-.109-.022c-.59-.045-1.18-.1-1.771-.13-.947-.046-1.892.004-2.837.085a.277.277 0 00-.216.12 4.284 4.284 0 00-.52.881c-.02.05-.033.099-.062.183v-.002zm12.765 6.436c-.595.115-1.19.056-1.78.071-.038.05-.076.094-.11.14-.33.464-.741.865-1.213 1.184-.32.221-.642.437-.966.653-.453.303-.85.663-1.158 1.115-.024.035-.042.074-.077.135.575-.108 1.099-.288 1.626-.479 0-.15.006-.288 0-.426a.206.206 0 01.103-.2c.456-.322.926-.62 1.437-.844a9.48 9.48 0 002.052-1.267c.03-.023.057-.052.086-.079v-.003zM65.75 5.79a26.879 26.879 0 013.137 1.696 2.909 2.909 0 011.097-.716 27.054 27.054 0 00-3.994-1.327l-.24.347zm-.51-2.164c.106.08.183.132.253.192a.213.213 0 00.176.047c.469-.047.934-.099 1.403-.134a20.11 20.11 0 012.678-.006l.61.035a.782.782 0 00-.054-.072 5.777 5.777 0 00-.962-.77.347.347 0 00-.196-.045 17.83 17.83 0 00-.693.063 15.3 15.3 0 00-2.707.53c-.16.047-.317.102-.508.163v-.003zm-9.83.108l.016.03c.255-.017.509-.04.763-.052a22.289 22.289 0 013.823.14c.09.012.179.048.26-.04.074-.067.152-.13.235-.187-.081-.027-.13-.047-.18-.061a13.87 13.87 0 00-2.404-.549c-.437-.061-.877-.097-1.314-.144a.29.29 0 00-.227.06c-.29.234-.581.46-.87.692a1.21 1.21 0 00-.101.114v-.003zm18.31 4.244c.208-.42.568-.662.934-.927a16.234 16.234 0 00-2.784-1.284v1.054c.702.238 1.294.647 1.85 1.16v-.003zm-27.506 4.637c-.404.664-.868 4.058-.678 4.88.004-.003.012-.005.013-.01.008-.027.014-.055.02-.083.184-.92.465-1.818.839-2.678a.338.338 0 00.01-.234 6.263 6.263 0 01-.203-1.371c-.004-.157 0-.317 0-.501v-.003zm6.65-8.518c.185-.028.326-.052.47-.07.469-.064.941-.128 1.413-.188A.375.375 0 0055 3.712a5.93 5.93 0 01.862-.78.663.663 0 00.073-.075l-.012-.037c-.22 0-.44-.003-.66 0a.489.489 0 00-.182.047c-.723.327-1.422.705-2.092 1.13-.033.022-.06.05-.123.1zM69.839 2.82l-.015.047c.024.022.047.044.075.064.327.24.629.514.9.817a.24.24 0 00.166.078c.414.053.828.108 1.242.164.21.028.417.061.66.098a.924.924 0 00-.077-.069 17.899 17.899 0 00-2.158-1.162.434.434 0 00-.168-.036c-.208-.003-.417 0-.625 0zM47.87 9.08a.33.33 0 00.043-.029c.455-.43.934-.834 1.434-1.212a.379.379 0 00.116-.165c.172-.461.395-.902.664-1.314.026-.04.047-.085.07-.127A13.379 13.379 0 0047.87 9.08zm8.088-6.55c.098.007.196.011.293.023a.415.415 0 00.279-.065c.198-.118.403-.225.606-.336.054-.03.11-.057.164-.085l-.013-.032c-.456.127-.9.292-1.329.495zm12.504-.473a.35.35 0 00.042.034l.79.434c.03.018.063.03.097.032.13-.005.26-.017.41-.027-.228-.133-1.121-.445-1.339-.475v.002zm7.523 4.601c-.103-.165-.297-.351-.394-.375.06.094.123.188.172.281.049.094.118.131.222.092v.002zM46.127 21.231l.047.011c.016-.043.057-.097.043-.127-.06-.14-.137-.273-.208-.409l-.027.014.145.511z"/><path fill="#fff" d="M74.394 31.445v3.622h-.841c-.035-.125-.05-5.448-.016-5.805.137-.046.281-.015.422-.02.14-.006.278 0 .435 0l.575 1.803.57 1.78.034-.005v-3.568h.873v5.792c-.128.042-.67.05-.878.012l-1.138-3.613-.036.002zM54.968 29.24c.52.012 1.02-.047 1.51.09.316.08.605.245.837.475.218.22.354.509.382.817.059.593-.104 1.099-.593 1.474a.466.466 0 00-.043.047c.036.03.069.06.104.087.375.289.547.673.545 1.144-.004.925-.648 1.584-1.589 1.687-.356.038-.718.015-1.078.02a.371.371 0 01-.075-.018V29.24zm.878 2.597c.108-.015.206-.02.3-.041.537-.124.905-.558.81-1.188-.067-.454-.602-.807-1.11-.74v1.969zm.008.634c-.04.305-.025 1.772.018 1.893.382-.021.711-.145.938-.475a.93.93 0 00-.419-1.406c-.181-.075-.353 0-.538-.011zm-4.498-3.221h.878v4.576a.526.526 0 00.54.504c.273 0 .546-.195.547-.512v-4.554c.152-.044.29-.02.428-.023.137-.005.277 0 .433 0 .006.06.015.11.015.159v4.397c0 .727-.535 1.17-1.079 1.296-.296.07-.607.047-.89-.065a1.305 1.305 0 01-.872-1.258v-4.52zm12.247 5.826V29.27c.011-.008.02-.02.03-.02.453-.01.908-.05 1.354.05.21.048.411.12.603.217.312.156.522.409.654.737.311.775.375 1.582.328 2.405a5.405 5.405 0 01-.21 1.193c-.198.686-.678 1.042-1.351 1.172-.206.033-.415.05-.623.05-.255.008-.51.002-.785.002zm.905-.592c.1-.01.199-.025.297-.047.468-.133.803-.403.89-.91a7.81 7.81 0 00.1-1.382 7.047 7.047 0 00-.14-1.379c-.094-.456-.395-.718-.817-.863a.626.626 0 00-.365-.04l.035 4.621zm15.714-2.745c.004.065.009.122.009.178 0 .834 0 1.668.003 2.502a.282.282 0 01-.131.26 2.461 2.461 0 01-.964.422c-.422.081-.794-.028-1.129-.281a2.085 2.085 0 01-.624-.802c-.278-.596-.353-1.231-.353-1.88 0-.564.059-1.12.26-1.654a2.36 2.36 0 01.523-.853c.317-.318.69-.498 1.153-.479.328.014.65.028.96.14.251.094.251.094.251.357v.468a.997.997 0 01-.015.118c-.029-.01-.047-.01-.06-.02-.238-.249-.548-.31-.873-.328-.105-.006-.21 0-.314-.005-.263-.01-.457.108-.605.315-.154.218-.231.469-.281.723a6.63 6.63 0 00-.092 1.713c.021.328.052.659.157.974.05.154.116.302.199.441.212.344.524.413.91.306.085-.023.154-.063.152-.18-.006-.521-.002-1.042-.003-1.563a.622.622 0 00-.013-.08h-.411c-.04-.134-.047-.586-.014-.796l1.305.004zm-21.406 3.332h-.818c.083-.5.195-.984.292-1.466.097-.482.198-.963.297-1.445l.299-1.462.3-1.448h.701l1.194 5.813h-.825l-.258-1.378h-.922l-.26 1.386zm1.068-2.003c-.114-.623-.216-1.223-.367-1.816l-.333 1.816h.7zm10.646-3.813h.832l-1.125 5.791a1.459 1.459 0 01-.556.009l-1.126-5.797h.832l.554 3.827h.032l.557-3.83zm-19.777 4.671c.008.082.014.12.015.158 0 .122.004.244 0 .365-.004.122-.018.239-.028.358-.173.12-.312.285-.549.312a1.477 1.477 0 01-1.167-.34c-.321-.267-.526-.613-.67-.999a4.085 4.085 0 01-.235-1.135c-.047-.65-.02-1.296.164-1.927.108-.37.27-.714.53-1.006.234-.267.515-.463.875-.533.206-.038.418-.034.623.011.126.026.205.126.307.187.135.082.16.188.154.333-.01.2-.002.401-.002.602l-.037.017c-.059-.065-.12-.129-.177-.196a.684.684 0 00-.48-.248c-.334-.03-.574.106-.74.387-.174.295-.245.623-.286.958a7.108 7.108 0 000 1.819c.039.24.095.476.167.707.038.11.09.213.154.31.27.45.932.421 1.18.087.052-.069.117-.13.202-.227zm-5.028.232c.088.077.14.123.192.166.218.178.426.197.656.062.249-.143.367-.374.329-.636-.038-.245-.144-.464-.262-.676-.26-.465-.526-.926-.787-1.39a9.914 9.914 0 01-.31-.582 1.442 1.442 0 01-.111-.9c.08-.429.34-.725.734-.909.328-.152.671-.17 1.021-.11a.592.592 0 01.215.102.162.162 0 01.062.114c.004.22 0 .44 0 .66 0 .009-.013.017-.028.035l-.183-.15c-.173-.14-.366-.18-.57-.086-.215.1-.382.255-.393.508a1.03 1.03 0 00.062.406c.087.22.19.434.307.64.242.435.5.861.742 1.296.114.202.213.41.298.625.1.262.114.55.04.82-.141.526-.512.81-1.02.937a1.69 1.69 0 01-.726.01c-.197-.036-.267-.12-.267-.314l-.001-.628zm27.007.912h-.824c-.034-.129-.042-5.622-.009-5.816a.93.93 0 01.117-.013h.706c.04.14.048 5.63.01 5.829zm-.478.827h.816c.081 0 .108.055.14.108l.642.993c.03.05.07.097.114.136-.067-.404-.054-.807-.047-1.225h.883v2.326h-.435c-.143 0-.3-.01-.45-.015-.083-.119-.167-.234-.248-.356-.148-.221-.295-.444-.444-.665-.03-.047-.065-.09-.106-.146l.027 1.171h-.895l.003-2.327zM60.11 37.131c-.087-.4-.069-.803-.062-1.22h.88v2.301c-.148.042-.298.014-.446.02-.148.004-.29 0-.438 0l-.782-1.172-.027.006c.01.188.023.379.028.568.005.19 0 .38 0 .566-.135.039-.667.047-.887.016v-2.32h.207c.174 0 .35.011.523 0 .123-.008.188.04.25.142.2.324.411.644.618.965l.097.14.038-.012zm7.08-2.066v-5.792c.124-.04.63-.047.853-.007v5.799h-.854zm-19.806.837h.883c.14.212.278.425.416.639.138.213.267.416.415.617-.086-.412-.047-.822-.054-1.252.296-.02.582-.007.883-.008v2.336h-.332c-.14 0-.279-.003-.418.003a.215.215 0 01-.212-.113c-.206-.321-.422-.637-.634-.955-.028-.042-.06-.082-.091-.125l.028 1.18h-.87c-.036-.123-.049-2.007-.014-2.322zm22.785 2.367a1.597 1.597 0 01-.782-.182 1.142 1.142 0 01-.107-1.968c.51-.347 1.302-.346 1.813 0a1.143 1.143 0 01-.094 1.96 1.64 1.64 0 01-.83.19zm.013-.736c.274 0 .474-.187.477-.444a.462.462 0 00-.484-.46c-.274.004-.469.199-.469.457s.202.447.474.447h.002zm-13.37.687l-.375-.671-.034.008v.669c-.31.018-.603.005-.892.005-.039-.137-.049-2.076-.013-2.321a.885.885 0 01.111-.013c.372 0 .744-.01 1.115.006.168.008.333.043.49.105.403.162.522.523.427.932-.034.145-.141.237-.269.302l-.16.074.668.904h-1.068zm-.401-1.295c.131 0 .259.02.322-.1a.225.225 0 00-.006-.192c-.07-.112-.192-.094-.316-.087v.38zm19.795-1.022h1.038l.907 2.323h-.979l-.1-.274h-.682l-.087.273h-.981l.883-2.322zm.348 1.47h.355l-.166-.655-.033.005-.156.65zm-12.284.85h-.98l-.089-.27h-.69l-.086.27h-.976l.88-2.317h1.037l.904 2.317zm-1.597-.843h.361l-.165-.666h-.035l-.161.666zm-9.645-1.476h1.7v.628h-.756v.22h.682v.618h-.685v.22h.79c.012.213.003.413.005.609-.13.043-1.36.058-1.72.024-.035-.123-.05-1.926-.016-2.319zm-2.016.746h-.502v-.744h1.937v.744h-.498c-.014.166-.004.338-.006.508v1.068h-.93V36.65zm15.557-.002h-.503v1.573h-.93V36.65h-.481c-.038-.127-.043-.557-.007-.743h1.92v.741zm12.117-.742h.927v1.57h.767v.75h-1.694v-2.32zm-10.607 2.317h-.9v-2.315h.89c.031.125.042 2.07.01 2.315zm-21.473.003h-.888c-.037-.13-.051-2-.02-2.302.121-.035.64-.044.892-.016.035.128.049 1.984.016 2.318zm35.9-.156c.317 0 .57.274.57.617 0 .344-.253.62-.572.62-.32 0-.578-.272-.578-.62s.259-.617.578-.617h.002zm0 .093c-.256 0-.466.235-.466.523 0 .289.21.524.47.524s.469-.23.469-.522c0-.29-.21-.524-.47-.524h-.003zm-.109.883h-.104v-.688a1.1 1.1 0 01.184-.017.318.318 0 01.201.053.166.166 0 01.06.14.17.17 0 01-.126.169v.005c.057.011.094.066.108.167.006.059.02.116.041.171h-.108a.625.625 0 01-.047-.175c-.015-.089-.057-.122-.141-.122h-.071l.003.297zm0-.383h.073c.087 0 .158-.032.158-.116 0-.061-.041-.122-.158-.122a.567.567 0 00-.074.005l.001.233z"/></symbol><symbol id="logo-tdi" viewBox="0 0 85 40"><path fill="#fff" d="M32.104 20.466h5.13v4.213l-5.13-4.213zm-.234.914v6.296a13.457 13.457 0 00-.31-1.662c-.286-1.118-.746-2.1-1.382-2.942a6.274 6.274 0 00-2.41-1.941c-.972-.45-2.248-.676-3.828-.676h-8.012v.004H-.01v4.485h5.924v13.863h5.135a.174.174 0 01-.01-.046l-.027-11.686v-.1c-.003-1.123.787-2.001 1.816-2.374.113-.042.13-.092.129-.176h.025v-.28h.287v-.498h-.135v-.903h.862v.914h-.123v.468h.27v.298h.006c0 .083.017.133.13.174 1.03.373 1.825 1.251 1.827 2.375l.028 11.786a.175.175 0 01-.01.049h7.817c.96 0 2.03-.167 3.213-.5.865-.245 1.675-.73 2.43-1.46.755-.728 1.345-1.634 1.768-2.717.244-.622.416-1.395.52-2.31v6.936h5.34V25.884l-5.341-4.505zm-16.48 2.717c-.224.01-1.113-.169-1.25-.208-.097-.029-.125-.072-.134-.119v-.038h.127v-.612h.006c.138-.04 1.025-.217 1.25-.208.225.01.263.1.264.199l.003.79c-.002.097-.04.186-.266.196zm10.791 8.785c-.27.656-.645 1.116-1.121 1.38-.477.264-1.28.396-2.407.395h-1.322v-10.05h1.346c1.399 0 2.4.36 3.003 1.08.604.719.906 2.053.906 4 0 1.474-.135 2.538-.405 3.195zm13.327 4.701c.314 0 .565.274.565.613 0 .338-.25.614-.567.614-.316 0-.57-.27-.57-.614 0-.345.256-.613.57-.613h.002zm0 .095c-.252 0-.458.232-.458.518 0 .285.207.519.461.519.255 0 .462-.229.462-.518 0-.288-.206-.52-.462-.52h-.003zm-.107.874H39.3v-.686c.06-.01.122-.016.183-.016.07-.005.14.013.198.052a.168.168 0 01.06.142.17.17 0 01-.126.166v.005c.057.011.095.066.107.167.006.058.02.114.04.169h-.11a.592.592 0 01-.046-.174c-.014-.088-.055-.12-.137-.12H39.4l.002.295zm0-.38h.071c.086 0 .157-.031.157-.115 0-.06-.04-.12-.157-.12a.54.54 0 00-.072.005l.001.23z"/><path fill="#fff" fill-rule="evenodd" clip-rule="evenodd" d="M58.269 2.962l.163.087.023-.046-.186-.041zm.163.087l-.007.013.076.023-.069-.036zM59.8 8.514c0-.123-.266-.123-.37-.206-.198.092-.326.247-.326.453 0 .154.092.246.186.37.278-.166.51-.319.51-.617zm17.879 2.426v-.411a3.87 3.87 0 00-.325.041c.022.133.092.195.092.33 0 .32-.372.421-.697.534l-.046.165c.07 0 .116.04.184.04.432 0 .687-.328.792-.698z"/><path fill="#fff" fill-rule="evenodd" clip-rule="evenodd" d="M85.01 13.3c0-7.336-10.727-13.305-23.914-13.305C47.91-.005 37.18 5.965 37.18 13.3c0 4.34 3.76 8.199 9.557 10.628v13.434c0 1.294 3.154 1.873 6.278 1.873 3.136 0 6.311-.686 6.311-1.993v-6.71h3.676v6.83c0 1.294 3.153 1.873 6.277 1.873 3.136 0 6.311-.686 6.311-1.993l-.003-13.372c5.721-2.433 9.424-6.262 9.424-10.57zm-1.44 3.486h-2.774a8.947 8.947 0 00.734-3.343h2.925c-.022 1.154-.33 2.275-.885 3.343zM63.29 3.396c.159.277.313.577.464.902-.171.006-.34.033-.505.081.039.268.31.366.31.632 0 .474-.091.766-.361 1.167a1.768 1.768 0 01-.215.238h-.992v-.483h-.16c.18-.131.298-.336.399-.6.04-.065.147-.283.127-.705 0-.458-.4-.805-.934-.805l-.596.009c-.314 0-.601.114-.77.306a.585.585 0 00-.15.452c-.023.34.062.679.242.968a.95.95 0 00.265.375h-.128v.483h-2.613l.078-.302a.183.183 0 00.098-.067c.138-.216.138-.401.138-.658a.059.059 0 00-.015-.034c.035-.11.071-.22.108-.326a.183.183 0 01.045-.01c.081 0 .105.082.184.082.128 0 .209-.061.325-.082.012-.164.046-.247.046-.411 0-.134-.092-.195-.092-.33 0-.426.48-.54.711-.88l3.991-.001zm6.79 4.493v1.67h-1.674V7.89h1.675zm-10.757 8.828v-2.505a4.759 4.759 0 00-.067-.76H60.3c-.092.425-.176.856-.176 1.355 0 .908 1.356 1.35 2.58 1.35.102 0 .2.004.3.007v.553h-3.68zm-12.585.763c-.056-.148-.117-.294-.167-.445h.167v.445zm-.036-3.83c.013-.042.056-.065.091-.092a4.559 4.559 0 00-.056.68v2.536h-.25a11.324 11.324 0 01-.51-3.317h.372a.85.85 0 00.352.192zm13.492-9.082a.297.297 0 01.08-.24c.113-.13.325-.21.555-.21l.596-.008c.367 0 .645.223.645.524.018.39-.085.549-.085.549l-.019.035c-.17.458-.327.588-.698.588h-.225c-.412 0-.504-.076-.634-.375l-.014-.025a1.324 1.324 0 01-.199-.807v-.015l-.002-.016zm1.797 2.164h5.692v.608h-5.692v-.608zm2.452-.606c.029.096.058.191.085.29h-.38c.08-.114.18-.212.295-.29zm-.724 3.854c-.3-.278-.487-.554-.52-.983.348.048.645.06.825.34.142.216.053.406.046.643h-.351zm-6.627.003c.078-.851.186-1.62.316-2.326h2.878v.152a2.727 2.727 0 00-.392.006h.232a1.667 1.667 0 00-.325.206c.22.247.418.422.418.74 0 .083-.137.083-.137.165 0 .071.092.091.092.164 0 .134-.197.144-.325.206.162.072.278.124.464.124h.083c-.348.183-.76.282-.908.562l-2.396.001zm-3.008-1.027V7.885h.392v-.229h2.666c-.126.694-.229 1.45-.307 2.281a6.826 6.826 0 00-2.75-.98h-.001zm-2.31-.095a1.52 1.52 0 01-.188.172h-.007c-.039-.1-.103-.156-.103-.268 0-.183.157-.271.157-.452 0-.258-.238-.394-.468-.534a.618.618 0 00.277-.277v.381h.331l.001.978zm2.109-2.32h.275v1.027h-2.4V6.54h.261a1.334 1.334 0 001.863 0v.002zm-1.791 1.344h1.675v1.67h-1.675v-1.67zm20.79-1.125v.541c0 .317-.258.557-.605.558-.454.016-.642-.08-.642-.08l-.032-.015c-.567-.167-.662-.32-.662-.603v-.2c0-.337.067-.423.444-.556.252-.125.53-.189.811-.187.04 0 .08 0 .146.004.302-.031.54.216.54.538zm-2.744-.22h.262v1.027h-2.399V6.54h.225a1.33 1.33 0 001.912 0zm-7.715 2.941c.268 0 .286.3.438.498h-1.284c.218-.263.458-.496.846-.496V9.48zm-.432-1.397v-.428h.327c-.065.165-.187.296-.327.43v-.002zm7.189-3.099c.52 0 .943.369.943.824 0 .454-.423.823-.943.823s-.943-.369-.943-.823c0-.455.425-.824.943-.824zm-7.237 3.143c-.063.06-.129.12-.194.187-.36.36-.609.618-.984.875-.046-.353-.456-.503-.456-.883 0-.071.092-.091.092-.164v-.015h1.542zm-.27-.317H60.6V6.25h1.071v1.562zm-1.387-.47h-5.81v-.608h5.81v.608zm-5.81-.925v-.19h-.364c.066-.139.1-.29.1-.444a1.027 1.027 0 00-.07-.36c.077-.122.156-.242.238-.36.142.068.278.15.405.244.104.071.058.225.137.328.21.247.465.278.744.453.194.12.362.234.532.328l-1.721.001zm-.466-1.248a1.237 1.237 0 00-.55-.426c.257.081.478.143.687.222a11.96 11.96 0 00-.137.204zm-.116.614c0 .453-.422.823-.942.823s-.943-.368-.943-.823c0-.455.423-.823.943-.823s.943.37.943.823zm-2.451.74l-.016-.028.016-.01v.037zm-.91-.261l.033.014c.567.168.663.32.663.603v.2c0 .337-.067.423-.444.557a1.813 1.813 0 01-.81.186c-.04 0-.08 0-.148-.004-.294.032-.538-.216-.538-.538v-.54c0-.32.257-.559.604-.559.452-.017.641.08.641.08zm-4.55 6.937c.003-.165.015-.329.025-.493.038.17.091.334.16.493h-.186zm5.793-3.617v.291h2.31v-.336c2.681.392 4.663 2.3 4.663 4.676v2.505H47.312V14.24c0-2.27 1.912-4.169 4.462-4.658h.002zm12.066 1.998c-.3-.213-.534-.433-1.008-.433-.977 0-1.34.627-2.316.737 0 .48-.079.897-.166 1.308h-1.141c-.257-1.172-.953-2.195-1.938-2.949h2.159c.028.421.613.504 1.08.504.391 0 .632-.237.853-.504h1.774c.092.084.163.175.163.312 0 .085-.092.122-.103.194l.207.098c.063-.259.18-.421.348-.604h1.375c-.5.372-.935.824-1.288 1.336h.001zm11.633-.951l.004.016-.01-.011.006-.005zm.22-.188c.088-.074.171-.142.254-.206l4.757-.002c.364.94.557 1.94.57 2.948l-5.19.003a11.567 11.567 0 00-.392-2.744h.001zm.604-.466l.154-.111c.11-.075.344-.075.344-.214 0-.171-.098-.257-.098-.428 0-.107.11-.137.197-.214l.197.128c0 .225.037.438.246.556.061-.203.197-.3.197-.513 0-.288-.099-.513-.344-.686-.308-.214-.935-.032-.935-.385 0-.341.393-.576.787-.576.246 0 .393.021.64 0v-.32c-.05-.129-.147-.203-.147-.342a.164.164 0 01.045-.118h.898c.203.219.396.443.579.67-.097.229-.292.398-.292.686 0 .268.222.428.492.556.172-.19.275-.353.29-.591.419.593.772 1.228 1.055 1.896l-4.305.006zm-.387-4.94c-.246 0-.296.299-.542.299-.48 0-.763-.096-1.18-.3.061-.128.097-.213.147-.341h-.394c-.197.053-.283.17-.493.17-.417 0-.565-.341-.984-.341a1.56 1.56 0 00-.325.027l-.161-.152.091-.26-.098-.171c-.196 0-.383 0-.54-.049-.212-.177-.427-.35-.65-.517h3.21a18.737 18.737 0 012.659 1.703 4.752 4.752 0 00-.742-.07l.002.002zm-4.951-1.17c-.392.32-.783.457-1.351.615-.222.063-.405-.075-.59.042a.687.687 0 00-.193.204 1.276 1.276 0 00-.587.339 11.935 11.935 0 00-1.417-1.665h3.524c.208.147.413.303.613.463v.002zm-3.699.36c.294.333.566.684.816 1.051-.012.021-.026.041-.037.063-.353-.333-.612-.615-1.12-.615-.181 0-.285.097-.466.097-.245 0-.245-.292-.412-.437-.362-.316-.711-.377-1.086-.68-.232.194-.375.303-.672.388l.55-.185c-.12.062-.207.156-.345.234a1.186 1.186 0 01-.458.14c-.143-.315-.29-.609-.44-.88h2.856c.277.253.55.525.813.821l.001.002zm-8.864-.676a.537.537 0 01-.176.03c-.14 0-.215-.083-.287-.182h.535l-.072.152zm-4.727.523c-.137.247-.325.339-.371.617l.079.025a1.363 1.363 0 00-.427-.072c-.046 0-.089.008-.133.013l-.03-.003c-.669 0-1.364.327-1.364.903 0 .282-.246.438-.556.518-.065-.025-.133-.046-.207-.07-.062-.03-.265-.112-.662-.112h-.113a.965.965 0 00-.337.06 3.079 3.079 0 00-.33-.126 1.67 1.67 0 00-.343-.067 14.037 14.037 0 012.581-2.364h2.697c-.206.162-.336.424-.483.678zm-5.13 1.686c-.179.008-.364.026-.58.026-.656 0-.917-.498-1.574-.498-.394 0-.63.079-.997.183h-.399a18.316 18.316 0 013.118-2.07h2.912a14.254 14.254 0 00-2.48 2.359zm-5.198 1.652c.866 0 1.036.814 1.469 1.447.183.282.512.305.787.542-.284.131-.383.343-.415.59h-3.696a10.49 10.49 0 011.537-2.547c.105-.021.211-.032.318-.032zm1.827 2.84c0 .149.01.304.01.46v.634c0 .113-.105.158-.105.27 0 .331.466.379.712.59-.035.33-.06.66-.067.995l-4.896.002a8.436 8.436 0 01.564-2.95l3.782-.002zm.545 3.209c.003 1.124.17 2.242.497 3.318h-4.626a8.698 8.698 0 01-.755-3.314l4.884-.004zm.581 3.577c.128.381.275.756.442 1.122v2.021H43.96c-.973-.984-1.735-2.04-2.26-3.144h4.596zm.442 3.403v1.98l-.007-.004a16.892 16.892 0 01-2.514-1.976h2.52zm.035-7.24c-.1-.153-.265-.275-.386-.453v-.362l.21-.046c.115.2.225.4.335.595a4.62 4.62 0 00-.07.263l-.089.002zm15.805 11.541c.138-.193.28-.402.425-.63v.63h-.425zm-3.252 0v-.615c.145.222.287.427.423.616h-.423zm.746 0c-.233-.316-.487-.68-.746-1.105v-.073h3.678v.05c-.257.431-.51.804-.746 1.128h-2.186zm2.931-1.438h-3.68v-.791H63l.003.791zm-4.252-.791v2.23h-11.44v-2.23h11.44zm-11.44 3.496h27.7v3.215h-27.7v-3.215zm16.264-1.267v-2.23h11.436v2.23H63.575zm11.435-3.541H47.312v-3.215H75.01v3.215zm-11.435-4.483V14.24c0-2.287 1.936-4.195 4.513-4.669v.306h2.31v-.333c2.655.41 4.611 2.308 4.611 4.669v2.505l-11.434-.002zm10.611-5.89v-.066h.591c.381.214.332.77.788.77a.323.323 0 00.096-.018c.095.552.149 1.11.162 1.67h-.352a4.953 4.953 0 00-1.284-2.354v-.001zm1.642 2.617a11.252 11.252 0 01-.245 2.3V14.21a4.759 4.759 0 00-.068-.768h.313zm-.243 6.998h1.975c.046.057.095.114.145.166-.66.612-1.369 1.17-2.118 1.668l-.002-1.834zm0-.26v-.116c.413-.105.704-.172 1.166-.172.265 0 .44.127.591.288h-1.757zm3.66-1.268c-.14-.095-.292-.193-.406-.336-.348-.431-.278-.812-.464-1.316-.244.247-.231.658-.603.658-.29 0-.418-.277-.418-.535 0-.183-.278-.183-.465-.246-.104.164-.15.37-.37.37-.092 0-.092-.124-.187-.124-.347 0-.313.422-.556.617a3.039 3.039 0 01-.192.148v-1.107h4.814a10.698 10.698 0 01-1.152 1.87l-.001.001zm-3.655-2.129c.329-1.083.497-2.208.5-3.339l5.18-.003a8.711 8.711 0 01-.758 3.343l-4.922-.001zm8.865-3.603h-2.922a8.665 8.665 0 00-.555-2.95h2.796c.428.926.66 1.93.683 2.948l-.002.002zm-.806-3.21h-2.765c-.352-.85-.813-1.65-1.373-2.38.153-.229.603-.267.977-.293.025-.183-.037-.31.048-.47a.223.223 0 01.085-.077h.517c1.093.994 1.944 2.077 2.511 3.22zM79.704 5.6c-.266-.077-.54-.122-.84-.268l-.493.213c-.393-.17-.603-.384-1.033-.384a3.33 3.33 0 01-.208-.007 18.607 18.607 0 00-2.613-1.757h1.289c1.455.646 2.763 1.386 3.898 2.202V5.6zM75.2 3.138h-1.156a23.96 23.96 0 00-3.719-1.556c1.664.387 3.294.906 4.875 1.555zM66.438.883c2.591.457 4.974 1.23 7.038 2.254h-3.051A16.049 16.049 0 0065.16.74c.43.042.856.09 1.277.144zm-3.576-.3c2.648.302 5.08 1.208 7.104 2.554h-3.42c-1.43-1.31-2.947-2.091-4.03-2.57l.346.015zm-1.05-.031c1.315.549 2.888 1.322 4.348 2.585h-2.715C62.697 1.87 61.9 1.093 61.305.545c.167 0 .337.004.506.007h.001zm-.957-.006h.063l.057.052c.573.524 1.39 1.273 2.163 2.54h-3.907a.091.091 0 00-.035-.01.52.52 0 00-.08.01h-.22c.695-1.295 1.433-2.055 1.95-2.585l.009-.007zm-.367.005a10.59 10.59 0 00-1.884 2.586h-.211l.034-.075a2.648 2.648 0 00-.946-.141c-.395 0-.627.123-1.022.123a.94.94 0 00-.316.055c1.388-1.217 2.912-1.967 4.286-2.548h.059zm-.755.015c-1.102.486-2.613 1.258-4.013 2.571h-3.878c1.965-1.307 4.31-2.2 6.87-2.528.336-.02.677-.033 1.02-.043h.002zM56.39.802a16.011 16.011 0 00-5.01 2.333h-2.756c2.008-.996 4.316-1.756 6.825-2.216.312-.04.626-.082.941-.117zm-4.896.872a23.784 23.784 0 00-3.438 1.464h-1.064a31.5 31.5 0 014.502-1.464zm-3.91 1.723a18.2 18.2 0 00-2.986 2.069h-.467c-.476-.064-.738-.17-1.192-.18a22.43 22.43 0 013.45-1.89h1.195zm-6.945 3.748a1.034 1.034 0 00-.024.22c0 .317.367.396.578.633-.328.283-.63.362-.892.678.078 0 .13.046.21.046.96 0 1.372-.761 2.072-1.123a10.493 10.493 0 00-1.376 2.393H38.53c.495-1.003 1.207-1.957 2.109-2.847zm-2.23 3.11h2.705a8.66 8.66 0 00-.55 2.95h-2.83a7.388 7.388 0 01.675-2.953v.003zm-.672 3.21h2.834a8.918 8.918 0 00.733 3.313h-2.687c-.547-1.06-.853-2.169-.88-3.315v.002zm1.016 3.571h2.659c.509 1.103 1.242 2.159 2.183 3.145H41.43c-1.14-.971-2.05-2.023-2.68-3.147v.002zm7.9 6.285c-1.895-.816-3.557-1.786-4.914-2.882h2.113c.834.825 1.752 1.56 2.738 2.196l.149.091v.595h-.086zm12.1 13.924c0 .579-2.234 1.418-5.736 1.418-3.672 0-5.703-.768-5.703-1.299v-6.831h11.438l.002 6.712zm10.526 1.418c-3.671 0-5.702-.768-5.702-1.299v-6.831h11.437v6.71c.002.578-2.233 1.419-5.735 1.419v.001zm6.309-15.365v-.71a17.086 17.086 0 002.318-1.818c.113.072.245.11.379.108.309 0 .45-.208.596-.439h1.572c-1.344 1.084-2.99 2.046-4.865 2.858v.001zm5.173-3.118h-1.696c.224-.266.569-.388.569-.74a.48.48 0 00-.176-.37c.483-.628.895-1.308 1.23-2.026h2.75c-.632 1.118-1.54 2.17-2.677 3.135v.001z"/><path fill="#fff" fill-rule="evenodd" clip-rule="evenodd" d="M47.736 19.122c.017-.211.088-.356.214-.434a.61.61 0 01.295-.068v1.573c0 .11-.017.183-.052.218-.035.035-.104.054-.21.054v.077h.947v-.077c-.107 0-.177-.017-.21-.054-.034-.036-.051-.109-.051-.218V18.62a.598.598 0 01.295.068c.117.075.188.22.213.434h.077l-.002-.6h-1.59l-.003.6h.077zm3.324.797h-.073c-.084.2-.18.338-.287.411a.726.726 0 01-.416.11c-.092 0-.15-.012-.179-.034a.16.16 0 01-.043-.128v-.72c.151 0 .256.035.315.104.059.07.097.19.116.359h.068v-1h-.068c-.028.166-.07.281-.123.344-.053.062-.156.093-.308.091v-.69a.147.147 0 01.033-.113c.022-.019.074-.028.155-.028.214 0 .36.035.44.106.08.07.137.202.172.396h.067v-.603h-1.532v.075c.055 0 .11.012.16.035.051.03.077.088.077.175v1.45c0 .085-.025.143-.074.174a.345.345 0 01-.163.035v.075h1.556l.107-.624zm1.108.68a.762.762 0 00.466-.156c.103-.083.196-.178.276-.284l-.08-.073c-.07.088-.15.168-.238.238a.636.636 0 01-.382.128c-.223 0-.376-.13-.458-.388a1.763 1.763 0 01-.067-.527c0-.29.038-.522.113-.694.075-.173.202-.259.38-.26.158 0 .3.08.423.24.08.111.146.23.197.357h.067v-.698h-.075a.218.218 0 01-.039.092.09.09 0 01-.08.045 1.309 1.309 0 01-.19-.069.889.889 0 00-.691.003.854.854 0 00-.294.212c-.188.201-.282.464-.281.789 0 .325.098.585.294.782a.9.9 0 00.659.263zm1.805-.134a.372.372 0 01-.157-.03c-.054-.03-.08-.091-.08-.178v-.69h.63v.69c0 .085-.025.143-.073.173a.324.324 0 01-.157.035v.076h.898v-.076a.328.328 0 01-.15-.032c-.053-.03-.08-.091-.08-.177v-1.45c0-.084.024-.141.071-.17a.393.393 0 01.16-.038v-.074h-.9v.075c.056 0 .11.013.161.037.046.03.07.087.07.173v.62h-.63v-.622c0-.086.025-.144.075-.175a.393.393 0 01.162-.035v-.073h-.902v.075a.42.42 0 01.159.04c.046.03.066.086.066.17v1.45c0 .085-.026.144-.075.175a.339.339 0 01-.15.033v.076h.902v-.078zm1.752 0c-.112-.004-.184-.037-.22-.099a.41.41 0 01-.033-.195v-1.172h.018l1.172 1.601h.073v-1.76c0-.092.014-.152.042-.178a.358.358 0 01.168-.063v-.075h-.574v.075c.098.01.164.035.196.078s.05.115.05.216v.877h-.014l-.913-1.246h-.563v.075a.138.138 0 01.077.035c.019.018.068.078.149.18v1.413a.306.306 0 01-.042.176c-.028.04-.09.062-.188.064v.076h.603l-.001-.078zm2.236 0a.336.336 0 01-.186-.042c-.043-.027-.063-.083-.063-.166v-1.45c0-.089.025-.148.078-.177a.433.433 0 01.171-.032v-.074h-.93v.075a.39.39 0 01.165.034c.05.03.076.089.077.175v1.45c0 .088-.027.148-.08.18a.371.371 0 01-.162.03v.075h.93v-.078zm1.101.134a.765.765 0 00.467-.156c.103-.083.196-.179.275-.284l-.079-.073a1.5 1.5 0 01-.238.238.636.636 0 01-.382.128c-.222 0-.375-.13-.458-.388a1.756 1.756 0 01-.067-.527c0-.29.038-.522.113-.694.075-.173.202-.259.38-.26.158 0 .3.08.424.24.08.111.146.23.197.357h.067v-.698h-.075a.233.233 0 01-.038.092.095.095 0 01-.082.045 1.276 1.276 0 01-.19-.069.894.894 0 00-.691.003.851.851 0 00-.293.212c-.188.201-.282.464-.282.789s.098.585.294.782a.9.9 0 00.658.263zm1.445-.134a.424.424 0 01-.133-.017.1.1 0 01-.076-.094.672.672 0 01.035-.168l.077-.236H61l.069.183c.015.04.026.075.035.103a.448.448 0 01.02.107c0 .052-.012.085-.04.097a.522.522 0 01-.17.025v.076h.865v-.076a.154.154 0 01-.142-.075 2.344 2.344 0 01-.15-.343l-.596-1.57h-.076l-.59 1.636a1.428 1.428 0 01-.107.254.193.193 0 01-.155.098v.076h.542l.002-.076zm.184-1.326h.017l.252.69h-.51l.24-.69zm2.829.726h-.077c-.078.227-.172.379-.28.457a.67.67 0 01-.403.118c-.09 0-.15-.01-.18-.032s-.045-.065-.045-.13v-1.41c0-.116.018-.19.054-.22.036-.03.107-.046.215-.05v-.074h-.923v.075a.36.36 0 01.156.035c.05.03.074.088.074.175v1.448c0 .088-.026.148-.078.179a.332.332 0 01-.152.032v.075h1.532l.108-.678zm2.822.359c.16-.192.243-.436.237-.686 0-.3-.079-.541-.236-.72-.172-.197-.423-.295-.751-.295h-.813v.075a.39.39 0 01.15.037.172.172 0 01.075.16v1.476a.171.171 0 01-.079.164.374.374 0 01-.147.032v.075h.842c.303 0 .544-.107.722-.318zm-.876.175a.276.276 0 01-.03-.133v-1.468a.255.255 0 01.02-.123c.022-.033.066-.05.136-.05.208 0 .356.122.444.366.058.175.086.359.082.543 0 .355-.051.594-.152.719a.476.476 0 01-.448.18.127.127 0 01-.052-.034zm2.161.066a.336.336 0 01-.187-.042c-.041-.028-.062-.083-.062-.166v-1.45c0-.089.026-.148.078-.177a.428.428 0 01.171-.032v-.074h-.93v.075a.393.393 0 01.165.034c.051.03.077.089.077.175v1.45c0 .088-.027.148-.08.18a.373.373 0 01-.162.03v.075h.93v-.078zm.313-1.655l.682 1.79h.071l.607-1.757a.521.521 0 01.094-.183.233.233 0 01.146-.064v-.072h-.566v.075a.625.625 0 01.183.032c.03.014.046.05.046.106a.36.36 0 01-.016.091.95.95 0 01-.02.07l-.354 1.01-.42-1.106a.224.224 0 01-.016-.086c0-.049.014-.08.041-.091a.685.685 0 01.184-.027v-.074h-.886v.075c.05.002.098.022.135.057a.495.495 0 01.088.153zm2.618 1.655a.336.336 0 01-.187-.042c-.042-.027-.063-.083-.063-.166v-1.45c0-.089.026-.148.078-.177a.429.429 0 01.172-.032v-.074h-.93v.075a.387.387 0 01.165.034c.05.03.076.088.076.175v1.45c0 .088-.027.148-.08.18a.37.37 0 01-.16.03v.075h.93l-.001-.078zm.693 0c-.11-.004-.183-.037-.219-.099a.4.4 0 01-.034-.194v-1.173h.018l1.172 1.601h.073v-1.76c0-.092.014-.152.042-.178a.358.358 0 01.168-.063v-.075h-.574v.075c.098.01.163.035.197.078.033.043.049.115.049.216v.877h-.013l-.914-1.246h-.563v.075a.138.138 0 01.077.035c.019.018.068.078.149.18v1.413a.302.302 0 01-.042.176c-.028.04-.092.062-.187.064v.076h.601v-.078zm2.317.134c.15.002.299-.02.442-.063.1-.028.197-.07.286-.126v-.385c0-.102.014-.172.046-.21.03-.036.091-.057.183-.06v-.076h-.911v.075a.501.501 0 01.195.03c.05.028.074.088.074.18v.315a.228.228 0 01-.033.137c-.04.054-.115.08-.23.08a.416.416 0 01-.423-.291 1.874 1.874 0 01-.11-.665c0-.303.04-.538.118-.705.079-.167.204-.25.376-.25.157 0 .298.08.423.24.08.11.145.23.196.356h.067v-.699h-.075a.298.298 0 01-.043.104.083.083 0 01-.07.034.816.816 0 01-.204-.069.865.865 0 00-1.004.245c-.173.212-.264.48-.255.753 0 .295.082.54.246.736.174.21.41.314.706.314zM49.142 26.77c.059 0 .118.01.173.033.053.03.08.087.08.172v1.415c0 .086-.028.144-.084.174a.407.407 0 01-.17.03v.073h.977v-.073a.371.371 0 01-.197-.042c-.043-.027-.065-.081-.065-.162v-1.415c0-.086.027-.144.081-.173a.483.483 0 01.18-.03v-.075h-.975v.074zm2.38 0c.103.01.172.035.206.077.035.042.052.112.052.21v.857h-.013l-.958-1.216h-.59v.073a.159.159 0 01.08.034c.02.018.071.076.156.176v1.377a.282.282 0 01-.046.171c-.03.04-.096.06-.197.063v.074h.631v-.074c-.116-.004-.192-.036-.229-.097a.365.365 0 01-.036-.19v-1.143h.02l1.23 1.562h.077v-1.718c0-.092.014-.148.046-.173a.39.39 0 01.176-.062v-.074h-.603l-.002.074zm.721-.073l-.002.586h.08c.018-.207.092-.348.225-.424a.689.689 0 01.31-.067v1.535c0 .106-.018.177-.055.213-.037.036-.11.053-.22.053v.074h.994v-.074c-.112 0-.184-.017-.221-.052-.038-.036-.053-.107-.053-.214v-1.535a.673.673 0 01.31.067c.122.074.197.215.224.424h.079v-.586h-1.67zm3.189 1.764a.807.807 0 01-.437.107c-.094 0-.157-.01-.187-.033a.146.146 0 01-.046-.125v-.701c.159 0 .269.033.33.101.062.068.102.183.122.35h.07v-.977h-.07c-.03.163-.073.275-.13.337-.055.062-.163.092-.323.09v-.675a.135.135 0 01.035-.11c.023-.018.077-.028.162-.028.223 0 .378.035.462.104.085.07.145.199.18.387h.071v-.59h-1.607v.073a.42.42 0 01.168.034c.054.029.08.085.08.17v1.415c0 .083-.025.14-.077.17a.39.39 0 01-.171.034v.073h1.633l.111-.607h-.077c-.087.197-.186.33-.299.401zm2.294.075l-.59-.828a.665.665 0 00.283-.13.449.449 0 00.176-.375c0-.213-.112-.362-.335-.445a1.38 1.38 0 00-.451-.061h-.897v.073c.094.009.154.024.181.046.04.034.06.107.06.219v1.293c0 .108-.017.178-.05.21-.035.032-.098.05-.19.055v.074h.935v-.074c-.097-.004-.161-.023-.193-.059-.032-.035-.046-.104-.046-.206v-.572h.003l.648.912h.58v-.074a.214.214 0 01-.064-.013.119.119 0 01-.05-.045zM57 27.58c-.079.05-.21.077-.393.08v-.738a.117.117 0 01.035-.096c.023-.02.072-.03.147-.03.137 0 .232.056.284.167.034.084.05.175.046.267 0 .183-.041.3-.12.35zm2.223-.81c.103.01.172.035.206.077.035.042.051.112.051.21v.857h-.014l-.957-1.216h-.59v.073a.15.15 0 01.08.034c.02.018.072.076.156.176v1.377a.28.28 0 01-.046.171c-.03.04-.095.06-.196.063v.074h.63v-.074c-.115-.004-.192-.036-.228-.097a.369.369 0 01-.036-.19v-1.143h.02l1.23 1.562h.076v-1.718c0-.092.015-.148.046-.173a.389.389 0 01.176-.062v-.074h-.603l-.001.074zm2.296 1.415l-.624-1.531h-.08l-.62 1.596a1.375 1.375 0 01-.112.247.206.206 0 01-.162.097v.074h.569v-.074a.495.495 0 01-.14-.017c-.054-.02-.08-.05-.08-.091a.604.604 0 01.037-.165l.08-.229h.62l.071.18c.016.038.029.072.038.1.012.034.02.07.022.105 0 .05-.014.082-.042.095a.588.588 0 01-.178.024v.073h.906v-.073a.162.162 0 01-.148-.073 2.122 2.122 0 01-.157-.338zm-1.09-.212l.25-.672h.019l.265.672h-.535zm1.311-1.276l-.003.586h.081c.017-.207.092-.348.224-.424a.689.689 0 01.31-.067v1.535c0 .106-.018.177-.055.213-.036.036-.109.053-.22.053v.074h.993v-.074c-.112 0-.183-.017-.22-.052-.038-.036-.054-.107-.054-.214v-1.535a.671.671 0 01.31.067c.122.074.197.215.224.424h.08l-.002-.586H61.74zm1.82.073c.06 0 .12.01.174.033.053.03.08.087.08.172v1.415c0 .086-.028.144-.084.174a.41.41 0 01-.17.03v.073h.977v-.073a.373.373 0 01-.196-.042c-.046-.027-.066-.081-.066-.162v-1.415c0-.086.027-.144.082-.173a.478.478 0 01.18-.03v-.075h-.976v.074zm2.11-.116a.936.936 0 00-.716.299c-.184.196-.275.447-.275.751-.006.261.088.514.263.709a1.009 1.009 0 001.431.026c.192-.194.288-.444.288-.75s-.096-.556-.288-.75a.941.941 0 00-.702-.285zm.433 1.583c-.078.258-.222.387-.433.387-.21 0-.355-.129-.434-.387a1.942 1.942 0 01-.063-.549 1.968 1.968 0 01.062-.542c.078-.262.224-.393.436-.393.152 0 .275.078.362.236.087.157.134.39.134.699a1.95 1.95 0 01-.064.549zM68.1 26.77c.102.01.171.035.206.077.034.042.051.112.051.21v.857h-.014l-.957-1.216h-.59v.073c.03.003.058.015.08.034.02.018.072.076.157.176v1.377a.282.282 0 01-.046.171c-.03.04-.095.06-.197.063v.074h.632v-.074c-.117-.004-.193-.036-.23-.097a.364.364 0 01-.035-.19v-1.143h.02l1.228 1.562h.077v-1.718c0-.092.014-.148.046-.173a.388.388 0 01.175-.062v-.074h-.602l-.002.074zm2.295 1.415l-.625-1.531h-.08l-.618 1.596a1.4 1.4 0 01-.114.247.206.206 0 01-.161.097v.074h.569v-.074a.488.488 0 01-.14-.017c-.054-.02-.08-.05-.08-.091a.612.612 0 01.036-.165l.08-.229h.62l.071.18c.016.038.028.072.038.1.012.034.02.07.022.105 0 .05-.014.082-.043.095a.589.589 0 01-.177.024v.073h.906v-.073a.162.162 0 01-.148-.073 2.108 2.108 0 01-.156-.338zm-1.09-.212l.251-.672h.018l.265.672h-.535zm2.846.481a.742.742 0 01-.422.114c-.091 0-.156-.01-.188-.032-.032-.021-.048-.063-.048-.127v-1.372c0-.115.018-.186.056-.216.037-.03.113-.046.226-.05v-.074h-.968v.074c.056 0 .112.011.164.034.051.029.077.085.077.17v1.413c0 .086-.027.144-.082.174a.377.377 0 01-.16.032v.073h1.608l.113-.66h-.081c-.082.222-.18.37-.294.447zm1.247-1.095a.383.383 0 01-.014.076.038.038 0 01-.035.028c-.014 0-.03-.037-.05-.11a.193.193 0 00-.131-.144v-.005a.274.274 0 00.137-.048.118.118 0 00.053-.098.124.124 0 00-.065-.11.314.314 0 00-.17-.04h-.274v.032a.183.183 0 01.073.01.04.04 0 01.02.04v.425c0 .023-.006.037-.02.042a.233.233 0 01-.074.008v.033h.281v-.033a.221.221 0 01-.068-.006.04.04 0 01-.021-.018c-.005-.008-.007-.018-.005-.028v-.197a.226.226 0 01.13.023.152.152 0 01.04.112.296.296 0 00.018.11.091.091 0 00.089.046.101.101 0 00.098-.056.273.273 0 00.02-.094l-.032.002zm-.36-.176v-.192a.038.038 0 01.02-.04.137.137 0 01.056-.01.142.142 0 01.1.03.114.114 0 01.032.086.107.107 0 01-.06.11.463.463 0 01-.148.016z"/><path fill="#fff" fill-rule="evenodd" clip-rule="evenodd" d="M73.46 26.857a.464.464 0 00-.677 0 .522.522 0 000 .71.463.463 0 00.679 0 .519.519 0 000-.71h-.002zm-.035.672a.412.412 0 01-.606 0 .465.465 0 010-.635.412.412 0 01.606 0 .464.464 0 010 .635z"/></symbol><symbol id="logout" viewBox="0 0 20 20"><path d="M9.167 12.5a2.503 2.503 0 01-2.5-2.5c0-1.378 1.121-2.5 2.5-2.5h4.166V2.292A2.294 2.294 0 0011.042 0h-8.75A2.294 2.294 0 000 2.292v15.416A2.294 2.294 0 002.292 20h8.75a2.294 2.294 0 002.291-2.292V12.5H9.167z"/><path d="M15.513 14.103a.835.835 0 01-.514-.77v-2.5H9.165a.834.834 0 010-1.666H15v-2.5a.835.835 0 011.422-.59l3.334 3.334a.832.832 0 010 1.178l-3.334 3.334a.833.833 0 01-.908.18z"/></symbol><symbol id="merch" viewBox="0 0 21 20"><g clip-path="url(#clip0_2044_5)" stroke="#2C60AE" stroke-width=".8" stroke-miterlimit="10"><path d="M4.762 6.667v13.032h11.434V6.666"/><path d="M11.425.96S8.773.943 7.889.96c-1.151.024-2.303.097-3.965 2.422S.952 7.88.952 7.88l4.008 4.117"/><path d="M9.528.96s2.652-.017 3.536 0c1.15.024 2.302.097 3.964 2.422A77.792 77.792 0 0120 7.88l-4.008 4.117"/><path d="M14.286 8.777a2.129 2.129 0 00-.688-1.511 2.271 2.271 0 00-1.59-.599 2.369 2.369 0 00-1.556.57l-.017.016a2.362 2.362 0 00-1.488-.515 2.273 2.273 0 00-1.59.598 2.131 2.131 0 00-.69 1.511c0 .317.076.63.221.913.145.284.355.532.615.725l2.948 2.848 3.135-3.038a2.012 2.012 0 00.7-1.518z"/></g></symbol><symbol id="minus" viewBox="0 0 7 3"><path d="M0 .416h6.456v1.992H0V.416z"/></symbol><symbol id="mortarboard" viewBox="0 0 71 61"><path d="M69.612 12.307L36.192.19a2.026 2.026 0 00-1.384 0L1.388 12.307A2.135 2.135 0 000 14.321a2.135 2.135 0 001.383 2.017l33.42 12.21a2.028 2.028 0 001.394 0l33.42-12.21A2.135 2.135 0 0071 14.32a2.135 2.135 0 00-1.388-2.014zm-3.607 28.537V22.196l-4.16 1.52v17.128a4.313 4.313 0 00-2.098 3.722c0 1.593.844 2.982 2.097 3.723v10.506c0 1.181.932 2.138 2.08 2.138 1.15 0 2.08-.957 2.08-2.138V48.29a4.313 4.313 0 002.098-3.722 4.313 4.313 0 00-2.097-3.723z" fill="#1B498E"/><path d="M35.5 32.948a6.072 6.072 0 01-2.09-.37l-18.788-6.865v9.408c0 2.301 2.336 4.248 6.944 5.785 4.016 1.34 8.965 2.077 13.934 2.077 4.97 0 9.918-.738 13.934-2.077 4.608-1.537 6.944-3.484 6.944-5.785v-9.408L37.59 32.577a6.073 6.073 0 01-2.09.371z" fill="#1B498E"/></symbol><symbol id="next" viewBox="0 0 11 22"><path d="M.75 1L9.5 11 .75 21" stroke="#262C36"/></symbol><symbol id="open-book" viewBox="0 0 78 61"><path d="M11.932.013h-.007a2.72 2.72 0 00-1.955.83c-.53.54-.822 1.26-.822 2.026v42.825c0 1.57 1.254 2.851 2.795 2.855 6.497.016 17.382 1.402 24.89 9.442V13.174a2.78 2.78 0 00-.383-1.446C30.287 1.572 18.444.029 11.932.013zm56.92 45.681V2.87c0-.766-.292-1.486-.822-2.027a2.72 2.72 0 00-1.955-.83h-.007c-6.51.017-18.354 1.56-24.518 11.715-.25.414-.383.914-.383 1.447V57.99c7.509-8.04 18.394-9.426 24.89-9.442 1.541-.004 2.795-1.285 2.795-2.855z" fill="#1B498E"/><path d="M75.209 9.89h-2.024v35.804c0 4.01-3.193 7.28-7.118 7.29-5.51.013-14.597 1.115-21.032 7.347 11.13-2.788 22.862-.975 29.549.584a2.737 2.737 0 002.366-.552 2.865 2.865 0 001.05-2.23V12.744c0-1.575-1.253-2.856-2.791-2.856zM4.814 45.694V9.89H2.791C1.252 9.89 0 11.17 0 12.745V58.13c0 .874.382 1.687 1.049 2.23.668.546 1.53.748 2.366.553 6.687-1.56 18.42-3.372 29.549-.584-6.435-6.231-15.521-7.334-21.032-7.347-3.925-.01-7.118-3.28-7.118-7.289z" fill="#1B498E"/></symbol><symbol id="oxygen-tank" viewBox="0 0 16 20"><path d="M5.703 11.563h-3.75v4.374h3.75v-4.374zm-.625 3.75h-2.5v-3.126h2.5v3.126z"/><path d="M4.453 12.813h-1.25v.624h1.25v-.624zm0 1.25h-1.25v.624h1.25v-.624zm8.125-2.5h-3.75v4.374h3.75v-4.374zm-.625 3.75h-2.5v-3.126h2.5v3.126z"/><path d="M11.328 12.813h-1.25v.624h1.25v-.624zm0 1.25h-1.25v.624h1.25v-.624z"/><path d="M12.496 3.75h2.582v-2.5h-2.582A2.184 2.184 0 009.175.937H6.641v.625H3.828a.939.939 0 00-.937.938v2.813h-.625A2.19 2.19 0 00.078 7.5v10a2.19 2.19 0 002.188 2.188H5.39c.796 0 1.492-.43 1.875-1.067a2.187 2.187 0 001.875 1.067h3.125a2.19 2.19 0 002.187-2.188v-10a2.19 2.19 0 00-2.187-2.188h-.625v-.839c.343-.164.638-.413.855-.723zm1.957-1.875v1.25h-1.655a2.173 2.173 0 000-1.25h1.655zm-3.75-.938c.862 0 1.563.701 1.563 1.563s-.701 1.563-1.563 1.563a1.563 1.563 0 010-3.126zm1.875 6.44v1.686h-3.75V7.377c0-.572.273-1.102.73-1.44h2.291c.457.338.73.868.73 1.44zm-9.895-1.44h2.291c.457.338.73.868.73 1.44v1.686h-3.75V7.377c0-.572.272-1.102.729-1.44zm5.52 3.125h-.625V7.5a1.56 1.56 0 011.034-1.464 2.413 2.413 0 00-.409 1.34v1.686zm-1.25 0h-.625V7.377c0-.486-.147-.95-.408-1.341.6.218 1.033.789 1.033 1.464v1.563zm0 .626v.624H.703v-.624h6.25zm.625 0h6.25v.624h-6.25v-.624zm1.563-4.376c-.797 0-1.493.43-1.875 1.067A2.187 2.187 0 005.39 5.313h-.625V3.438H6.64v.624h2.534c.172.168.371.307.59.411v.84H9.14zm-1.875-3.75H8.73a2.168 2.168 0 000 1.875H7.266V1.563zm-.625 1.25h-.625v-.624h.625v.624zM3.516 2.5c0-.172.14-.313.312-.313h1.563v.626H4.14v2.5h-.625V2.5zm-1.78 3.536a2.413 2.413 0 00-.408 1.34v1.686H.703V7.5a1.56 1.56 0 011.034-1.464zm3.655 13.027H2.266A1.565 1.565 0 01.703 17.5v-.313h4.375v-.625H.703v-5.625h6.25v5.626h-1.25v.625h1.25v.312c0 .862-.7 1.563-1.562 1.563zm6.875 0H9.14A1.565 1.565 0 017.577 17.5v-.313h4.375v-.625H7.578v-5.625h6.25v5.626h-1.25v.625h1.25v.312c0 .862-.7 1.563-1.562 1.563zM13.828 7.5v1.563h-.625V7.377c0-.486-.147-.95-.408-1.341.6.218 1.033.789 1.033 1.464zm-2.812-2.188h-.625v-.65c.102.015.206.026.312.026.106 0 .21-.01.313-.026v.65z"/><path d="M11.64 2.188h-.624v-.626h-.625v1.25h1.25v-.624z"/></symbol><symbol id="plus" viewBox="0 0 12 11"><path d="M11.207 6.56H6.84v4.296H4.823V6.56H.455V4.664h4.368V.344H6.84v4.32h4.368V6.56z"/></symbol><symbol id="prev" viewBox="0 0 11 22"><path d="M10 21L1.25 11 10 1" stroke="#262C36"/></symbol><symbol id="profile" viewBox="0 0 20 20"><path d="M10 10c2.762 0 5-2.237 5-5s-2.238-5-5-5C7.237 0 5 2.237 5 5s2.237 5 5 5zm0 2.5c-3.338 0-10 1.675-10 5V20h20v-2.5c0-3.325-6.662-5-10-5z"/></symbol><symbol id="remove" viewBox="0 0 17 17"><path d="M1 1l15 15m0-15L1 16"/></symbol><symbol id="sand-clock" viewBox="0 0 13 20"><path d="M10.67 13.856l-4.435-3.374-4.348 3.372a1.474 1.474 0 00-.575 1.169v1.862h9.946v-1.851a1.492 1.492 0 00-.588-1.178zM.083 0h12.238c.046 0 .083.037.083.083v2.184a.083.083 0 01-.083.083H.083A.083.083 0 010 2.267V.083C0 .037.037 0 .083 0zm0 17.65h12.238c.046 0 .083.038.083.083v2.184a.083.083 0 01-.083.083H.083A.083.083 0 010 19.917v-2.184c0-.046.037-.083.083-.083zM1.258 4.825c0 .45.205.876.558 1.156l4.413 3.53 4.416-3.53c.352-.28.558-.705.558-1.156v-1.71H1.258v1.71z"/></symbol><symbol id="scale" viewBox="0 0 164 810"><path d="M38 37h23.5M38 69h23.5M38 101h23.5M38 165h23.5M38 197h23.5M38 229h23.5M38 293h23.5M88 261H38m0 64h23.5M38 357h23.5M38 421h23.5M38 549h23.5M38 677h23.5M38 389h65M38 517h82M38 645h110M38 773h125M38 453h23.5M38 581h23.5M38 709h23.5M38 485h23.5M38 613h23.5M38 741h23.5M73 133H38" stroke="#C6D2E4" stroke-linecap="square"/><path fill="#C6D2E4" d="M48 0h1v810h-1z"/><path d="M16.928 137.04v.96H9.564v-.765l4.364-4.275c.55-.54.92-1.005 1.11-1.395.2-.4.3-.8.3-1.2 0-.62-.214-1.1-.644-1.44-.42-.35-1.026-.525-1.816-.525-1.23 0-2.184.39-2.864 1.17l-.765-.66c.41-.48.93-.85 1.56-1.11.64-.26 1.36-.39 2.16-.39 1.07 0 1.915.255 2.535.765.63.5.944 1.19.944 2.07 0 .54-.12 1.06-.36 1.56s-.695 1.075-1.365 1.725l-3.57 3.51h5.775zm4.116-5.235c1.52 0 2.625.275 3.315.825.7.54 1.05 1.3 1.05 2.28a3.1 3.1 0 01-.435 1.635c-.28.48-.705.86-1.275 1.14-.57.27-1.27.405-2.1.405-.75 0-1.465-.12-2.145-.36-.67-.25-1.21-.58-1.62-.99l.525-.855c.35.36.81.655 1.38.885.57.22 1.185.33 1.845.33.87 0 1.54-.195 2.01-.585.48-.39.72-.91.72-1.56 0-.72-.27-1.265-.81-1.635-.53-.37-1.43-.555-2.7-.555h-2.235l.54-5.265h5.745v.96h-4.8l-.36 3.345h1.35zm-9.932 128c1.52 0 2.625.275 3.315.825.7.54 1.05 1.3 1.05 2.28a3.1 3.1 0 01-.435 1.635c-.28.48-.705.86-1.275 1.14-.57.27-1.27.405-2.1.405-.75 0-1.465-.12-2.145-.36-.67-.25-1.21-.58-1.62-.99l.525-.855c.35.36.81.655 1.38.885.57.22 1.185.33 1.845.33.87 0 1.54-.195 2.01-.585.48-.39.72-.91.72-1.56 0-.72-.27-1.265-.81-1.635-.53-.37-1.43-.555-2.7-.555H8.637l.54-5.265h5.745v.96h-4.8l-.36 3.345h1.35zm9.921 6.285a3.81 3.81 0 01-2.175-.645c-.63-.43-1.125-1.045-1.485-1.845-.35-.81-.525-1.76-.525-2.85s.175-2.035.525-2.835c.36-.81.855-1.43 1.485-1.86a3.81 3.81 0 012.175-.645c.81 0 1.53.215 2.16.645.64.43 1.14 1.05 1.5 1.86.36.8.54 1.745.54 2.835 0 1.09-.18 2.04-.54 2.85-.36.8-.86 1.415-1.5 1.845-.63.43-1.35.645-2.16.645zm0-.99c.61 0 1.145-.17 1.605-.51.47-.34.835-.835 1.095-1.485.26-.65.39-1.435.39-2.355 0-.92-.13-1.705-.39-2.355-.26-.65-.625-1.145-1.095-1.485-.46-.34-.995-.51-1.605-.51s-1.15.17-1.62.51c-.46.34-.82.835-1.08 1.485-.26.65-.39 1.435-.39 2.355 0 .92.13 1.705.39 2.355.26.65.62 1.145 1.08 1.485.47.34 1.01.51 1.62.51zM17.14 383.5v.765L12.743 394h-1.17l4.32-9.54h-5.4v1.965H9.43V383.5h7.71zm3.904 4.305c1.52 0 2.625.275 3.315.825.7.54 1.05 1.3 1.05 2.28a3.1 3.1 0 01-.435 1.635c-.28.48-.705.86-1.275 1.14-.57.27-1.27.405-2.1.405-.75 0-1.465-.12-2.145-.36-.67-.25-1.21-.58-1.62-.99l.525-.855c.35.36.81.655 1.38.885.57.22 1.185.33 1.845.33.87 0 1.54-.195 2.01-.585.48-.39.72-.91.72-1.56 0-.72-.27-1.265-.81-1.635-.53-.37-1.43-.555-2.7-.555h-2.235l.54-5.265h5.745v.96h-4.8l-.36 3.345h1.35zM4.407 511.5V522h-1.08v-9.54H.852v-.96h3.555zm6.695 10.59a3.81 3.81 0 01-2.175-.645c-.63-.43-1.125-1.045-1.485-1.845-.35-.81-.525-1.76-.525-2.85s.175-2.035.525-2.835c.36-.81.855-1.43 1.485-1.86a3.81 3.81 0 012.175-.645c.81 0 1.53.215 2.16.645.64.43 1.14 1.05 1.5 1.86.36.8.54 1.745.54 2.835 0 1.09-.18 2.04-.54 2.85-.36.8-.86 1.415-1.5 1.845-.63.43-1.35.645-2.16.645zm0-.99c.61 0 1.145-.17 1.605-.51.47-.34.835-.835 1.095-1.485.26-.65.39-1.435.39-2.355 0-.92-.13-1.705-.39-2.355-.26-.65-.625-1.145-1.095-1.485-.46-.34-.995-.51-1.605-.51s-1.15.17-1.62.51c-.46.34-.82.835-1.08 1.485-.26.65-.39 1.435-.39 2.355 0 .92.13 1.705.39 2.355.26.65.62 1.145 1.08 1.485.47.34 1.01.51 1.62.51zm9.931.99a3.81 3.81 0 01-2.175-.645c-.63-.43-1.125-1.045-1.485-1.845-.35-.81-.525-1.76-.525-2.85s.175-2.035.525-2.835c.36-.81.855-1.43 1.485-1.86a3.81 3.81 0 012.175-.645c.81 0 1.53.215 2.16.645.64.43 1.14 1.05 1.5 1.86.36.8.54 1.745.54 2.835 0 1.09-.18 2.04-.54 2.85-.36.8-.86 1.415-1.5 1.845-.63.43-1.35.645-2.16.645zm0-.99c.61 0 1.145-.17 1.605-.51.47-.34.835-.835 1.095-1.485.26-.65.39-1.435.39-2.355 0-.92-.13-1.705-.39-2.355-.26-.65-.625-1.145-1.095-1.485-.46-.34-.995-.51-1.605-.51s-1.15.17-1.62.51c-.46.34-.82.835-1.08 1.485-.26.65-.39 1.435-.39 2.355 0 .92.13 1.705.39 2.355.26.65.62 1.145 1.08 1.485.47.34 1.01.51 1.62.51zM9.249 639.5V650h-1.08v-9.54H5.694v-.96h3.555zm9.68 9.54v.96h-7.365v-.765l4.364-4.275c.55-.54.92-1.005 1.11-1.395.2-.4.3-.8.3-1.2 0-.62-.215-1.1-.645-1.44-.42-.35-1.025-.525-1.815-.525-1.23 0-2.184.39-2.864 1.17l-.765-.66c.41-.48.93-.85 1.56-1.11.64-.26 1.36-.39 2.16-.39 1.07 0 1.915.255 2.534.765.63.5.945 1.19.945 2.07 0 .54-.12 1.06-.36 1.56s-.695 1.075-1.364 1.725l-3.57 3.51h5.774zm4.115-5.235c1.52 0 2.625.275 3.315.825.7.54 1.05 1.3 1.05 2.28a3.1 3.1 0 01-.435 1.635c-.28.48-.705.86-1.275 1.14-.57.27-1.27.405-2.1.405-.75 0-1.465-.12-2.145-.36-.67-.25-1.21-.58-1.62-.99l.525-.855c.35.36.81.655 1.38.885.57.22 1.185.33 1.845.33.87 0 1.54-.195 2.01-.585.48-.39.72-.91.72-1.56 0-.72-.27-1.265-.81-1.635-.53-.37-1.43-.555-2.7-.555h-2.235l.54-5.265h5.745v.96h-4.8l-.36 3.345h1.35zM7.842 767.5V778h-1.08v-9.54H4.287v-.96h3.555zm5.27 4.305c1.52 0 2.625.275 3.315.825.7.54 1.05 1.3 1.05 2.28a3.1 3.1 0 01-.435 1.635c-.28.48-.705.86-1.275 1.14-.57.27-1.27.405-2.1.405-.75 0-1.465-.12-2.145-.36-.67-.25-1.21-.58-1.62-.99l.525-.855c.35.36.81.655 1.38.885.57.22 1.185.33 1.845.33.87 0 1.54-.195 2.01-.585.48-.39.72-.91.72-1.56 0-.72-.27-1.265-.81-1.635-.53-.37-1.43-.555-2.7-.555h-2.235l.54-5.265h5.745v.96h-4.8l-.36 3.345h1.35zm9.921 6.285a3.81 3.81 0 01-2.175-.645c-.63-.43-1.125-1.045-1.485-1.845-.35-.81-.525-1.76-.525-2.85s.175-2.035.525-2.835c.36-.81.855-1.43 1.485-1.86a3.81 3.81 0 012.175-.645c.81 0 1.53.215 2.16.645.64.43 1.14 1.05 1.5 1.86.36.8.54 1.745.54 2.835 0 1.09-.18 2.04-.54 2.85-.36.8-.86 1.415-1.5 1.845-.63.43-1.35.645-2.16.645zm0-.99c.61 0 1.145-.17 1.605-.51.47-.34.835-.835 1.095-1.485.26-.65.39-1.435.39-2.355 0-.92-.13-1.705-.39-2.355-.26-.65-.625-1.145-1.095-1.485-.46-.34-.995-.51-1.605-.51s-1.15.17-1.62.51c-.46.34-.82.835-1.08 1.485-.26.65-.39 1.435-.39 2.355 0 .92.13 1.705.39 2.355.26.65.62 1.145 1.08 1.485.47.34 1.01.51 1.62.51z" fill="#fff"/></symbol><symbol id="scuba-diver" viewBox="0 0 17 20"><path d="M13.427 13.003v-1.698c0-.895-.618-1.648-1.455-1.87.094-.33.147-.678.147-1.037V7.182a2.552 2.552 0 00.322-3.723C12.391 1.544 10.801 0 8.85 0H7.541C5.589 0 3.999 1.544 3.949 3.46a2.552 2.552 0 00.322 3.722v1.216c0 1.293.647 2.437 1.635 3.142v.798l-2.557.561c-1.96.43-3.33 2.116-3.33 4.1v3.027H16.37v-3.028c0-1.85-1.191-3.44-2.943-3.995zm-.654-1.698v1.535l-2.289-.502v-.798a3.908 3.908 0 001.259-1.496c.588.126 1.03.643 1.03 1.26zM7.541.646h1.308a2.94 2.94 0 012.862 2.241 2.624 2.624 0 00-1.227-.303H5.906c-.443 0-.861.11-1.227.303A2.939 2.939 0 017.54.646zM3.944 5.168c0-1.069.88-1.938 1.962-1.938h4.578c1.082 0 1.962.87 1.962 1.938 0 1.069-.88 1.938-1.962 1.938h-.391a.78.78 0 01-.645-.34 1.431 1.431 0 00-1.189-.63H8.13a1.43 1.43 0 00-1.188.63.775.775 0 01-.645.34h-.391c-1.082 0-1.962-.87-1.962-1.938zm.98 3.23v-.836c.304.121.635.19.982.19h.391c.48 0 .923-.235 1.19-.628a.776.776 0 01.644-.341h.129c.26 0 .5.127.644.34.266.394.71.629 1.189.629h.391c.347 0 .678-.069.981-.19v.836c0 .337-.053.663-.15.969H9.783a1.303 1.303 0 00-1.262-.97h-.654c-.721 0-1.308.58-1.308 1.293 0 .712.587 1.292 1.308 1.292h.654c.608 0 1.115-.413 1.262-.97h1.239a3.276 3.276 0 01-2.828 1.616c-1.803 0-3.27-1.449-3.27-3.23zM9.177 9.69a.65.65 0 01-.654.646h-.654a.65.65 0 01-.654-.646.65.65 0 01.654-.646h.654c.36 0 .654.29.654.646zM.674 16.998c0-1.678 1.158-3.104 2.816-3.468l1.435-.315v1.643a.65.65 0 01-.654.646h-.654c-.722 0-1.308.58-1.308 1.292a.65.65 0 01-.654.646H.674v-.444zm15.042 2.382H13.1v-1.292h-.654v1.292H3.944v-1.292H3.29v1.292H.674v-1.292h.98c.722 0 1.309-.58 1.309-1.292a.65.65 0 01.654-.646h.654c.721 0 1.308-.58 1.308-1.292V13.07l.98-.215v-.939a3.938 3.938 0 001.636.357c.584 0 1.137-.13 1.635-.357v.939l.981.215v1.787c0 .712.587 1.292 1.308 1.292h.654c.36 0 .654.29.654.646 0 .712.587 1.292 1.308 1.292h.981v1.292zm0-1.938h-.98a.65.65 0 01-.655-.646 1.3 1.3 0 00-1.308-1.292h-.654a.65.65 0 01-.654-.646v-1.643l1.435.315c1.658.364 2.816 1.79 2.816 3.468v.444z"/><path d="M9.503 3.553H5.579v.646h3.924v-.646zm1.308 0h-.654v.646h.654v-.646z"/></symbol><symbol id="scuba-diving" viewBox="0 0 61 61"><path d="M34.074 43.129c-4.927 0-8.935 4.009-8.935 8.936 0 4.926 4.008 8.935 8.935 8.935 4.927 0 8.936-4.009 8.936-8.935 0-4.927-4.009-8.936-8.936-8.936zm1.787 10.723h-3.574v-3.575h3.574v3.575zM43.01 0H28.712c-6.31 0-11.99 3.853-14.637 9.495 2.16-1.31 4.783-2.108 7.488-2.108h28.594c2.705 0 5.328.798 7.488 2.108C54.999 3.853 49.319 0 43.009 0zm7.148 10.96H21.564c-5.912 0-10.841 4.81-10.841 10.724 0 5.912 4.929 10.722 10.841 10.722h3.575c3.783 0 7.216-1.979 9.186-5.295l1.536-2.588 1.536 2.588c1.97 3.316 5.403 5.295 9.187 5.295h3.574c5.913 0 10.842-4.81 10.842-10.722 0-5.913-4.929-10.723-10.842-10.723z" fill="#1B498E"/><path d="M35.862 31.071a14.095 14.095 0 01-7.351 4.475c1.637 2.446 4.326 4.009 7.35 4.009 3.025 0 5.714-1.563 7.352-4.009a14.09 14.09 0 01-7.351-4.475zM22.148 48.49h-2.37c-6.91 0-12.63-5.6-12.63-12.51v-3.574H0v3.575c0 10.856 8.92 19.658 19.777 19.658h2.37c-.342-1.14-.582-2.324-.582-3.575 0-1.25.24-2.434.583-3.574zm-15-23.232H0v3.574h7.148v-3.574zM7.148 0H0v21.684h7.148V0z" fill="#1B498E"/></symbol><symbol id="share" viewBox="-21 0 512 512"><path d="M453.332 85.332c0 38.293-31.039 69.336-69.332 69.336s-69.332-31.043-69.332-69.336C314.668 47.043 345.707 16 384 16s69.332 31.043 69.332 69.332zm0 0"/><path d="M384 170.668c-47.063 0-85.332-38.273-85.332-85.336C298.668 38.273 336.938 0 384 0s85.332 38.273 85.332 85.332c0 47.063-38.27 85.336-85.332 85.336zM384 32c-29.418 0-53.332 23.938-53.332 53.332 0 29.398 23.914 53.336 53.332 53.336s53.332-23.938 53.332-53.336C437.332 55.938 413.418 32 384 32zm69.332 394.668C453.332 464.957 422.293 496 384 496s-69.332-31.043-69.332-69.332c0-38.293 31.039-69.336 69.332-69.336s69.332 31.043 69.332 69.336zm0 0"/><path d="M384 512c-47.063 0-85.332-38.273-85.332-85.332 0-47.063 38.27-85.336 85.332-85.336s85.332 38.273 85.332 85.336c0 47.059-38.27 85.332-85.332 85.332zm0-138.668c-29.418 0-53.332 23.938-53.332 53.336C330.668 456.063 354.582 480 384 480s53.332-23.938 53.332-53.332c0-29.398-23.914-53.336-53.332-53.336zM154.668 256c0 38.293-31.043 69.332-69.336 69.332C47.043 325.332 16 294.293 16 256s31.043-69.332 69.332-69.332c38.293 0 69.336 31.039 69.336 69.332zm0 0"/><path d="M85.332 341.332C38.273 341.332 0 303.062 0 256s38.273-85.332 85.332-85.332c47.063 0 85.336 38.27 85.336 85.332s-38.273 85.332-85.336 85.332zm0-138.664C55.914 202.668 32 226.602 32 256s23.914 53.332 53.332 53.332c29.422 0 53.336-23.934 53.336-53.332s-23.914-53.332-53.336-53.332zm0 0"/><path d="M135.703 245.762c-7.426 0-14.637-3.864-18.562-10.774-5.825-10.218-2.239-23.254 7.98-29.101l197.95-112.852c10.218-5.867 23.253-2.281 29.1 7.977 5.825 10.218 2.24 23.254-7.98 29.101L146.238 242.965a21.195 21.195 0 01-10.535 2.797zm197.93 176c-3.586 0-7.211-.899-10.54-2.797L125.142 306.113c-10.22-5.824-13.801-18.86-7.977-29.101 5.8-10.239 18.856-13.844 29.098-7.977l197.953 112.852c10.219 5.824 13.8 18.86 7.976 29.101-3.945 6.91-11.156 10.774-18.558 10.774zm0 0"/></symbol><symbol id="sidemount" viewBox="0 0 20 20"><path d="M19.701 5.653l-1.314-1.576V1.935h-.645V0H13.87v.645h-2.903V0H9.032v.88a2.573 2.573 0 00-4.328.74A4.195 4.195 0 00.645 5.806v5.484H0v2.904a1.614 1.614 0 003.226 0V11.29H2.58V5.806c0-1.2.943-2.183 2.127-2.251a2.573 2.573 0 004.324.727v.88h1.936v-.646h1.892l-.948 1.137a1.294 1.294 0 00-.3.826v11.908c0 .89.724 1.613 1.614 1.613h5.161c.89 0 1.613-.724 1.613-1.613V6.48c0-.301-.106-.594-.299-.826zm-.349.799l.003.027v10.295h-7.097V6.48l.003-.027h5.158v-.646h-4.795l1.075-1.29h4.214l1.075 1.29h-.924v.646h1.288zm-1.288 12.903h-.645v-1.936h.645v1.936zm-4.516-1.936h.646v1.936h-.646v-1.936zm1.29 0h1.936v1.936H14.84v-1.936zm2.904-14.838v1.29H13.87v-1.29h3.87zM17.097.645v1.29h-2.58V.645h2.58zM2.58 11.935v.646H.645v-.646h1.936zm-.646 1.936v-.645h.646v.645h-.646zm-1.29 0v-.645h.645v.645H.645zm.968 1.29a.966.966 0 01-.908-.645H2.52a.966.966 0 01-.908.645zm.322-9.355v5.484H1.29V5.806a3.552 3.552 0 013.246-3.533c-.012.101-.02.203-.02.308 0 .114.01.227.025.337a2.907 2.907 0 00-2.606 2.888zM7.42 4.487v-.939h-.645v.94A1.938 1.938 0 015.19 2.902h.939v-.645H5.19A1.938 1.938 0 016.774.674v.939h.645V.674a1.938 1.938 0 011.584 1.584h-.938v.645h.938A1.939 1.939 0 017.42 4.487zm2.904.03h-.646V.644h.646v3.871zm.645-3.227h2.903v.645h-.645v1.936h-2.258v-2.58zm1.29 17.097v-.968h.645v1.877a.967.967 0 01-.645-.909zm6.452.909v-1.877h.645v.968c0 .42-.27.775-.645.909z"/></symbol><symbol id="star-empty" viewBox="0 0 15 15"><path d="M11.643 14.697a.798.798 0 00.777-.975l-.966-4.251 3.273-2.87a.797.797 0 00-.452-1.395l-4.33-.393L8.233.806a.797.797 0 00-1.466 0L5.055 4.813l-4.33.393A.796.796 0 00.272 6.6l3.273 2.87-.965 4.25a.797.797 0 001.186.861l3.734-2.23 3.734 2.232a.799.799 0 00.409.114zM7.5 11.39a.8.8 0 00-.409.113L3.567 13.61l.91-4.012a.797.797 0 00-.252-.777l-3.09-2.71 4.089-.37a.796.796 0 00.662-.484L7.5 1.477l1.616 3.78c.113.27.366.455.66.482l4.089.371-3.09 2.71a.795.795 0 00-.253.778l.91 4.012-3.523-2.107a.8.8 0 00-.41-.113zm2.478-6.5v.001-.001zm-4.955-.002v.001z" fill="#4F5764"/></symbol><symbol id="star" viewBox="0 0 16 15"><path d="M.29 5.753a.796.796 0 01.685-.547l4.33-.393L7.016.806a.797.797 0 011.467 0l1.711 4.007 4.331.393a.799.799 0 01.453 1.395l-3.273 2.87.965 4.25a.797.797 0 01-1.186.863L7.75 12.35l-3.733 2.232a.797.797 0 01-1.187-.861l.965-4.251L.522 6.6a.798.798 0 01-.233-.848z" fill="#2C60AE"/></symbol><symbol id="textbook" viewBox="0 0 47 61"><g clip-path="url(#clip0)" fill="#1B498E"><path d="M-.05 49.862v.002c0 3.293 2.712 5.973 6.046 5.973h3.34v-5.973c0-1.001.82-1.811 1.833-1.811h35.435v-4.164H5.996c-3.334 0-6.047 2.68-6.047 5.973z"/><path d="M25.046 55.837h20.947c.337 0 .61-.27.61-.604v-3.558H25.047v4.162zM7.344 40.268V0H5.996C2.662 0-.051 2.68-.051 5.975v36.384c2.57-2.029 4.79-2.091 7.395-2.091zM11.01 0v40.268h35.594V.604A.607.607 0 0045.993 0H11.01zm29.337 16.751c0 1-.821 1.811-1.833 1.811H19.1a1.822 1.822 0 01-1.833-1.81v-8.93c0-.999.82-1.81 1.833-1.81h19.413c1.012 0 1.833.811 1.833 1.81v8.93zM13.002 60.395c0 .51.602.79 1 .466l2.022-1.65a1.848 1.848 0 012.334 0l2.022 1.65c.399.325 1 .045 1-.466v-8.72h-8.378v8.72z"/><path d="M20.934 9.634H36.68v5.306H20.934V9.634z"/></g></symbol><symbol id="textbooks" viewBox="0 0 16 20"><path d="M2.809 16.111h-.022s-1.39.088-1.39 1.922V1.68c0-.299.123-.585.343-.797.22-.211.518-.33.829-.33h.24V16.11z" stroke="#2C60AE" stroke-width=".8" stroke-miterlimit="10"/><path d="M8.874.554v5.834l2.205-2.124 2.238 2.153V.554" stroke="#2C60AE" stroke-width=".8" stroke-linecap="round" stroke-linejoin="round"/><path d="M2.808 17.643h11.048" stroke="#2C60AE" stroke-width=".8" stroke-miterlimit="10" stroke-linecap="round"/><path d="M12.078 16.11H2.973a1.658 1.658 0 00-1.126.484 1.534 1.534 0 00-.45 1.104v.156c-.006.41.157.806.452 1.102.294.296.698.469 1.124.482h10.959a1.658 1.658 0 001.127-.485c.295-.298.456-.695.45-1.106V14.81c0 .345-.255.646-.54.922-.417.4-2.17.378-2.891.378z" stroke="#2C60AE" stroke-width=".8" stroke-miterlimit="10"/><path d="M15.508 15V1.435a.868.868 0 00-.27-.623.938.938 0 00-.65-.258H2.809v15.551H13.43" stroke="#2C60AE" stroke-width=".8" stroke-miterlimit="10"/></symbol><symbol id="torch" viewBox="0 0 20 20"><path d="M14.933 2.495c.14.076.32.025.397-.119L16.377.432a.293.293 0 10-.515-.278l-1.048 1.944a.293.293 0 00.119.397zm5.032 1.246a.293.293 0 00-.397-.119L17.623 4.67a.293.293 0 00.278.516l1.945-1.048a.293.293 0 00.119-.397zM6.72 14.68a.501.501 0 00.356-.148l.598-.598a.505.505 0 000-.713l-.896-.897a.5.5 0 00-.714 0l-.598.598a.501.501 0 000 .713l.897.897a.5.5 0 00.357.148zm-.3-1.884l.782.782-.482.482-.782-.781.483-.483zm9.79-9.006c.114.114.3.114.414 0l1.496-1.496a.293.293 0 00-.414-.415L16.21 3.375a.293.293 0 000 .415zm-3.403-2.37a.57.57 0 00-.801 0l-.442.442a.57.57 0 00-.01.79L9.31 4.893a.323.323 0 00-.062.087L7.751 8.247.456 15.542a1.568 1.568 0 000 2.208l1.794 1.794a1.564 1.564 0 002.208 0l3.675-3.676a.293.293 0 10-.414-.414l-3.676 3.675a.976.976 0 01-1.379 0L.87 17.335a.981.981 0 010-1.379l7.126-7.125 3.172 3.173-2.476 2.477a.293.293 0 00.414.414l2.647-2.647 3.266-1.498c.028-.016.045-.02.087-.061l2.243-2.243c.222.21.572.207.789-.01l.442-.442a.571.571 0 000-.801L12.807 1.42zm-1.161 10.233l-3.3-3.3 1.26-2.745 4.786 4.785-2.746 1.26zm6.091-3.645l-3.932-3.933a.293.293 0 00-.414.415l3.543 3.543-2.037 2.036L9.93 5.103l2.037-2.037.46.46a.293.293 0 00.413-.415l-.848-.849.414-.414 5.746 5.745-.415.415zM4.628 13.97a.501.501 0 00-.356.148l-.598.598a.505.505 0 000 .713l.897.897a.501.501 0 00.713 0l.598-.598a.505.505 0 000-.713l-.897-.897a.501.501 0 00-.357-.148zm.3 1.884l-.782-.782.482-.482.782.781-.483.483z"/></symbol><symbol id="underwater" viewBox="0 0 24 20"><path d="M14.44 15.201h.8v.8h-.8v-.8zm-2.401-8.002a3.194 3.194 0 00-3.19 3.19c0 1.76 1.43 3.192 3.19 3.192s3.19-1.432 3.19-3.191c0-1.76-1.43-3.191-3.19-3.191zm0 5.581a2.393 2.393 0 01-2.39-2.39A2.393 2.393 0 0112.038 8a2.393 2.393 0 012.39 2.39 2.393 2.393 0 01-2.39 2.39z"/><path d="M11.248 9.59h-.783v.806h.8v-.805h.783v-.8h-.8v.8zm-4.784-2.4h.8v.8h-.8v-.8zm0 1.6h.8v3.201h-.8v-3.2z"/><path d="M23.565-.02h-4v2.418h.835v6.39h-1.133V6.221L17.803 4.79h-.937V3.198h-5l-1.2 1.592H9.648V3.198H7.246V4.79H6.27L4.864 6.227v2.56H3.6v-6.39h.765V-.02H.364v2.419H1.2v13.594H2V2.398h.8v15.23H2v-.836h-.8v3.228h2.4v-2.4h16.8v2.4h2.4V3.99H22v13.639h-.8V2.398h.8v.791h.8v-.791h.765V-.021zM20.4 15.2h-1.784l.65-.642V11.2H20.4v4.002zm0-5.613v.811h-1.133v-.811H20.4zM8.047 3.998h.801v.792h-.801v-.792zM3.6 11.2h1.264v3.355l.628.647H3.6V11.2zm1.264-1.611v.811H3.6v-.811h1.264zM1.2 1.598h-.036V.78h2.4v.818H1.2zM2 19.22v-.791h.8v.791H2zm1.6-2.4V16h10.04v-.8H6.607l-.942-.971V6.553l.94-.962h6.261v-.8h-1.198l.597-.793h3.801v.792H13.64v.8h3.837l.99.968v7.667l-.991.976H16.04v.8h4.36v.818H3.6zM22 18.428v.791h-.8v-.791h.8zm-1.6-16.83h-.036V.78h2.4v.818H20.4z"/></symbol><symbol id="views" viewBox="0 0 34 20"><path d="M16.995-.02C10.5-.02 4.612 3.492.266 9.197a1.318 1.318 0 000 1.587c4.346 5.712 10.235 9.224 16.729 9.224s12.383-3.512 16.729-9.217a1.318 1.318 0 000-1.587C29.378 3.492 23.489-.02 16.994-.02zm.466 17.066c-4.311.268-7.871-3.244-7.6-7.513.223-3.518 3.108-6.37 6.668-6.59 4.31-.269 7.87 3.243 7.6 7.511-.23 3.512-3.115 6.365-6.668 6.591zm-.216-3.258c-2.322.144-4.241-1.746-4.088-4.041.118-1.897 1.675-3.43 3.594-3.554 2.323-.144 4.242 1.746 4.089 4.042-.125 1.903-1.683 3.436-3.595 3.553z"/></symbol><symbol id="contacts-whatsapp" viewBox="0 0 24 24"><path d="M.057 24l1.687-6.163a11.867 11.867 0 01-1.587-5.946C.16 5.335 5.495 0 12.05 0a11.817 11.817 0 018.413 3.488 11.824 11.824 0 013.48 8.414c-.003 6.557-5.338 11.892-11.893 11.892a11.9 11.9 0 01-5.688-1.448L.057 24zm6.597-3.807c1.676.995 3.276 1.591 5.392 1.592 5.448 0 9.886-4.434 9.889-9.885.002-5.462-4.415-9.89-9.881-9.892-5.452 0-9.887 4.434-9.889 9.884-.001 2.225.651 3.891 1.746 5.634l-.999 3.648 3.742-.981zm11.387-5.464c-.074-.124-.272-.198-.57-.347-.297-.149-1.758-.868-2.031-.967-.272-.099-.47-.149-.669.149-.198.297-.768.967-.941 1.165-.173.198-.347.223-.644.074-.297-.149-1.255-.462-2.39-1.475-.883-.788-1.48-1.761-1.653-2.059-.173-.297-.018-.458.13-.606.134-.133.297-.347.446-.521.151-.172.2-.296.3-.495.099-.198.05-.372-.025-.521-.075-.148-.669-1.611-.916-2.206-.242-.579-.487-.501-.669-.51l-.57-.01c-.198 0-.52.074-.792.372s-1.04 1.016-1.04 2.479 1.065 2.876 1.213 3.074c.149.198 2.095 3.2 5.076 4.487.709.306 1.263.489 1.694.626.712.226 1.36.194 1.872.118.571-.085 1.758-.719 2.006-1.413.248-.695.248-1.29.173-1.414z" fill="#2c60ae"/></symbol><symbol id="fb" viewBox="0 0 512 512"><path d="M504 256C504 119 393 8 256 8S8 119 8 256c0 123.78 90.69 226.38 209.25 245V327.69h-63V256h63v-54.64c0-62.15 37-96.48 93.67-96.48 27.14 0 55.52 4.84 55.52 4.84v61h-31.28c-30.8 0-40.41 19.12-40.41 38.73V256h68.78l-11 71.69h-57.78V501C413.31 482.38 504 379.78 504 256z"/></symbol><symbol id="insta-fill" viewBox="0 0 25 25"><rect width="25" height="25" rx="7"/><rect x="7" y="8" width="11" height="11" rx="5.5" fill="#fff"/><rect x="17" y="6" width="3" height="3" rx="1.5" fill="#fff"/></symbol><symbol id="insta" viewBox="0 0 448 512"><path d="M224.1 141c-63.6 0-114.9 51.3-114.9 114.9s51.3 114.9 114.9 114.9S339 319.5 339 255.9 287.7 141 224.1 141zm0 189.6c-41.1 0-74.7-33.5-74.7-74.7s33.5-74.7 74.7-74.7 74.7 33.5 74.7 74.7-33.6 74.7-74.7 74.7zm146.4-194.3c0 14.9-12 26.8-26.8 26.8-14.9 0-26.8-12-26.8-26.8s12-26.8 26.8-26.8 26.8 12 26.8 26.8zm76.1 27.2c-1.7-35.9-9.9-67.7-36.2-93.9-26.2-26.2-58-34.4-93.9-36.2-37-2.1-147.9-2.1-184.9 0-35.8 1.7-67.6 9.9-93.9 36.1s-34.4 58-36.2 93.9c-2.1 37-2.1 147.9 0 184.9 1.7 35.9 9.9 67.7 36.2 93.9s58 34.4 93.9 36.2c37 2.1 147.9 2.1 184.9 0 35.9-1.7 67.7-9.9 93.9-36.2 26.2-26.2 34.4-58 36.2-93.9 2.1-37 2.1-147.8 0-184.8zM398.8 388c-7.8 19.6-22.9 34.7-42.6 42.6-29.5 11.7-99.5 9-132.1 9s-102.7 2.6-132.1-9c-19.6-7.8-34.7-22.9-42.6-42.6-11.7-29.5-9-99.5-9-132.1s-2.6-102.7 9-132.1c7.8-19.6 22.9-34.7 42.6-42.6 29.5-11.7 99.5-9 132.1-9s102.7-2.6 132.1 9c19.6 7.8 34.7 22.9 42.6 42.6 11.7 29.5 9 99.5 9 132.1s2.7 102.7-9 132.1z"/></symbol><symbol id="tiktok" viewBox="0 0 448 512"><path d="M448 209.91a210.06 210.06 0 01-122.77-39.25v178.72A162.55 162.55 0 11185 188.31v89.89a74.62 74.62 0 1052.23 71.18V0h88a121.18 121.18 0 001.86 22.17A122.18 122.18 0 00381 102.39a121.43 121.43 0 0067 20.14z"/></symbol><symbol id="vk-fill" viewBox="0 0 26 25"><path d="M13.227 0C6.324 0 .727 5.596.727 12.5S6.324 25 13.227 25s12.5-5.596 12.5-12.5S20.13 0 13.227 0zm6.34 13.852c.583.569 1.2 1.104 1.723 1.732.231.278.45.565.616.888.237.461.023.966-.39.993h-2.56c-.661.055-1.188-.212-1.631-.664-.355-.36-.683-.745-1.024-1.118a2.392 2.392 0 00-.462-.41c-.349-.227-.652-.158-.852.207-.204.37-.25.782-.27 1.195-.028.604-.21.762-.816.79-1.294.06-2.523-.136-3.665-.788-1.007-.576-1.786-1.388-2.465-2.309-1.323-1.793-2.336-3.761-3.247-5.786-.204-.456-.054-.7.449-.71a71.264 71.264 0 012.507 0c.34.005.565.2.696.52a15.558 15.558 0 001.7 3.15c.184.261.373.521.642.706.296.203.522.136.662-.195.09-.21.128-.436.148-.661.066-.773.074-1.545-.04-2.315-.072-.481-.343-.792-.823-.883-.245-.047-.209-.137-.09-.277.206-.241.4-.39.786-.39l2.893-.001c.456.09.559.294.62.753l.003 3.216c-.005.177.09.704.409.82.255.085.424-.12.577-.282.694-.736 1.188-1.605 1.631-2.505.195-.397.364-.807.528-1.218.121-.304.31-.454.654-.449l2.786.003c.082 0 .166.001.247.015.47.08.598.283.453.74-.229.72-.673 1.32-1.107 1.92-.466.644-.962 1.265-1.423 1.912-.424.59-.39.888.136 1.4z"/></symbol><symbol id="vk" viewBox="0 0 576 512"><path d="M545 117.7c3.7-12.5 0-21.7-17.8-21.7h-58.9c-15 0-21.9 7.9-25.6 16.7 0 0-30 73.1-72.4 120.5-13.7 13.7-20 18.1-27.5 18.1-3.7 0-9.4-4.4-9.4-16.9V117.7c0-15-4.2-21.7-16.6-21.7h-92.6c-9.4 0-15 7-15 13.5 0 14.2 21.2 17.5 23.4 57.5v86.8c0 19-3.4 22.5-10.9 22.5-20 0-68.6-73.4-97.4-157.4-5.8-16.3-11.5-22.9-26.6-22.9H38.8c-16.8 0-20.2 7.9-20.2 16.7 0 15.6 20 93.1 93.1 195.5C160.4 378.1 229 416 291.4 416c37.5 0 42.1-8.4 42.1-22.9 0-66.8-3.4-73.1 15.4-73.1 8.7 0 23.7 4.4 58.7 38.1 40 40 46.6 57.9 69 57.9h58.9c16.8 0 25.3-8.4 20.4-25-11.2-34.9-86.9-106.7-90.3-111.5-8.7-11.2-6.2-16.2 0-26.2.1-.1 72-101.3 79.4-135.6z"/></symbol><symbol id="whatsapp" viewBox="0 0 24 24"><path d="M.057 24l1.687-6.163a11.867 11.867 0 01-1.587-5.946C.16 5.335 5.495 0 12.05 0a11.817 11.817 0 018.413 3.488 11.824 11.824 0 013.48 8.414c-.003 6.557-5.338 11.892-11.893 11.892a11.9 11.9 0 01-5.688-1.448L.057 24zm6.597-3.807c1.676.995 3.276 1.591 5.392 1.592 5.448 0 9.886-4.434 9.889-9.885.002-5.462-4.415-9.89-9.881-9.892-5.452 0-9.887 4.434-9.889 9.884-.001 2.225.651 3.891 1.746 5.634l-.999 3.648 3.742-.981zm11.387-5.464c-.074-.124-.272-.198-.57-.347-.297-.149-1.758-.868-2.031-.967-.272-.099-.47-.149-.669.149-.198.297-.768.967-.941 1.165-.173.198-.347.223-.644.074-.297-.149-1.255-.462-2.39-1.475-.883-.788-1.48-1.761-1.653-2.059-.173-.297-.018-.458.13-.606.134-.133.297-.347.446-.521.151-.172.2-.296.3-.495.099-.198.05-.372-.025-.521-.075-.148-.669-1.611-.916-2.206-.242-.579-.487-.501-.669-.51l-.57-.01c-.198 0-.52.074-.792.372s-1.04 1.016-1.04 2.479 1.065 2.876 1.213 3.074c.149.198 2.095 3.2 5.076 4.487.709.306 1.263.489 1.694.626.712.226 1.36.194 1.872.118.571-.085 1.758-.719 2.006-1.413.248-.695.248-1.29.173-1.414z" fill="#fff"/></symbol></svg>