<svg xmlns="http://www.w3.org/2000/svg" xmlns:xlink="http://www.w3.org/1999/xlink"><defs><clipPath id="clip0"><path fill="#fff" d="M0 0h20v20H0z"/></clipPath><clipPath id="clip0"><path fill="#fff" transform="translate(.946)" d="M0 0h110.054v53.235H0z"/></clipPath><clipPath id="clip0"><path fill="#fff" d="M0 0h176.132v81.292H0z"/></clipPath><clipPath id="clip0"><path fill="#fff" d="M0 0h46.553v61H0z"/></clipPath></defs><symbol id="arrow-angle" viewBox="0 0 5 10"><path d="M0 10l5-5-5-5v10z"/></symbol><symbol id="arrow-down" viewBox="0 0 16 16"><path d="M16 8l-1.41-1.41L9 12.17V0H7v12.17L1.42 6.58 0 8l8 8 8-8z"/></symbol><symbol id="arrow-thin" viewBox="0 0 9 18"><path d="M1 1l7 8-7 8" fill="none" stroke="#262C36"/></symbol><symbol id="box" viewBox="0 0 20 20"><g clip-path="url(#clip0)" fill="#262C36"><path d="M4.346 2.771L.738 4.686c-.061.033-.12.07-.175.11l9.226 4.81 3.864-1.91L4.346 2.77zm15.652 3.093l-4.616 2.283v2.572a.586.586 0 01-1.171 0V8.726l-3.843 1.901v9.309l.036-.017 8.835-4.477c.47-.234.76-.706.76-1.23V5.863zm-.758-1.179L10.407.21l-.004-.002a1.38 1.38 0 00-1.25.012L5.597 2.108l9.35 4.948 4.513-2.233a1.393 1.393 0 00-.22-.138zM.003 5.825a1.388 1.388 0 00-.003.08v8.316c0 .515.283.982.738 1.22l8.412 4.464.004.002.042.021v-9.31L.003 5.826zm6.315 6.95l-2.332 1.37c-.003 0-.006.002-.01.004l-.003.003-.011.005a.682.682 0 01-.035.017l-.018.008-.018.007-.018.006-.019.006-.017.005-.02.005c-.006 0-.011.002-.016.003l-.023.004-.014.002a.515.515 0 01-.028.003h-.009a.66.66 0 01-.037.002l-.021-.001h-.017l-.02-.002-.018-.002-.018-.003-.02-.003-.016-.004-.02-.005-.016-.005-.02-.006-.016-.006a.504.504 0 01-.02-.007l-.016-.007-.02-.009-.014-.007-.02-.01-.014-.01-.018-.01-.014-.01-.017-.013-.014-.011-.016-.013-.014-.013-.014-.013-.014-.015-.013-.013-.013-.017-.012-.014-.013-.017a.765.765 0 01-.022-.034l-.006-.01-.002-.004-.006-.01-.671-1.216a.586.586 0 011.026-.566l.38.69 1.814-1.064a.586.586 0 01.593 1.01z"/></g></symbol><symbol id="burger" viewBox="0 0 17 11"><path stroke="#fff" stroke-width="2" stroke-linecap="round" d="M1.5 1.75h13.75M1.5 5.5h13.75M1.5 5.5h13.75M1.5 9.25h13.75"/></symbol><symbol id="cart" viewBox="0 0 20 20"><path d="M6 16c-1.1 0-1.99.9-1.99 2S4.9 20 6 20s2-.9 2-2-.9-2-2-2zM0 0v2h2l3.6 7.59-1.35 2.45c-.16.28-.25.61-.25.96 0 1.1.9 2 2 2h12v-2H6.42c-.14 0-.25-.11-.25-.25l.03-.12.9-1.63h7.45c.75 0 1.41-.41 1.75-1.03l3.58-6.49A1.003 1.003 0 0019 2H4.21l-.94-2H0zm16 16c-1.1 0-1.99.9-1.99 2s.89 2 1.99 2 2-.9 2-2-.9-2-2-2z"/></symbol><symbol id="chevron-down" viewBox="0 0 330 330"><path d="M325.607 79.393c-5.857-5.857-15.355-5.858-21.213.001l-139.39 139.393L25.607 79.393c-5.857-5.857-15.355-5.858-21.213.001-5.858 5.858-5.858 15.355 0 21.213l150.004 150a14.999 14.999 0 0021.212-.001l149.996-150c5.859-5.857 5.859-15.355.001-21.213z"/></symbol><symbol id="chevron-left" viewBox="0 0 7 11"><path d="M7 .974L5.947 0 0 5.5 5.947 11 7 10.027 2.105 5.5 7 .973z"/></symbol><symbol id="chevron-right" viewBox="0 0 7 11"><path d="M0 10.027L1.053 11 7 5.5 1.053 0 0 .974 4.895 5.5 0 10.027z"/></symbol><symbol id="chevron-up" viewBox="0 0 240.835 240.835"><path d="M129.007 57.819c-4.68-4.68-12.499-4.68-17.191 0L3.555 165.803c-4.74 4.74-4.74 12.427 0 17.155 4.74 4.74 12.439 4.74 17.179 0l99.683-99.406 99.671 99.418c4.752 4.74 12.439 4.74 17.191 0 4.74-4.74 4.74-12.427 0-17.155L129.007 57.819z"/></symbol><symbol id="coupon" viewBox="0 0 20 20"><path d="M8.726 14.517a.585.585 0 10-.828.827.585.585 0 00.828-.827zm-.831-5.8a.585.585 0 10-.829.828.598.598 0 00.828 0 .585.585 0 000-.828zm11.583-1.634l-.958-.957a3.514 3.514 0 00-.664-4.05 3.512 3.512 0 00-4.05-.664l-.898-.899a1.76 1.76 0 00-2.486.001l-.378.378 1.183 1.184a.586.586 0 11-.828.829L9.215 1.72 7.602 3.378l9.055 9.055 1.613-1.657-1.242-1.243a.586.586 0 11.828-.828L19.1 9.947l.379-.378a1.76 1.76 0 000-2.486zM13.713 5.39a.586.586 0 01-.828 0l-.83-.828a.586.586 0 11.83-.829l.829.829c.228.228.228.6 0 .828zM16.2 7.876a.586.586 0 01-.829 0l-.828-.829a.586.586 0 11.829-.828l.828.829c.229.228.229.6 0 .828z"/><path d="M6.772 4.207l-6.25 6.25a1.76 1.76 0 000 2.486l.924.924a3.54 3.54 0 00.71 3.952 3.54 3.54 0 003.965.704l1.012.983a1.765 1.765 0 002.468-.018l6.226-6.226-9.055-9.055zm-.533 3.681c.664-.664 1.823-.663 2.486 0a1.757 1.757 0 11-2.486 0zm3.314 8.286a1.76 1.76 0 01-2.485.001 1.76 1.76 0 010-2.487c.664-.664 1.823-.663 2.486 0a1.76 1.76 0 010 2.486zM11.69 12.2l-7.458.828a.586.586 0 11-.129-1.165l7.457-.828a.586.586 0 01.13 1.165z"/></symbol><symbol id="date" viewBox="0 0 20 20"><path d="M10 0C4.486 0 0 4.486 0 10s4.486 10 10 10 10-4.486 10-10S15.514 0 10 0zm4.756 15.172a.831.831 0 01-1.178 0L9.41 11.006a.83.83 0 01-.244-.59V5a.833.833 0 111.666 0v5.072l3.923 3.922a.833.833 0 010 1.178z"/></symbol><symbol id="info" viewBox="0 0 20 20"><path d="M9 5h2v2H9V5zm0 4h2v6H9V9zm1-9C4.48 0 0 4.48 0 10s4.48 10 10 10 10-4.48 10-10S15.52 0 10 0zm0 18c-4.41 0-8-3.59-8-8s3.59-8 8-8 8 3.59 8 8-3.59 8-8 8z"/></symbol><symbol id="logo-sdi" viewBox="0 0 111 54"><g clip-path="url(#clip0)" fill="#fff"><path d="M47.812 27.448h7.483v5.726l-7.483-5.726zm-.341 1.242v8.373a17.067 17.067 0 00-.426-2.079c-.417-1.519-1.09-2.852-2.02-3.999-.929-1.146-2.104-2.026-3.524-2.639-1.422-.609-3.287-.915-5.596-.918H24.187v14.476c-1.522-5.046-11.607-6.172-11.607-6.172-3.933-.587-3.191-2.551-3.191-2.551.358-1.369 3.591-1.2 3.591-1.2 2.816.514 3.026 3.026 3.026 3.026l7.529-.405c-1.212-8.381-10.853-7.184-10.853-7.184-10.002-.173-10.72 6.274-10.72 6.274-.72 8.205 12.037 8.44 12.276 8.896 1.319-1.939 6.469 1.197 6.469 1.197-3.055-.568-4.307 1.163-4.307 1.163-.652 1.048-2.52.492-2.52.492-.18 2.168-1.499 2.167-1.499 2.167-1.917.456-2.395 3.25-2.395 3.25-1.977-5.361 1.198-6.271 1.198-6.271L.946 44.535c2.041 8.847 11.674 7.747 11.674 7.747 8.787 0 11.012-4.325 11.563-6.843v6.936h11.722c1.403 0 2.969-.227 4.698-.681 1.266-.329 2.45-.99 3.552-1.982 1.102-.992 1.964-2.223 2.585-3.693.334-.794.577-1.768.731-2.911v9.194h7.79V34.81l-7.79-6.12zM39.18 44.317c-.393.892-.94 1.517-1.638 1.875-.699.358-1.872.537-3.52.537h-1.936V33.072h1.97c2.044 0 3.509.488 4.392 1.466.884.978 1.326 2.791 1.328 5.44 0 2-.199 3.447-.596 4.34zm17.45 5.593c.423 0 .76.365.76.822 0 .457-.34.828-.766.828-.425 0-.767-.362-.767-.825 0-.463.344-.823.767-.823l.006-.002zm0 .125c-.34 0-.62.311-.62.695 0 .384.28.697.625.697.346 0 .624-.306.624-.694 0-.387-.277-.698-.624-.698h-.005zm-.15 1.176h-.138v-.918c.08-.014.162-.021.245-.021a.423.423 0 01.267.07.222.222 0 01.08.187.226.226 0 01-.168.223v.007c.076.016.125.088.144.223a.861.861 0 00.054.228h-.147a.83.83 0 01-.062-.234c-.02-.118-.075-.162-.187-.162h-.088v.397zm0-.51h.098c.116 0 .21-.042.21-.154 0-.081-.054-.163-.21-.163a.748.748 0 00-.098.007v.31zm27.622 2.531H62.939c-.572 0-1.144-.01-1.716 0-.572.01-1.023-.206-1.41-.592a1.803 1.803 0 01-.552-1.326l.008-29.352c0-.499.081-.997.14-1.492.156-1.293.43-2.569.819-3.812.187-.601.43-1.184.645-1.78.29-.788.676-1.536 1.078-2.27a21.873 21.873 0 012.093-3.159 23.88 23.88 0 013.538-3.614 25.983 25.983 0 012.254-1.662 25.196 25.196 0 015.58-2.73 29.27 29.27 0 012.466-.716C79.478.343 81.094.086 82.736.03c1.546-.054 3.091-.047 4.63.154.857.112 1.707.268 2.554.446.862.182 1.71.418 2.543.707.575.2 1.145.415 1.714.632 1.05.412 2.065.906 3.037 1.476.608.35 1.186.748 1.775 1.135.745.485 1.432 1.048 2.105 1.625.409.351.799.726 1.176 1.112a29.702 29.702 0 011.481 1.591 26.32 26.32 0 011.274 1.676 21.703 21.703 0 013.424 7.747c.202.878.344 1.77.424 2.667.03.374.053.753.053 1.13.003 6.121.003 12.243 0 18.365 0 3.631-.007 7.262.006 10.893 0 .664-.302 1.122-.803 1.496a1.817 1.817 0 01-1.128.35h-22.9zm19.185-38.28c.02.216.062.421.054.627a.587.587 0 01-.437.587 2.033 2.033 0 01-.358.095c-.403.05-.803.088-1.138-.227a.27.27 0 00-.324-.018.27.27 0 00-.158.277c.027.292.035.585.023.877a.557.557 0 00.133.417c.291.38.588.757.848 1.156.165.269.305.553.417.848.102.237.11.504.023.748a6.714 6.714 0 01-.963 1.808c-.182.25-.412.461-.676.623a.378.378 0 00-.139.17c-.094.212-.174.429-.262.642-.37.9-.773 1.782-1.306 2.6-.395.605-.85 1.158-1.42 1.608-.21.166-.429.347-.675.44-1.707.65-3.5 1.045-5.322 1.172-1.08.073-2.163.102-3.246.143a.321.321 0 00-.296.165 22.592 22.592 0 01-1.945 2.585 16.48 16.48 0 01-1.668 1.703.393.393 0 01-.33.117c-1.005-.125-2.012-.231-3.016-.363-1.004-.131-2.02-.297-3.004-.565a5.268 5.268 0 00-2.343-.079c-.593.106-1.072.379-1.392.901-.084.138-.184.267-.271.403-.701 1.09-1.678 1.907-2.69 2.688a.818.818 0 01-.096.062c-.374.212-.762.36-1.207.34-1.22-.056-2.442-.09-3.661-.152-.788-.04-1.574-.114-2.36-.172-.212-.015-.413-.062-.578-.207-.201-.179-.198-.407.015-.57a1.39 1.39 0 01.284-.151c.368-.162.739-.312 1.105-.48 1.895-.86 3.705-1.878 5.5-2.924.875-.51 1.742-1.032 2.55-1.643.403-.303.77-.635 1.05-1.066.295-.455.749-.686 1.29-.71.375-.018.695.096.892.46.125.221.267.433.425.632.26.339.613.499 1.043.513.624.018 1.192-.165 1.724-.464.85-.48 1.761-.646 2.725-.57.045.004.09 0 .153 0 .008-.072.016-.14.02-.207.03-.468.052-.938.091-1.407.06-.834.326-1.64.776-2.346a1.56 1.56 0 00.076-.16l-.25.1c-.468.18-.932.373-1.406.537-1.249.436-2.523.784-3.86.836a.773.773 0 00-.241.066c-.352.138-.695.3-1.054.416-1.249.402-2.54.592-3.832.784-.932.138-1.868.257-2.796.42-1.576.276-3.075.799-4.52 1.482a5.065 5.065 0 00-2.115 1.808 85.972 85.972 0 00-3.074 5.007.595.595 0 00-.068.283c-.004 4.278-.006 8.551-.006 12.821a1.858 1.858 0 00.547 1.335c.467.48 1.045.69 1.712.686a4738.133 4738.133 0 0114.801.005H95.3c2.691 0 5.382-.003 8.073-.007.937 0 1.873.015 2.809-.009 1.1-.027 2.083-.935 2.06-2.123-.036-2.042-.014-4.085-.013-6.128 0-3.623.002-7.247.007-10.87 0-3.523-.007-7.045 0-10.57a20.46 20.46 0 00-3.496-11.553 1.508 1.508 0 00-.13-.142v.826c.009.007.032.027.057.043.321.21.442.518.39.879a4.289 4.289 0 01-.575 1.62c-.207.343-.528.51-.931.513-.093.006-.183.006-.263.006v.002zm-43.286 15.89l.046.017c.04-.062.078-.125.119-.187.384-.569.755-1.147 1.16-1.7.138-.191.166-.34.096-.562a18.917 18.917 0 01-.807-4.258 20.053 20.053 0 01.168-4.473 19.824 19.824 0 012.047-6.264 21.437 21.437 0 014.366-5.711c.92-.865 1.924-1.621 2.947-2.356a20.407 20.407 0 015.007-2.634c2.49-.903 5.065-1.372 7.707-1.493a27.801 27.801 0 013.084.027c1.25.08 2.493.246 3.72.499a23.694 23.694 0 015.71 1.941c1.077.532 2.074 1.19 3.049 1.889 1.266.907 2.463 1.89 3.525 3.03.245.263.5.466.858.537.111.033.22.075.324.125.054.02.108.036.21.069-.08-.1-.125-.16-.175-.219a23.875 23.875 0 00-7.816-5.985C92.156 1.597 88.787.78 85.25.624a26.48 26.48 0 00-4.95.249 25.14 25.14 0 00-6.598 1.884c-3.87 1.71-7.116 4.207-9.62 7.624-2.703 3.694-4.09 7.827-4.08 12.412.003 2.321.003 4.642 0 6.962v1.087zm8.319-12.935a25.153 25.153 0 00-3.013 5.886c.625.738 2.505 2.25 3.192 2.569.059-.039.125-.08.187-.125a8.6 8.6 0 011.436-.845.476.476 0 00.274-.312 37.324 37.324 0 011.714-4.29 1.19 1.19 0 00.044-.118c-.679-.42-1.349-.818-1.998-1.247a11.974 11.974 0 01-1.837-1.518h.001zm8.28-3.775c-.898 1.01-3.692 5.646-3.82 6.349a22.944 22.944 0 004.862 1.652c.596-2.345 1.267-4.644 2.07-6.905-.544-.168-1.061-.312-1.572-.49-.51-.179-1.018-.398-1.54-.606zm-2.818-2.003c-1.992 1.587-3.737 3.367-5.198 5.41.521.72 2.843 2.384 3.782 2.711a40.104 40.104 0 013.853-6.34c-.904-.488-1.717-1.055-2.438-1.781zm10.19-7.687c-.192.018-.54.035-.884.084a4.936 4.936 0 00-1.752.569 2.51 2.51 0 00-.793.665c-.368.488-.383 1.052-.018 1.54.137.177.295.336.471.473.314.24.667.423 1.044.542.845.284 1.74.39 2.629.312.721-.055 1.42-.213 2.072-.54.307-.146.585-.347.822-.592.557-.595.553-1.31-.006-1.9a2.79 2.79 0 00-.763-.561c-.836-.428-1.736-.574-2.821-.592zm-17.81 10.056c-.086.1-.135.158-.188.216-.329.378-.665.748-.985 1.136a16.822 16.822 0 00-2.155 3.386.639.639 0 00-.038.525c.445 1.318 1.148 2.485 2.05 3.54.041.041.085.081.13.119a25.972 25.972 0 013.037-5.832c-.811-.904-1.45-1.894-1.851-3.09zm6.25-4.47c-.056.023-.085.033-.112.047-2.04 1.06-3.933 2.331-5.605 3.914-.141.133-.16.246-.102.422A7.94 7.94 0 0068 16.918c.08.099.168.194.269.311a27.134 27.134 0 015.231-5.406 6.014 6.014 0 01-1.09-1.796zm-8.594 17.456c.018-.062.032-.103.042-.147.236-1.084.507-2.16.874-3.206.062-.181.027-.293-.094-.428-.902-1.01-1.623-2.134-2.11-3.401-.018-.047-.046-.09-.081-.16-.035.074-.06.12-.078.167a17.673 17.673 0 00-1.153 5.096.692.692 0 00.066.333c.297.634.605 1.265.91 1.896.03.053.063.104.099.154.464-.363.971-.447 1.526-.303zM82.806 8.94c-.36.49-2.445 5.528-2.473 5.977.518.146 2.239.367 2.73.358a.219.219 0 00.187-.11c.176-.235.35-.47.538-.696a.487.487 0 00.115-.336 1853.87 1853.87 0 010-4.833v-.235l-1.097-.125zM72.194 7.676a.699.699 0 00-.101.014 21.53 21.53 0 00-5.379 2.818.45.45 0 00-.17.262 6.28 6.28 0 00-.227 2.31c.016.187.055.37.09.6 1.773-1.673 3.746-2.972 5.868-4.057a4.63 4.63 0 01-.079-1.947h-.002zm5.238 14.831c-1.697-.4-3.309-.932-4.848-1.663-.39.63-1.66 3.823-1.67 4.19.045-.015.09-.026.133-.043a9.289 9.289 0 013.937-.567.39.39 0 00.312-.108c.435-.381.874-.76 1.315-1.134.258-.217.522-.426.82-.675zm4.918-13.67c-.178-.063-.347-.095-.495-.171-.197-.103-.326-.057-.483.09a39.703 39.703 0 00-4.009 4.359c-.166.21-.328.424-.51.66.96.461 1.97.813 3.01 1.047a69.38 69.38 0 012.487-5.986zM78.14 21.97a.632.632 0 00.1-.037 14.128 14.128 0 011.692-.955.428.428 0 00.168-.176c.115-.208.217-.425.323-.639.75-1.496 1.504-2.986 2.412-4.394a.257.257 0 00.025-.066l-2.72-.366a72.864 72.864 0 00-2.002 6.633h.002zm3.03-13.59c-.153-.102-.287-.18-.405-.276-.1-.083-.188-.077-.294-.022-.283.142-.572.272-.856.41a32.687 32.687 0 00-5.29 3.224c-.062.05-.124.104-.187.155.388.503 1.713 1.45 2.337 1.694a39.93 39.93 0 014.693-5.186h.002zm-15.178 2.7c-.072.048-.125.077-.17.114a22.078 22.078 0 00-2.437 2.3 3.002 3.002 0 00-.644 1.158 8.246 8.246 0 00-.319 3.379c.026.241.074.48.111.72a.243.243 0 00.11-.11 18.077 18.077 0 013.23-4.428.39.39 0 00.115-.407 6.072 6.072 0 01-.012-2.544c.008-.06.012-.122.014-.183l.002.002zm31.488 2.192c.328-.098.437-.294.477-.574.067-.436.179-.873.272-1.31-.556-.62-1.39-1.246-2.141-1.54-.752-.295-1.511-.375-2.286-.104-.716.25-1.24.707-1.522 1.418a1.253 1.253 0 00-.103.553 1.45 1.45 0 00.24-.044c.303-.112.607-.224.904-.352.21-.09.423-.152.651-.124.78.097 1.512.311 2.095.877.1.097.205.188.312.278.368.313.741.623 1.098.92l.003.002zM79.977 7.248c-2.482.624-4.878 1.446-7.174 2.573a5.246 5.246 0 001.029 1.742c2.017-1.541 4.182-2.796 6.466-3.855l-.32-.46zm-.163-.88c-1.101-.212-5.834.546-7.124 1.139-.164.535-.16 1.419.014 1.906 2.285-1.108 4.676-1.922 7.137-2.548l-.026-.496zm8.6.5l.232.062a37.49 37.49 0 015.417 1.822c.18.084.38.125.579.12.24 0 .478.013.716.04.09.007.178.021.273.032.053-.41.045-.826-.025-1.234-.023-.16-.093-.24-.25-.279-.725-.183-1.444-.393-2.174-.561-1.512-.344-3.05-.495-4.599-.53a1.674 1.674 0 00-.169.013v.515zM73.117 5.535c-.109.01-.187.014-.26.024-.878.125-1.756.26-2.634.38a.598.598 0 00-.35.154c-.399.374-.815.732-1.196 1.122a9.067 9.067 0 00-1.683 2.393c-.033.069-.097.134-.063.238l.205-.132a22.118 22.118 0 014.986-2.46.352.352 0 00.245-.24c.1-.274.216-.542.349-.802.114-.222.252-.427.401-.677zm11.221 3.528c0 .798-.005 1.59 0 2.38.005.792-.01 1.574.01 2.347.246-.125.465-.254.694-.357.584-.261 1.173-.511 1.76-.766.075-.033.15-.07.238-.11a64.985 64.985 0 00-1.58-3.62l-1.122.126zm10.794-3.535a.85.85 0 00.045.105c.314.44.557.928.72 1.443.036.119.125.142.218.179.575.223 1.155.436 1.723.678.772.334 1.523.716 2.247 1.144.051.03.121.07.167.055.203-.062.4-.143.605-.219-.021-.044-.033-.072-.049-.098-.675-1.077-1.54-1.984-2.526-2.781a.453.453 0 00-.21-.08c-.58-.09-1.16-.176-1.742-.26-.387-.056-.777-.108-1.198-.165zm-.004 20.486c.023-.431.136-.853.332-1.239.207-.42.441-.828.664-1.241l.087-.168a.6.6 0 00-.241.106c-1.48.953-2.958 1.905-4.438 2.856a3.325 3.325 0 01-.532.278c-.37.152-.71.094-.998-.196l-.285-.277c-.124.607-.421 1.116-.695 1.68.233-.016.42-.008.6-.045 1.089-.223 2.166-.488 3.175-.975a6.27 6.27 0 01.811-.342c.489-.157.988-.286 1.52-.437zm-29.988-1.73a24.491 24.491 0 00-.882 3.345c.729.187 1.422.25 2.111-.048a12.195 12.195 0 001.627-.879.493.493 0 01.107-.038c-.548-.406-1.056-.757-1.536-1.143s-.94-.813-1.427-1.237zm26.704-13.987c-.075-.05-.136-.095-.201-.133-.533-.311-1.057-.64-1.602-.931-.742-.397-1.498-.765-2.25-1.142-.063-.032-.165-.072-.214-.045-.17.093-.325.215-.49.329.067.07.115.12.164.168.484.476.98.94 1.45 1.434.548.575 1.073 1.172 1.607 1.761.057.062.1.139.203.133l.844-.046c.121-.86.137-.914.489-1.528zM84.362 1.6c-.053.413-.034 2.288.015 2.431.375.05.74.093 1.105.153a.279.279 0 00.285-.088 15.792 15.792 0 012.237-1.932c.047-.034.089-.077.156-.135a17.673 17.673 0 00-3.798-.43zm-.475 2.424V1.62c-.618-.098-3.463.225-3.776.442l.164.124c.293.227.598.437.874.682.446.39.874.802 1.311 1.205.066.063.116.133.232.115.387-.058.778-.107 1.195-.165zm5.973 7.856a38.235 38.235 0 00-3.195-3.31l-.757.261 1.56 3.554c.279-.115.548-.213.803-.336.255-.131.54-.19.825-.173.233.019.47.005.764.005v-.002zm-3.73-7.557l.499.195c.02.012.04.02.062.025.067.005.134 0 .199-.015 1.552-.55 3.154-.868 4.79-1.035.088-.009.175-.026.304-.046-.058-.04-.08-.062-.105-.073a14.314 14.314 0 00-3.058-1.19.243.243 0 00-.23.062c-.328.244-.661.484-.983.735-.525.412-1.02.861-1.479 1.344v-.002zm-4.03 0c-.051-.057-.09-.104-.131-.146-.71-.727-1.505-1.35-2.328-1.941a.293.293 0 00-.279-.04 14.16 14.16 0 00-2.91 1.123c-.06.03-.113.07-.209.13.352.04.659.07.964.111 1.412.187 2.8.482 4.144.965.056.024.117.03.176.019.19-.058.373-.137.573-.217v-.004zm5.978 1.2c.187.413.187.416.595.421a23.7 23.7 0 013.115.253c1.154.166 2.294.418 3.41.756.062.018.124.026.21.044a4.994 4.994 0 00-.827-1.447.304.304 0 00-.194-.099c-.647-.049-1.293-.101-1.941-.129a27.142 27.142 0 00-3.818.13c-.181.022-.362.05-.55.074v-.004zM72.832 7.01a24.645 24.645 0 017.107-1.076l.233-.408a1.416 1.416 0 00-.145-.03c-.786-.058-1.57-.131-2.357-.171-1.26-.063-2.518.005-3.775.113a.369.369 0 00-.287.16 5.702 5.702 0 00-.692 1.172c-.026.065-.044.13-.084.244V7.01zm16.988 8.566c-.791.152-1.583.075-2.369.094-.051.066-.102.125-.145.187a6.364 6.364 0 01-1.616 1.576c-.425.294-.855.582-1.285.869-.603.403-1.13.882-1.542 1.483-.031.047-.056.1-.101.18.765-.144 1.462-.383 2.163-.637 0-.2.008-.384 0-.568a.275.275 0 01.138-.266c.606-.428 1.231-.823 1.912-1.122.988-.437 1.886-1.019 2.73-1.687.04-.03.076-.069.115-.104v-.005zm-1.88-7.87a35.607 35.607 0 014.176 2.257 3.87 3.87 0 011.46-.953 36.011 36.011 0 00-5.315-1.767l-.32.462zm-.679-2.881c.143.106.244.176.338.255a.283.283 0 00.233.063c.625-.063 1.244-.131 1.868-.178a26.763 26.763 0 013.565-.008l.811.046a1.044 1.044 0 00-.072-.096 7.688 7.688 0 00-1.28-1.025.461.461 0 00-.26-.059c-.308.02-.616.052-.923.084-1.22.126-2.426.362-3.603.706-.212.062-.421.135-.676.216v-.004zM74.18 4.97l.021.04c.339-.023.677-.053 1.015-.069 1.699-.084 3.4-.021 5.089.187.12.015.237.062.345-.054.098-.09.203-.173.313-.249-.108-.037-.173-.062-.239-.082a18.456 18.456 0 00-3.2-.73c-.581-.081-1.167-.129-1.749-.192a.386.386 0 00-.302.08c-.385.312-.773.613-1.158.922a1.334 1.334 0 00-.135.151V4.97zm24.367 5.648c.278-.558.757-.881 1.244-1.234a21.606 21.606 0 00-3.705-1.708v1.402c.934.316 1.722.861 2.463 1.544l-.002-.004zM61.941 16.79c-.538.883-1.155 5.4-.903 6.495.006-.004.017-.007.018-.014.01-.036.019-.073.026-.11.245-1.225.619-2.42 1.117-3.565a.45.45 0 00.013-.312 8.339 8.339 0 01-.27-1.824c-.006-.21 0-.422 0-.667v-.003zm8.851-11.336c.245-.038.433-.07.624-.095.625-.085 1.253-.17 1.88-.25a.5.5 0 00.337-.168c.347-.382.732-.73 1.147-1.037a.877.877 0 00.097-.101l-.015-.05c-.293 0-.586-.004-.879 0a.65.65 0 00-.243.063c-.962.436-1.892.938-2.784 1.503-.044.03-.08.067-.164.135zm22.588-1.7l-.02.062c.033.029.062.059.1.085.435.32.837.685 1.198 1.087a.319.319 0 00.22.104c.552.07 1.103.143 1.654.218.278.038.555.082.88.13a1.216 1.216 0 00-.105-.09 23.828 23.828 0 00-2.871-1.548.577.577 0 00-.224-.047c-.277-.004-.555-.001-.832-.001zm-29.236 8.331a.441.441 0 00.056-.038 22.681 22.681 0 011.909-1.614.504.504 0 00.154-.22c.23-.613.526-1.2.884-1.749.035-.053.062-.113.093-.169a17.802 17.802 0 00-3.096 3.79zm10.764-8.718c.13.01.26.015.39.032a.552.552 0 00.37-.087c.265-.158.538-.3.807-.448.072-.039.146-.075.219-.113l-.018-.042a11.11 11.11 0 00-1.768.658zm16.641-.629a.471.471 0 00.056.045c.35.193.7.386 1.052.578a.277.277 0 00.128.042c.173-.006.346-.022.547-.036-.304-.176-1.494-.592-1.783-.631v.002zm10.013 6.123c-.138-.22-.396-.467-.525-.498.078.124.163.249.228.374.066.124.158.174.297.122v.002zM61.823 28.257l.063.014c.02-.057.076-.129.058-.169-.081-.187-.183-.364-.277-.544l-.037.018.193.68z"/><path d="M99.444 41.85v4.82h-1.12c-.046-.167-.067-7.25-.02-7.725.182-.062.374-.02.561-.028.187-.008.37 0 .58 0l.765 2.4.758 2.369.046-.006v-4.749h1.162v7.708c-.171.057-.894.067-1.17.016l-1.515-4.808-.047.003zM73.59 38.915c.691.016 1.356-.062 2.009.12a2.42 2.42 0 011.114.632c.291.293.471.677.51 1.088.077.788-.14 1.462-.79 1.96a.675.675 0 00-.057.063c.047.04.091.081.138.117.5.384.728.895.725 1.522-.005 1.232-.862 2.108-2.114 2.245-.474.05-.956.02-1.436.026a.487.487 0 01-.1-.023l.002-7.75zm1.169 3.456c.142-.02.273-.026.398-.055.716-.164 1.205-.742 1.08-1.58-.09-.604-.802-1.074-1.478-.985v2.62zm.01.845c-.053.404-.033 2.357.024 2.519.509-.028.947-.194 1.248-.633.464-.676.199-1.551-.557-1.87-.242-.1-.47 0-.716-.016zm-5.986-4.288h1.168v6.09a.7.7 0 00.718.671c.364 0 .728-.26.73-.681v-6.06c.2-.059.386-.026.568-.032.183-.006.37 0 .577 0 .008.08.02.146.02.212v5.852c0 .968-.713 1.558-1.436 1.725a2.003 2.003 0 01-1.186-.086c-.726-.278-1.159-.9-1.16-1.675v-5.367l.001-.649zm16.299 7.754v-7.727c.016-.01.028-.026.041-.027.602-.012 1.208-.066 1.802.067.278.064.547.16.801.29.415.206.696.543.871.98.414 1.032.5 2.105.437 3.2a7.194 7.194 0 01-.279 1.589c-.264.913-.904 1.386-1.799 1.558a5.25 5.25 0 01-.83.066c-.339.012-.678.004-1.044.004zm1.205-.787c.132-.013.264-.034.394-.063.625-.178 1.07-.536 1.187-1.21.098-.609.142-1.225.132-1.84a9.376 9.376 0 00-.188-1.836c-.124-.607-.525-.956-1.086-1.148-.15-.051-.307-.097-.485-.053l.046 6.15zm20.914-3.655c.004.088.011.163.011.238 0 1.11 0 2.22.004 3.33a.374.374 0 01-.174.346c-.382.277-.82.469-1.283.561-.562.109-1.056-.037-1.502-.374a2.775 2.775 0 01-.831-1.066c-.37-.794-.47-1.64-.47-2.502 0-.751.078-1.492.346-2.203.148-.423.386-.81.696-1.134.422-.424.919-.664 1.534-.638.437.018.865.037 1.278.187.335.125.335.125.335.474v.623a1.382 1.382 0 01-.021.157c-.038-.012-.062-.013-.079-.026-.317-.331-.73-.413-1.163-.437-.138-.008-.278 0-.417-.007-.35-.013-.608.144-.805.42-.206.29-.308.623-.374.962a8.753 8.753 0 00-.122 2.28c.027.436.069.877.209 1.296.065.205.154.402.264.587.283.458.697.55 1.212.407.112-.03.204-.084.202-.239-.008-.694-.004-1.388-.005-2.081a.932.932 0 00-.016-.105h-.548c-.053-.18-.062-.782-.018-1.06l1.737.005zM78.71 46.675h-1.088c.11-.665.26-1.309.39-1.95.129-.642.262-1.282.394-1.924l.398-1.946.4-1.927h.933l1.588 7.736h-1.097l-.344-1.834h-1.227l-.346 1.845zm1.423-2.665c-.152-.83-.287-1.628-.489-2.417l-.443 2.417h.932zm14.168-5.075h1.108l-1.498 7.707c-.174.05-.49.055-.74.011l-1.498-7.715h1.107l.737 5.094h.042l.742-5.097zM67.98 45.152c.011.109.02.16.02.21 0 .163.006.325 0 .486-.005.162-.023.317-.036.476-.231.16-.416.379-.731.416a1.968 1.968 0 01-1.554-.454c-.427-.355-.7-.815-.892-1.328a5.429 5.429 0 01-.312-1.51c-.063-.866-.028-1.726.218-2.566.144-.493.36-.95.705-1.339.312-.355.687-.617 1.165-.709a2.08 2.08 0 01.829.014c.168.035.273.168.409.25.18.109.214.25.205.443-.012.266-.003.534-.003.801l-.049.023c-.078-.088-.159-.172-.235-.262a.912.912 0 00-.64-.33c-.444-.04-.763.142-.983.515-.232.393-.327.83-.382 1.275a9.458 9.458 0 000 2.42c.051.32.126.634.223.942.05.146.118.284.204.412.36.6 1.24.561 1.572.116.068-.09.154-.172.268-.3zm-6.692.309c.118.102.188.163.256.22.29.237.567.263.874.084.33-.192.488-.5.437-.847-.05-.326-.19-.617-.349-.9-.345-.62-.7-1.233-1.047-1.85a13.14 13.14 0 01-.413-.774 1.918 1.918 0 01-.147-1.197c.106-.572.452-.966.976-1.21.437-.204.894-.228 1.36-.148.103.026.2.072.286.137a.215.215 0 01.081.151c.007.293 0 .586 0 .878 0 .012-.016.023-.036.047l-.244-.2c-.23-.186-.487-.24-.757-.114-.287.132-.51.34-.524.675-.01.184.019.368.082.541.117.293.253.578.409.852.322.579.665 1.146.987 1.725.151.268.284.546.398.832.133.349.151.731.051 1.091-.187.7-.68 1.077-1.356 1.247a2.25 2.25 0 01-.966.013c-.263-.048-.356-.16-.356-.418l-.002-.835zm35.945 1.213h-1.098c-.045-.172-.056-7.481-.011-7.74a1.39 1.39 0 01.155-.018h.94c.054.187.064 7.493.014 7.758zm-.637 1.101h1.086c.108 0 .144.073.187.144l.853 1.321a.815.815 0 00.152.182c-.09-.538-.072-1.074-.063-1.63h1.176v3.095h-.58c-.19 0-.398-.014-.598-.02-.11-.158-.222-.312-.33-.474-.198-.295-.393-.59-.59-.886-.042-.062-.087-.119-.143-.194l.037 1.559h-1.191l.004-3.097zm-16.164 1.642c-.114-.532-.09-1.069-.08-1.625h1.17v3.064c-.196.056-.397.018-.593.025-.197.007-.386 0-.583 0l-1.042-1.559-.035.009c.013.249.03.503.037.755.007.252 0 .507 0 .754-.179.051-.888.062-1.18.02v-3.086h.276c.231 0 .464.014.695 0 .164-.01.25.053.332.188.268.431.548.857.824 1.284.04.062.086.124.128.187l.051-.016zm9.423-2.75V38.96c.167-.055.84-.063 1.137-.01v7.718h-1.137zm-26.358 1.115h1.175c.187.283.37.566.554.85.183.284.354.553.552.82-.115-.547-.062-1.093-.072-1.665.394-.027.775-.01 1.176-.01v3.109h-.442c-.188 0-.372-.004-.556.004a.286.286 0 01-.283-.15c-.275-.429-.561-.85-.844-1.272-.038-.056-.08-.11-.121-.167l.037 1.572h-1.159c-.046-.165-.064-2.672-.017-3.091zm30.323 3.15a2.124 2.124 0 01-1.04-.243 1.519 1.519 0 01-.142-2.618c.679-.463 1.733-.462 2.412 0a1.522 1.522 0 01.446 2.08 1.522 1.522 0 01-.57.529c-.34.18-.722.266-1.106.252zm.018-.98c.365 0 .632-.249.635-.59.003-.343-.28-.617-.644-.612-.364.005-.624.264-.624.607 0 .344.269.595.63.596h.003zm-17.793.915l-.5-.894-.045.01v.891c-.413.024-.802.007-1.186.007-.052-.182-.066-2.763-.018-3.089.049-.009.098-.015.148-.017.494 0 .99-.014 1.484.008.223.01.443.057.65.14.537.216.696.695.569 1.24-.045.193-.187.315-.357.402-.074.036-.15.07-.212.098l.887 1.204h-1.42zm-.535-1.724c.176 0 .345.026.43-.133a.3.3 0 00-.01-.256c-.093-.148-.255-.125-.42-.116v.505zm26.345-1.36h1.382l1.206 3.091h-1.302l-.132-.364h-.908l-.117.363h-1.306l1.177-3.09zm.463 1.957h.473l-.222-.873-.043.007-.208.866zM85.97 50.87h-1.304l-.118-.36h-.919l-.114.361h-1.3l1.172-3.085h1.38l1.203 3.084zm-2.126-1.122h.482l-.22-.886h-.047l-.215.886zm-12.835-1.964h2.262v.836h-1.006v.292h.908v.823h-.912v.293h1.05c.017.284.005.55.008.81-.172.057-1.81.077-2.288.032-.048-.164-.069-2.563-.022-3.086zm-2.683.992h-.67v-.99h2.58v.99h-.663c-.02.222-.006.45-.009.677v1.42h-1.238v-2.097zm20.704-.001h-.67v2.093h-1.238v-2.092h-.64c-.05-.168-.057-.74-.009-.988h2.556v.987zm16.126-.989h1.233v2.09h1.022v.998h-2.255v-3.088zM91.039 50.87H89.84v-3.08h1.186c.04.167.055 2.755.012 3.08zm-28.578.004H61.28c-.049-.172-.068-2.66-.025-3.063.16-.046.85-.058 1.186-.02.047.17.065 2.639.021 3.084zm47.779-.208c.422 0 .759.365.759.822 0 .457-.337.826-.762.826-.426 0-.768-.362-.768-.826 0-.463.344-.822.768-.822h.003zm0 .125c-.341 0-.62.311-.62.696 0 .383.279.697.625.697s.624-.307.624-.694c0-.388-.278-.699-.624-.699h-.005zm-.144 1.174h-.139v-.916c.081-.014.163-.02.245-.021a.42.42 0 01.267.07.229.229 0 01.081.187.225.225 0 01-.169.223v.007c.076.016.125.088.144.223a.893.893 0 00.054.228h-.144a.823.823 0 01-.062-.234c-.02-.118-.075-.162-.188-.162h-.094l.005.395zm0-.51h.096c.115 0 .21-.041.21-.154 0-.08-.054-.162-.21-.162a.722.722 0 00-.098.006l.002.31z"/></g></symbol><symbol id="logo-tdi" viewBox="0 0 177 82"><g clip-path="url(#clip0)" fill="#fff"><path d="M66.524 42.408h10.63v8.73l-10.63-8.73zM66.04 44.3v13.05a27.892 27.892 0 00-.644-3.445c-.592-2.317-1.546-4.35-2.863-6.098a13.002 13.002 0 00-4.995-4.02c-2.014-.934-4.658-1.4-7.93-1.4H33.004v.007H-.022v9.294h12.277v28.726h10.64a.358.358 0 01-.02-.095l-.058-24.215v-.207c-.005-2.327 1.631-4.148 3.764-4.921.234-.087.269-.19.267-.363h.052v-.581h.595v-1.033h-.28v-1.871h1.787v1.895h-.255v.969h.558v.618h.013c0 .172.035.275.27.36 2.134.774 3.78 2.593 3.786 4.92l.058 24.423a.363.363 0 01-.02.102h16.196c1.988 0 4.208-.346 6.66-1.037 1.791-.505 3.47-1.513 5.034-3.022 1.565-1.51 2.786-3.387 3.663-5.632.507-1.289.863-2.892 1.079-4.787V80.31h11.063V53.634L66.04 44.301zm-34.15 5.632c-.464.021-2.306-.35-2.59-.43-.202-.06-.26-.149-.278-.247v-.078h.264v-1.27h.012c.285-.083 2.124-.448 2.59-.43.467.02.546.206.548.412l.004 1.638c-.003.2-.082.384-.55.405zm22.36 18.204c-.56 1.36-1.335 2.313-2.323 2.86-.988.547-2.65.82-4.986.818H44.2V50.989h2.79c2.898 0 4.972.745 6.223 2.237 1.251 1.49 1.877 4.255 1.877 8.29 0 3.053-.28 5.26-.84 6.62zm27.617 9.741c.65 0 1.17.569 1.17 1.27 0 .701-.52 1.273-1.175 1.273-.656 0-1.181-.558-1.181-1.273 0-.715.53-1.27 1.18-1.27h.005zm0 .197c-.524 0-.95.48-.95 1.073 0 .592.428 1.076.956 1.076s.956-.474.956-1.072c0-.598-.427-1.078-.956-1.078l-.007.001zm-.222 1.812h-.213v-1.421a2.21 2.21 0 01.38-.035.66.66 0 01.41.108.347.347 0 01.124.294.352.352 0 01-.26.344v.012c.118.022.196.135.221.345.013.12.041.237.085.35h-.23a1.23 1.23 0 01-.094-.36c-.03-.183-.115-.25-.285-.25h-.143l.005.613zm0-.786h.147c.177 0 .324-.067.324-.24 0-.125-.083-.25-.324-.25-.05 0-.1.004-.15.01l.003.48z"/><path fill-rule="evenodd" clip-rule="evenodd" d="M120.741 6.138l.338.18.048-.095-.386-.085zm.338.18l-.013.026c.053.018.1.03.157.05l-.144-.076zm2.837 11.324c0-.256-.553-.256-.77-.426-.409.19-.674.512-.674.937 0 .32.19.511.385.767.577-.344 1.059-.66 1.059-1.278zm37.046 5.028v-.853a8.1 8.1 0 00-.674.085c.047.277.19.405.19.683 0 .663-.769.874-1.443 1.108l-.095.342c.145 0 .241.084.38.084.895 0 1.424-.681 1.642-1.449z"/><path fill-rule="evenodd" clip-rule="evenodd" d="M176.154 27.56c0-15.202-22.23-27.57-49.555-27.57-27.324 0-49.556 12.369-49.556 27.57 0 8.995 7.79 16.99 19.803 22.024v27.838c0 2.68 6.534 3.88 13.008 3.88 6.499 0 13.079-1.422 13.079-4.13V63.269h7.616v14.154c0 2.68 6.532 3.88 13.006 3.88 6.499 0 13.079-1.422 13.079-4.13l-.007-27.708c11.855-5.041 19.527-12.976 19.527-21.903zm-2.985 7.222h-5.748a18.568 18.568 0 001.52-6.926h6.062c-.045 2.391-.684 4.714-1.834 6.926zM131.146 7.04c.328.572.648 1.194.96 1.868a4.234 4.234 0 00-1.045.168c.08.554.643.758.643 1.31 0 .981-.19 1.586-.749 2.416a3.663 3.663 0 01-.445.494h-2.055v-1.002h-.333c.375-.27.619-.694.827-1.24.084-.138.306-.588.263-1.464 0-.947-.83-1.667-1.936-1.667l-1.235.018c-.649 0-1.245.237-1.593.635a1.215 1.215 0 00-.313.936 3.353 3.353 0 00.503 2.006c.158.355.33.603.549.776h-.266v1.002h-5.415c.053-.212.107-.42.163-.626a.383.383 0 00.203-.139c.285-.447.285-.831.285-1.364a.12.12 0 00-.032-.069c.074-.23.148-.455.224-.676a.366.366 0 01.095-.02c.167 0 .216.17.38.17.265 0 .433-.128.674-.17.024-.342.095-.512.095-.853 0-.277-.19-.404-.19-.682 0-.884.993-1.122 1.474-1.826l8.269-.001zm14.071 9.309v3.46h-3.47v-3.46h3.47zM122.926 34.64v-5.192a9.785 9.785 0 00-.139-1.575h2.16c-.19.883-.364 1.774-.364 2.808 0 1.884 2.811 2.8 5.347 2.8.211 0 .415.007.619.013v1.146h-7.623zm-26.078 1.581c-.117-.306-.243-.61-.347-.921h.347v.921zm-.076-7.937c.029-.086.116-.134.19-.19a9.425 9.425 0 00-.117 1.408v5.256h-.518a23.467 23.467 0 01-1.056-6.873h.77c.208.19.459.326.73.399h.001zm27.959-18.818a.619.619 0 01.165-.5c.235-.266.674-.432 1.151-.432l1.235-.018c.76 0 1.335.462 1.335 1.087.038.807-.175 1.137-.175 1.137l-.039.073c-.355.948-.679 1.218-1.446 1.218h-.467c-.855 0-1.045-.157-1.314-.777l-.029-.053a2.74 2.74 0 01-.412-1.67v-.033l-.004-.032zm3.723 4.484h11.796v1.26h-11.795l-.001-1.26zm5.08-1.256c.06.198.12.396.178.6h-.788a2.37 2.37 0 01.611-.6h-.001zm-1.5 7.986c-.62-.575-1.009-1.148-1.078-2.038.722.102 1.339.127 1.71.705.294.448.111.842.095 1.333h-.727zm-13.731.006a52.9 52.9 0 01.655-4.819h5.963v.315a5.629 5.629 0 00-.811.012h.48a3.45 3.45 0 00-.673.427c.457.511.866.873.866 1.534 0 .17-.285.17-.285.34 0 .15.19.19.19.341 0 .277-.408.298-.673.426.336.15.577.257.961.257h.173c-.722.379-1.576.586-1.882 1.166l-4.964.002zm-6.234-2.127v-2.22h.812v-.475h5.526a55.711 55.711 0 00-.637 4.728 14.14 14.14 0 00-5.7-2.033h-.001zm-4.786-.198c-.12.13-.25.249-.39.357h-.014c-.081-.207-.213-.324-.213-.555 0-.38.325-.562.325-.938 0-.533-.494-.816-.971-1.107a1.28 1.28 0 00.575-.573v.79h.687l.001 2.026zm4.37-4.805h.57v2.126h-4.972v-2.13h.54a2.766 2.766 0 003.86 0l.002.004zm-3.712 2.782h3.471V19.8h-3.471v-3.46zm43.079-2.33v1.12c0 .659-.534 1.155-1.253 1.156-.94.034-1.33-.166-1.33-.166l-.066-.029c-1.174-.348-1.372-.663-1.372-1.25v-.415c0-.698.139-.877.92-1.153a3.757 3.757 0 011.681-.386c.082 0 .166 0 .303.007.624-.063 1.117.45 1.117 1.116zm-5.685-.455h.544v2.127h-4.971v-2.127h.465a2.758 2.758 0 003.962 0zm-15.985 6.094c.554 0 .591.622.906 1.031h-2.66c.452-.546.95-1.028 1.754-1.028v-.003zm-.896-2.895v-.888h.677c-.135.342-.386.614-.676.89l-.001-.003zm14.896-6.422c1.078 0 1.954.764 1.954 1.706s-.876 1.706-1.954 1.706c-1.077 0-1.954-.764-1.954-1.706s.881-1.706 1.954-1.706zm-14.995 6.512c-.131.124-.267.25-.402.387-.748.746-1.262 1.282-2.039 1.814-.095-.73-.945-1.042-.945-1.829 0-.148.19-.19.19-.341v-.03h3.196zm-.561-.655h-2.22v-3.238h2.22v3.238zm-2.873-.976h-12.039v-1.26h12.039v1.26zm-12.038-1.916v-.394h-.754c.135-.288.206-.602.206-.92a2.123 2.123 0 00-.147-.746 21.8 21.8 0 01.494-.744c.296.14.576.309.839.503.217.149.121.468.285.681.434.512.964.576 1.541.939.403.249.752.484 1.102.68l-3.566.001zm-.967-2.585a2.562 2.562 0 00-1.14-.885c.533.17.991.297 1.425.46-.096.14-.191.281-.285.425zm-.24 1.271c0 .94-.875 1.706-1.953 1.706-1.077 0-1.954-.763-1.954-1.706 0-.942.877-1.706 1.954-1.706 1.078 0 1.954.766 1.954 1.705l-.001.001zm-5.08 1.532l-.031-.056.031-.02v.076zm-1.883-.54l.068.03c1.174.347 1.372.663 1.372 1.25v.414c0 .698-.138.877-.92 1.154a3.762 3.762 0 01-1.677.385c-.083 0-.168 0-.307-.008-.609.067-1.116-.448-1.116-1.116v-1.119c0-.663.534-1.156 1.252-1.157.937-.035 1.329.167 1.329.167h-.001zm-9.431 14.376c.007-.343.032-.682.053-1.022.078.35.19.692.332 1.022h-.385zm12.006-7.496v.603h4.786v-.696c5.556.813 9.662 4.767 9.662 9.69v5.19h-23.7v-5.135c0-4.702 3.962-8.637 9.248-9.652h.004zm25.002 4.14c-.621-.44-1.107-.896-2.09-.896-2.023 0-2.777 1.298-4.798 1.526 0 .997-.164 1.86-.344 2.711h-2.365c-.532-2.428-1.974-4.55-4.016-6.11h4.474c.059.872 1.271 1.042 2.238 1.042.811 0 1.31-.49 1.768-1.042h3.676c.19.172.338.362.338.645 0 .177-.19.252-.214.403l.428.202c.131-.535.376-.872.721-1.251h2.85a11.781 11.781 0 00-2.669 2.77h.003zm24.104-1.971l.009.034-.021-.024.012-.01zm.457-.39c.182-.151.355-.293.526-.426l9.856-.005a17.483 17.483 0 011.181 6.11l-10.752.006a23.961 23.961 0 00-.815-5.686l.004.001zm1.25-.965l.32-.23c.229-.155.714-.155.714-.443 0-.355-.203-.532-.203-.886 0-.222.229-.285.406-.444l.41.265c0 .466.077.908.509 1.152.127-.42.408-.62.408-1.063 0-.598-.205-1.063-.713-1.421-.638-.443-1.938-.067-1.938-.797 0-.708.815-1.195 1.632-1.195.509 0 .814.044 1.325 0v-.664c-.101-.265-.305-.42-.305-.708a.348.348 0 01.095-.244h1.86c.422.454.82.917 1.2 1.388-.2.474-.605.826-.605 1.422 0 .554.46.886 1.019 1.151.357-.391.57-.731.603-1.224a21.036 21.036 0 012.185 3.93l-8.922.01zm-.8-10.236c-.511 0-.613.62-1.124.62-.994 0-1.58-.198-2.446-.62.128-.266.203-.443.305-.709h-.816c-.408.11-.586.354-1.021.354-.865 0-1.172-.708-2.039-.708a3.227 3.227 0 00-.675.055c-.11-.105-.221-.21-.333-.314l.19-.539-.204-.354c-.406 0-.794 0-1.12-.101a30.102 30.102 0 00-1.345-1.071h6.65a38.835 38.835 0 015.51 3.528 9.85 9.85 0 00-1.536-.147l.004.006zm-10.26-2.424c-.812.663-1.622.947-2.8 1.273-.458.132-.839-.155-1.223.088a1.412 1.412 0 00-.399.422 2.64 2.64 0 00-1.216.703 24.693 24.693 0 00-2.937-3.45h7.302c.432.305.856.629 1.271.959l.002.005zm-7.664.744a22.3 22.3 0 011.691 2.18c-.026.044-.056.086-.078.13-.731-.69-1.268-1.275-2.322-1.275-.373 0-.588.202-.963.202-.508 0-.508-.604-.855-.907-.75-.654-1.474-.78-2.25-1.409-.482.403-.777.63-1.393.806l1.14-.384c-.249.129-.429.324-.714.484-.293.161-.617.26-.95.292a24.79 24.79 0 00-.912-1.824h5.917a23.185 23.185 0 011.687 1.7l.002.005zm-18.367-1.4a1.117 1.117 0 01-.366.065c-.292 0-.446-.174-.595-.379h1.108l-.147.315zm-9.795 1.084c-.285.512-.674.703-.771 1.278l.165.054a2.828 2.828 0 00-.885-.15c-.095 0-.184.017-.276.026-.021 0-.041-.006-.062-.006-1.386 0-2.827.678-2.827 1.872 0 .583-.508.907-1.151 1.072-.135-.05-.277-.094-.429-.144-.128-.063-.549-.233-1.373-.233h-.233a2.03 2.03 0 00-.698.124 6.374 6.374 0 00-.684-.26 3.47 3.47 0 00-.711-.138 29.084 29.084 0 015.349-4.9h5.587c-.426.336-.695.88-1.001 1.405zm-10.632 3.494c-.37.016-.753.053-1.201.053-1.36 0-1.9-1.03-3.262-1.03-.816 0-1.306.163-2.066.378h-.826c2-1.645 4.165-3.082 6.46-4.287h6.035a29.515 29.515 0 00-5.14 4.886zm-10.771 3.425c1.794 0 2.148 1.685 3.045 2.996.38.586 1.06.633 1.63 1.124-.587.272-.793.71-.86 1.222h-7.658a21.742 21.742 0 013.185-5.278c.216-.043.437-.065.658-.064zm3.787 5.882c0 .31.02.632.02.956v1.312c0 .234-.217.327-.217.561 0 .685.965.784 1.474 1.222a24.27 24.27 0 00-.139 2.06l-10.143.006c.02-2.09.416-4.161 1.167-6.113l7.838-.004zm1.128 6.65c.008 2.33.355 4.646 1.03 6.876h-9.585a18.023 18.023 0 01-1.565-6.866l10.12-.01zm1.205 7.412c.264.79.57 1.567.915 2.326v4.188h-5.755c-2.016-2.04-3.595-4.227-4.686-6.516l9.526.002zm.915 7.052v4.104l-.014-.008a34.994 34.994 0 01-5.209-4.096h5.223zm.074-15.004c-.207-.315-.55-.568-.801-.937v-.75l.435-.094c.238.414.466.828.695 1.232a9.69 9.69 0 00-.146.545l-.183.004zm32.75 23.918c.285-.401.58-.835.88-1.306v1.306h-.88zm-6.738 0v-1.276c.3.46.593.885.875 1.276h-.875zm1.545 0a30.462 30.462 0 01-1.545-2.29v-.152h7.619v.102a30.128 30.128 0 01-1.545 2.34h-4.529zm6.073-2.98h-7.625v-1.64h7.62l.005 1.64zm-8.811-1.64v4.62H98.037v-4.621h23.703zm-23.703 7.243h57.397v6.662H98.037v-6.662zm33.7-2.623v-4.621h23.697v4.62h-23.697zm23.695-7.34H98.037v-6.66h57.393l.002 6.66zm-23.695-9.288v-5.132c0-4.738 4.012-8.691 9.351-9.673v.634h4.785v-.69c5.503.848 9.556 4.782 9.556 9.674v5.191l-23.692-.004zm21.987-12.204v-.137h1.224c.79.442.687 1.594 1.632 1.594a.67.67 0 00.2-.036c.196 1.144.309 2.3.335 3.46h-.729c-.407-1.838-1.341-3.499-2.66-4.878l-.002-.003zm3.403 5.421a23.29 23.29 0 01-.508 4.768v-3.175a9.882 9.882 0 00-.141-1.593h.649zm-.505 14.501h4.094c.095.12.195.236.3.345a35.042 35.042 0 01-4.39 3.457l-.004-3.802zm0-.538v-.241c.855-.216 1.458-.355 2.416-.355.549 0 .913.261 1.226.595h-3.642zm7.584-2.628c-.291-.197-.604-.4-.84-.695-.722-.895-.577-1.683-.961-2.728-.507.513-.481 1.364-1.251 1.364-.602 0-.866-.575-.866-1.109 0-.379-.576-.379-.963-.51-.216.34-.312.768-.768.768-.19 0-.19-.258-.386-.258-.72 0-.649.875-1.154 1.279a6.071 6.071 0 01-.396.307v-2.294h9.975a22.174 22.174 0 01-2.387 3.875l-.003.002zm-7.572-4.411a23.995 23.995 0 001.033-6.919l10.735-.006a18.06 18.06 0 01-1.57 6.927l-10.198-.002zm18.369-7.467h-6.056a17.953 17.953 0 00-1.15-6.11h5.795a15.326 15.326 0 011.414 6.108l-.003.002zm-1.67-6.65h-5.731a21.797 21.797 0 00-2.843-4.933c.315-.474 1.249-.552 2.023-.606.052-.379-.076-.643.1-.975a.46.46 0 01.176-.16h1.072c2.265 2.06 4.027 4.305 5.203 6.675zm-8.174-9.056c-.552-.16-1.12-.252-1.743-.556l-1.021.443c-.814-.355-1.248-.798-2.141-.798-.151 0-.294-.004-.43-.013a38.58 38.58 0 00-5.415-3.64h2.671c3.015 1.337 5.727 2.87 8.079 4.562v.002zm-9.335-5.102h-2.394a49.59 49.59 0 00-7.707-3.223 65.89 65.89 0 0110.101 3.22v.003zm-18.155-4.673c5.37.948 10.307 2.55 14.584 4.672h-6.324a33.252 33.252 0 00-10.906-4.969c.891.086 1.773.185 2.646.297zm-7.409-.623c5.487.628 10.523 2.504 14.719 5.294h-7.086c-2.964-2.713-6.108-4.333-8.351-5.324l.716.03h.002zm-2.177-.062c2.724 1.137 5.985 2.739 9.009 5.356h-5.625c-1.55-2.625-3.204-4.236-4.436-5.371.348.002.699.008 1.049.015h.003zm-1.984-.013h.132l.119.109c1.187 1.086 2.879 2.637 4.481 5.262h-8.095a.19.19 0 00-.074-.021c-.055.003-.11.01-.164.021h-.456c1.44-2.683 2.968-4.257 4.038-5.355l.019-.016zm-.76.01c-1.098 1.137-2.547 2.755-3.904 5.359h-.437c.023-.052.046-.105.072-.156-.681-.228-1.18-.292-1.961-.292-.819 0-1.299.255-2.117.255-.224 0-.446.039-.656.114 2.876-2.52 6.033-4.075 8.881-5.279l.122-.001zm-1.563.031c-2.285 1.009-5.415 2.608-8.316 5.329h-8.036c4.071-2.708 8.93-4.56 14.234-5.24.698-.04 1.404-.067 2.113-.089h.005zm-6.93.49a33.183 33.183 0 00-10.383 4.834h-5.709c4.16-2.063 8.944-3.639 14.142-4.591.647-.084 1.297-.17 1.95-.243zM106.701 3.47a49.28 49.28 0 00-7.124 3.033h-2.205a65.355 65.355 0 019.329-3.033zm-8.102 3.57a37.717 37.717 0 00-6.188 4.287h-.968c-.986-.133-1.53-.351-2.47-.371a46.483 46.483 0 017.15-3.916H98.6zm-14.392 7.766c-.032.15-.049.303-.048.457 0 .655.76.82 1.196 1.311-.68.586-1.305.75-1.849 1.406.163 0 .272.095.436.095 1.99 0 2.843-1.578 4.293-2.327a21.745 21.745 0 00-2.85 4.957h-5.547c1.025-2.077 2.5-4.055 4.37-5.9zm-4.62 6.445h5.604a17.94 17.94 0 00-1.14 6.113h-5.865c.04-2.114.516-4.197 1.4-6.118v.005zm-1.392 6.652h5.87a18.54 18.54 0 001.52 6.865h-5.567c-1.135-2.196-1.768-4.495-1.823-6.87v.005zm2.104 7.4h5.51c1.054 2.285 2.574 4.472 4.523 6.516h-4.48c-2.362-2.012-4.25-4.192-5.553-6.522v.006zm16.37 13.022c-3.926-1.69-7.371-3.701-10.182-5.97h4.378a35.06 35.06 0 005.675 4.548c.1.066.204.128.307.19v1.232h-.178zm25.074 28.853c0 1.2-4.63 2.938-11.887 2.938-7.608 0-11.816-1.59-11.816-2.691V63.268h23.7l.003 13.91zm21.812 2.938c-7.609 0-11.816-1.59-11.816-2.691V63.268h23.699v13.905c.003 1.198-4.627 2.94-11.883 2.94v.002zm13.071-31.837v-1.472a35.373 35.373 0 004.803-3.767c.235.149.508.227.786.224.64 0 .934-.431 1.235-.91h3.258c-2.785 2.245-6.197 4.24-10.082 5.922v.003zm10.72-6.461h-3.515c.464-.553 1.179-.805 1.179-1.534a1 1 0 00-.363-.766 22.645 22.645 0 002.547-4.2h5.699c-1.311 2.317-3.192 4.497-5.547 6.497v.003z"/><path fill-rule="evenodd" clip-rule="evenodd" d="M98.916 39.624c.034-.438.181-.738.442-.899.189-.098.4-.146.612-.141v3.258c0 .227-.035.38-.107.452-.073.073-.217.113-.435.113v.158h1.961v-.158c-.221 0-.367-.037-.436-.112-.069-.075-.104-.226-.104-.453v-3.26c.212-.005.423.043.611.142.244.157.39.457.442.9h.16l-.006-1.245h-3.295l-.005 1.245h.16zm6.887 1.65h-.151c-.173.416-.371.7-.594.853-.258.16-.559.24-.863.226-.19 0-.309-.023-.37-.07a.316.316 0 01-.075-.122.315.315 0 01-.015-.143v-1.491c.313 0 .532.072.653.216.122.144.202.391.241.743h.14v-2.074h-.14c-.059.347-.144.584-.255.714-.111.13-.324.193-.638.19v-1.43a.307.307 0 01.068-.234c.046-.04.152-.06.32-.06.443 0 .747.074.912.22.165.147.283.42.356.821h.14v-1.249h-3.176v.156c.115 0 .228.025.333.072.106.062.159.183.159.362v3.005c0 .176-.051.297-.154.36a.716.716 0 01-.338.073v.156h3.224l.223-1.294zm2.296 1.41a1.58 1.58 0 00.967-.324c.213-.172.405-.37.57-.588l-.164-.15a3.06 3.06 0 01-.494.492 1.318 1.318 0 01-.791.266c-.462 0-.779-.268-.95-.804a3.669 3.669 0 01-.138-1.093c0-.602.078-1.081.234-1.438.156-.357.418-.536.788-.537.325 0 .619.166.876.498.166.228.302.476.407.737h.141v-1.445h-.156a.456.456 0 01-.081.19.186.186 0 01-.071.07.186.186 0 01-.096.024 2.655 2.655 0 01-.393-.143 1.846 1.846 0 00-1.432.005 1.77 1.77 0 00-.609.44c-.389.416-.584.962-.583 1.634 0 .673.204 1.213.61 1.621a1.865 1.865 0 001.365.545zm3.741-.277a.768.768 0 01-.325-.062c-.112-.065-.167-.19-.167-.37v-1.43h1.304v1.43c0 .175-.049.297-.149.36a.674.674 0 01-.327.072v.157h1.862v-.157a.683.683 0 01-.313-.066c-.109-.065-.163-.19-.163-.367V38.97c0-.175.049-.294.146-.356a.823.823 0 01.33-.077v-.153h-1.862v.156c.115 0 .229.027.332.076.095.062.144.181.144.358v1.287h-1.304V38.97c0-.177.052-.298.155-.362a.818.818 0 01.337-.072v-.152h-1.871v.156a.885.885 0 01.33.082c.095.062.137.179.137.352v3.004c0 .178-.053.3-.154.364a.706.706 0 01-.314.069v.156h1.871l.001-.16zm3.63 0c-.231-.01-.38-.077-.456-.205a.843.843 0 01-.068-.406v-2.427h.038l2.428 3.317h.151v-3.649c0-.19.03-.313.088-.368a.742.742 0 01.347-.13v-.155h-1.189v.156c.203.02.339.072.406.162.066.089.102.238.102.447v1.818h-.027l-1.894-2.583h-1.165v.156a.283.283 0 01.159.072c.039.037.142.162.309.373v2.928a.639.639 0 01-.087.365c-.059.083-.188.127-.389.133v.156h1.248l-.001-.16zm4.634 0a.7.7 0 01-.387-.087c-.088-.058-.13-.173-.13-.346V38.97c0-.183.053-.306.161-.367a.9.9 0 01.356-.066v-.153h-1.928v.156a.812.812 0 01.342.07c.105.063.158.184.159.364v3.004c0 .182-.056.306-.167.37a.766.766 0 01-.334.063v.156h1.928v-.16zm2.281.277c.35.002.69-.112.968-.324a3.32 3.32 0 00.57-.588l-.164-.15a3.102 3.102 0 01-.494.492 1.315 1.315 0 01-.79.266c-.462 0-.779-.268-.95-.804a3.636 3.636 0 01-.138-1.093c0-.602.078-1.081.234-1.438.155-.357.418-.536.787-.537.327 0 .62.166.879.498.165.228.301.476.407.737h.139v-1.445h-.156a.484.484 0 01-.078.19.2.2 0 01-.17.094 2.661 2.661 0 01-.392-.143 1.85 1.85 0 00-1.433.005c-.232.101-.44.251-.608.44-.39.416-.585.962-.585 1.634 0 .673.204 1.213.61 1.621a1.876 1.876 0 001.364.545zm2.995-.277a.886.886 0 01-.277-.037.203.203 0 01-.111-.07.2.2 0 01-.046-.124 1.38 1.38 0 01.072-.348l.159-.49h1.223l.142.38c.032.083.056.155.074.213a.891.891 0 01.043.223c0 .107-.027.175-.083.2a1.09 1.09 0 01-.352.052v.157h1.79v-.157a.316.316 0 01-.294-.154 4.868 4.868 0 01-.309-.713l-1.235-3.252h-.158l-1.223 3.39a2.947 2.947 0 01-.223.526.396.396 0 01-.32.204v.157h1.124l.004-.157zm.38-2.748h.035l.523 1.428h-1.056l.498-1.428zm5.864 1.504h-.162c-.162.47-.356.785-.581.948a1.388 1.388 0 01-.834.243c-.185 0-.309-.022-.372-.066-.062-.045-.095-.134-.095-.271v-2.918c0-.243.038-.396.113-.458.075-.063.223-.095.446-.105v-.152h-1.912v.156a.75.75 0 01.323.072c.101.062.152.183.152.362v3.002c0 .182-.053.305-.16.37a.689.689 0 01-.316.066v.156h3.175l.223-1.405zm5.845.745c.33-.4.505-.904.491-1.422 0-.624-.163-1.122-.488-1.493-.357-.407-.876-.61-1.557-.61h-1.685v.155c.108.005.214.03.312.076a.347.347 0 01.156.33v3.06a.358.358 0 01-.165.34.771.771 0 01-.304.066v.156h1.745c.629-.002 1.127-.221 1.495-.658zm-1.814.362a.57.57 0 01-.062-.275v-3.042a.523.523 0 01.042-.256c.045-.069.136-.103.28-.103.432 0 .739.253.92.759.121.362.178.743.169 1.125 0 .734-.104 1.23-.313 1.489a.99.99 0 01-.801.387.267.267 0 01-.235-.084zm4.479.137a.697.697 0 01-.388-.087c-.086-.058-.129-.173-.129-.346V38.97c0-.183.054-.306.161-.367a.897.897 0 01.356-.066v-.153h-1.929v.156a.813.813 0 01.343.07c.105.063.158.184.159.364v3.004c0 .182-.056.306-.167.37a.77.77 0 01-.335.063v.156h1.929v-.16zm.645-3.432l1.415 3.709h.148l1.258-3.64a1.07 1.07 0 01.195-.378.484.484 0 01.302-.132v-.15h-1.174v.156c.129.003.257.025.38.066.06.03.095.102.095.219a.72.72 0 01-.034.19 1.932 1.932 0 01-.042.142l-.732 2.094-.871-2.29a.462.462 0 01-.027-.089.677.677 0 01-.006-.09c0-.101.029-.164.086-.19.124-.035.252-.054.38-.055v-.153h-1.836v.156a.417.417 0 01.28.117c.08.094.142.202.183.318zm5.427 3.432a.7.7 0 01-.388-.087c-.086-.058-.129-.173-.129-.346V38.97c0-.183.053-.306.162-.367a.882.882 0 01.355-.066v-.153h-1.928v.156a.804.804 0 01.342.07c.106.061.159.182.159.364v3.004c0 .182-.056.306-.166.37a.767.767 0 01-.334.063v.156h1.928l-.001-.16zm1.436 0c-.229-.01-.38-.077-.454-.205a.832.832 0 01-.071-.403v-2.43h.038l2.428 3.317h.151v-3.649c0-.19.029-.313.088-.368a.746.746 0 01.348-.13v-.155h-1.189v.156c.203.02.338.072.407.162.069.089.102.238.102.447v1.818h-.027l-1.894-2.583h-1.166v.156a.286.286 0 01.159.072c.039.037.142.162.309.373v2.928a.624.624 0 01-.088.365c-.058.084-.19.127-.387.133v.156h1.246v-.16zm4.801.277c.31.004.619-.04.915-.13.209-.058.409-.145.593-.26v-.798c0-.213.03-.358.095-.434.065-.077.19-.12.38-.128v-.157h-1.888v.157c.138-.007.276.013.405.06.102.06.153.184.153.373v.655a.472.472 0 01-.069.284c-.081.112-.239.167-.475.167-.433 0-.726-.202-.878-.606a3.892 3.892 0 01-.227-1.377c0-.627.081-1.114.244-1.46.163-.347.422-.52.778-.52.326 0 .619.166.877.498.165.228.302.475.406.737h.139v-1.447h-.156a.604.604 0 01-.089.215.17.17 0 01-.143.071 1.694 1.694 0 01-.423-.143 1.793 1.793 0 00-2.081.508c-.359.44-.547.993-.53 1.559 0 .612.171 1.12.511 1.525.36.435.848.652 1.463.651zm-50.615 12.789a.902.902 0 01.359.067c.11.06.166.18.166.356v2.931c0 .178-.058.299-.174.361a.846.846 0 01-.351.062v.152h2.023v-.152a.768.768 0 01-.407-.086c-.091-.056-.136-.168-.136-.337v-2.93c0-.18.057-.299.169-.359.119-.045.246-.066.374-.064v-.154h-2.023v.153zm4.933 0c.213.018.356.07.427.157.071.087.107.233.107.437v1.775h-.027l-1.985-2.52h-1.224v.152c.061.007.119.03.167.069.04.037.148.159.323.365v2.853a.584.584 0 01-.095.356c-.062.08-.198.123-.409.13v.152h1.309v-.152c-.241-.01-.399-.076-.475-.202a.77.77 0 01-.074-.392v-2.37h.039l2.551 3.236h.159v-3.56c0-.19.03-.305.095-.358a.804.804 0 01.364-.127v-.154h-1.248l-.004.153zm1.494-.153l-.005 1.214h.168c.035-.429.189-.721.463-.878.201-.096.421-.143.643-.139v3.181c0 .22-.037.367-.113.44-.076.075-.226.11-.454.11v.154h2.057v-.153c-.232 0-.38-.036-.458-.11-.078-.072-.11-.22-.11-.442v-3.18c.222-.005.443.042.643.139.254.153.408.446.464.878h.163V55.32h-3.461zm6.608 3.656a1.674 1.674 0 01-.906.22c-.195 0-.326-.021-.388-.068a.3.3 0 01-.095-.258v-1.454c.329 0 .557.07.685.21.127.14.211.38.252.726h.147v-2.024h-.147c-.061.337-.152.568-.268.697-.115.13-.34.19-.67.185v-1.397a.28.28 0 01.071-.228c.048-.038.16-.058.336-.058.463 0 .783.072.959.216.176.144.3.411.373.8h.146V55.32h-3.33v.153c.12 0 .238.023.348.07.112.06.168.177.168.353v2.931c0 .172-.054.29-.162.353a.805.805 0 01-.354.07v.152h3.383l.231-1.258h-.159c-.18.407-.387.685-.62.832zm4.754.154l-1.224-1.714a1.38 1.38 0 00.588-.272.933.933 0 00.364-.775c0-.443-.232-.75-.695-.923a2.863 2.863 0 00-.935-.127h-1.857v.153c.194.018.319.05.374.095.083.07.125.222.125.453v2.68c0 .223-.035.368-.106.434-.07.066-.201.104-.393.115v.152h1.938v-.152c-.199-.008-.333-.049-.4-.122-.066-.073-.095-.216-.095-.427v-1.186h.007l1.343 1.89h1.203v-.153a.438.438 0 01-.133-.028.246.246 0 01-.104-.093zm-1.507-1.98c-.164.104-.435.16-.815.165v-1.53a.26.26 0 01.014-.106.254.254 0 01.059-.091c.047-.041.149-.061.304-.061.285 0 .482.115.589.344.07.175.102.364.095.553-.001.38-.085.623-.246.726zm4.608-1.677c.213.018.356.07.426.157.073.087.108.233.108.437v1.775h-.03l-1.983-2.52h-1.225v.152c.062.006.12.03.168.069.041.037.149.159.323.365v2.853a.577.577 0 01-.095.356c-.06.08-.197.123-.407.13v.152h1.308v-.152c-.239-.01-.399-.076-.475-.202a.76.76 0 01-.074-.392v-2.37h.04l2.549 3.236h.159v-3.56c0-.19.031-.305.095-.358a.805.805 0 01.364-.127v-.154h-1.248l-.003.153zm4.757 2.93l-1.292-3.173h-.167l-1.282 3.308c-.061.178-.14.35-.235.513a.428.428 0 01-.335.2v.152h1.179v-.152a1.026 1.026 0 01-.291-.035c-.11-.04-.164-.104-.164-.19.009-.117.035-.232.077-.341.024-.074.079-.233.166-.474h1.282l.149.371a3 3 0 01.078.21.8.8 0 01.046.216c0 .105-.029.17-.087.196-.12.036-.244.053-.369.05v.153h1.877v-.153a.337.337 0 01-.306-.15 4.411 4.411 0 01-.326-.7zm-2.26-.44l.522-1.393h.037l.55 1.394h-1.109zm2.719-2.643l-.007 1.214h.169c.035-.429.19-.721.463-.878.201-.096.42-.143.642-.139v3.181c0 .22-.037.367-.113.44-.076.075-.226.11-.455.11v.154h2.057v-.153c-.232 0-.38-.036-.458-.11-.078-.072-.11-.22-.11-.442v-3.18a1.39 1.39 0 01.642.139c.253.153.408.446.464.878h.168l-.006-1.214h-3.456zm3.773.153a.905.905 0 01.359.067c.11.06.166.18.166.356v2.931c0 .178-.059.299-.174.361a.846.846 0 01-.351.062v.152h2.023v-.152a.773.773 0 01-.408-.086c-.095-.056-.135-.168-.135-.337v-2.93c0-.18.056-.299.17-.359a.995.995 0 01.373-.064v-.154h-2.023v.153zm4.372-.243a1.94 1.94 0 00-1.486.62c-.38.406-.57.925-.57 1.557-.012.54.183 1.066.546 1.467a2.078 2.078 0 001.471.644 2.09 2.09 0 001.495-.588c.397-.402.595-.92.595-1.555 0-.634-.199-1.152-.596-1.552a1.956 1.956 0 00-1.455-.593zm.895 3.28c-.161.536-.46.803-.896.803-.435 0-.735-.267-.899-.803a4.04 4.04 0 01-.131-1.137 4.09 4.09 0 01.128-1.123c.163-.543.464-.814.903-.815.316 0 .57.163.751.49.18.325.277.808.277 1.448a4.04 4.04 0 01-.133 1.138zm4.137-3.037c.213.018.356.07.428.157.071.087.106.233.106.437v1.775h-.029l-1.984-2.52h-1.222v.152c.062.006.12.03.167.069.042.037.149.158.324.365v2.853a.577.577 0 01-.095.356c-.061.08-.197.123-.408.13v.152h1.309v-.152c-.241-.01-.4-.076-.475-.202a.76.76 0 01-.074-.392v-2.37h.041l2.545 3.236h.159v-3.56c0-.19.031-.305.095-.358a.805.805 0 01.364-.127v-.154h-1.248l-.003.153zm4.757 2.93l-1.294-3.173h-.165l-1.283 3.308c-.061.178-.14.35-.235.513a.42.42 0 01-.335.2v.152h1.179v-.152a1.022 1.022 0 01-.291-.035c-.11-.04-.165-.104-.165-.19.01-.117.035-.232.076-.341.025-.075.081-.233.167-.474h1.282l.149.371c.032.081.058.151.079.21.024.07.039.142.044.216 0 .105-.029.17-.088.196a1.22 1.22 0 01-.367.05v.153h1.877v-.153a.336.336 0 01-.306-.15 4.315 4.315 0 01-.324-.7zm-2.26-.44l.522-1.393h.036l.549 1.394h-1.107zm5.9.997a1.538 1.538 0 01-.875.237c-.19 0-.324-.021-.39-.066-.067-.044-.1-.13-.1-.264v-2.843c0-.237.038-.386.116-.448.078-.061.234-.095.469-.101v-.155h-2.006v.153c.117 0 .233.023.34.07.106.06.159.177.159.353v2.928c0 .178-.056.298-.169.361a.775.775 0 01-.331.065v.152h3.331l.234-1.366h-.168c-.171.458-.374.766-.61.924zm2.582-2.268a.766.766 0 01-.028.157.077.077 0 01-.074.058c-.027 0-.06-.076-.101-.228a.401.401 0 00-.273-.298v-.01a.57.57 0 00.285-.1.24.24 0 00.108-.202.252.252 0 00-.135-.23.651.651 0 00-.349-.083h-.57v.067a.38.38 0 01.152.02.083.083 0 01.041.083v.881c0 .049-.014.078-.04.088a.478.478 0 01-.154.016v.068h.581v-.068a.45.45 0 01-.14-.012.086.086 0 01-.045-.037.09.09 0 01-.009-.058v-.409a.465.465 0 01.269.047.308.308 0 01.081.233.636.636 0 00.039.228.191.191 0 00.184.095.208.208 0 00.119-.027.208.208 0 00.085-.088.568.568 0 00.041-.195l-.067.004zm-.747-.365v-.398a.079.079 0 01.009-.048.074.074 0 01.034-.034.286.286 0 01.117-.02.295.295 0 01.207.062.24.24 0 01.066.176.223.223 0 01-.124.229.96.96 0 01-.308.034l-.001-.001z"/><path fill-rule="evenodd" clip-rule="evenodd" d="M152.22 55.651a.957.957 0 00-1.084-.224.967.967 0 00-.319.224 1.083 1.083 0 000 1.47.963.963 0 001.406 0 1.074 1.074 0 000-1.47h-.003zm-.073 1.393a.855.855 0 01-1.257 0 .964.964 0 010-1.316.849.849 0 01.629-.275.86.86 0 01.628.275.96.96 0 010 1.316z"/></g></symbol><symbol id="logout" viewBox="0 0 20 20"><path d="M9.167 12.5a2.503 2.503 0 01-2.5-2.5c0-1.378 1.121-2.5 2.5-2.5h4.166V2.292A2.294 2.294 0 0011.042 0h-8.75A2.294 2.294 0 000 2.292v15.416A2.294 2.294 0 002.292 20h8.75a2.294 2.294 0 002.291-2.292V12.5H9.167z"/><path d="M15.513 14.103a.835.835 0 01-.514-.77v-2.5H9.165a.834.834 0 010-1.666H15v-2.5a.835.835 0 011.422-.59l3.334 3.334a.832.832 0 010 1.178l-3.334 3.334a.833.833 0 01-.908.18z"/></symbol><symbol id="minus" viewBox="0 0 7 3"><path d="M0 .416h6.456v1.992H0V.416z"/></symbol><symbol id="mortarboard" viewBox="0 0 71 61"><path d="M69.612 12.307L36.192.19a2.026 2.026 0 00-1.384 0L1.388 12.307A2.135 2.135 0 000 14.321a2.135 2.135 0 001.383 2.017l33.42 12.21a2.028 2.028 0 001.394 0l33.42-12.21A2.135 2.135 0 0071 14.32a2.135 2.135 0 00-1.388-2.014zm-3.607 28.537V22.196l-4.16 1.52v17.128a4.313 4.313 0 00-2.098 3.722c0 1.593.844 2.982 2.097 3.723v10.506c0 1.181.932 2.138 2.08 2.138 1.15 0 2.08-.957 2.08-2.138V48.29a4.313 4.313 0 002.098-3.722 4.313 4.313 0 00-2.097-3.723z" fill="#1B498E"/><path d="M35.5 32.948a6.072 6.072 0 01-2.09-.37l-18.788-6.865v9.408c0 2.301 2.336 4.248 6.944 5.785 4.016 1.34 8.965 2.077 13.934 2.077 4.97 0 9.918-.738 13.934-2.077 4.608-1.537 6.944-3.484 6.944-5.785v-9.408L37.59 32.577a6.073 6.073 0 01-2.09.371z" fill="#1B498E"/></symbol><symbol id="open-book" viewBox="0 0 78 61"><path d="M11.932.013h-.007a2.72 2.72 0 00-1.955.83c-.53.54-.822 1.26-.822 2.026v42.825c0 1.57 1.254 2.851 2.795 2.855 6.497.016 17.382 1.402 24.89 9.442V13.174a2.78 2.78 0 00-.383-1.446C30.287 1.572 18.444.029 11.932.013zm56.92 45.681V2.87c0-.766-.292-1.486-.822-2.027a2.72 2.72 0 00-1.955-.83h-.007c-6.51.017-18.354 1.56-24.518 11.715-.25.414-.383.914-.383 1.447V57.99c7.509-8.04 18.394-9.426 24.89-9.442 1.541-.004 2.795-1.285 2.795-2.855z" fill="#1B498E"/><path d="M75.209 9.89h-2.024v35.804c0 4.01-3.193 7.28-7.118 7.29-5.51.013-14.597 1.115-21.032 7.347 11.13-2.788 22.862-.975 29.549.584a2.737 2.737 0 002.366-.552 2.865 2.865 0 001.05-2.23V12.744c0-1.575-1.253-2.856-2.791-2.856zM4.814 45.694V9.89H2.791C1.252 9.89 0 11.17 0 12.745V58.13c0 .874.382 1.687 1.049 2.23.668.546 1.53.748 2.366.553 6.687-1.56 18.42-3.372 29.549-.584-6.435-6.231-15.521-7.334-21.032-7.347-3.925-.01-7.118-3.28-7.118-7.289z" fill="#1B498E"/></symbol><symbol id="plus" viewBox="0 0 12 11"><path d="M11.207 6.56H6.84v4.296H4.823V6.56H.455V4.664h4.368V.344H6.84v4.32h4.368V6.56z"/></symbol><symbol id="profile" viewBox="0 0 20 20"><path d="M10 10c2.762 0 5-2.237 5-5s-2.238-5-5-5C7.237 0 5 2.237 5 5s2.237 5 5 5zm0 2.5c-3.338 0-10 1.675-10 5V20h20v-2.5c0-3.325-6.662-5-10-5z"/></symbol><symbol id="remove" viewBox="0 0 17 17"><path d="M1 1l15 15m0-15L1 16"/></symbol><symbol id="sand-clock" viewBox="0 0 13 20"><path d="M10.67 13.856l-4.435-3.374-4.348 3.372a1.474 1.474 0 00-.575 1.169v1.862h9.946v-1.851a1.492 1.492 0 00-.588-1.178zM.083 0h12.238c.046 0 .083.037.083.083v2.184a.083.083 0 01-.083.083H.083A.083.083 0 010 2.267V.083C0 .037.037 0 .083 0zm0 17.65h12.238c.046 0 .083.038.083.083v2.184a.083.083 0 01-.083.083H.083A.083.083 0 010 19.917v-2.184c0-.046.037-.083.083-.083zM1.258 4.825c0 .45.205.876.558 1.156l4.413 3.53 4.416-3.53c.352-.28.558-.705.558-1.156v-1.71H1.258v1.71z"/></symbol><symbol id="scale" viewBox="0 0 164 810"><path d="M38 37h23.5M38 69h23.5M38 101h23.5M38 165h23.5M38 197h23.5M38 229h23.5M38 293h23.5M88 261H38m0 64h23.5M38 357h23.5M38 421h23.5M38 549h23.5M38 677h23.5M38 389h65M38 517h82M38 645h110M38 773h125M38 453h23.5M38 581h23.5M38 709h23.5M38 485h23.5M38 613h23.5M38 741h23.5M73 133H38" stroke="#C6D2E4" stroke-linecap="square"/><path fill="#C6D2E4" d="M48 0h1v810h-1z"/><path d="M16.928 137.04v.96H9.564v-.765l4.364-4.275c.55-.54.92-1.005 1.11-1.395.2-.4.3-.8.3-1.2 0-.62-.214-1.1-.644-1.44-.42-.35-1.026-.525-1.816-.525-1.23 0-2.184.39-2.864 1.17l-.765-.66c.41-.48.93-.85 1.56-1.11.64-.26 1.36-.39 2.16-.39 1.07 0 1.915.255 2.535.765.63.5.944 1.19.944 2.07 0 .54-.12 1.06-.36 1.56s-.695 1.075-1.365 1.725l-3.57 3.51h5.775zm4.116-5.235c1.52 0 2.625.275 3.315.825.7.54 1.05 1.3 1.05 2.28a3.1 3.1 0 01-.435 1.635c-.28.48-.705.86-1.275 1.14-.57.27-1.27.405-2.1.405-.75 0-1.465-.12-2.145-.36-.67-.25-1.21-.58-1.62-.99l.525-.855c.35.36.81.655 1.38.885.57.22 1.185.33 1.845.33.87 0 1.54-.195 2.01-.585.48-.39.72-.91.72-1.56 0-.72-.27-1.265-.81-1.635-.53-.37-1.43-.555-2.7-.555h-2.235l.54-5.265h5.745v.96h-4.8l-.36 3.345h1.35zm-9.932 128c1.52 0 2.625.275 3.315.825.7.54 1.05 1.3 1.05 2.28a3.1 3.1 0 01-.435 1.635c-.28.48-.705.86-1.275 1.14-.57.27-1.27.405-2.1.405-.75 0-1.465-.12-2.145-.36-.67-.25-1.21-.58-1.62-.99l.525-.855c.35.36.81.655 1.38.885.57.22 1.185.33 1.845.33.87 0 1.54-.195 2.01-.585.48-.39.72-.91.72-1.56 0-.72-.27-1.265-.81-1.635-.53-.37-1.43-.555-2.7-.555H8.637l.54-5.265h5.745v.96h-4.8l-.36 3.345h1.35zm9.921 6.285a3.81 3.81 0 01-2.175-.645c-.63-.43-1.125-1.045-1.485-1.845-.35-.81-.525-1.76-.525-2.85s.175-2.035.525-2.835c.36-.81.855-1.43 1.485-1.86a3.81 3.81 0 012.175-.645c.81 0 1.53.215 2.16.645.64.43 1.14 1.05 1.5 1.86.36.8.54 1.745.54 2.835 0 1.09-.18 2.04-.54 2.85-.36.8-.86 1.415-1.5 1.845-.63.43-1.35.645-2.16.645zm0-.99c.61 0 1.145-.17 1.605-.51.47-.34.835-.835 1.095-1.485.26-.65.39-1.435.39-2.355 0-.92-.13-1.705-.39-2.355-.26-.65-.625-1.145-1.095-1.485-.46-.34-.995-.51-1.605-.51s-1.15.17-1.62.51c-.46.34-.82.835-1.08 1.485-.26.65-.39 1.435-.39 2.355 0 .92.13 1.705.39 2.355.26.65.62 1.145 1.08 1.485.47.34 1.01.51 1.62.51zM17.14 383.5v.765L12.743 394h-1.17l4.32-9.54h-5.4v1.965H9.43V383.5h7.71zm3.904 4.305c1.52 0 2.625.275 3.315.825.7.54 1.05 1.3 1.05 2.28a3.1 3.1 0 01-.435 1.635c-.28.48-.705.86-1.275 1.14-.57.27-1.27.405-2.1.405-.75 0-1.465-.12-2.145-.36-.67-.25-1.21-.58-1.62-.99l.525-.855c.35.36.81.655 1.38.885.57.22 1.185.33 1.845.33.87 0 1.54-.195 2.01-.585.48-.39.72-.91.72-1.56 0-.72-.27-1.265-.81-1.635-.53-.37-1.43-.555-2.7-.555h-2.235l.54-5.265h5.745v.96h-4.8l-.36 3.345h1.35zM4.407 511.5V522h-1.08v-9.54H.852v-.96h3.555zm6.695 10.59a3.81 3.81 0 01-2.175-.645c-.63-.43-1.125-1.045-1.485-1.845-.35-.81-.525-1.76-.525-2.85s.175-2.035.525-2.835c.36-.81.855-1.43 1.485-1.86a3.81 3.81 0 012.175-.645c.81 0 1.53.215 2.16.645.64.43 1.14 1.05 1.5 1.86.36.8.54 1.745.54 2.835 0 1.09-.18 2.04-.54 2.85-.36.8-.86 1.415-1.5 1.845-.63.43-1.35.645-2.16.645zm0-.99c.61 0 1.145-.17 1.605-.51.47-.34.835-.835 1.095-1.485.26-.65.39-1.435.39-2.355 0-.92-.13-1.705-.39-2.355-.26-.65-.625-1.145-1.095-1.485-.46-.34-.995-.51-1.605-.51s-1.15.17-1.62.51c-.46.34-.82.835-1.08 1.485-.26.65-.39 1.435-.39 2.355 0 .92.13 1.705.39 2.355.26.65.62 1.145 1.08 1.485.47.34 1.01.51 1.62.51zm9.931.99a3.81 3.81 0 01-2.175-.645c-.63-.43-1.125-1.045-1.485-1.845-.35-.81-.525-1.76-.525-2.85s.175-2.035.525-2.835c.36-.81.855-1.43 1.485-1.86a3.81 3.81 0 012.175-.645c.81 0 1.53.215 2.16.645.64.43 1.14 1.05 1.5 1.86.36.8.54 1.745.54 2.835 0 1.09-.18 2.04-.54 2.85-.36.8-.86 1.415-1.5 1.845-.63.43-1.35.645-2.16.645zm0-.99c.61 0 1.145-.17 1.605-.51.47-.34.835-.835 1.095-1.485.26-.65.39-1.435.39-2.355 0-.92-.13-1.705-.39-2.355-.26-.65-.625-1.145-1.095-1.485-.46-.34-.995-.51-1.605-.51s-1.15.17-1.62.51c-.46.34-.82.835-1.08 1.485-.26.65-.39 1.435-.39 2.355 0 .92.13 1.705.39 2.355.26.65.62 1.145 1.08 1.485.47.34 1.01.51 1.62.51zM9.249 639.5V650h-1.08v-9.54H5.694v-.96h3.555zm9.68 9.54v.96h-7.365v-.765l4.364-4.275c.55-.54.92-1.005 1.11-1.395.2-.4.3-.8.3-1.2 0-.62-.215-1.1-.645-1.44-.42-.35-1.025-.525-1.815-.525-1.23 0-2.184.39-2.864 1.17l-.765-.66c.41-.48.93-.85 1.56-1.11.64-.26 1.36-.39 2.16-.39 1.07 0 1.915.255 2.534.765.63.5.945 1.19.945 2.07 0 .54-.12 1.06-.36 1.56s-.695 1.075-1.364 1.725l-3.57 3.51h5.774zm4.115-5.235c1.52 0 2.625.275 3.315.825.7.54 1.05 1.3 1.05 2.28a3.1 3.1 0 01-.435 1.635c-.28.48-.705.86-1.275 1.14-.57.27-1.27.405-2.1.405-.75 0-1.465-.12-2.145-.36-.67-.25-1.21-.58-1.62-.99l.525-.855c.35.36.81.655 1.38.885.57.22 1.185.33 1.845.33.87 0 1.54-.195 2.01-.585.48-.39.72-.91.72-1.56 0-.72-.27-1.265-.81-1.635-.53-.37-1.43-.555-2.7-.555h-2.235l.54-5.265h5.745v.96h-4.8l-.36 3.345h1.35zM7.842 767.5V778h-1.08v-9.54H4.287v-.96h3.555zm5.27 4.305c1.52 0 2.625.275 3.315.825.7.54 1.05 1.3 1.05 2.28a3.1 3.1 0 01-.435 1.635c-.28.48-.705.86-1.275 1.14-.57.27-1.27.405-2.1.405-.75 0-1.465-.12-2.145-.36-.67-.25-1.21-.58-1.62-.99l.525-.855c.35.36.81.655 1.38.885.57.22 1.185.33 1.845.33.87 0 1.54-.195 2.01-.585.48-.39.72-.91.72-1.56 0-.72-.27-1.265-.81-1.635-.53-.37-1.43-.555-2.7-.555h-2.235l.54-5.265h5.745v.96h-4.8l-.36 3.345h1.35zm9.921 6.285a3.81 3.81 0 01-2.175-.645c-.63-.43-1.125-1.045-1.485-1.845-.35-.81-.525-1.76-.525-2.85s.175-2.035.525-2.835c.36-.81.855-1.43 1.485-1.86a3.81 3.81 0 012.175-.645c.81 0 1.53.215 2.16.645.64.43 1.14 1.05 1.5 1.86.36.8.54 1.745.54 2.835 0 1.09-.18 2.04-.54 2.85-.36.8-.86 1.415-1.5 1.845-.63.43-1.35.645-2.16.645zm0-.99c.61 0 1.145-.17 1.605-.51.47-.34.835-.835 1.095-1.485.26-.65.39-1.435.39-2.355 0-.92-.13-1.705-.39-2.355-.26-.65-.625-1.145-1.095-1.485-.46-.34-.995-.51-1.605-.51s-1.15.17-1.62.51c-.46.34-.82.835-1.08 1.485-.26.65-.39 1.435-.39 2.355 0 .92.13 1.705.39 2.355.26.65.62 1.145 1.08 1.485.47.34 1.01.51 1.62.51z" fill="#fff"/></symbol><symbol id="scuba-diving" viewBox="0 0 61 61"><path d="M34.074 43.129c-4.927 0-8.935 4.009-8.935 8.936 0 4.926 4.008 8.935 8.935 8.935 4.927 0 8.936-4.009 8.936-8.935 0-4.927-4.009-8.936-8.936-8.936zm1.787 10.723h-3.574v-3.575h3.574v3.575zM43.01 0H28.712c-6.31 0-11.99 3.853-14.637 9.495 2.16-1.31 4.783-2.108 7.488-2.108h28.594c2.705 0 5.328.798 7.488 2.108C54.999 3.853 49.319 0 43.009 0zm7.148 10.96H21.564c-5.912 0-10.841 4.81-10.841 10.724 0 5.912 4.929 10.722 10.841 10.722h3.575c3.783 0 7.216-1.979 9.186-5.295l1.536-2.588 1.536 2.588c1.97 3.316 5.403 5.295 9.187 5.295h3.574c5.913 0 10.842-4.81 10.842-10.722 0-5.913-4.929-10.723-10.842-10.723z" fill="#1B498E"/><path d="M35.862 31.071a14.095 14.095 0 01-7.351 4.475c1.637 2.446 4.326 4.009 7.35 4.009 3.025 0 5.714-1.563 7.352-4.009a14.09 14.09 0 01-7.351-4.475zM22.148 48.49h-2.37c-6.91 0-12.63-5.6-12.63-12.51v-3.574H0v3.575c0 10.856 8.92 19.658 19.777 19.658h2.37c-.342-1.14-.582-2.324-.582-3.575 0-1.25.24-2.434.583-3.574zm-15-23.232H0v3.574h7.148v-3.574zM7.148 0H0v21.684h7.148V0z" fill="#1B498E"/></symbol><symbol id="share" viewBox="-21 0 512 512"><path d="M453.332 85.332c0 38.293-31.039 69.336-69.332 69.336s-69.332-31.043-69.332-69.336C314.668 47.043 345.707 16 384 16s69.332 31.043 69.332 69.332zm0 0"/><path d="M384 170.668c-47.063 0-85.332-38.273-85.332-85.336C298.668 38.273 336.938 0 384 0s85.332 38.273 85.332 85.332c0 47.063-38.27 85.336-85.332 85.336zM384 32c-29.418 0-53.332 23.938-53.332 53.332 0 29.398 23.914 53.336 53.332 53.336s53.332-23.938 53.332-53.336C437.332 55.938 413.418 32 384 32zm69.332 394.668C453.332 464.957 422.293 496 384 496s-69.332-31.043-69.332-69.332c0-38.293 31.039-69.336 69.332-69.336s69.332 31.043 69.332 69.336zm0 0"/><path d="M384 512c-47.063 0-85.332-38.273-85.332-85.332 0-47.063 38.27-85.336 85.332-85.336s85.332 38.273 85.332 85.336c0 47.059-38.27 85.332-85.332 85.332zm0-138.668c-29.418 0-53.332 23.938-53.332 53.336C330.668 456.063 354.582 480 384 480s53.332-23.938 53.332-53.332c0-29.398-23.914-53.336-53.332-53.336zM154.668 256c0 38.293-31.043 69.332-69.336 69.332C47.043 325.332 16 294.293 16 256s31.043-69.332 69.332-69.332c38.293 0 69.336 31.039 69.336 69.332zm0 0"/><path d="M85.332 341.332C38.273 341.332 0 303.062 0 256s38.273-85.332 85.332-85.332c47.063 0 85.336 38.27 85.336 85.332s-38.273 85.332-85.336 85.332zm0-138.664C55.914 202.668 32 226.602 32 256s23.914 53.332 53.332 53.332c29.422 0 53.336-23.934 53.336-53.332s-23.914-53.332-53.336-53.332zm0 0"/><path d="M135.703 245.762c-7.426 0-14.637-3.864-18.562-10.774-5.825-10.218-2.239-23.254 7.98-29.101l197.95-112.852c10.218-5.867 23.253-2.281 29.1 7.977 5.825 10.218 2.24 23.254-7.98 29.101L146.238 242.965a21.195 21.195 0 01-10.535 2.797zm197.93 176c-3.586 0-7.211-.899-10.54-2.797L125.142 306.113c-10.22-5.824-13.801-18.86-7.977-29.101 5.8-10.239 18.856-13.844 29.098-7.977l197.953 112.852c10.219 5.824 13.8 18.86 7.976 29.101-3.945 6.91-11.156 10.774-18.558 10.774zm0 0"/></symbol><symbol id="star-empty" viewBox="0 0 15 15"><path d="M11.643 14.697a.798.798 0 00.777-.975l-.966-4.251 3.273-2.87a.797.797 0 00-.452-1.395l-4.33-.393L8.233.806a.797.797 0 00-1.466 0L5.055 4.813l-4.33.393A.796.796 0 00.272 6.6l3.273 2.87-.965 4.25a.797.797 0 001.186.861l3.734-2.23 3.734 2.232a.799.799 0 00.409.114zM7.5 11.39a.8.8 0 00-.409.113L3.567 13.61l.91-4.012a.797.797 0 00-.252-.777l-3.09-2.71 4.089-.37a.796.796 0 00.662-.484L7.5 1.477l1.616 3.78c.113.27.366.455.66.482l4.089.371-3.09 2.71a.795.795 0 00-.253.778l.91 4.012-3.523-2.107a.8.8 0 00-.41-.113zm2.478-6.5v.001-.001zm-4.955-.002v.001z" fill="#4F5764"/></symbol><symbol id="star" viewBox="0 0 16 15"><path d="M.29 5.753a.796.796 0 01.685-.547l4.33-.393L7.016.806a.797.797 0 011.467 0l1.711 4.007 4.331.393a.799.799 0 01.453 1.395l-3.273 2.87.965 4.25a.797.797 0 01-1.186.863L7.75 12.35l-3.733 2.232a.797.797 0 01-1.187-.861l.965-4.251L.522 6.6a.798.798 0 01-.233-.848z" fill="#2C60AE"/></symbol><symbol id="textbook" viewBox="0 0 47 61"><g clip-path="url(#clip0)" fill="#1B498E"><path d="M-.05 49.862v.002c0 3.293 2.712 5.973 6.046 5.973h3.34v-5.973c0-1.001.82-1.811 1.833-1.811h35.435v-4.164H5.996c-3.334 0-6.047 2.68-6.047 5.973z"/><path d="M25.046 55.837h20.947c.337 0 .61-.27.61-.604v-3.558H25.047v4.162zM7.344 40.268V0H5.996C2.662 0-.051 2.68-.051 5.975v36.384c2.57-2.029 4.79-2.091 7.395-2.091zM11.01 0v40.268h35.594V.604A.607.607 0 0045.993 0H11.01zm29.337 16.751c0 1-.821 1.811-1.833 1.811H19.1a1.822 1.822 0 01-1.833-1.81v-8.93c0-.999.82-1.81 1.833-1.81h19.413c1.012 0 1.833.811 1.833 1.81v8.93zM13.002 60.395c0 .51.602.79 1 .466l2.022-1.65a1.848 1.848 0 012.334 0l2.022 1.65c.399.325 1 .045 1-.466v-8.72h-8.378v8.72z"/><path d="M20.934 9.634H36.68v5.306H20.934V9.634z"/></g></symbol><symbol id="views" viewBox="0 0 34 20"><path d="M16.995-.02C10.5-.02 4.612 3.492.266 9.197a1.318 1.318 0 000 1.587c4.346 5.712 10.235 9.224 16.729 9.224s12.383-3.512 16.729-9.217a1.318 1.318 0 000-1.587C29.378 3.492 23.489-.02 16.994-.02zm.466 17.066c-4.311.268-7.871-3.244-7.6-7.513.223-3.518 3.108-6.37 6.668-6.59 4.31-.269 7.87 3.243 7.6 7.511-.23 3.512-3.115 6.365-6.668 6.591zm-.216-3.258c-2.322.144-4.241-1.746-4.088-4.041.118-1.897 1.675-3.43 3.594-3.554 2.323-.144 4.242 1.746 4.089 4.042-.125 1.903-1.683 3.436-3.595 3.553z"/></symbol><symbol id="fb" viewBox="0 0 512 512"><path d="M504 256C504 119 393 8 256 8S8 119 8 256c0 123.78 90.69 226.38 209.25 245V327.69h-63V256h63v-54.64c0-62.15 37-96.48 93.67-96.48 27.14 0 55.52 4.84 55.52 4.84v61h-31.28c-30.8 0-40.41 19.12-40.41 38.73V256h68.78l-11 71.69h-57.78V501C413.31 482.38 504 379.78 504 256z"/></symbol><symbol id="insta" viewBox="0 0 448 512"><path d="M224.1 141c-63.6 0-114.9 51.3-114.9 114.9s51.3 114.9 114.9 114.9S339 319.5 339 255.9 287.7 141 224.1 141zm0 189.6c-41.1 0-74.7-33.5-74.7-74.7s33.5-74.7 74.7-74.7 74.7 33.5 74.7 74.7-33.6 74.7-74.7 74.7zm146.4-194.3c0 14.9-12 26.8-26.8 26.8-14.9 0-26.8-12-26.8-26.8s12-26.8 26.8-26.8 26.8 12 26.8 26.8zm76.1 27.2c-1.7-35.9-9.9-67.7-36.2-93.9-26.2-26.2-58-34.4-93.9-36.2-37-2.1-147.9-2.1-184.9 0-35.8 1.7-67.6 9.9-93.9 36.1s-34.4 58-36.2 93.9c-2.1 37-2.1 147.9 0 184.9 1.7 35.9 9.9 67.7 36.2 93.9s58 34.4 93.9 36.2c37 2.1 147.9 2.1 184.9 0 35.9-1.7 67.7-9.9 93.9-36.2 26.2-26.2 34.4-58 36.2-93.9 2.1-37 2.1-147.8 0-184.8zM398.8 388c-7.8 19.6-22.9 34.7-42.6 42.6-29.5 11.7-99.5 9-132.1 9s-102.7 2.6-132.1-9c-19.6-7.8-34.7-22.9-42.6-42.6-11.7-29.5-9-99.5-9-132.1s-2.6-102.7 9-132.1c7.8-19.6 22.9-34.7 42.6-42.6 29.5-11.7 99.5-9 132.1-9s102.7-2.6 132.1 9c19.6 7.8 34.7 22.9 42.6 42.6 11.7 29.5 9 99.5 9 132.1s2.7 102.7-9 132.1z"/></symbol><symbol id="tiktok" viewBox="0 0 448 512"><path d="M448 209.91a210.06 210.06 0 01-122.77-39.25v178.72A162.55 162.55 0 11185 188.31v89.89a74.62 74.62 0 1052.23 71.18V0h88a121.18 121.18 0 001.86 22.17A122.18 122.18 0 00381 102.39a121.43 121.43 0 0067 20.14z"/></symbol><symbol id="vk-fill" viewBox="0 0 26 25"><path d="M13.227 0C6.324 0 .727 5.596.727 12.5S6.324 25 13.227 25s12.5-5.596 12.5-12.5S20.13 0 13.227 0zm6.34 13.852c.583.569 1.2 1.104 1.723 1.732.231.278.45.565.616.888.237.461.023.966-.39.993h-2.56c-.661.055-1.188-.212-1.631-.664-.355-.36-.683-.745-1.024-1.118a2.392 2.392 0 00-.462-.41c-.349-.227-.652-.158-.852.207-.204.37-.25.782-.27 1.195-.028.604-.21.762-.816.79-1.294.06-2.523-.136-3.665-.788-1.007-.576-1.786-1.388-2.465-2.309-1.323-1.793-2.336-3.761-3.247-5.786-.204-.456-.054-.7.449-.71a71.264 71.264 0 012.507 0c.34.005.565.2.696.52a15.558 15.558 0 001.7 3.15c.184.261.373.521.642.706.296.203.522.136.662-.195.09-.21.128-.436.148-.661.066-.773.074-1.545-.04-2.315-.072-.481-.343-.792-.823-.883-.245-.047-.209-.137-.09-.277.206-.241.4-.39.786-.39l2.893-.001c.456.09.559.294.62.753l.003 3.216c-.005.177.09.704.409.82.255.085.424-.12.577-.282.694-.736 1.188-1.605 1.631-2.505.195-.397.364-.807.528-1.218.121-.304.31-.454.654-.449l2.786.003c.082 0 .166.001.247.015.47.08.598.283.453.74-.229.72-.673 1.32-1.107 1.92-.466.644-.962 1.265-1.423 1.912-.424.59-.39.888.136 1.4z"/></symbol><symbol id="vk" viewBox="0 0 576 512"><path d="M545 117.7c3.7-12.5 0-21.7-17.8-21.7h-58.9c-15 0-21.9 7.9-25.6 16.7 0 0-30 73.1-72.4 120.5-13.7 13.7-20 18.1-27.5 18.1-3.7 0-9.4-4.4-9.4-16.9V117.7c0-15-4.2-21.7-16.6-21.7h-92.6c-9.4 0-15 7-15 13.5 0 14.2 21.2 17.5 23.4 57.5v86.8c0 19-3.4 22.5-10.9 22.5-20 0-68.6-73.4-97.4-157.4-5.8-16.3-11.5-22.9-26.6-22.9H38.8c-16.8 0-20.2 7.9-20.2 16.7 0 15.6 20 93.1 93.1 195.5C160.4 378.1 229 416 291.4 416c37.5 0 42.1-8.4 42.1-22.9 0-66.8-3.4-73.1 15.4-73.1 8.7 0 23.7 4.4 58.7 38.1 40 40 46.6 57.9 69 57.9h58.9c16.8 0 25.3-8.4 20.4-25-11.2-34.9-86.9-106.7-90.3-111.5-8.7-11.2-6.2-16.2 0-26.2.1-.1 72-101.3 79.4-135.6z"/></symbol></svg>